<svg width="360mm" height="800mm" viewBox="0 0 360 800" version="1.1" id="svg1" inkscape:version="1.4.3 (0d15f75, 2025-12-25)" sodipodi:docname="spring_mobile.svg" xml:space="preserve" xmlns:inkscape="http://www.inkscape.org/namespaces/inkscape" xmlns:sodipodi="http://sodipodi.sourceforge.net/DTD/sodipodi-0.dtd" xmlns:xlink="http://www.w3.org/1999/xlink" xmlns="http://www.w3.org/2000/svg" xmlns:svg="http://www.w3.org/2000/svg" preserveAspectRatio="xMidYMid" style="fill: rgb(0, 0, 0); stroke: none; stroke-width: 1px; stroke-linejoin: miter; stroke-linecap: butt; stroke-miterlimit: 4; opacity: 1; filter: none;"><sodipodi:namedview id="namedview1" pagecolor="#ffffff" bordercolor="#000000" borderopacity="0.25" inkscape:showpageshadow="2" inkscape:pageopacity="0.0" inkscape:pagecheckerboard="0" inkscape:deskcolor="#d1d1d1" inkscape:document-units="mm" inkscape:zoom="0.094764485" inkscape:cx="390.44163" inkscape:cy="1218.811" inkscape:window-width="958" inkscape:window-height="1101" inkscape:window-x="952" inkscape:window-y="0" inkscape:window-maximized="0" inkscape:current-layer="svg1"></sodipodi:namedview><defs id="defs1"><linearGradient id="linearGradient7" inkscape:collect="always"><stop style="stop-color:#bfd1dc;stop-opacity:1;" offset="0" id="stop7"></stop><stop style="stop-color:#c7d6dd;stop-opacity:1;" offset="0.38147011" id="stop10"></stop><stop style="stop-color:#e16b5c;stop-opacity:1;" offset="1" id="stop8"></stop></linearGradient><linearGradient inkscape:collect="always" xlink:href="#linearGradient7" id="linearGradient8-4" x1="109.88719" y1="3.4478526" x2="115.06703" y2="296.90793" gradientUnits="userSpaceOnUse" spreadMethod="pad" gradientTransform="matrix(2.4268304,0,0,2.4268304,-116.3628,10.927042)"></linearGradient></defs><g inkscape:groupmode="layer" id="layer3" inkscape:label="Sky" style="display:inline;fill:#000000"><path style="display:inline;opacity:1;fill:url(#linearGradient8-4);fill-opacity:1;fill-rule:nonzero;stroke-width:0.642098" d=" M 46.536875,-50.16034 C -40.90192,-51.35813 -187.03251,2.5424998 -187.03251,2.5424998 l 21.56025,235.9649602 c 0,0 13.17571,97.02112 -32.34037,192.84447 -45.51609,95.82333 62.28517,444.3807 62.28517,444.3807 l 621.65388,-49.10946 c 0,0 126.96589,-112.59241 57.49402,-352.15073 -69.47193,-239.55835 -69.47193,-239.55835 -69.47193,-239.55835 0,0 27.54921,-245.547299 -67.07633,-280.28326 -94.62556,-34.73596 -360.535305,-4.79117 -360.535305,-4.79117 z " id="path4-4" inkscape:label="sky"></path></g><g inkscape:groupmode="layer" id="layer4" inkscape:label="Sun" style="display:inline"><ellipse style="display:inline;fill:#d94a45;fill-opacity:1;stroke-width:0.510174;stroke-dasharray:none" id="path6-6" cx="171.71855" cy="370.10318" rx="105.47212" ry="101.67132" inkscape:label="sun"></ellipse></g><g inkscape:label="Foreground 3" inkscape:groupmode="layer" id="layer1-5" transform="translate(-1.0926367,-95.495827)" style="display:inline"><path style="fill:#dde8db;fill-opacity:1;stroke-width:0.746934" d=" m -126.32196,588.59337 c -82.25457,237.96274 88.047182,449.11253 88.047182,449.11253 L 418.18027,896.93939 c 0,0 69.51093,-251.36901 30.12142,-392.13572 -39.38956,-140.76666 -574.62365,83.7897 -574.62365,83.7897 z " id="path2" inkscape:label="hill"></path></g><g inkscape:label="Foreground 2" inkscape:groupmode="layer" id="layer1-4" transform="translate(-1.0926367,-95.495827)" style="display:inline"><path style="display:inline;fill:#c9d8c5;fill-opacity:1;stroke-width:0.724604" d=" m -215.08761,681.02898 c 0,0 93.1374,-122.21519 237.552675,-157.1338 C 166.88034,488.97651 393.96814,632.1429 393.96814,632.1429 l -20.92976,359.66186 -255.34294,-19.2052 -194.64669,10.47558 z " id="path1" inkscape:label="hill"></path></g><g inkscape:label="Foreground 1" inkscape:groupmode="layer" id="layer1" style="display:inline"><path style="display: inline; fill: rgb(159, 175, 176); fill-opacity: 1; stroke-width: 0.425005; stroke: none; stroke-linejoin: miter; stroke-linecap: butt; stroke-miterlimit: 4; opacity: 1; filter: none;" d="M 99.895304 811.66742 C 63.425473 751.41292 54.704429 756.96267 51.533142 693.53686 C 48.361852 630.11109 65.01112 594.43407 65.01112 594.43407 L 88.00297 566.68529 L 122.09433000000001 553.2073 L 216.44021 575.40634 L 227.53972000000002 589.67715 L 222.78277000000003 572.23505 L 179.17754000000002 554.00013 L 149.84312000000003 542.90062 L 172.83497000000003 531.8011 L 201.37657000000002 537.35085 L 171.24932 525.45852 L 168.87085000000002 502.46666000000005 L 165.69957000000002 524.66569 L 145.87900000000002 531.8011 L 114.16611000000002 538.93651 L 119.71586000000002 522.28723 L 131.60821 508.80924000000005 L 141.12207 500.88102000000003 L 121.3015 507.22361 L 108.61635000000001 519.90876 L 102.27377000000001 538.93651 L 72.939344 546.86473 C 72.939344 546.86473 42.019271 566.68529 43.60491400000001 545.27908 C 45.190557000000005 523.87287 55.49725600000001 505.63796 55.49725600000001 505.63796 L 88.00297 485.8174 L 107.82353 470.75378 L 130.81538 483.43893 L 111.78764000000001 464.41119000000003 L 144.29336 464.41119000000003 L 154.60006 475.51071 L 168.07803 480.26764000000003 L 185.52013000000002 485.8174 L 205.34069000000002 492.15997000000004 L 203.75504000000004 511.98054 L 210.89044000000004 496.1241 L 237.84642000000005 500.08821 L 214.06173000000004 487.40304000000003 L 193.44835000000003 475.51071 L 197.41246000000004 460.44708 L 184.72731000000005 470.75378 L 164.90674000000004 462.03272 L 196.61964000000003 449.34756999999996 L 226.74689000000004 450.93321 L 245.77464000000003 468.3753 L 261.63108000000005 490.57433 L 267.97366000000005 510.39489999999995 L 254.49568000000005 526.2513399999999 L 268.76648000000006 516.7374699999999 L 277.4875200000001 541.3149699999999 L 276.69470000000007 515.1518299999999 L 285.4157600000001 500.0882099999999 L 272.7305900000001 502.4666599999999 L 265.5951900000001 478.6819999999999 L 276.6947000000001 475.5107099999999 L 286.2085800000001 478.6819999999999 L 295.7224500000001 483.4389299999999 L 291.7583300000001 475.5107099999999 L 282.2444700000001 469.9609399999999 L 269.5593000000001 469.1681299999999 L 261.6310800000001 470.7537799999999 L 248.1531000000001 451.72602999999987 L 265.5951900000001 445.38344999999987 L 241.0177000000001 447.76191999999986 L 228.3325400000001 440.62651999999986 L 218.8186700000001 419.22031999999984 L 215.6473700000001 435.07676999999984 L 196.61964000000012 436.66240999999985 L 205.3406900000001 410.49926999999985 L 218.0258500000001 404.15668999999986 L 241.8105300000001 403.36386999999985 L 216.44021000000012 395.43563999999986 L 198.9981100000001 402.57104999999984 L 184.7273100000001 392.26434999999987 L 189.4842400000001 406.53515999999985 L 195.0340000000001 411.29208999999986 L 183.1416500000001 436.66240999999985 L 159.3569900000001 445.38344999999987 L 134.77949000000012 444.59062999999986 L 147.46465000000012 428.73418999999984 L 166.4923900000001 423.18442999999985 L 145.08618000000013 420.80595999999986 L 133.98667000000012 407.32797999999985 L 135.5723200000001 423.18442999999985 L 126.05845000000011 439.04087999999985 L 104.6522400000001 446.1762699999998 L 92.75990700000011 450.1403899999998 L 95.13837400000011 427.1485399999998 L 83.24603200000011 450.9332099999998 L 61.83983300000011 454.1044999999998 C 61.83983300000011 454.1044999999998 34.88386600000011 472.3394199999998 33.298223000000114 454.1044999999998 C 31.712579000000115 435.8695899999998 20.613063000000114 396.2284599999998 38.84798000000011 395.4356399999998 C 57.08289600000011 394.6428199999998 73.73216800000012 390.6787099999998 73.73216800000012 390.6787099999998 L 61.04700600000012 409.7064399999998 L 45.19055700000012 415.2561999999998 L 63.42547300000012 415.2561999999998 L 64.21830000000011 427.9413599999998 L 68.97523000000011 412.8777299999998 L 80.86756900000012 393.0571699999998 L 98.30966100000012 391.4715299999998 L 102.27377000000011 408.9136199999998 L 107.03070000000011 391.4715299999998 L 128.43691000000013 386.7145899999998 L 149.05029000000013 377.9935499999998 L 168.87085000000013 368.4796699999998 L 195.03400000000013 361.34427999999986 L 214.06173000000013 368.4796699999998 L 196.61964000000012 352.6232299999998 L 197.41246000000012 332.8026699999998 L 187.89860000000013 349.4519399999998 L 166.4923900000001 355.0016999999998 L 156.1857000000001 345.4878299999998 L 156.1857000000001 336.7667799999998 L 154.6000600000001 321.7031499999998 L 145.8790000000001 336.7667799999998 L 147.4646500000001 349.4519399999998 L 151.4287700000001 356.5873399999998 L 128.4369100000001 367.6868499999998 L 107.82353000000009 371.6509699999998 L 111.7876400000001 353.4160499999998 L 126.0584500000001 343.1093599999998 L 107.82353000000009 348.6591099999998 L 101.48095000000009 335.9739599999998 L 102.2737700000001 351.8303999999998 L 99.1024810000001 370.0653199999998 L 66.5967630000001 373.2366199999998 L 44.39773700000009 372.4437799999998 L 57.08289600000009 353.41604999999976 L 75.3178080000001 347.86628999999976 L 84.0388560000001 334.38830999999976 L 68.18241100000009 343.90217999999976 L 56.290076000000084 347.07346999999976 L 60.25418600000008 334.38830999999976 L 68.97523000000008 325.66725999999977 L 76.11063500000009 318.53185999999977 L 63.425473 318.53185999999977 L 51.533142 329.63137999999975 L 45.983385 337.55959999999976 L 42.81209 346.28064999999975 L 36.469513 359.75862999999976 L 31.712578999999998 366.89403999999973 L 22.198707 351.8303999999997 L 30.126932 332.8026699999997 L 14.270482 344.6949999999997 L -15.063948000000002 332.8026699999997 L -2.378790300000002 348.6591099999997 L 13.477658999999997 360.5514499999997 L 21.405882999999996 375.6150799999997 L -4.757256300000005 377.2007299999997 L -25.370639000000004 825.9381999999996 Z" id="path3-6" inkscape:label="Front Tree" transform="matrix(1 0 0 1 -20 0)"><animateTransform attributeName="transform" attributeType="auto" type="skewX" values="0;3;0" calcMode="spline" keyTimes="0; 0.49; 1" keySplines=".25 0 .75 1;.25 0 .75 1" dur="4s" begin="0s" repeatCount="2" additive="sum" accumulate="none" id="animateTransform9186" style="stroke: none; stroke-width: 0.425005px; stroke-linejoin: miter; stroke-linecap: butt; stroke-miterlimit: 4; opacity: 1; filter: none; fill: rgb(159, 175, 176);"></animateTransform></path></g><g inkscape:groupmode="layer" id="layer2" inkscape:label="Sakura" style="display:inline" transform="translate(1.3960047,2.7920094)"><g inkscape:groupmode="layer" id="layer2-1" inkscape:label="Front Petal" style="display: inline; fill: rgb(0, 0, 0); stroke: none; stroke-width: 1px; stroke-linejoin: miter; stroke-linecap: butt; stroke-miterlimit: 4; opacity: 1; filter: none;" transform="matrix(1.754908,0,0,1.754908,0.61877881,296.83667)"><path d="M 114.10017 145.944 C 114.21452000000001 145.8714 118.07092 145.45835 121.07592000000001 150.07313 C 121.90098 148.32322 123.76437000000001 145.56474 127.65303000000002 144.20175999999998 C 127.91364000000002 144.62553999999997 127.97429000000001 145.61470999999997 128.41837 147.37082999999998 C 129.48260000000002 147.01040999999998 130.58109000000002 146.76844999999997 131.66514 146.47643 C 132.18011 147.22526 131.60004 152.19885 129.14228 154.08503 C 132.04596 154.62094 134.03048 155.89311999999998 136.23131 158.49343 C 135.33147 159.20613 134.35834 159.82627 133.40671 160.46855 C 133.7906 160.97471 133.85709 161.07406 135.06178 163.06529999999998 C 132.16651 166.51790999999997 126.306 163.96708999999998 126.306 163.96708999999998 C 126.56094 164.61608999999999 126.319 170.78736999999998 124.39168 172.43445999999997 C 123.57347999999999 171.77671999999998 122.75807999999999 171.11563999999998 121.94502 170.45153999999997 C 120.72493 171.71705999999998 120.23811 172.50615999999997 119.57947 173.03718999999995 C 116.9453 171.20544999999996 117.05291 166.85329999999996 117.17221 165.37993999999995 C 113.52264000000001 168.48958999999994 108.81343000000001 167.02031999999994 108.40595 166.48080999999993 C 108.32495 166.21742999999992 109.62621 163.62465999999992 109.71771000000001 163.47746999999993 C 108.16549 162.75834999999992 109.84890000000001 163.54506999999992 106.77382000000001 162.23280999999992 C 106.77982000000002 162.03044999999992 108.81954000000002 157.8764799999999 113.78954000000002 156.8013699999999 C 110.04694000000002 154.5211299999999 110.43548000000001 149.5394699999999 110.46235000000001 149.2408499999999 C 110.88501000000001 149.07119999999992 111.38984000000002 149.2271499999999 113.64591000000001 149.1525499999999 C 113.81222000000001 148.57020999999992 113.94919000000002 147.5119399999999 114.10027000000001 145.9439199999999 Z" fill="#ee95d0" id="path1-5" sodipodi:nodetypes="cccccccccccccccccccccc" style="display:inline;fill:#e8b7c6;fill-opacity:1;stroke-width:0.0476457" inkscape:label="petal"></path><path d="M 86.806984 120.99555 C 86.887564 120.88668999999999 90.337334 119.11424 94.801038 122.33937999999999 C 94.94149700000001 120.40983999999999 95.688044 117.16574999999999 98.826249 114.49534999999999 C 99.22184200000001 114.79703999999998 99.63420500000001 115.69818999999998 100.68019000000001 117.17707999999999 C 101.54357000000002 116.45800999999999 102.48152000000002 115.83713999999999 103.38799000000002 115.17475999999999 C 104.13784000000001 115.68825999999999 105.38547000000001 120.53764 103.77055000000001 123.18159 C 106.67266000000001 122.63727 108.98194000000001 123.11059 111.97075000000001 124.74527 C 111.38746 125.73391000000001 110.70250000000001 126.66257 110.04557000000001 127.60412000000001 C 110.58581000000001 127.93834000000001 110.68359000000001 128.00713000000002 112.52385000000001 129.43182000000002 C 111.06413 133.69473000000002 104.67835000000001 133.42246000000003 104.67835000000001 133.42246000000003 C 105.14966000000001 133.93633000000003 107.14358000000001 139.78164000000004 105.93761 142.01171000000002 C 104.93759 141.69227000000004 103.93898 141.36871000000002 102.94148000000001 141.04149 C 102.25821000000002 142.66115000000002 102.08778000000001 143.57253 101.66421000000001 144.30491 C 98.547498 143.54319 97.082575 139.44359 96.66395800000001 138.02591 C 94.37706800000001 142.2401 89.45455100000001 142.56292000000002 88.88029600000002 142.20607 C 88.70998500000002 141.98945 88.99162200000002 139.10217 89.02406300000001 138.93191000000002 C 87.31706700000001 138.81921000000003 89.17078800000002 138.94781 85.82950900000002 138.82937 C 85.76210900000001 138.63848000000002 86.17148300000001 134.02879000000001 90.42220800000001 131.23806000000002 C 86.10992900000001 130.45652 84.68071400000001 125.66849000000002 84.59838 125.38019000000001 C 84.93173900000001 125.06988000000001 85.458881 125.03382000000002 87.537137 124.15276000000001 C 87.482867 123.54958000000002 87.230046 122.51286000000002 86.807046 120.99544000000002 Z" fill="#ee95d0" id="path1-5-7" sodipodi:nodetypes="cccccccccccccccccccccc" style="display:inline;fill:#e8b7c6;fill-opacity:1;stroke-width:0.0476457" inkscape:label="petal"></path><path d="M 57.183869 127.43441 C 57.117449 127.31638 56.909621 123.44349 61.677362 120.68762 C 59.973711 119.77086 57.318001 117.76370999999999 56.163298000000005 113.80819 C 56.60031600000001 113.57043999999999 57.591302000000006 113.56237 59.368522000000006 113.21211 C 59.06508600000001 112.13025999999999 58.881756 111.02046999999999 58.647671 109.92245 C 59.422778 109.44794 64.358581 110.2911 66.111671 112.84552 C 66.80092 109.97438 68.176618 108.06017 70.890062 106.00041999999999 C 71.553997 106.93682 72.121625 107.94148999999999 72.712498 108.92585999999999 C 73.238316 108.56937999999998 73.341061 108.50824999999999 75.39342099999999 107.41092999999998 C 78.687525 110.48533999999998 75.82929399999999 116.20222999999999 75.82929399999999 116.20222999999999 C 76.49090799999999 115.98207999999998 82.64065899999999 116.55113999999999 84.18314399999998 118.56317999999999 C 83.48291699999999 119.34532999999999 82.77949399999999 120.12449999999998 82.07318399999998 120.90117 C 83.27217599999999 122.18669999999999 84.03432399999998 122.71471 84.52965099999999 123.4006 C 82.56070399999999 125.93386 78.22040599999998 125.59544 76.75544399999998 125.39811999999999 C 79.66704099999998 129.20757 77.94993499999998 133.83217 77.38956299999998 134.21044999999998 C 77.12225599999998 134.27734999999998 74.60219599999998 132.84033999999997 74.46006699999998 132.74114999999998 C 73.65958799999999 134.25302999999997 74.53454699999998 132.61373999999998 73.06093299999998 135.61485 C 72.85916599999997 135.59834999999998 68.81930199999998 133.34084 68.00945199999998 128.32077999999998 C 65.53381499999998 131.9371 60.579796999999985 131.28474999999997 60.28302399999998 131.24206999999998 C 60.136043999999984 130.81099999999998 60.31856399999998 130.31515 60.36378399999998 128.05830999999998 C 59.79108899999998 127.86132999999998 58.74157399999998 127.66838999999997 57.18378899999998 127.43430999999998 Z" id="path1-5-0" sodipodi:nodetypes="cccccccccccccccccccccc" style="display: inline; fill: rgb(232, 183, 198); fill-opacity: 1; stroke-width: 0.0476457; stroke: none; stroke-linejoin: miter; stroke-linecap: butt; stroke-miterlimit: 4; opacity: 1; filter: none;" inkscape:label="petal"></path><path d="M 66.172965 69.465616 C 66.19057500000001 69.331322 68.346269 66.107131 73.81434800000001 66.760061 C 73.00051400000001 65.00491199999999 72.078472 61.80627499999999 73.52589300000001 57.948240999999996 C 74.01820000000001 58.019980999999994 74.816156 58.607671999999994 76.448518 59.392900999999995 C 76.85430600000001 58.34512899999999 77.37296300000001 57.347016999999994 77.84394300000001 56.32789399999999 C 78.748782 56.412853999999996 82.19353600000001 60.046955 82.06505800000001 63.142422999999994 C 84.33810700000001 61.25780099999999 86.58680100000001 60.55061299999999 89.993391 60.52900699999999 C 89.963331 61.67650199999999 89.815265 62.820896999999995 89.69797200000001 63.962979999999995 C 90.33253400000001 63.992929999999994 90.451412 64.00560999999999 92.75188600000001 64.357906 C 93.54496800000001 68.793462 87.82982900000002 71.655182 87.82982900000002 71.655182 C 88.49132800000002 71.875669 93.07198000000002 76.01823999999999 93.10013700000002 78.553354 C 92.07078300000002 78.759499 91.04065200000002 78.961353 90.00970800000002 79.159475 C 90.19855100000002 80.907185 90.49194700000002 81.786721 90.47714100000002 82.632638 C 87.38249700000001 83.47958 84.11172500000002 80.606469 83.05757200000002 79.570223 C 83.10382200000002 84.364715 78.95685100000003 87.036417 78.28157000000002 87.003185 C 78.02751900000001 86.89647000000001 76.87221400000001 84.235457 76.81793200000001 84.07086 C 75.27082500000002 84.800928 76.95393400000002 84.01355 73.97521400000001 85.531902 C 73.82362400000001 85.397728 71.94391100000001 81.168834 74.30558200000002 76.665576 C 70.15605500000001 78.075539 66.58232800000002 74.583215 66.37039900000002 74.371126 C 66.51121800000001 73.938005 66.95458300000001 73.650593 68.34388900000002 71.871483 C 68.00364400000002 71.370471 67.27936600000002 70.586807 66.17296400000002 69.465486 Z" fill="#ee95d0" id="path1-5-3" sodipodi:nodetypes="cccccccccccccccccccccc" style="display:inline;fill:#e8b7c6;fill-opacity:1;stroke-width:0.0476457" inkscape:label="petal"></path><path d="M 129.69107 67.450964 C 129.57353 67.518264 125.7023 67.754854 122.91107 63.007719 C 122.00699999999999 64.718135 120.01964 67.388683 116.07280999999999 68.572742 C 115.83180999999999 68.137501 115.81638 67.146603 115.45293 65.372034 C 114.37335999999999 65.683499 113.26496 65.875069 112.16872 66.117305 C 111.68845999999999 65.34574500000001 112.49492 60.403815 115.03625 58.631795000000004 C 112.16006 57.963896000000005 110.23568999999999 56.602457 108.15584 53.904391000000004 C 109.08727999999999 53.233517000000006 110.0877 52.658441 111.06766 52.06027100000001 C 110.70728 51.53711500000001 110.64539 51.43482800000001 109.53285000000001 49.39067700000001 C 112.58270000000002 46.073822000000014 118.32067 48.88950100000001 118.32067 48.88950100000001 C 118.09561000000001 48.22954200000001 118.61896 42.075733000000014 120.61949000000001 40.51834200000001 C 121.40682000000001 41.21273900000001 122.19120000000001 41.91035400000001 122.97310000000002 42.61087300000001 C 124.24968000000001 41.40236400000001 124.77201000000002 40.63631500000001 125.45420000000001 40.135905000000015 C 128.00202000000002 42.085977000000014 127.69585000000001 46.42866900000001 127.50943000000001 47.895057000000016 C 131.29714 44.955238000000016 135.93437 46.63793900000002 136.3168 47.19548600000002 C 136.3857 47.462288000000015 134.96744 49.992955000000016 134.86931 50.13581700000002 C 136.38709 50.925041000000014 134.74135 50.06228700000002 137.75332 51.513562000000015 C 137.73832000000002 51.715446000000014 135.51088000000001 55.77197000000002 130.49698 56.61909400000002 C 134.13160000000002 59.067796000000016 133.51607 64.02652400000002 133.47560000000001 64.32360600000001 C 133.04563000000002 64.47378400000001 132.54844000000003 64.29495600000001 130.29132 64.26649600000002 C 130.0986 64.84063800000001 129.91346000000001 65.89155800000002 129.69097000000002 67.45103900000002 Z" fill="#ee95d0" id="path1-5-8" sodipodi:nodetypes="cccccccccccccccccccccc" style="display:inline;fill:#e8b7c6;fill-opacity:1;stroke-width:0.0476457" inkscape:label="petal"></path><path d="M 170.53511 93.84919 C 170.63579000000001 93.93977 172.07150000000001 97.542712 168.43576000000002 101.67884 C 170.34314 102.0025 173.50134000000003 103.05471999999999 175.86061 106.43307999999999 C 175.5226 106.79812999999999 174.58626 107.12275999999999 173.01444 108.02308 C 173.64799000000002 108.95103999999999 174.17667 109.94388 174.74967 110.90933999999999 C 174.16707 111.60684999999998 169.22088000000002 112.38678999999999 166.74282 110.52730999999999 C 167.00816 113.46808999999999 166.31703 115.72176999999999 164.40498 118.54122999999998 C 163.47641 117.86639999999998 162.61723999999998 117.09607999999999 161.74255 116.35242999999998 C 161.35837999999998 116.85836999999998 161.28059 116.94914999999999 159.68705 118.64529999999998 C 155.58261 116.78608999999997 156.46205 110.45529999999998 156.46205 110.45529999999998 C 155.9056 110.87549999999997 149.89693 112.30343999999998 147.79189 110.89047999999998 C 148.20515 109.92545999999999 148.62238 108.96220999999998 149.04316 108.00042999999998 C 147.49596 107.16594999999998 146.60497 106.90946999999998 145.91627 106.41804999999998 C 146.97147 103.38808999999998 151.19198 102.32040999999998 152.6431 102.03876999999999 C 148.66596 99.36077899999998 148.8136 94.42989299999999 149.22354 93.89225399999998 C 149.45540000000003 93.74335599999998 152.30272000000002 94.29879599999998 152.46911 94.34730999999998 C 152.74393 92.65881799999998 152.43931 94.49185199999998 152.87554 91.17705799999997 C 153.07198 91.12814799999997 157.6217 91.97484799999998 159.99475 96.47212099999997 C 161.18359 92.25391899999997 166.086 91.28738099999997 166.38083 91.23288899999997 C 166.65798 91.59429699999997 166.64365 92.12247599999998 167.32269 94.27521999999998 C 167.92830999999998 94.27861999999998 168.9844 94.12576699999998 170.53521 93.84926199999998 Z" fill="#ee95d0" id="path1-5-1" sodipodi:nodetypes="cccccccccccccccccccccc" style="display:inline;fill:#e8b7c6;fill-opacity:1;stroke-width:0.0476457" inkscape:label="petal"></path><path d="M 161.1141 124.26087 C 161.1938 124.37035 161.85192 128.19257 157.43811 131.48567 C 159.23704999999998 132.19749 162.10872 133.88121999999998 163.71686 137.67508 C 163.31055 137.96218000000002 162.32726 138.08577 160.60302 138.64090000000002 C 161.03055999999998 139.67999 161.34205999999998 140.76082000000002 161.7026 141.82404000000002 C 160.98812999999998 142.38571000000002 155.98766999999998 142.12395000000004 153.94863999999998 139.79140000000004 C 153.59893999999997 142.72334000000004 152.45586999999998 144.78493000000003 150.00115999999997 147.14707000000004 C 149.23254999999997 146.29449000000005 148.55161999999996 145.36287000000004 147.84997999999996 144.45413000000005 C 147.36932999999996 144.86951000000005 147.27440999999996 144.94220000000004 145.36402999999996 146.27139000000005 C 141.73384999999996 143.60212000000004 143.90584999999996 137.59091000000006 143.90584999999996 137.59091000000006 C 143.27442999999997 137.88672000000005 137.10027999999997 138.03875000000008 135.33366999999996 136.22032000000007 C 135.93789999999996 135.36186000000006 136.54564999999997 134.50596000000007 137.15655999999996 133.65222000000009 C 135.81582999999995 132.51529000000008 134.99729999999997 132.07977000000008 134.42536999999996 131.4563300000001 C 136.08543999999995 128.7107300000001 140.43558999999996 128.5406600000001 141.91355999999996 128.5657800000001 C 138.57755999999995 125.1218900000001 139.74360999999996 120.3285900000001 140.25603999999996 119.8875400000001 C 140.51371999999995 119.7899400000001 143.18417999999997 120.9232200000001 143.33689999999996 121.0051600000001 C 143.95559999999995 119.4102400000001 143.27779999999996 121.14039000000011 144.39134999999996 117.98790000000011 C 144.59365999999997 117.9809000000001 148.86923999999996 119.7517200000001 150.25901999999996 124.64307000000011 C 152.29601999999997 120.76271000000011 157.29230999999996 120.83285000000011 157.59202999999997 120.8406300000001 C 157.78827999999996 121.2516200000001 157.66482999999997 121.7653700000001 157.88312999999997 124.0120900000001 C 158.47488999999996 124.1409300000001 159.53973999999997 124.2101600000001 161.11418999999998 124.2609600000001 Z" fill="#ee95d0" id="path1-5-35" sodipodi:nodetypes="cccccccccccccccccccccc" style="display:inline;fill:#e8b7c6;fill-opacity:1;stroke-width:0.0476457" inkscape:label="petal"></path><path d="M 118.56535 20.187641 C 118.63414999999999 20.304304 118.92066 24.172164 114.20992 27.024378 C 115.93185 27.906319 118.62781 29.859074 119.86267 33.790295 C 119.43056999999999 34.036882 118.43995 34.065096 116.67022 34.451401 C 116.99558 35.526868 117.20143 36.632697 117.45779 37.725728 C 116.69249 38.215897 111.74057 37.473242 109.93592000000001 34.954975 C 109.30517 37.839538 107.96866000000001 39.781313999999995 105.29765 41.895793 C 104.61482000000001 40.973085 104.02688 39.980152 103.41613000000001 39.008005 C 102.89767 39.375102999999996 102.79619000000001 39.438305 100.76655000000001 40.577113999999995 C 97.41064000000001 37.57029299999999 100.15208000000001 31.796492999999995 100.15208000000001 31.796492999999995 C 99.495078 32.030041 93.33503100000001 31.586100999999996 91.75196400000002 29.605817999999996 C 92.43614900000001 28.809603999999997 93.12359000000002 28.016293999999995 93.81396700000002 27.225422999999996 C 92.58909300000002 25.964534999999994 91.81637100000002 25.452124999999995 91.30720400000001 24.776444999999995 C 93.22425400000002 22.203691999999997 97.57053400000001 22.453819999999997 99.03920400000001 22.621314999999996 C 96.05077800000001 18.871834999999997 97.67353100000001 14.213287999999995 98.22609900000002 13.823702999999995 C 98.49199000000002 13.751372999999994 101.04074000000001 15.136868999999995 101.18485000000003 15.233146999999995 C 101.95444000000002 13.705311999999996 101.11295000000003 15.362045999999996 102.52529000000003 12.331607999999996 C 102.72735000000003 12.343997999999996 106.81226000000002 14.518935999999997 107.72399000000003 19.521496999999997 C 110.12561000000002 15.855602999999997 115.09186000000003 16.407126999999996 115.38944000000004 16.443763999999998 C 115.54515000000004 16.871755999999998 115.37274000000004 17.371212 115.37344000000003 19.628511999999997 C 115.95002000000004 19.813808999999996 117.00324000000003 19.985379999999996 118.56546000000003 20.187741999999997 Z" fill="#ee95d0" id="path1-5-6" sodipodi:nodetypes="cccccccccccccccccccccc" style="display:inline;fill:#e8b7c6;fill-opacity:1;stroke-width:0.0476457" inkscape:label="petal"></path><path d="M 46.99256 43.293152 C 46.89534 43.198842 45.595923 39.544543 49.384403999999996 35.547842 C 47.490514 35.152799 44.374044 33.982733 42.143280999999995 30.518178000000002 C 42.494758 30.166076000000004 43.442626999999995 29.876831000000003 45.047138 29.036157000000003 C 44.448882999999995 28.085063 43.957853 27.073074000000002 43.421502 26.086787 C 44.029885 25.411641 49.001867 24.817964 51.408364999999996 26.769168 C 51.253623999999995 23.820507 52.028887 21.594364 54.045446 18.848675 C 54.948028 19.557894 55.777665999999996 20.359933 56.623823 21.135903 C 57.026716 20.644737 57.107864 20.556943 58.763964 18.921820999999998 C 62.795704 20.933836999999997 61.679193 27.22714 61.679193 27.22714 C 62.251014999999995 26.828121999999997 68.30907499999999 25.626797999999997 70.359572 27.11779 C 69.910371 28.066623 69.457263 29.013517 69.000677 29.958835 C 70.51545 30.850808 71.396191 31.140567 72.065951 31.657496000000002 C 70.897728 34.645705 66.640097 35.55416 65.179435 35.781123 C 69.053224 38.606552 68.720547 43.528412 68.290714 44.050286 C 68.053427 44.190373 65.228973 43.528419 65.06452399999999 43.473692 C 64.72649499999999 45.150676 65.09974399999999 43.330372 64.53934799999999 46.62645 C 64.34120599999999 46.66795 59.82648199999999 45.651022 57.62396499999999 41.06782 C 56.277587999999994 45.238412 51.34234099999999 46.020201 51.04567099999999 46.063584999999996 C 50.78229299999999 45.692026 50.81643899999999 45.164758 50.21870499999999 42.988035999999994 C 49.61364699999999 42.961856 48.552558999999995 43.07499599999999 46.992453999999995 43.29307599999999 Z" fill="#ee95d0" id="path1-5-16" sodipodi:nodetypes="cccccccccccccccccccccc" style="display:inline;fill:#e8b7c6;fill-opacity:1;stroke-width:0.0476457" inkscape:label="petal"></path><path d="M 23.970878 6.6514115 C 24.081951999999998 6.5739025 27.916683 5.9931618 31.119963 10.472582 C 31.867969 8.688384 33.609361 5.851309199999999 37.434927 4.320134599999999 C 37.71376 4.7321595 37.817464 5.717737399999999 38.337655000000005 7.452842799999999 C 39.385166000000005 7.0463816999999995 40.47206800000001 6.756769499999999 41.542357 6.417775899999999 C 42.089481 7.143452799999999 41.726768 12.137598999999998 39.353514000000004 14.129103999999998 C 42.27779 14.537953999999997 44.315868 15.722428999999998 46.627946 18.224351999999996 C 45.760020000000004 18.975584999999995 44.814841 19.637551999999996 43.892113 20.320695999999998 C 44.297694 20.809644 44.368454 20.906007 45.658783 22.842845999999998 C 42.916743 26.418366999999996 36.950628 24.125393 36.950628 24.125393 C 37.233617 24.762663999999997 37.260915000000004 30.938626 35.407177000000004 32.66815 C 34.561088000000005 32.046701 33.717645000000005 31.421784999999996 32.876411000000004 30.793753999999996 C 31.712642000000006 32.11125 31.260675000000006 32.920812 30.625808000000006 33.480041 C 27.914303000000007 31.764851 27.832129000000005 27.412155 27.887092000000006 25.934987 C 24.376523000000006 29.200748 19.607755000000004 27.938119999999998 19.177150000000005 27.416883 C 19.084750000000003 27.157284999999998 20.271764000000005 24.510265999999998 20.356766000000004 24.359226 C 18.774673000000003 23.708443 20.490773000000004 24.421066 17.361423000000002 23.244053 C 17.358323000000002 23.041635 19.215327000000002 18.802702 24.133752 17.511999000000003 C 20.295323 15.397044000000003 20.466371000000002 10.403188000000004 20.480199000000002 10.103681000000002 C 20.895064 9.915772100000002 21.406217 10.049571000000002 23.656888000000002 9.876705400000002 C 23.797658000000002 9.287669100000002 23.88838 8.224429600000002 23.970973 6.651322800000003 Z" fill="#ee95d0" id="path1-5-65" sodipodi:nodetypes="cccccccccccccccccccccc" style="display:inline;fill:#e8b7c6;fill-opacity:1;stroke-width:0.0476457" inkscape:label="petal"></path><path d="M 46.985332 53.23391 C 47.048332 53.35381 47.144601 57.231071 42.299517 59.848582 C 43.976077000000004 60.813995 46.572917000000004 62.896748 47.613296000000005 66.883859 C 47.169616000000005 67.108937 46.178808000000004 67.088484 44.39224300000001 67.38744200000001 C 44.66441600000001 68.47758400000001 44.815729000000005 69.59218600000001 45.018114000000004 70.69648500000001 C 44.229671 71.148491 39.32018000000001 70.163627 37.64133700000001 67.55980000000001 C 36.869738000000005 70.40992000000001 35.439516000000005 72.283742 32.667913000000006 74.26453500000001 C 32.031204 73.30941700000001 31.492727000000006 72.28882600000001 30.930430000000005 71.28785900000001 C 30.394570000000005 71.62906100000001 30.290108000000004 71.687205 28.207016000000003 72.72500000000001 C 25.002763 69.55705300000001 28.024351000000003 63.924800000000005 28.024351000000003 63.924800000000005 C 27.356675000000003 64.12581200000001 21.22585 63.379992 19.741914 61.324383000000005 C 20.464363000000002 60.562718000000004 21.18992 59.804113 21.918291 59.048089000000004 C 20.756795 57.728588 20.01016 57.17886000000001 19.534779 56.478998000000004 C 21.575822000000002 54.003461 25.904581 54.466660000000005 27.363258000000002 54.706055000000006 C 24.562508 50.81438500000001 26.412007000000003 46.241122000000004 26.983035 45.87913300000001 C 27.252156 45.81994300000001 29.729813 47.32889600000001 29.869028 47.43213200000001 C 30.712689 45.94392000000001 29.790908 47.55734700000001 31.350292 44.59989800000001 C 31.551501 44.62219800000001 35.524716 46.99504900000001 36.189745 52.03633300000001 C 38.768440000000005 48.49276200000001 43.70163 49.28743100000001 43.997052000000004 49.338633000000016 C 44.131564000000004 49.77375300000001 43.93485200000001 50.264142000000014 43.824690000000004 52.51875300000002 C 44.391478000000006 52.73213200000002 45.435005000000004 52.95520200000002 46.98540800000001 53.23401500000002 Z" fill="#ee95d0" id="path1-5-5" sodipodi:nodetypes="cccccccccccccccccccccc" style="display:inline;fill:#e8b7c6;fill-opacity:1;stroke-width:0.0476457" inkscape:label="petal"></path><path d="M 97.389528 21.097253 C 97.387728 21.232684 95.62388299999999 24.686843999999997 90.116967 24.67784 C 91.130467 26.325776 92.420237 29.394641 91.433912 33.395468 C 90.936594 33.381798 90.07538600000001 32.891447 88.36239900000001 32.302497 C 88.08192300000002 33.390533000000005 87.683546 34.442449 87.33497500000001 35.509658 C 86.42640900000002 35.531098 82.58031200000002 32.324762 82.34592000000002 29.235509 C 80.30885700000002 31.373013 78.15829100000002 32.338316 74.77760100000002 32.758146 C 74.67326300000002 31.615010000000005 74.68649100000002 30.461151000000005 74.66941900000002 29.313188000000004 C 74.03570800000001 29.357648000000005 73.91616300000003 29.358958000000005 71.59027500000002 29.278098000000004 C 70.28393300000002 24.965720000000005 75.62520500000002 21.455296000000004 75.62520500000002 21.455296000000004 C 74.94246000000003 21.313679000000004 69.90879900000002 17.735200000000006 69.58437400000003 15.220773000000005 C 70.58255800000002 14.895668000000004 71.58201700000002 14.574734000000005 72.58271800000003 14.257411000000005 C 72.19079100000003 12.543775000000005 71.79655300000003 11.704585000000005 71.71233500000002 10.862741000000005 C 74.68670300000002 9.659716400000004 78.27102000000002 12.130625000000006 79.43912100000003 13.036487000000005 C 78.83251000000003 8.280299300000005 82.63859700000003 5.141974100000005 83.31313100000003 5.096009700000004 C 83.57791800000003 5.172283700000004 85.03648000000003 7.6799352000000045 85.10963700000002 7.837055400000004 C 86.56075400000002 6.931075500000004 84.98127100000002 7.909880400000004 87.76199400000002 6.053605400000004 C 87.92823400000002 6.169132300000004 90.28958400000002 10.149194000000005 88.47073600000002 14.897731000000004 C 92.42690800000001 13.012190000000004 96.38451400000001 16.062635000000004 96.61979000000002 16.248486000000003 C 96.53059000000002 16.695102000000002 96.12387500000003 17.032390000000003 94.95215300000002 18.961761000000003 C 95.34865300000003 19.419547 96.15960500000003 20.113136000000004 97.38954500000003 21.097379000000004 Z" fill="#ee95d0" id="path1-5-2" sodipodi:nodetypes="cccccccccccccccccccccc" style="display:inline;fill:#e8b7c6;fill-opacity:1;stroke-width:0.0476457" inkscape:label="petal"></path><path d="M 112.34873 123.99795 C 112.25933 123.89619 111.25516 120.14999 115.34999 116.46779000000001 C 113.49359000000001 115.92313000000001 110.48024000000001 114.50852 108.53257 110.87726 C 108.91098000000001 110.55428 109.87888000000001 110.34146000000001 111.54526000000001 109.63128 C 111.02467000000001 108.63555000000001 110.61582000000001 107.58766 110.15975000000002 106.56178 C 110.81998000000002 105.93725 115.82346000000001 105.74155 118.06687000000002 107.87826 C 118.14757000000002 104.92663999999999 119.09766000000002 102.76934 121.32654000000002 100.19301999999999 C 122.16976000000003 100.97188999999999 122.93287000000002 101.83747 123.71452000000002 102.67837999999999 C 124.15526000000003 102.22086999999999 124.24314000000003 102.13981999999999 126.02424000000002 100.64182999999998 C 129.88288000000003 102.96862999999999 128.26857 109.15298999999999 128.26857 109.15298999999999 C 128.87036 108.80078999999999 135.00487 108.0859 136.93007 109.73549999999999 C 136.40671 110.64553 135.87961 111.55331999999999 135.34916 112.45925999999999 C 136.78806 113.46906999999999 137.64292 113.82806999999998 138.26937 114.39671999999999 C 136.86681000000002 117.28235999999998 132.55034 117.84874999999998 131.07624 117.95862999999999 C 134.71263000000002 121.08367999999999 133.98892 125.96339999999998 133.51888000000002 126.44936999999999 C 133.27118000000002 126.57010999999999 130.50844000000004 125.68524999999998 130.34887000000003 125.61759999999998 C 129.87832000000003 127.26231999999999 130.39537000000004 125.47753999999998 129.57420000000005 128.71849999999998 C 129.37339000000006 128.74409999999997 124.95402000000004 127.37071999999998 123.12362000000005 122.62662999999998 C 121.44928000000004 126.67669999999998 116.46744000000004 127.06284999999998 116.16825000000004 127.08245999999998 C 115.93531000000004 126.69109999999998 116.01135000000005 126.16822999999998 115.58893000000005 123.95080999999999 C 114.98788000000005 123.87651 113.92115000000005 123.90471 112.34863000000004 123.99780999999999 Z" fill="#ee95d0" id="path1-5-9" sodipodi:nodetypes="cccccccccccccccccccccc" style="display:inline;fill:#e8b7c6;fill-opacity:1;stroke-width:0.0476457" inkscape:label="petal"></path><path d="M 97.021662 103.27765 C 96.92735200000001 103.18045 95.73943200000001 99.488378 99.64746000000001 95.608491 C 97.76643200000001 95.156155 94.686907 93.892049 92.56231400000001 90.36139 C 92.92431500000002 90.020117 93.88052500000002 89.759771 95.50981100000001 88.968178 C 94.94069500000002 87.999366 94.48060300000002 86.97294199999999 93.97443100000001 85.97083099999999 C 94.60302300000001 85.31446 99.590732 84.87194699999999 101.93691000000001 86.89528499999999 C 101.87171000000001 83.94328599999999 102.71419000000002 81.74169399999998 104.81315000000001 79.05846799999999 C 105.69379 79.79475299999999 106.49870000000001 80.62159999999999 107.32092 81.42289099999999 C 107.73854 80.94417899999999 107.82231 80.858888 109.52727 79.274779 C 113.49609 81.40822399999999 112.18911 87.664744 112.18911 87.664744 C 112.77277 87.283263 118.86449999999999 86.266344 120.86881 87.818878 C 120.39102 88.753642 119.90938 89.68634899999999 119.42432 90.617375 C 120.91131999999999 91.554908 121.78286 91.871262 122.43663 92.408279 C 121.17826 95.359658 116.89501 96.138486 115.42814 96.32101499999999 C 119.2144 99.262706 118.7325 104.17219999999999 118.28703 104.68078999999999 C 118.04560000000001 104.81360999999998 115.24254 104.06624999999998 115.07982 104.00654999999999 C 114.69106 105.67250999999999 115.11941999999999 103.86437 114.45921 107.14191999999998 C 114.2599 107.17741999999998 109.77812 106.02391999999999 107.71571 101.37597999999998 C 106.24338 105.50378999999998 101.28668 106.13544999999999 100.98883000000001 106.16980999999998 C 100.73685 105.79042999999999 100.78698000000001 105.26443999999998 100.25558000000001 103.07057999999998 C 99.65159700000001 103.02607999999998 98.58756400000001 103.10687999999998 97.02155900000001 103.27756999999998 Z" fill="#ee95d0" id="path1-5-15" sodipodi:nodetypes="cccccccccccccccccccccc" style="display:inline;fill:#e8b7c6;fill-opacity:1;stroke-width:0.0476457" inkscape:label="petal"></path><path d="M -7.4934542 29.315576 C -7.5148652 29.181836 -6.3679323000000005 25.476844 -0.9406601300000004 24.543612 C -2.2211414 23.093356 -4.016907 20.290382 -3.7295694 16.1798 C -3.2372435 16.10819 -2.3048455 16.443978 -0.5163556699999998 16.731195 C -0.4261518699999998 15.611215999999999 -0.21360562999999982 14.506654 -0.052747609999999834 13.395547 C 0.8387560800000001 13.218988000000001 5.1766814 15.720079 5.936116 18.723692 C 7.5774711 16.269205 9.5311925 14.950223 12.790220999999999 13.958226 C 13.088584999999998 15.066659999999999 13.272951999999998 16.205771 13.486158999999999 17.333891 C 14.102922 17.181675000000002 14.220481 17.159935 16.525911999999998 16.841692000000002 C 18.550741 20.867012000000003 13.888760999999999 25.239449 13.888760999999999 25.239449 C 14.585667999999998 25.262179 20.157315999999998 27.926761 20.907117 30.348619 C 19.979264999999998 30.839697 19.049445 31.326883 18.117783 31.810724 C 18.797095 33.432047 19.329086 34.191422 19.556083 35.006447 C 16.831372 36.70058 12.877182000000001 34.879290000000005 11.57133 34.186617 C 12.982668 38.768910999999996 9.7695853 42.512101 9.1128591 42.672785 C 8.8389268 42.642934999999994 6.9728676 40.421775999999994 6.873909299999999 40.279488 C 5.599176999999999 41.420363 6.9879245999999995 40.185778 4.565759699999999 42.490401 C 4.382206399999999 42.405021 1.374773499999999 38.887601 2.354446199999999 33.897906 C -1.2208319000000007 36.432458 -5.641952300000001 34.104034999999996 -5.905555100000002 33.961176 C -5.894073100000002 33.505883000000004 -5.551058300000002 33.103989 -4.726679800000001 31.002607 C -5.195650800000001 30.619402 -6.1133041000000015 30.074773 -7.4934926000000015 29.315453 Z" fill="#ee95d0" id="path1-5-32" sodipodi:nodetypes="cccccccccccccccccccccc" style="display:inline;fill:#e8b7c6;fill-opacity:1;stroke-width:0.0476457" inkscape:label="petal"></path><path d="M 147.79495 97.902153 C 147.66263 97.931043 143.89906 96.994047 142.66243 91.627768 C 141.28639 92.987695 138.58872 94.93808 134.46849 94.88210600000001 C 134.36929 94.39458 134.65221 93.44479100000001 134.83851 91.64299100000001 C 133.71523000000002 91.615841 132.60048 91.46568200000002 131.48209000000003 91.36749300000001 C 131.25573000000003 90.487316 133.50919000000002 86.01574300000001 136.46540000000002 85.08878100000001 C 133.92258 83.58789700000001 132.49594000000002 81.71135400000001 131.32243000000003 78.51319600000001 C 132.41235000000003 78.15303800000001 133.53931000000003 77.90497300000001 134.65367000000003 77.628731 C 134.46705000000003 77.021493 134.43874000000002 76.905341 133.99149000000003 74.621427 C 137.89671000000004 72.37367499999999 142.52413 76.782674 142.52413 76.782674 C 142.50763 76.085591 144.85507 70.37306 147.23098000000002 69.488397 C 147.7734 70.387197 148.31205000000003 71.28818100000001 148.84747000000002 72.19119300000001 C 150.42807000000002 71.42187700000001 151.15636 70.84806800000001 151.95735000000002 70.57564700000002 C 153.80186000000003 73.20088800000002 152.20557000000002 77.25114400000001 151.58735000000001 78.59384500000002 C 156.08313 76.92732700000002 160.0009 79.92506500000002 160.19822000000002 80.57172800000002 C 160.18382000000003 80.84690400000002 158.07098000000002 82.83478900000001 157.93448 82.94158400000002 C 159.14516 84.15021600000001 157.83448 82.83301300000002 160.27156 85.12189300000001 C 160.19665999999998 85.30995200000001 156.8537 88.51022500000002 151.81685 87.81239300000001 C 154.54824 91.23964800000002 152.47185 95.78458500000002 152.34402 96.05579700000001 C 151.8888 96.06990700000001 151.46827 95.75001200000001 149.3239 95.04497900000001 C 148.96764000000002 95.53473600000001 148.47542 96.48153500000001 147.79483000000002 97.90219800000001 Z" fill="#ee95d0" id="path1-5-08" sodipodi:nodetypes="cccccccccccccccccccccc" style="display:inline;fill:#e8b7c6;fill-opacity:1;stroke-width:0.0476457" inkscape:label="petal"></path><path d="M 79.132436 145.37823 C 79.168446 145.5088 78.436468 149.31756000000001 73.144965 150.84275 C 74.577357 152.14318 76.670856 154.73137 76.83791 158.84859 C 76.35646299999999 158.97398 75.39276 158.74291 73.583519 158.65438 C 73.617189 159.77748 73.527569 160.89873 73.490039 162.02079 C 72.62339899999999 162.29445 68.036442 160.28624 66.95087799999999 157.38452 C 65.589784 160.00482 63.79318599999999 161.53092 60.66321299999999 162.87576 C 60.24460599999999 161.80692000000002 59.93592499999999 160.69504 59.59978999999999 159.59726 C 59.00353899999999 159.81646 58.88908899999999 159.85102 56.63272099999999 160.42119 C 54.17695099999999 156.64332 58.32910099999999 151.78411 58.32910099999999 151.78411 C 57.63392899999999 151.83821 51.80274999999999 149.80340999999999 50.790821999999984 147.47885 C 51.658954999999985 146.88859 52.52947299999998 146.30196999999998 53.40218999999998 145.71848 C 52.54847499999998 144.18182 51.936098999999984 143.48565 51.62073499999998 142.70058 C 54.14232299999998 140.71671 58.273020999999986 142.0915 59.64720699999998 142.63618 C 57.73986399999998 138.23717 60.52121899999998 134.16293 61.15625699999998 133.93090999999998 C 61.43181099999998 128.93090999999998 62.844882873273214 141.5539028283494 63.53110899999998 135.93257999999997 C 66.01998499999998 138.06476999999998 64.67245999999997 134.65827999999996 63.42810699999998 136.03828 C 65.47876199999999 133.58665 63.619945999999985 136.10297999999997 66.99641599999998 139.26779 C 70.14045899999998 147.56453 70.27085499999998 136.35495 74.92148699999998 138.18237 C 83.12428999999999 137.20991999999998 74.96020699999998 138.63616 74.66353599999998 139.07338 C 73.81761699999998 142.14377 75.17185299999998 139.40260999999998 76.14389799999998 139.84287999999998" id="path1-5-74" sodipodi:nodetypes="cccccccccccccccccccccc" style="display: inline; fill: rgb(232, 183, 198); fill-opacity: 1; stroke-width: 0.0476457; stroke: none; stroke-linejoin: miter; stroke-linecap: butt; stroke-miterlimit: 4; opacity: 1; filter: none;" inkscape:label="petal"></path><animateTransform attributeName="transform" attributeType="auto" type="skewX" values="0;3;0" calcMode="spline" keyTimes="0; 0.5025125628140703; 1" keySplines=".25 0 .75 1;.25 0 .75 1" dur="3.98s" begin="0s" repeatCount="2" additive="sum" accumulate="none" id="animateTransform6204" style="stroke: none; stroke-width: 1px; stroke-linejoin: miter; stroke-linecap: butt; stroke-miterlimit: 4; opacity: 1; filter: none; fill: rgb(0, 0, 0);"></animateTransform></g><g inkscape:groupmode="layer" id="layer2-1-5" inkscape:label="Front Small Petal" style="display: inline; fill: rgb(0, 0, 0); stroke: none; stroke-width: 1px; stroke-linejoin: miter; stroke-linecap: butt; stroke-miterlimit: 4; opacity: 1; filter: none;" transform="matrix(2.6940732,0,0,2.6940732,-167.88611,317.47372)"><path d="M 150.72783 54.688626 C 150.64803 54.706056 148.37768 54.140819 147.63168000000002 50.90366 C 146.8016 51.724024 145.17426 52.900576 142.68877 52.86681 C 142.62887 52.572715 142.79959 51.999762000000004 142.91198 50.912843 C 142.23437 50.896463000000004 141.56191 50.805883 140.88725 50.746652000000005 C 140.7507 50.215693 142.11007 47.518257000000006 143.89338 46.959075000000006 C 142.35945 46.05368000000001 141.49884 44.921673000000006 140.79093 42.992413000000006 C 141.44842 42.77515100000001 142.12824 42.625508 142.80047 42.458867000000005 C 142.68789999999998 42.092557000000006 142.67082 42.02248900000001 142.40102 40.64473900000001 C 144.75681 39.28880200000001 147.54826 41.94849100000001 147.54826 41.94849100000001 C 147.53826 41.52798200000001 148.95437 38.08195000000001 150.38762 37.548285000000014 C 150.71483 38.09047800000001 151.03976 38.633988000000016 151.36275 39.178722000000015 C 152.31624 38.71463900000001 152.75557 38.36849400000001 153.23876 38.204158000000014 C 154.35144000000003 39.78781200000002 153.38850000000002 42.23109200000001 153.01556000000002 43.04106400000001 C 155.72760000000002 42.035752000000016 158.09096000000002 43.844110000000015 158.20999000000003 44.23420400000001 C 158.20099000000005 44.40020100000001 156.92675000000003 45.59937500000001 156.84441000000004 45.663798000000014 C 157.57474000000005 46.39289500000002 156.78411000000003 45.59830800000002 158.25423000000004 46.979050000000015 C 158.20903000000004 47.092495000000014 156.19244000000003 49.02303000000001 153.15401000000003 48.602069000000014 C 154.80169000000004 50.669530000000016 153.54913000000002 53.411223000000014 153.47202000000001 53.574829000000015 C 153.19741000000002 53.58332900000001 152.94373000000002 53.390366000000014 151.65016000000003 52.96506200000002 C 151.43525000000002 53.260503000000014 151.13832000000002 53.831651000000015 150.72776000000002 54.688654000000014 Z" fill="#ee95d0" id="path1-5-08-0" sodipodi:nodetypes="cccccccccccccccccccccc" style="display:inline;fill:#f7f3f4;fill-opacity:1;stroke-width:0.0287419" inkscape:label="petal"></path><path d="M 87.239616 60.404443 C 87.15981599999999 60.421873 84.889466 59.856636 84.143466 56.619478 C 83.31338600000001 57.439841 81.686046 58.616393 79.200556 58.582627 C 79.140656 58.288533 79.31137600000001 57.71558 79.423766 56.628661 C 78.746156 56.612281 78.073696 56.521701 77.399036 56.46247 C 77.262486 55.931511 78.621856 53.234075000000004 80.405166 52.674893000000004 C 78.871236 51.769498000000006 78.01062599999999 50.637491000000004 77.30271599999999 48.708231000000005 C 77.96020599999999 48.49096900000001 78.64002599999999 48.341326 79.31225599999999 48.174685000000004 C 79.19968599999999 47.808375000000005 79.18260599999999 47.738307000000006 78.91280599999999 46.36055700000001 C 81.26859599999999 45.00462000000001 84.06004599999999 47.66430900000001 84.06004599999999 47.66430900000001 C 84.05004599999998 47.24380000000001 85.46615599999998 43.79776800000001 86.89940599999998 43.26410300000001 C 87.22661599999998 43.80629600000001 87.55154599999999 44.349806000000015 87.87453599999998 44.89454000000001 C 88.82802599999998 44.43045700000001 89.26735599999998 44.08431200000001 89.75054599999997 43.91997600000001 C 90.86322599999997 45.503630000000015 89.90028599999997 47.94691000000001 89.52734599999997 48.75688200000001 C 92.23938599999997 47.751570000000015 94.60274599999997 49.55992800000001 94.72177599999996 49.95002200000001 C 94.71277599999996 50.11601900000001 93.43853599999996 51.31519300000001 93.35619599999997 51.37961600000001 C 94.08652599999996 52.108713000000016 93.29589599999997 51.314126000000016 94.76601599999996 52.694868000000014 C 94.72081599999997 52.80831300000001 92.70422599999996 54.73884800000001 89.66579599999997 54.31788700000001 C 91.31347599999997 56.385348000000015 90.06091599999998 59.12704100000001 89.98380599999997 59.290647000000014 C 89.70919599999998 59.29914700000001 89.45551599999997 59.10618400000001 88.16194599999997 58.680880000000016 C 87.94703599999997 58.97632100000001 87.65010599999997 59.547469000000014 87.23954599999998 60.40447200000001 Z" fill="#ee95d0" id="path1-5-08-0-2" sodipodi:nodetypes="cccccccccccccccccccccc" style="display:inline;fill:#f7f3f4;fill-opacity:1;stroke-width:0.0287419" inkscape:label="petal"></path><path d="M 118.48542 28.47938 C 118.40562 28.49681 116.13527 27.931573 115.38927000000001 24.694414 C 114.55919000000002 25.514778 112.93185000000001 26.691329999999997 110.44636000000001 26.657563999999997 C 110.38646000000001 26.363469 110.55718000000002 25.790515999999997 110.66957000000001 24.703597 C 109.99196 24.687216999999997 109.3195 24.596636999999998 108.64484 24.537405999999997 C 108.50829 24.006446999999998 109.86766 21.309010999999998 111.65097 20.749829 C 110.11704 19.844434 109.25643 18.712426999999998 108.54852 16.783167 C 109.20600999999999 16.565904999999997 109.88583 16.416262 110.55806 16.249620999999998 C 110.44548999999999 15.883310999999997 110.42841 15.813242999999998 110.15861 14.435492999999997 C 112.5144 13.079555999999997 115.30584999999999 15.739244999999997 115.30584999999999 15.739244999999997 C 115.29584999999999 15.318735999999998 116.71195999999999 11.872703999999997 118.14520999999999 11.339038999999996 C 118.47241999999999 11.881231999999995 118.79735 12.424741999999997 119.12034 12.969475999999997 C 120.07383 12.505392999999996 120.51316 12.159247999999996 120.99634999999999 11.994911999999996 C 122.10902999999999 13.578565999999995 121.14608999999999 16.021845999999996 120.77314999999999 16.831817999999995 C 123.48518999999999 15.826505999999995 125.84854999999999 17.634863999999993 125.96757999999998 18.024957999999994 C 125.95857999999998 18.190954999999995 124.68433999999998 19.390128999999995 124.60199999999999 19.454551999999996 C 125.33232999999998 20.183648999999996 124.54169999999999 19.389061999999996 126.01181999999999 20.769803999999997 C 125.96661999999999 20.883248999999996 123.95002999999998 22.813784 120.91159999999999 22.392822999999996 C 122.55927999999999 24.460283999999998 121.30672 27.201976999999996 121.22961 27.365582999999997 C 120.955 27.374083 120.70132 27.181119999999996 119.40775 26.755815999999996 C 119.19283999999999 27.051256999999996 118.89590999999999 27.622404999999997 118.48535 28.479407999999996 Z" fill="#ee95d0" id="path1-5-08-0-3" sodipodi:nodetypes="cccccccccccccccccccccc" style="display:inline;fill:#f7f3f4;fill-opacity:1;stroke-width:0.0287419" inkscape:label="petal"></path><animateTransform attributeName="transform" attributeType="auto" type="skewX" values="0;3;0" calcMode="spline" keyTimes="0; 0.48768350335904453; 1" keySplines=".25 0 .75 1;.25 0 .75 1" dur="4.019s" begin="0s" repeatCount="2" additive="sum" accumulate="none" id="animateTransform2874" style="stroke: none; stroke-width: 1px; stroke-linejoin: miter; stroke-linecap: butt; stroke-miterlimit: 4; opacity: 1; filter: none; fill: rgb(0, 0, 0);"></animateTransform></g></g><g inkscape:groupmode="layer" id="layer5" inkscape:label="Petals" style="display:inline" transform="matrix(0.39377155,0,0,0.39377155,-0.80078924,-17.046231)"><g inkscape:groupmode="layer" id="layer6-4" inkscape:label="Petals" transform="translate(-1597.729,-2825.2829)" style="display: inline; fill: rgb(0, 0, 0); stroke: none; stroke-width: 1px; stroke-linejoin: miter; stroke-linecap: butt; stroke-miterlimit: 4; opacity: 1; filter: none;"><path d="M 681.94307 2722.2029 C 681.31471 2722.3401000000003 663.44255 2717.8906 657.57014 2692.4076 C 651.0357 2698.8655 638.2252100000001 2708.1274 618.6593700000001 2707.8616 C 618.18829 2705.5464 619.5318000000001 2701.0361000000003 620.4164900000001 2692.4799000000003 C 615.08234 2692.351 609.7887000000001 2691.6379 604.4777700000001 2691.1716 C 603.4028500000001 2686.9919 614.1039200000001 2665.7576 628.14214 2661.3557 C 616.06699 2654.2285 609.29227 2645.3173 603.71959 2630.1301 C 608.8953200000001 2628.4197999999997 614.2469500000001 2627.2418 619.5387400000001 2625.93 C 618.6525300000001 2623.0463999999997 618.51809 2622.4948 616.3942300000001 2611.6492 C 634.9390400000001 2600.9752 656.9133900000002 2621.9123 656.9133900000002 2621.9123 C 656.8349900000002 2618.6021 667.9823800000001 2591.4748 679.2649300000002 2587.2738 C 681.8407300000001 2591.542 684.3986300000001 2595.8205 686.9411900000001 2600.1086 C 694.4470300000002 2596.4554 697.9054800000001 2593.7305 701.7091600000001 2592.4369 C 710.4682300000001 2604.9034 702.8878900000001 2624.137 699.9521300000001 2630.5131 C 721.3013600000002 2622.5992 739.9057700000001 2636.8347000000003 740.8427900000002 2639.9055000000003 C 740.7743900000002 2641.2122000000004 730.7411100000002 2650.6522000000004 730.0929100000002 2651.1593000000003 C 735.8420900000002 2656.8988000000004 729.6180400000002 2650.6437 741.1910600000002 2661.5130000000004 C 740.8353800000002 2662.4060000000004 724.9605800000002 2677.6032000000005 701.0419600000002 2674.2894000000006 C 714.0125800000003 2690.5645000000004 704.1523800000002 2712.1472000000003 703.5453500000002 2713.4351000000006 C 701.3836300000003 2713.5021000000006 699.3866500000003 2711.9830000000006 689.2036300000002 2708.6350000000007 C 687.5118500000002 2710.9607000000005 685.1744300000003 2715.456800000001 681.9425000000002 2722.2031000000006 Z" fill="#ee95d0" id="path1-5-08-12" sodipodi:nodetypes="cccccccccccccccccccccc" style="display:inline;fill:#e8b7c6;fill-opacity:1;stroke-width:0.226256" inkscape:label="petal"></path><path d="M -99.900682 3047.9049 C -100.52903 3048.0421 -118.40119 3043.5926 -124.27361 3018.1096 C -130.80805 3024.5674999999997 -143.61854 3033.8293999999996 -163.18438 3033.5636 C -163.65545 3031.2484 -162.31194 3026.7381 -161.42726000000002 3018.1819 C -166.7614 3018.053 -172.05505000000002 3017.3399 -177.36597 3016.8736 C -178.44089 3012.6938999999998 -167.73983 2991.4595999999997 -153.7016 2987.0577 C -165.77676000000002 2979.9305 -172.55148000000003 2971.0193 -178.12415000000001 2955.8320999999996 C -172.94842000000003 2954.1217999999994 -167.5968 2952.9437999999996 -162.30501 2951.6319999999996 C -163.19122000000002 2948.7483999999995 -163.32565 2948.1967999999997 -165.44952 2937.3511999999996 C -146.9047 2926.6771999999996 -124.93036000000001 2947.6142999999997 -124.93036000000001 2947.6142999999997 C -125.00876000000001 2944.3041 -113.86136 2917.1767999999997 -102.57882000000001 2912.9757999999997 C -100.00302 2917.2439999999997 -97.44511600000001 2921.5224999999996 -94.90255300000001 2925.8106 C -87.396718 2922.1573999999996 -83.93826900000002 2919.4325 -80.13458800000001 2918.1389 C -71.375516 2930.6054 -78.955859 2949.839 -81.89161600000001 2956.2151 C -60.542392000000014 2948.3012 -41.937978000000015 2962.5367 -41.00096000000001 2965.6075 C -41.06934000000001 2966.9142 -51.10263800000001 2976.3542 -51.75083900000001 2976.8613 C -46.001652000000014 2982.6008 -52.225712000000016 2976.3457 -40.65268800000001 2987.215 C -41.00836800000001 2988.108 -56.88316600000002 3003.3052000000002 -80.80178300000001 2999.9914000000003 C -67.83116300000002 3016.2665 -77.69136800000001 3037.8492000000006 -78.29839800000002 3039.1371000000004 C -80.46011300000002 3039.2041000000004 -82.45709400000003 3037.6850000000004 -92.64011800000002 3034.3370000000004 C -94.33189900000002 3036.6627000000003 -96.66931700000002 3041.1588000000006 -99.90125200000001 3047.9051000000004 Z" fill="#ee95d0" id="path1-5-08-4" sodipodi:nodetypes="cccccccccccccccccccccc" style="display:inline;fill:#e8b7c6;fill-opacity:1;stroke-width:0.226256" inkscape:label="petal"></path><path d="M -1087.0611 1373.6216 C -1087.6894 1373.7587999999998 -1105.5616 1369.3093 -1111.434 1343.8263 C -1117.9684 1350.2842 -1130.7789 1359.5461 -1150.3448 1359.2803 C -1150.8159 1356.9651 -1149.4723000000001 1352.4548 -1148.5877 1343.8986 C -1153.9218 1343.7697 -1159.2154 1343.0566 -1164.5264 1342.5903 C -1165.6013 1338.4106000000002 -1154.9002 1317.1763 -1140.862 1312.7744 C -1152.9372 1305.6472 -1159.7119 1296.736 -1165.2846000000002 1281.5488 C -1160.1088000000002 1279.8385 -1154.7572000000002 1278.6605 -1149.4654000000003 1277.3487 C -1150.3516000000002 1274.4651000000001 -1150.4861000000003 1273.9135 -1152.6099000000004 1263.0679 C -1134.0651000000005 1252.3939 -1112.0908000000004 1273.331 -1112.0908000000004 1273.331 C -1112.1688000000004 1270.0208 -1101.0218000000004 1242.8935 -1089.7392000000004 1238.6924999999999 C -1087.1634000000004 1242.9606999999999 -1084.6055000000003 1247.2392 -1082.0630000000003 1251.5273 C -1074.5571000000002 1247.8741 -1071.0987000000002 1245.1492 -1067.2950000000003 1243.8555999999999 C -1058.5359000000003 1256.3220999999999 -1066.1163000000004 1275.5557 -1069.0520000000004 1281.9317999999998 C -1047.7028000000003 1274.0178999999998 -1029.0984000000003 1288.2533999999998 -1028.1614000000004 1291.3241999999998 C -1028.2294000000004 1292.6308999999999 -1038.2630000000004 1302.0708999999997 -1038.9112000000005 1302.5779999999997 C -1033.1621000000005 1308.3174999999997 -1039.3861000000004 1302.0623999999998 -1027.8131000000005 1312.9316999999996 C -1028.1688000000006 1313.8246999999997 -1044.0436000000004 1329.0218999999997 -1067.9622000000006 1325.7080999999996 C -1054.9916000000005 1341.9831999999997 -1064.8518000000006 1363.5658999999996 -1065.4588000000006 1364.8537999999996 C -1067.6205000000007 1364.9207999999996 -1069.6175000000005 1363.4016999999997 -1079.8005000000005 1360.0536999999997 C -1081.4923000000006 1362.3793999999998 -1083.8297000000005 1366.8754999999996 -1087.0617000000004 1373.6217999999997 Z" fill="#ee95d0" id="path1-5-08-7" sodipodi:nodetypes="cccccccccccccccccccccc" style="display:inline;fill:#e8b7c6;fill-opacity:1;stroke-width:0.226256" inkscape:label="petal"></path><path d="M 597.41636 1463.3667 C 596.9590400000001 1463.4667 583.9514200000001 1460.2281 579.6773900000001 1441.6812 C 574.9215300000001 1446.3814 565.5978600000001 1453.1223 551.35756 1452.9288999999999 C 551.01471 1451.2438 551.9925400000001 1447.9612 552.63642 1441.7338 C 548.7541500000001 1441.6398 544.9013600000001 1441.1209999999999 541.0359900000001 1440.7816 C 540.2536500000001 1437.7396 548.04204 1422.285 558.2592700000001 1419.0812 C 549.4707900000001 1413.8939 544.5400500000002 1407.4082 540.4841800000002 1396.3547 C 544.2511500000002 1395.1100000000001 548.1461400000002 1394.2526 551.9975800000002 1393.2978 C 551.3525800000002 1391.1991 551.2547400000002 1390.7977 549.7089600000002 1382.9041 C 563.2061500000002 1375.1354 579.1993900000001 1390.3736999999999 579.1993900000001 1390.3736999999999 C 579.1422900000001 1387.9644999999998 587.2555700000001 1368.2207999999998 595.4671700000001 1365.1633 C 597.3418700000001 1368.2698 599.2035500000002 1371.3836999999999 601.0540700000001 1374.5047 C 606.5169200000001 1371.8458 609.0340300000001 1369.8626 611.8024100000001 1368.9211 C 618.1773800000001 1377.9944 612.6603000000001 1391.9929 610.5236100000001 1396.6335 C 626.0618900000001 1390.8736 639.6024500000001 1401.2343999999998 640.28443 1403.4694 C 640.23463 1404.4205 632.93228 1411.291 632.46051 1411.6601 C 636.64486 1415.8374000000001 632.11489 1411.2848000000001 640.53791 1419.1957 C 640.27904 1419.8455999999999 628.72513 1430.9063 611.31682 1428.4945 C 620.75702 1440.3398 613.58062 1456.048 613.13881 1456.9853 C 611.5654900000001 1457.0343 610.11206 1455.9285 602.7007 1453.4917 C 601.4694 1455.1844 599.76819 1458.4567 597.41594 1463.3668 Z" fill="#ee95d0" id="path1-5-08-3" sodipodi:nodetypes="cccccccccccccccccccccc" style="display:inline;fill:#e8b7c6;fill-opacity:1;stroke-width:0.164672" inkscape:label="petal"></path><path d="M -619.68332 2218.6989 C -620.70373 2218.9217 -649.72709 2211.696 -659.26356 2170.3131 C -669.87512 2180.8003 -690.67862 2195.8410999999996 -722.45242 2195.4094999999998 C -723.21741 2191.6497 -721.03563 2184.3251999999998 -719.5989599999999 2170.4305 C -728.2612999999999 2170.2210999999998 -736.8578799999999 2169.0631 -745.4825099999999 2168.3059 C -747.22812 2161.5182999999997 -729.85021 2127.035 -707.05293 2119.8866 C -726.6623 2108.3124 -737.66405 2093.8410999999996 -746.7137499999999 2069.178 C -738.3086599999999 2066.4004999999997 -729.6179399999999 2064.4874999999997 -721.0243699999999 2062.3572 C -722.4635299999999 2057.6744 -722.6818399999999 2056.7787 -726.1308799999998 2039.166 C -696.0151599999998 2021.8320999999999 -660.3300899999998 2055.8327 -660.3300899999998 2055.8327 C -660.4574099999999 2050.4572 -642.3546699999998 2006.404 -624.0324699999998 1999.5818 C -619.8495199999998 2006.5131 -615.6956399999998 2013.4611 -611.5666499999998 2020.4248 C -599.3776099999998 2014.4922 -593.7612899999998 2010.0671 -587.5843299999998 2007.9664 C -573.3600999999998 2028.2113 -585.6701399999998 2059.4455 -590.4376399999998 2069.7999 C -555.7677199999997 2056.9482 -525.5552299999997 2080.0659 -524.0335599999997 2085.0527 C -524.1446399999998 2087.1747 -540.4381099999997 2102.5047000000004 -541.4907499999997 2103.3282000000004 C -532.1543899999997 2112.6488000000004 -542.2619099999997 2102.4909000000002 -523.4679899999998 2120.1420000000003 C -524.0455899999997 2121.5922000000005 -549.8253599999997 2146.2716000000005 -588.6678099999998 2140.8901 C -567.6042599999998 2167.32 -583.6166799999999 2202.369 -584.6024599999998 2204.4605 C -588.1129499999998 2204.5693 -591.3559399999998 2202.1024 -607.8925899999998 2196.6654000000003 C -610.6399499999998 2200.4422000000004 -614.4357799999998 2207.7436000000002 -619.6842499999998 2218.6992000000005 Z" fill="#ee95d0" id="path1-5-08-9" sodipodi:nodetypes="cccccccccccccccccccccc" style="display:inline;fill:#e8b7c6;fill-opacity:1;stroke-width:0.367427" inkscape:label="petal"></path><path d="M -2204.0103 347.036 C -2205.1177 347.2778 -2236.6192 339.43506 -2246.9698 294.51885 C -2258.4873 305.90155999999996 -2281.0670999999998 322.22645 -2315.5539 321.75795 C -2316.3842 317.67731 -2314.016 309.72748 -2312.4568 294.64627 C -2321.8586999999998 294.41902 -2331.1892 293.16218000000003 -2340.5503 292.34034 C -2342.4449 284.97317000000004 -2323.5832 247.54571000000004 -2298.8395 239.78697000000003 C -2320.1232 227.22443 -2332.0642000000003 211.51761000000002 -2341.8867 184.74876000000003 C -2332.7638 181.73420000000004 -2323.3311 179.65788000000003 -2314.0039 177.34571000000003 C -2315.5659 172.26307000000003 -2315.8029 171.29087 -2319.5463 152.17432000000002 C -2286.8593 133.36043 -2248.1275 170.26414000000003 -2248.1275 170.26414000000003 C -2248.2649 164.42949000000002 -2228.6174 116.61511000000002 -2208.7307 109.21041000000002 C -2204.1905 116.73344000000003 -2199.6820000000002 124.27476000000003 -2195.2006 131.83304000000004 C -2181.9708 125.39380000000004 -2175.8749000000003 120.59097000000004 -2169.1706 118.31078000000004 C -2153.7318999999998 140.28428000000002 -2167.093 174.18526000000003 -2172.2675 185.42379000000005 C -2134.6374 171.47489000000004 -2101.8454 196.56622000000004 -2100.1938 201.97884000000005 C -2100.3137 204.28209000000004 -2117.9989 220.92087000000004 -2119.1414 221.81475000000006 C -2109.0081 231.93110000000007 -2119.9785 220.90599000000006 -2099.58 240.06413000000006 C -2100.2069 241.63820000000007 -2128.1877 268.42474000000004 -2170.3466 262.58383000000003 C -2147.4847 291.27025000000003 -2164.8642 329.31177 -2165.9341 331.58183 C -2169.7443 331.69992 -2173.2642 329.02238 -2191.2127 323.12121 C -2194.1947 327.22052 -2198.3146 335.14531 -2204.0113 347.03636 Z" fill="#ee95d0" id="path1-5-08-31" sodipodi:nodetypes="cccccccccccccccccccccc" style="display:inline;fill:#e8b7c6;fill-opacity:1;stroke-width:0.398798" inkscape:label="petal"></path><path d="M -1113.6752 -101.56471 C -1114.0897 -101.47421 -1125.8813 -104.40986000000001 -1129.7557 -121.22272000000001 C -1134.0669 -116.96199000000001 -1142.5187999999998 -110.85132000000002 -1155.4278 -111.02669 C -1155.7386 -112.55414 -1154.8520999999998 -115.52988 -1154.2685 -121.17503 C -1157.7877999999998 -121.26013 -1161.2803 -121.73055000000001 -1164.7844 -122.03818000000001 C -1165.4935 -124.79582 -1158.4333 -138.80553 -1149.1713 -141.70975 C -1157.1381999999999 -146.41211 -1161.6079 -152.29143000000002 -1165.2846 -162.31144 C -1161.8698 -163.43984 -1158.339 -164.21704 -1154.8476 -165.08252000000002 C -1155.4323000000002 -166.98503000000002 -1155.521 -167.34894000000003 -1156.9222 -174.50458 C -1144.687 -181.54692 -1130.189 -167.73326 -1130.189 -167.73326 C -1130.241 -169.91727 -1122.886 -187.81496 -1115.4421 -190.58666 C -1113.7427 -187.77067 -1112.0551 -184.94782999999998 -1110.3776 -182.11865 C -1105.4255 -184.52896 -1103.1437 -186.32673 -1100.6342 -187.18024 C -1094.8552 -178.95521 -1099.8564999999999 -166.26552 -1101.7934 -162.05876 C -1087.7079 -167.28006000000002 -1075.4333 -157.88797 -1074.8151 -155.86194 C -1074.8601 -154.9998 -1081.4798 -148.77164 -1081.9074 -148.43704 C -1078.1144000000002 -144.65033 -1082.2208 -148.7772 -1074.5853 -141.60601 C -1074.8199 -141.01681 -1085.2936 -130.99017 -1101.0744 -133.17652 C -1092.5167999999999 -122.43872000000002 -1099.0221999999999 -108.19917000000001 -1099.4227 -107.34945000000002 C -1100.8489000000002 -107.30525000000002 -1102.1665 -108.30749000000002 -1108.8849 -110.51640000000002 C -1110.0011 -108.98196000000002 -1111.5432 -106.01559000000002 -1113.6756 -101.56457000000002 Z" fill="#ee95d0" id="path1-5-08-5" sodipodi:nodetypes="cccccccccccccccccccccc" style="display:inline;fill:#e8b7c6;fill-opacity:1;stroke-width:0.149277" inkscape:label="petal"></path><path d="M -2359.2396 1260.6193 C -2359.6719 1260.7133000000001 -2371.9685 1257.6523 -2376.0088 1240.1193 C -2380.5047 1244.5625 -2389.3187000000003 1250.9349 -2402.7806 1250.752 C -2403.1047 1249.1590999999999 -2402.1803 1246.0559 -2401.5717 1240.1689999999999 C -2405.2417 1240.08 -2408.8838 1239.5896999999998 -2412.5379 1239.2688999999998 C -2413.2774999999997 1236.3930999999998 -2405.9148 1221.7832999999998 -2396.2562 1218.7546999999997 C -2404.5642 1213.8508999999997 -2409.2254 1207.7196999999996 -2413.0595999999996 1197.2705999999998 C -2409.4984999999997 1196.0937999999999 -2405.8163999999997 1195.2832999999998 -2402.1754999999994 1194.3808 C -2402.7852999999996 1192.3968 -2402.8777999999993 1192.0173 -2404.3389999999995 1184.5550999999998 C -2391.5796999999993 1177.2111999999997 -2376.4606999999996 1191.6164999999999 -2376.4606999999996 1191.6164999999999 C -2376.5146999999997 1189.3389 -2368.8448999999996 1170.6745999999998 -2361.0822 1167.7841999999998 C -2359.31 1170.7207999999998 -2357.5501 1173.6645999999998 -2355.8008 1176.6148999999998 C -2350.6365 1174.1012999999998 -2348.257 1172.2265999999997 -2345.6399 1171.3365 C -2339.6134 1179.9138999999998 -2344.829 1193.1471 -2346.8488 1197.5340999999999 C -2332.1599 1192.0891 -2319.3596000000002 1201.8835 -2318.7149000000004 1203.9962999999998 C -2318.7619000000004 1204.8953999999999 -2325.6651000000006 1211.3902999999998 -2326.1111000000005 1211.7392999999997 C -2322.1555000000008 1215.6880999999996 -2326.4378000000006 1211.3844999999997 -2318.4753000000005 1218.8628999999996 C -2318.7200000000007 1219.4772999999996 -2329.6423000000004 1229.9333999999997 -2346.0990000000006 1227.6533999999997 C -2337.1749000000004 1238.8511999999996 -2343.9590000000007 1253.7006999999996 -2344.3766000000005 1254.5867999999996 C -2345.8639000000003 1254.6327999999996 -2347.2379000000005 1253.5876999999996 -2354.2441000000003 1251.2841999999996 C -2355.4081000000006 1252.8842999999997 -2357.0163000000002 1255.9777999999997 -2359.2400000000002 1260.6193999999996 Z" fill="#ee95d0" id="path1-5-08-74" sodipodi:nodetypes="cccccccccccccccccccccc" style="display:inline;fill:#e8b7c6;fill-opacity:1;stroke-width:0.155671" inkscape:label="petal"></path><path d="M 1039.99 1989.5715 C 1039.3398 1989.7135 1020.8482 1985.1097 1014.7722 1958.7434 C 1008.0112 1965.4251000000002 994.7567 1975.0081 974.51264 1974.7331000000001 C 974.02525 1972.3376 975.41533 1967.671 976.33067 1958.8182000000002 C 970.81163 1958.6848000000002 965.3344900000001 1957.9470000000001 959.83947 1957.4645000000003 C 958.72729 1953.1400000000003 969.79929 1931.1696000000002 984.32413 1926.6151000000002 C 971.8303999999999 1919.2409000000002 964.82085 1910.0208000000002 959.0550099999999 1894.3071000000002 C 964.4101499999999 1892.5375000000001 969.9472699999999 1891.3187000000003 975.4224999999999 1889.9614000000001 C 974.5055699999999 1886.9779 974.3664799999999 1886.4072 972.1689899999999 1875.1856000000002 C 991.3566299999999 1864.1416000000002 1014.0926999999999 1885.8045000000002 1014.0926999999999 1885.8045000000002 C 1014.0116999999999 1882.3795000000002 1025.5454 1854.3119000000002 1037.2189999999998 1849.9653000000003 C 1039.8839999999998 1854.3814000000002 1042.5305999999998 1858.8082000000004 1045.1612999999998 1863.2450000000003 C 1052.9272999999998 1859.4651000000003 1056.5056999999997 1856.6458000000002 1060.4412999999997 1855.3074000000004 C 1069.5038999999997 1868.2060000000004 1061.6607999999997 1888.1063000000004 1058.6232999999997 1894.7034000000003 C 1080.7125999999998 1886.5152000000003 1099.9618999999998 1901.2441000000003 1100.9313999999997 1904.4214000000004 C 1100.8613999999998 1905.7734000000005 1090.4794999999997 1915.5406000000005 1089.8087999999998 1916.0653000000004 C 1095.7572999999998 1922.0037000000004 1089.3174999999999 1915.5318000000004 1101.2916999999998 1926.7779000000005 C 1100.9236999999998 1927.7018000000005 1084.4985999999997 1943.4258000000004 1059.7508999999998 1939.9971000000005 C 1073.1710999999998 1956.8364000000006 1062.9690999999998 1979.1672000000005 1062.3410999999999 1980.4998000000005 C 1060.1044 1980.5688000000005 1058.0383 1978.9973000000005 1047.5022 1975.5333000000005 C 1045.7518 1977.9396000000006 1043.3333 1982.5916000000004 1039.9894 1989.5717000000004 Z" fill="#ee95d0" id="path1-5-08-55" sodipodi:nodetypes="cccccccccccccccccccccc" style="display:inline;fill:#e8b7c6;fill-opacity:1;stroke-width:0.234099" inkscape:label="petal"></path><path d="M -1722.1166 2220.3626 C -1722.7449000000001 2220.4998 -1740.6171000000002 2216.0503 -1746.4895000000001 2190.5672999999997 C -1753.0239000000001 2197.0251999999996 -1765.8344000000002 2206.2870999999996 -1785.4003000000002 2206.0213 C -1785.8714000000002 2203.7061 -1784.5278000000003 2199.1958 -1783.6432000000002 2190.6396 C -1788.9773000000002 2190.5107 -1794.2709000000002 2189.7976 -1799.5819000000001 2189.3313 C -1800.6568000000002 2185.1515999999997 -1789.9557000000002 2163.9172999999996 -1775.9175 2159.5153999999998 C -1787.9927 2152.3882 -1794.7674 2143.477 -1800.3401000000001 2128.2897999999996 C -1795.1643000000001 2126.5794999999994 -1789.8127000000002 2125.4014999999995 -1784.5209000000002 2124.0896999999995 C -1785.4071000000001 2121.2060999999994 -1785.5416000000002 2120.6544999999996 -1787.6654000000003 2109.8088999999995 C -1769.1206000000004 2099.1348999999996 -1747.1463000000003 2120.0719999999997 -1747.1463000000003 2120.0719999999997 C -1747.2243000000003 2116.7617999999998 -1736.0773000000004 2089.6344999999997 -1724.7947000000004 2085.4334999999996 C -1722.2189000000003 2089.7016999999996 -1719.6610000000003 2093.9801999999995 -1717.1185000000003 2098.2682999999997 C -1709.6126000000002 2094.6150999999995 -1706.1542000000002 2091.8902 -1702.3505000000002 2090.5966 C -1693.5914000000002 2103.0631 -1701.1718000000003 2122.2967 -1704.1075000000003 2128.6728 C -1682.7583000000002 2120.7589 -1664.1539000000002 2134.9944 -1663.2169000000004 2138.0652 C -1663.2849000000003 2139.3719 -1673.3185000000003 2148.8119 -1673.9667000000004 2149.319 C -1668.2176000000004 2155.0585 -1674.4416000000003 2148.8034 -1662.8686000000005 2159.6727 C -1663.2243000000005 2160.5657 -1679.0991000000004 2175.7629 -1703.0177000000006 2172.4491000000003 C -1690.0471000000005 2188.7242 -1699.9073000000005 2210.3069000000005 -1700.5143000000005 2211.5948000000003 C -1702.6760000000006 2211.6618000000003 -1704.6730000000005 2210.1427000000003 -1714.8560000000004 2206.7947000000004 C -1716.5478000000005 2209.1204000000002 -1718.8852000000004 2213.6165000000005 -1722.1172000000004 2220.3628000000003 Z" fill="#ee95d0" id="path1-5-08-2" sodipodi:nodetypes="cccccccccccccccccccccc" style="display:inline;fill:#e8b7c6;fill-opacity:1;stroke-width:0.226256" inkscape:label="petal"></path><animateTransform attributeName="transform" attributeType="auto" type="translate" values="0 0;8340.41 7297.76" calcMode="spline" keyTimes="0; 1" keySplines=".25 0 .75 1" dur="7.28s" begin="0s" repeatCount="1" additive="sum" accumulate="none" id="animateTransform9254" style="stroke: none; stroke-width: 1px; stroke-linejoin: miter; stroke-linecap: butt; stroke-miterlimit: 4; opacity: 1; filter: none; fill: rgb(0, 0, 0);"></animateTransform></g><g inkscape:groupmode="layer" id="layer7" inkscape:label="Small petals" transform="translate(-1028.0054,-942.53443)" style="fill: rgb(0, 0, 0); stroke: none; stroke-width: 1px; stroke-linejoin: miter; stroke-linecap: butt; stroke-miterlimit: 4; opacity: 1; filter: none;"><path d="M -744.04618 -1272.1017 C -744.5684500000001 -1271.9877 -759.42732 -1275.6870999999999 -764.3097 -1296.8735 C -769.74237 -1291.5042999999998 -780.3929 -1283.8039999999999 -796.65981 -1284.0250999999998 C -797.05184 -1285.9498999999998 -795.93452 -1289.6997 -795.1989599999999 -1296.8132999999998 C -799.63374 -1296.9201999999998 -804.0348299999999 -1297.5133999999998 -808.4503 -1297.9009999999998 C -809.3439999999999 -1301.3759999999997 -800.4472499999999 -1319.0301 -788.77594 -1322.6897 C -798.81513 -1328.6153 -804.4476 -1336.024 -809.0807 -1348.6506 C -804.7776 -1350.0725 -800.32834 -1351.0518 -795.92876 -1352.1425 C -796.6655000000001 -1354.5398 -796.7773 -1354.9984 -798.5430700000001 -1364.0155 C -783.1250100000001 -1372.8898 -764.8556600000001 -1355.4828 -764.8556600000001 -1355.4828 C -764.92106 -1358.2349 -755.6530200000001 -1380.7883 -746.2727600000001 -1384.2811 C -744.1312600000001 -1380.7324999999998 -742.00467 -1377.1752999999999 -739.8907800000001 -1373.6102999999998 C -733.65042 -1376.6474999999998 -730.77512 -1378.9128999999998 -727.6127600000001 -1379.9885 C -720.3305500000001 -1369.6237999999998 -726.6327500000001 -1353.6332 -729.0735500000001 -1348.3321999999998 C -711.32392 -1354.9116999999999 -695.8563300000001 -1343.0765 -695.0773 -1340.5233999999998 C -695.1362 -1339.4369 -703.4757900000001 -1331.5885999999998 -704.01468 -1331.167 C -699.23485 -1326.3953 -704.40934 -1331.5955999999999 -694.78776 -1322.559 C -695.0835900000001 -1321.8165 -708.2816600000001 -1309.1816 -728.1674300000001 -1311.9367 C -717.3837800000001 -1298.4057 -725.5814700000001 -1280.4621 -726.08613 -1279.3913 C -727.8833900000001 -1279.3363 -729.54366 -1280.5986 -738.00976 -1283.3821 C -739.41629 -1281.4485 -741.35961 -1277.7104 -744.04663 -1272.1016 Z" fill="#ee95d0" id="path1-5-08-0-5" sodipodi:nodetypes="cccccccccccccccccccccc" style="display:inline;fill:#f7f3f4;fill-opacity:1;stroke-width:0.188108" inkscape:label="petal"></path><path d="M -467.27912 102.14449 C -467.71429 102.23959 -480.09511 99.15715800000001 -484.16324 81.50407200000001 C -488.68989 85.97773500000001 -497.56419999999997 92.39378400000001 -511.11823999999996 92.20964900000001 C -511.44488999999993 90.60587100000001 -510.51390999999995 87.48140700000002 -509.90101999999996 81.55415 C -513.5962 81.46482 -517.2633099999999 80.97086800000001 -520.9423999999999 80.64786600000001 C -521.6870499999999 77.75240600000001 -514.2740399999999 63.042573000000004 -504.5491799999999 59.993205 C -512.9141099999999 55.055847 -517.6072399999999 48.882713 -521.4676599999999 38.361947 C -517.8821999999999 37.17716 -514.1749599999999 36.361117 -510.5091099999999 35.452379 C -511.1229799999999 33.454794 -511.2161299999999 33.072694 -512.6874199999999 25.559459 C -499.8406699999999 18.165175 -484.61814999999984 32.669164 -484.61814999999984 32.669164 C -484.67264999999986 30.376017 -476.95025999999984 11.583891000000001 -469.1343699999998 8.673674600000002 C -467.3500099999998 11.630397000000002 -465.57807999999983 14.594301000000002 -463.81672999999984 17.564880000000002 C -458.61708999999985 15.034112000000002 -456.22130999999985 13.146492000000002 -453.5863499999998 12.250324000000003 C -447.5186099999998 20.886409 -452.7697799999998 34.210262 -454.8035199999998 38.62725400000001 C -440.0140399999998 33.14502100000001 -427.1260199999998 43.006476000000006 -426.4769099999998 45.133762000000004 C -426.5260099999998 46.038988 -433.47475999999983 52.57840100000001 -433.9237799999998 52.929717000000004 C -429.9410999999998 56.90567600000001 -434.2526199999998 52.572583 -426.23565999999977 60.10213400000001 C -426.48214999999976 60.720780000000005 -437.4791499999998 71.24849900000001 -454.0485099999998 68.952887 C -445.0632799999998 80.227299 -451.8938199999998 95.17847800000001 -452.3143199999998 96.070665 C -453.8118399999998 96.11701500000001 -455.1952299999998 95.064739 -462.2494099999998 92.745444 C -463.4213699999998 94.35656200000001 -465.04059999999976 97.47118300000001 -467.27949999999976 102.14465000000001 Z" fill="#ee95d0" id="path1-5-08-0-8" sodipodi:nodetypes="cccccccccccccccccccccc" style="display:inline;fill:#f7f3f4;fill-opacity:1;stroke-width:0.156737" inkscape:label="petal"></path><path d="M -1967.7312 -1224.7409 C -1968.1663999999998 -1224.6459 -1980.5472 -1227.7283 -1984.6153 -1245.3814 C -1989.1419999999998 -1240.9077 -1998.0163 -1234.4916 -2011.5702999999999 -1234.6758 C -2011.897 -1236.2796 -2010.966 -1239.404 -2010.3530999999998 -1245.3313 C -2014.0483 -1245.4203 -2017.7153999999998 -1245.9146 -2021.3944999999999 -1246.2376000000002 C -2022.1390999999999 -1249.1330000000003 -2014.7260999999999 -1263.8429 -2005.0013 -1266.8922000000002 C -2013.3662 -1271.8296000000003 -2018.0593 -1278.0027000000002 -2021.9198 -1288.5235000000002 C -2018.3343 -1289.7083000000002 -2014.6271 -1290.5243000000003 -2010.9612 -1291.4331000000002 C -2011.5751 -1293.4306000000001 -2011.6682 -1293.8127000000002 -2013.1395 -1301.3260000000002 C -2000.2928 -1308.7203000000002 -1985.0703 -1294.2163000000003 -1985.0703 -1294.2163000000003 C -1985.1243000000002 -1296.5094000000004 -1977.4024000000002 -1315.3015000000003 -1969.5865000000001 -1318.2118000000003 C -1967.8021 -1315.2550000000003 -1966.0302000000001 -1312.2911000000004 -1964.2688 -1309.3206000000002 C -1959.0692000000001 -1311.8513000000003 -1956.6734000000001 -1313.7389000000003 -1954.0384000000001 -1314.6351000000002 C -1947.9707 -1305.9990000000003 -1953.2219000000002 -1292.6752000000001 -1955.2556000000002 -1288.2582000000002 C -1940.4661 -1293.7404000000001 -1927.5781000000002 -1283.8790000000001 -1926.929 -1281.7517000000003 C -1926.978 -1280.8464000000004 -1933.9269000000002 -1274.3070000000002 -1934.3759 -1273.9557000000002 C -1930.3932 -1269.9798000000003 -1934.7047 -1274.3128000000002 -1926.6878 -1266.7833000000003 C -1926.9342 -1266.1646000000003 -1937.9312 -1255.6369000000002 -1954.5005999999998 -1257.9325000000003 C -1945.5153999999998 -1246.6581000000003 -1952.3458999999998 -1231.7070000000003 -1952.7663999999997 -1230.8148000000003 C -1954.2638999999997 -1230.7688000000003 -1955.6472999999999 -1231.8207000000004 -1962.7014999999997 -1234.1400000000003 C -1963.8734999999997 -1232.5289000000002 -1965.4926999999996 -1229.4142000000004 -1967.7315999999996 -1224.7408000000003 Z" fill="#ee95d0" id="path1-5-08-0-9" sodipodi:nodetypes="cccccccccccccccccccccc" style="display:inline;fill:#f7f3f4;fill-opacity:1;stroke-width:0.156737" inkscape:label="petal"></path><path d="M -4204.0049 -2308.605 C -4204.4401 -2308.51 -4216.8209 -2311.5923 -4220.889 -2329.2454 C -4225.4157000000005 -2324.7718 -4234.29 -2318.3556999999996 -4247.844 -2318.5398999999998 C -4248.1707 -2320.1436 -4247.2397 -2323.2681 -4246.6268 -2329.1953999999996 C -4250.322 -2329.2843999999996 -4253.9891 -2329.7785999999996 -4257.6682 -2330.1015999999995 C -4258.4128 -2332.9970999999996 -4250.9998000000005 -2347.7068999999997 -4241.275 -2350.7562999999996 C -4249.639899999999 -2355.6936999999994 -4254.333 -2361.8667999999993 -4258.193499999999 -2372.3875999999996 C -4254.607999999999 -2373.5722999999994 -4250.900799999999 -2374.3883999999994 -4247.2348999999995 -2375.2971 C -4247.8488 -2377.2947 -4247.9419 -2377.6767999999997 -4249.413199999999 -2385.1899999999996 C -4236.566499999999 -2392.5842999999995 -4221.343999999999 -2378.0802999999996 -4221.343999999999 -2378.0802999999996 C -4221.398999999999 -2380.3734999999997 -4213.676099999999 -2399.1656 -4205.860199999999 -2402.0757999999996 C -4204.0758 -2399.1190999999994 -4202.303899999999 -2396.1551999999997 -4200.5425 -2393.1845999999996 C -4195.3429 -2395.7153999999996 -4192.947099999999 -2397.6029999999996 -4190.312099999999 -2398.4991999999997 C -4184.2444 -2389.8630999999996 -4189.495599999999 -2376.5391999999997 -4191.529299999999 -2372.1222999999995 C -4176.739799999999 -2377.6044999999995 -4163.8517999999995 -2367.7429999999995 -4163.202699999999 -2365.6156999999994 C -4163.251699999999 -2364.7104999999992 -4170.200599999999 -2358.1710999999996 -4170.649599999999 -2357.8197999999993 C -4166.666899999999 -2353.843799999999 -4170.978399999999 -2358.1768999999995 -4162.9614999999985 -2350.6473999999994 C -4163.2078999999985 -2350.0286999999994 -4174.204899999999 -2339.5009999999993 -4190.774299999998 -2341.796599999999 C -4181.789099999998 -2330.5221999999994 -4188.619599999998 -2315.570999999999 -4189.040099999998 -2314.6787999999992 C -4190.537599999999 -2314.6327999999994 -4191.9209999999985 -2315.684799999999 -4198.975199999998 -2318.004099999999 C -4200.147199999998 -2316.3928999999994 -4201.766399999998 -2313.278299999999 -4204.005299999998 -2308.6048999999994 Z" fill="#ee95d0" id="path1-5-08-0-0" sodipodi:nodetypes="cccccccccccccccccccccc" style="display:inline;fill:#f7f3f4;fill-opacity:1;stroke-width:0.156737" inkscape:label="petal"></path><path d="M -3204.5424 -2310.3277 C -3205.2547 -2310.1722 -3225.5206 -2315.2176999999997 -3232.1796 -2344.1137 C -3239.5893 -2336.7907999999998 -3254.1155 -2326.2884 -3276.3017999999997 -2326.5899 C -3276.8365999999996 -2329.2152 -3275.3125999999997 -2334.3294 -3274.3093999999996 -2344.0317 C -3280.3579999999997 -2344.1774 -3286.3605999999995 -2344.9865 -3292.3828 -2345.5152 C -3293.6016999999997 -2350.2547 -3281.4674999999997 -2374.3329999999996 -3265.5490999999997 -2379.3244 C -3279.2414999999996 -2387.4063 -3286.9235 -2397.511 -3293.2427 -2414.7323 C -3287.3736999999996 -2416.6716 -3281.3053999999997 -2418.0073 -3275.3048 -2419.4949 C -3276.3096 -2422.7646 -3276.462 -2423.3901 -3278.8704 -2435.6884 C -3257.8419 -2447.792 -3232.9244 -2424.0507 -3232.9244 -2424.0507 C -3233.0144 -2427.8041999999996 -3220.373 -2458.5647 -3207.5793 -2463.3284999999996 C -3204.6584 -2458.4885999999997 -3201.758 -2453.6369999999997 -3198.8748 -2448.7746999999995 C -3190.3637 -2452.9170999999997 -3186.4421 -2456.0068999999994 -3182.1289 -2457.4738999999995 C -3172.1968 -2443.3375999999994 -3180.7924000000003 -2421.5280999999995 -3184.1213000000002 -2414.2979999999993 C -3159.9126 -2423.2716999999993 -3138.8165000000004 -2407.1297999999992 -3137.7540000000004 -2403.6475999999993 C -3137.8340000000003 -2402.1657999999993 -3149.2087 -2391.4614999999994 -3149.9437000000003 -2390.886499999999 C -3143.4245 -2384.378399999999 -3150.4819 -2391.470999999999 -3137.3592000000003 -2379.146099999999 C -3137.7625000000003 -2378.133399999999 -3155.7633000000005 -2360.900799999999 -3182.8854 -2364.658399999999 C -3168.1777 -2346.2034999999987 -3179.3584 -2321.730399999999 -3180.0468 -2320.269899999999 C -3182.498 -2320.194899999999 -3184.7624 -2321.916499999999 -3196.3093 -2325.712899999999 C -3198.2278 -2323.075699999999 -3200.8782 -2317.977299999999 -3204.543 -2310.327499999999 Z" fill="#ee95d0" id="path1-5-08-0-6" sodipodi:nodetypes="cccccccccccccccccccccc" style="display:inline;fill:#f7f3f4;fill-opacity:1;stroke-width:0.25656" inkscape:label="petal"></path><path d="M -485.60919 -560.70559 C -486.26211 -560.56305 -504.83806000000004 -565.1878300000001 -510.94182 -591.67422 C -517.73353 -584.96196 -531.04838 -575.33536 -551.3846100000001 -575.61173 C -551.87471 -578.0180399999999 -550.47788 -582.70584 -549.5583 -591.5990499999999 C -555.1025000000001 -591.7325799999999 -560.60455 -592.47422 -566.1246 -592.9588399999999 C -567.24186 -597.3030499999999 -556.11951 -619.3735099999999 -541.52851 -623.9486299999999 C -554.0790999999999 -631.3566099999998 -561.12059 -640.6186199999999 -566.91269 -656.4038299999999 C -561.53312 -658.1814799999999 -555.97086 -659.4057899999999 -550.47068 -660.7693399999998 C -551.39172 -663.7663499999999 -551.53147 -664.3396499999998 -553.73896 -675.6124699999998 C -534.4639500000001 -686.7067399999999 -511.62436 -664.9451999999998 -511.62436 -664.9451999999998 C -511.70616 -668.3857299999997 -500.11960000000005 -696.5810499999998 -488.39278 -700.9476099999997 C -485.71556000000004 -696.5112799999997 -483.05699000000004 -692.0642999999997 -480.41429 -687.6074199999997 C -472.61285 -691.4044299999997 -469.01827 -694.2365499999997 -465.06482 -695.5811999999997 C -455.9609 -682.6237499999997 -463.83965 -662.6329599999997 -466.89104 -656.0057799999997 C -444.70117999999997 -664.2311699999997 -425.36422999999996 -649.4353099999997 -424.39032 -646.2435499999997 C -424.46401999999995 -644.8852499999997 -434.88975999999997 -635.0736599999997 -435.56345999999996 -634.5465699999996 C -429.58791999999994 -628.5811999999996 -436.05683 -635.0823599999997 -424.02835 -623.7852299999996 C -424.39817999999997 -622.8569499999996 -440.89787 -607.0613799999996 -465.75824 -610.5056599999996 C -452.27696 -593.5897499999995 -462.52538 -571.1573999999996 -463.15629 -569.8187599999995 C -465.40314 -569.7497599999996 -467.47874 -571.3279899999995 -478.0627 -574.8078299999995 C -479.8211 -572.3905599999995 -482.25057 -567.7173199999995 -485.60977 -560.7054399999995 Z" fill="#ee95d0" id="path1-5-08-0-08" sodipodi:nodetypes="cccccccccccccccccccccc" style="display:inline;fill:#f7f3f4;fill-opacity:1;stroke-width:0.235165" inkscape:label="petal"></path><path d="M -1502.1796 773.43875 C -1502.7672 773.5670200000001 -1519.4846 769.40509 -1524.9776 745.5686900000001 C -1531.0899 751.6093800000001 -1543.0726 760.27269 -1561.3741 760.0241100000001 C -1561.8152 757.85855 -1560.5581 753.6397700000001 -1559.7306 745.63633 C -1564.7201 745.51616 -1569.6716000000001 744.8487200000001 -1574.6394 744.41259 C -1575.6448 740.50302 -1565.6353 720.64072 -1552.5042 716.52335 C -1563.7991000000002 709.85654 -1570.136 701.5212 -1575.3487 687.3153100000001 C -1570.5073 685.7155100000001 -1565.5016 684.61369 -1560.5517 683.3865700000001 C -1561.3806 680.6892800000002 -1561.5063 680.1733400000002 -1563.4929 670.0285100000001 C -1546.1465 660.0442300000001 -1525.5919999999999 679.6285100000001 -1525.5919999999999 679.6285100000001 C -1525.665 676.5322100000001 -1515.2383 651.1577100000001 -1504.6846999999998 647.2281600000001 C -1502.2752999999998 651.2205000000001 -1499.8827999999999 655.2226900000002 -1497.5043999999998 659.2336600000001 C -1490.4835999999998 655.8165400000001 -1487.2486 653.2676400000001 -1483.6906999999999 652.05766 C -1475.4976 663.7187100000001 -1482.5882 681.7094000000001 -1485.3341999999998 687.67354 C -1465.3643999999997 680.2711 -1447.9621999999997 693.58663 -1447.0856999999999 696.45905 C -1447.1517 697.68131 -1456.5347 706.51139 -1457.1409999999998 706.9857400000001 C -1451.7632999999998 712.35427 -1457.5849999999998 706.5034200000001 -1446.7599999999998 716.6704000000001 C -1447.0926999999997 717.5056700000001 -1461.9415999999997 731.7208800000001 -1484.3146999999997 728.6212100000001 C -1472.1822999999997 743.8446600000001 -1481.4052999999997 764.0327800000001 -1481.9730999999997 765.2374900000001 C -1483.9950999999996 765.2995900000001 -1485.8630999999998 763.87926 -1495.3881999999996 760.7475800000001 C -1496.9706999999996 762.9230000000001 -1499.1569999999997 767.12854 -1502.1800999999996 773.43902 Z" fill="#ee95d0" id="path1-5-08-0-58" sodipodi:nodetypes="cccccccccccccccccccccc" style="display:inline;fill:#f7f3f4;fill-opacity:1;stroke-width:0.211637" inkscape:label="petal"></path><path d="M -3381.1354 -1122.0826 C -3381.5706 -1121.9876 -3393.9514 -1125.07 -3398.0195000000003 -1142.7231 C -3402.5462 -1138.2494 -3411.4205 -1131.8333 -3424.9745000000003 -1132.0175 C -3425.3012000000003 -1133.6213 -3424.3702000000003 -1136.7457 -3423.7573 -1142.673 C -3427.4525000000003 -1142.762 -3431.1196 -1143.2563 -3434.7987000000003 -1143.5793 C -3435.5433000000003 -1146.4747000000002 -3428.1303000000003 -1161.1846 -3418.4055000000003 -1164.2339000000002 C -3426.7704000000003 -1169.1713000000002 -3431.4635000000003 -1175.3444000000002 -3435.3240000000005 -1185.8652000000002 C -3431.7385000000004 -1187.0500000000002 -3428.0313000000006 -1187.8660000000002 -3424.3654000000006 -1188.7748000000001 C -3424.9793000000004 -1190.7723 -3425.0724000000005 -1191.1544000000001 -3426.5437000000006 -1198.6677000000002 C -3413.6970000000006 -1206.0620000000001 -3398.4745000000007 -1191.5580000000002 -3398.4745000000007 -1191.5580000000002 C -3398.5295000000006 -1193.8511000000003 -3390.806600000001 -1212.6432000000002 -3382.9907000000007 -1215.5535000000002 C -3381.2063000000007 -1212.5967000000003 -3379.4344000000006 -1209.6328000000003 -3377.6730000000007 -1206.6623000000002 C -3372.4734000000008 -1209.1930000000002 -3370.0776000000005 -1211.0806000000002 -3367.4426000000008 -1211.9768000000001 C -3361.3749000000007 -1203.3407000000002 -3366.626100000001 -1190.0169 -3368.659800000001 -1185.5999000000002 C -3353.870300000001 -1191.0821 -3340.982300000001 -1181.2207 -3340.333200000001 -1179.0934000000002 C -3340.382200000001 -1178.1881000000003 -3347.331100000001 -1171.6487000000002 -3347.780100000001 -1171.2974000000002 C -3343.797400000001 -1167.3215000000002 -3348.1089000000006 -1171.6545 -3340.092000000001 -1164.1250000000002 C -3340.338400000001 -1163.5063000000002 -3351.335400000001 -1152.9786000000001 -3367.904800000001 -1155.2742000000003 C -3358.919600000001 -1143.9998000000003 -3365.750100000001 -1129.0487000000003 -3366.1706000000013 -1128.1565000000003 C -3367.6681000000012 -1128.1105000000002 -3369.0515000000014 -1129.1624000000004 -3376.1057000000014 -1131.4817000000003 C -3377.2777000000015 -1129.8706000000002 -3378.8969000000016 -1126.7559000000003 -3381.1358000000014 -1122.0825000000002 Z" fill="#ee95d0" id="path1-5-08-0-39" sodipodi:nodetypes="cccccccccccccccccccccc" style="display:inline;fill:#f7f3f4;fill-opacity:1;stroke-width:0.156737" inkscape:label="petal"></path><path d="M -2101.875 -2361.9201 C -2102.3102 -2361.8251 -2114.691 -2364.9075 -2118.7591 -2382.5606 C -2123.2858 -2378.0869 -2132.1601 -2371.6708 -2145.7141 -2371.855 C -2146.0408 -2373.4588 -2145.1098 -2376.5832 -2144.4969 -2382.5105 C -2148.1921 -2382.5995 -2151.8592 -2383.0937999999996 -2155.5383 -2383.4168 C -2156.2829 -2386.3122 -2148.8699 -2401.0221 -2139.1451 -2404.0714 C -2147.51 -2409.0087999999996 -2152.2031 -2415.1818999999996 -2156.0636000000004 -2425.7027 C -2152.4781000000003 -2426.8875 -2148.7709000000004 -2427.7034999999996 -2145.1050000000005 -2428.6123 C -2145.7189000000003 -2430.6097999999997 -2145.8120000000004 -2430.9919 -2147.2833000000005 -2438.5051999999996 C -2134.4366000000005 -2445.8994999999995 -2119.2141000000006 -2431.3954999999996 -2119.2141000000006 -2431.3954999999996 C -2119.2681000000007 -2433.6885999999995 -2111.5462000000007 -2452.4806999999996 -2103.7303000000006 -2455.3909999999996 C -2101.9459000000006 -2452.4341999999997 -2100.1740000000004 -2449.4702999999995 -2098.4126000000006 -2446.4997999999996 C -2093.2130000000006 -2449.0304999999994 -2090.8172000000004 -2450.9180999999994 -2088.1822000000006 -2451.8142999999995 C -2082.1145000000006 -2443.1781999999994 -2087.3657000000007 -2429.8543999999997 -2089.3994000000007 -2425.4373999999993 C -2074.609900000001 -2430.9195999999993 -2061.721900000001 -2421.0581999999995 -2061.072800000001 -2418.9308999999994 C -2061.121800000001 -2418.0255999999995 -2068.0707000000007 -2411.4861999999994 -2068.5197000000007 -2411.1348999999996 C -2064.5370000000007 -2407.1589999999997 -2068.8485000000005 -2411.4919999999997 -2060.831600000001 -2403.9624999999996 C -2061.078000000001 -2403.3437999999996 -2072.0750000000007 -2392.8160999999996 -2088.644400000001 -2395.1116999999995 C -2079.659200000001 -2383.8372999999997 -2086.489700000001 -2368.8861999999995 -2086.910200000001 -2367.9939999999997 C -2088.407700000001 -2367.948 -2089.7911000000013 -2368.9999 -2096.8453000000013 -2371.3192 C -2098.0173000000013 -2369.7081 -2099.6365000000014 -2366.5933999999997 -2101.8754000000013 -2361.92 Z" fill="#ee95d0" id="path1-5-08-0-61" sodipodi:nodetypes="cccccccccccccccccccccc" style="display:inline;fill:#f7f3f4;fill-opacity:1;stroke-width:0.156737" inkscape:label="petal"></path><animateTransform attributeName="transform" attributeType="auto" type="translate" values="0 0;8142.72 7091.68" calcMode="spline" keyTimes="0;1" keySplines=".25 0 .75 1" dur="10.04s" begin="0s" repeatCount="1" additive="sum" accumulate="none" id="animateTransform5134" style="stroke: none; stroke-width: 1px; stroke-linejoin: miter; stroke-linecap: butt; stroke-miterlimit: 4; opacity: 1; filter: none; fill: rgb(0, 0, 0);"></animateTransform></g></g></svg>