<?xml version="1.0" encoding="UTF-8" standalone="no"?>
<!-- Created with Inkscape (http://www.inkscape.org/) -->

<svg
   width="1920mm"
   height="1080mm"
   viewBox="0 0 1920 1080"
   version="1.1"
   id="svg1"
   inkscape:version="1.4.3 (0d15f75, 2025-12-25)"
   sodipodi:docname="spring.svg"
   xml:space="preserve"
   xmlns:inkscape="http://www.inkscape.org/namespaces/inkscape"
   xmlns:sodipodi="http://sodipodi.sourceforge.net/DTD/sodipodi-0.dtd"
   xmlns:xlink="http://www.w3.org/1999/xlink"
   xmlns="http://www.w3.org/2000/svg"
   xmlns:svg="http://www.w3.org/2000/svg"><sodipodi:namedview
     id="namedview1"
     pagecolor="#ffffff"
     bordercolor="#000000"
     borderopacity="0.25"
     inkscape:showpageshadow="2"
     inkscape:pageopacity="0.0"
     inkscape:pagecheckerboard="0"
     inkscape:deskcolor="#d1d1d1"
     inkscape:document-units="mm"
     inkscape:zoom="0.04"
     inkscape:cx="-4425"
     inkscape:cy="-3562.5"
     inkscape:window-width="1920"
     inkscape:window-height="1111"
     inkscape:window-x="-9"
     inkscape:window-y="-9"
     inkscape:window-maximized="1"
     inkscape:current-layer="layer7" /><defs
     id="defs1"><linearGradient
       id="linearGradient7"
       inkscape:collect="always"><stop
         style="stop-color:#bfd1dc;stop-opacity:1;"
         offset="0"
         id="stop7" /><stop
         style="stop-color:#c7d6dd;stop-opacity:1;"
         offset="0.38147011"
         id="stop10" /><stop
         style="stop-color:#e16b5c;stop-opacity:1;"
         offset="1"
         id="stop8" /></linearGradient><linearGradient
       inkscape:collect="always"
       xlink:href="#linearGradient7"
       id="linearGradient8-4"
       x1="109.88719"
       y1="3.4478526"
       x2="115.06703"
       y2="296.90793"
       gradientUnits="userSpaceOnUse"
       spreadMethod="pad"
       gradientTransform="matrix(8.8758556,0,0,4.2943525,-104.15945,-125.12299)" /></defs><g
     inkscape:groupmode="layer"
     id="layer3"
     inkscape:label="Sky"
     style="display:inline;fill:#000000"><path
       style="display:inline;fill:url(#linearGradient8-4);fill-opacity:1;fill-rule:nonzero;stroke-width:1.63348"
       d="m 491.6276,-233.21902 c -319.79744,-2.11953 -854.25342,93.25933 -854.25342,93.25933 l 78.85416,417.54742 c 0,0 48.18866,171.68193 -118.28124,341.24436 -166.46989,169.56239 227.80092,786.34551 227.80092,786.34551 l 2273.62828,-86.9007 c 0,0 464.3633,-199.2358 210.2778,-623.14172 -254.0857,-423.90604 -254.0857,-423.90604 -254.0857,-423.90604 0,0 100.7582,-434.50367 -245.324,-495.97004 -346.0821,-61.46638 -1318.6168,-8.47812 -1318.6168,-8.47812 z"
       id="path4-4"
       inkscape:label="sky"
       transform="translate(-63.231506,-100.62594)" /></g><g
     inkscape:groupmode="layer"
     id="layer4"
     inkscape:label="Sun"
     style="display:inline"><ellipse
       style="display:inline;fill:#d94a45;fill-opacity:1;stroke-width:1.325;stroke-dasharray:none"
       id="path6-6"
       cx="996.93115"
       cy="542.79266"
       rx="273.92703"
       ry="264.05576"
       inkscape:label="sun" /></g><g
     inkscape:label="Foreground 3"
     inkscape:groupmode="layer"
     id="layer1-5"
     transform="translate(-1.0926367,-95.495827)"
     style="display:inline"><path
       style="fill:#dde8db;fill-opacity:1;stroke-width:1.50924"
       d="M 65.814785,821.62337 C -238.30879,1084.3931 391.35573,1317.5545 391.35573,1317.5545 l 1687.67217,-155.441 c 0,0 257.0059,-277.57319 111.3693,-433.01455 C 2044.7604,573.65798 65.814785,821.62337 65.814785,821.62337 Z"
       id="path2"
       inkscape:label="hill" /></g><g
     inkscape:label="Foreground 2"
     inkscape:groupmode="layer"
     id="layer1-4"
     transform="translate(-1.0926367,-95.495827)"
     style="display:inline"><path
       style="display:inline;fill:#c9d8c5;fill-opacity:1;stroke-width:1.85327"
       d="m -799.85126,958.83314 c 0,0 434.16552,-171.50225 1107.36598,-220.50262 673.20053,-49.00035 1731.78378,151.90202 1731.78378,151.90202 l -97.5654,504.70596 -1190.29626,-26.9504 -907.35723,14.7004 z"
       id="path1"
       inkscape:label="hill" /></g><g
     inkscape:label="Foreground 1"
     inkscape:groupmode="layer"
     id="layer1"
     style="display:inline"><path
       style="fill:#9fafb0;fill-opacity:1;stroke-width:1.14101"
       d="m 268.09681,1436.4511 c -97.9104,-161.765 -121.32375,-146.8656 -129.83769,-317.1446 -8.51395,-170.27891 36.18427,-266.06084 36.18427,-266.06084 l 61.72612,-74.49705 91.52494,-36.1843 253.28997,59.59768 29.79882,38.31277 -12.77096,-46.82672 -117.06677,-48.95521 -78.75401,-29.79881 61.72614,-29.79882 76.6255,14.89939 -80.88249,-31.9273 -6.38548,-61.72614 -8.51393,59.59763 -53.21218,19.15642 -85.13948,19.15638 14.8994,-44.69823 31.92733,-36.1843 25.54183,-21.28486 -53.21219,17.02791 -34.05578,34.05577 -17.02789,51.08371 -78.75402,21.28487 c 0,0 -83.01099,53.21216 -78.75402,-4.257 4.25697,-57.46915 31.92732,-106.42434 31.92732,-106.42434 l 87.26795,-53.21216 53.21218,-40.44125 61.72613,34.05578 -51.0837,-51.08369 h 87.26797 l 27.67034,29.79882 36.18427,12.77092 46.82671,14.89942 53.21219,17.02787 -4.25699,53.21219 19.15638,-42.56972 72.3686,10.64243 -63.85465,-34.05582 -55.34066,-31.92729 10.64242,-40.44126 -34.05576,27.67035 -53.21219,-23.41338 85.13947,-34.05578 80.8825,4.25697 51.08373,46.82671 42.56971,59.59764 17.02791,53.2122 -36.18428,42.56972 38.31275,-25.54186 23.41334,65.9831 -2.12847,-70.24006 23.41338,-40.44124 -34.05581,6.38543 -19.15638,-63.85459 29.79881,-8.51395 25.54186,8.51395 25.54186,12.77092 -10.64248,-21.28487 -25.54181,-14.89943 -34.05582,-2.12846 -21.28486,4.25698 -36.18428,-51.0837 46.82672,-17.0279 -65.9831,6.38546 -34.05578,-19.15638 -25.54186,-57.46914 -8.51396,42.56974 -51.08368,4.25697 23.41338,-70.24007 34.05578,-17.0279 63.85463,-2.12848 -68.11159,-21.28487 -46.82672,19.15638 -38.31276,-27.67034 12.7709,38.31277 14.89943,12.77093 -31.92734,68.11158 -63.85458,23.41335 -65.9831,-2.12848 34.0558,-42.56974 51.08367,-14.89941 -57.46915,-6.38547 -29.7988,-36.18427 4.25697,42.56974 -25.54184,42.56974 -57.46917,19.15637 -31.92729,10.64244 6.38546,-61.72611 -31.92732,63.8546 -57.46913,8.51394 c 0,0 -72.36857,48.95522 -76.625541,0 -4.256972,-48.95519 -34.055792,-155.37954 14.899411,-157.50802 48.9552,-2.12849 93.65343,-12.77093 93.65343,-12.77093 l -34.0558,51.08368 -42.56974,14.89942 h 48.9552 l 2.1285,34.05579 12.77091,-40.44126 31.92731,-53.21217 46.82671,-4.25697 10.64244,46.82671 12.77091,-46.82671 57.46916,-12.77093 55.34066,-23.41335 53.21216,-25.54186 70.2401,-19.15637 51.08367,19.15637 -46.82672,-42.56972 2.12848,-53.21218 -25.54181,44.69822 -57.46917,14.89941 -27.67032,-25.54184 v -23.41336 l -4.25697,-40.44125 -23.41337,40.44125 4.25699,34.05579 10.64243,19.15639 -61.72613,29.79881 -55.34066,10.64244 10.64243,-48.9552 38.31278,-27.67033 -48.95521,14.8994 -17.0279,-34.05579 2.12849,42.56974 -8.51396,48.95521 -87.26796,8.51396 -59.59763,-2.12852 34.05579,-51.08367 48.95519,-14.89941 23.41336,-36.18428 -42.56973,25.54184 -31.9273,8.51395 10.64243,-34.05579 23.41335,-23.41336 19.15639,-19.15638 h -34.0558 l -31.92729,29.79882 -14.89941,21.28487 -8.51396,23.41336 -17.027887,36.18427 -12.770926,19.1564 -25.541846,-40.44127 21.284874,-51.08368 -42.569744,31.9273 -78.754021,-31.9273 34.0557933,42.56973 42.5697407,31.9273 21.28487,40.44127 -70.240072,4.25698 -55.340662,1204.72357 z"
       id="path3"
       inkscape:label="Front Tree" /><path
       style="display:inline;fill:#9fafb0;fill-opacity:1;stroke-width:0.641308"
       d="m 1793.1454,1115.1776 c 53.6729,-93.2204 66.5077,-84.6343 71.1749,-182.76113 4.6672,-98.12667 -19.8356,-153.32297 -19.8356,-153.32297 l -33.8373,-42.93045 -50.1725,-20.85195 -138.8494,34.34439 -16.3353,22.07852 7.0009,-26.98486 64.1741,-28.21144 43.1717,-17.17218 -33.8373,-17.17218 -42.0049,8.58608 44.3385,-18.39876 3.5004,-35.57096 4.6672,34.34436 29.1701,11.03928 46.672,11.03926 -8.1675,-25.75827 -17.5021,-20.85195 -14.0016,-12.26584 29.17,9.81269 18.6688,19.62533 9.3345,29.43804 43.1716,12.26584 c 0,0 45.5053,30.6646 43.1717,-2.45318 -2.3336,-33.11778 -17.502,-61.32921 -17.502,-61.32921 l -47.8389,-30.6646 -29.17,-23.3051 -33.8373,19.62534 28.0032,-29.43802 h -47.8388 l -15.1685,17.17218 -19.8356,7.3595 -25.6696,8.5861 -29.1701,9.81266 2.3336,30.66461 -10.5012,-24.53167 -39.6713,6.13292 35.0041,-19.62537 30.3369,-18.39875 -5.834,-23.30511 18.6688,15.94561 29.17,-13.49244 -46.6721,-19.62534 -44.3384,2.45316 -28.0033,26.98486 -23.336,34.34436 -9.3344,30.66462 19.8356,24.53167 -21.0024,-14.71902 -12.8348,38.02412 1.1668,-40.47728 -12.8349,-23.30509 18.6689,3.67973 10.5012,-36.79751 -16.3352,-4.90634 -14.0017,4.90634 -14.0016,7.3595 5.834,-12.26584 14.0016,-8.5861 18.6689,-1.22657 11.668,2.45317 19.8356,-29.43803 -25.6696,-9.81268 36.1709,3.67976 18.6687,-11.03926 14.0017,-33.11777 4.6672,24.53168 28.0032,2.45317 -12.8348,-40.47728 -18.6688,-9.81268 -35.0041,-1.22658 37.3377,-12.26584 25.6697,11.03926 21.0024,-15.9456 -7.0009,22.07852 -8.1676,7.35951 17.5021,39.25069 35.004,13.49242 36.1709,-1.22658 -18.6688,-24.53168 -28.0033,-8.58609 31.5037,-3.67976 16.3352,-20.85193 -2.3336,24.53169 14.0016,24.53168 31.5036,11.03925 17.5021,6.13293 -3.5004,-35.57094 17.5021,36.79752 31.5036,4.90634 c 0,0 39.6712,28.21145 42.0049,0 2.3336,-28.21144 18.6688,-89.54065 -8.1677,-90.76723 -26.8365,-1.22659 -51.3392,-7.35951 -51.3392,-7.35951 l 18.6688,29.43802 23.336,8.58609 h -26.8364 l -1.1668,19.62535 -7.0009,-23.3051 -17.502,-30.66461 -25.6696,-2.45317 -5.834,26.98486 -7.0008,-26.98486 -31.5037,-7.35951 -30.3368,-13.49242 -29.1701,-14.71902 -38.5045,-11.03925 -28.0032,11.03925 25.6696,-24.53167 -1.1667,-30.66461 14.0015,25.75826 31.5037,8.58609 15.1684,-14.71901 v -13.49242 l 2.3336,-23.3051 12.8349,23.3051 -2.3336,19.62534 -5.834,11.03926 33.8372,17.17218 30.3369,6.13292 -5.8341,-28.21143 -21.0024,-15.9456 26.8365,8.58609 9.3344,-19.62535 -1.1668,24.53168 4.6672,28.21145 47.8389,4.90634 32.6704,-1.2266 -18.6689,-29.43801 -26.8363,-8.58609 -12.8349,-20.85194 23.336,14.71901 17.5021,4.90634 -5.834,-19.62535 -12.8349,-13.49243 -10.5011,-11.03925 h 18.6688 l 17.502,17.17218 8.1677,12.26584 4.6671,13.49243 9.3344,20.85193 7.0009,11.03927 14.0016,-23.30512 -11.668,-29.43801 23.336,18.39876 43.1717,-18.39876 -18.6688,24.53168 -23.3361,18.39876 -11.668,23.30511 38.5044,2.45317 30.3369,694.24669 z"
       id="path3-6"
       inkscape:label="Back Tree" /></g><g
     inkscape:groupmode="layer"
     id="layer2"
     inkscape:label="Sakura"
     style="display:inline"
     transform="translate(1.3960047,2.7920094)"><g
       inkscape:groupmode="layer"
       id="layer2-1"
       inkscape:label="Front Petal"
       style="display:inline"
       transform="matrix(4.7487252,0,0,4.7487252,7.4592414,49.801482)"><path
         d="m 114.10017,145.944 c 0.11435,-0.0726 3.97075,-0.48565 6.97575,4.12913 0.82506,-1.74991 2.68845,-4.50839 6.57711,-5.87137 0.26061,0.42378 0.32126,1.41295 0.76534,3.16907 1.06423,-0.36042 2.16272,-0.60238 3.24677,-0.8944 0.51497,0.74883 -0.0651,5.72242 -2.52286,7.6086 2.90368,0.53591 4.8882,1.80809 7.08903,4.4084 -0.89984,0.7127 -1.87297,1.33284 -2.8246,1.97512 0.38389,0.50616 0.45038,0.60551 1.65507,2.59675 -2.89527,3.45261 -8.75578,0.90179 -8.75578,0.90179 0.25494,0.649 0.013,6.82028 -1.91432,8.46737 -0.8182,-0.65774 -1.6336,-1.31882 -2.44666,-1.98292 -1.22009,1.26552 -1.70691,2.05462 -2.36555,2.58565 -2.63417,-1.83174 -2.52656,-6.18389 -2.40726,-7.65725 -3.64957,3.10965 -8.35878,1.64038 -8.76626,1.10087 -0.081,-0.26338 1.22026,-2.85615 1.31176,-3.00334 -1.55222,-0.71912 0.13119,0.0676 -2.94389,-1.24466 0.006,-0.20236 2.04572,-4.35633 7.01572,-5.43144 -3.7426,-2.28024 -3.35406,-7.2619 -3.32719,-7.56052 0.42266,-0.16965 0.92749,-0.0137 3.18356,-0.0883 0.16631,-0.58234 0.30328,-1.64061 0.45436,-3.20863 z"
         fill="#ee95d0"
         id="path1-5"
         sodipodi:nodetypes="cccccccccccccccccccccc"
         style="display:inline;fill:#e8b7c6;fill-opacity:1;stroke-width:0.0476457"
         inkscape:label="petal" /><path
         d="m 86.806984,120.99555 c 0.08058,-0.10886 3.53035,-1.88131 7.994054,1.34383 0.140459,-1.92954 0.887006,-5.17363 4.025211,-7.84403 0.395593,0.30169 0.807956,1.20284 1.853941,2.68173 0.86338,-0.71907 1.80133,-1.33994 2.7078,-2.00232 0.74985,0.5135 1.99748,5.36288 0.38256,8.00683 2.90211,-0.54432 5.21139,-0.071 8.2002,1.56368 -0.58329,0.98864 -1.26825,1.9173 -1.92518,2.85885 0.54024,0.33422 0.63802,0.40301 2.47828,1.8277 -1.45972,4.26291 -7.8455,3.99064 -7.8455,3.99064 0.47131,0.51387 2.46523,6.35918 1.25926,8.58925 -1.00002,-0.31944 -1.99863,-0.643 -2.99613,-0.97022 -0.68327,1.61966 -0.8537,2.53104 -1.27727,3.26342 -3.116712,-0.76172 -4.581635,-4.86132 -5.000252,-6.279 -2.28689,4.21419 -7.209407,4.53701 -7.783662,4.18016 -0.170311,-0.21662 0.111326,-3.1039 0.143767,-3.27416 -1.706996,-0.1127 0.146725,0.0159 -3.194554,-0.10254 -0.0674,-0.19089 0.341974,-4.80058 4.592699,-7.59131 -4.312279,-0.78154 -5.741494,-5.56957 -5.823828,-5.85787 0.333359,-0.31031 0.860501,-0.34637 2.938757,-1.22743 -0.05427,-0.60318 -0.307091,-1.6399 -0.730091,-3.15732 z"
         fill="#ee95d0"
         id="path1-5-7"
         sodipodi:nodetypes="cccccccccccccccccccccc"
         style="display:inline;fill:#e8b7c6;fill-opacity:1;stroke-width:0.0476457"
         inkscape:label="petal" /><path
         d="m 57.183869,127.43441 c -0.06642,-0.11803 -0.274248,-3.99092 4.493493,-6.74679 -1.703651,-0.91676 -4.359361,-2.92391 -5.514064,-6.87943 0.437018,-0.23775 1.428004,-0.24582 3.205224,-0.59608 -0.303436,-1.08185 -0.486766,-2.19164 -0.720851,-3.28966 0.775107,-0.47451 5.71091,0.36865 7.464,2.92307 0.689249,-2.87114 2.064947,-4.78535 4.778391,-6.8451 0.663935,0.9364 1.231563,1.94107 1.822436,2.92544 0.525818,-0.35648 0.628563,-0.41761 2.680923,-1.51493 3.294104,3.07441 0.435873,8.7913 0.435873,8.7913 0.661614,-0.22015 6.811365,0.34891 8.35385,2.36095 -0.700227,0.78215 -1.40365,1.56132 -2.10996,2.33799 1.198992,1.28553 1.96114,1.81354 2.456467,2.49943 -1.968947,2.53326 -6.309245,2.19484 -7.774207,1.99752 2.911597,3.80945 1.194491,8.43405 0.634119,8.81233 -0.267307,0.0669 -2.787367,-1.37011 -2.929496,-1.4693 -0.800479,1.51188 0.07448,-0.12741 -1.399134,2.8737 -0.201767,-0.0165 -4.241631,-2.27401 -5.051481,-7.29407 -2.475637,3.61632 -7.429655,2.96397 -7.726428,2.92129 -0.14698,-0.43107 0.03554,-0.92692 0.08076,-3.18376 -0.572695,-0.19698 -1.62221,-0.38992 -3.179995,-0.624 z"
         fill="#ee95d0"
         id="path1-5-0"
         sodipodi:nodetypes="cccccccccccccccccccccc"
         style="display:inline;fill:#e8b7c6;fill-opacity:1;stroke-width:0.0476457"
         inkscape:label="petal" /><path
         d="m 66.172965,69.465616 c 0.01761,-0.134294 2.173304,-3.358485 7.641383,-2.705555 -0.813834,-1.755149 -1.735876,-4.953786 -0.288455,-8.81182 0.492307,0.07174 1.290263,0.659431 2.922625,1.44466 0.405788,-1.047772 0.924445,-2.045884 1.395425,-3.065007 0.904839,0.08496 4.349593,3.719061 4.221115,6.814529 2.273049,-1.884622 4.521743,-2.59181 7.928333,-2.613416 -0.03006,1.147495 -0.178126,2.29189 -0.295419,3.433973 0.634562,0.02995 0.75344,0.04263 3.053914,0.394926 0.793082,4.435556 -4.922057,7.297276 -4.922057,7.297276 0.661499,0.220487 5.242151,4.363058 5.270308,6.898172 -1.029354,0.206145 -2.059485,0.407999 -3.090429,0.606121 0.188843,1.74771 0.482239,2.627246 0.467433,3.473163 -3.094644,0.846942 -6.365416,-2.026169 -7.419569,-3.062415 0.04625,4.794492 -4.100721,7.466194 -4.776002,7.432962 -0.254051,-0.106715 -1.409356,-2.767728 -1.463638,-2.932325 -1.547107,0.730068 0.136002,-0.05731 -2.842718,1.461042 -0.15159,-0.134174 -2.031303,-4.363068 0.330368,-8.866326 -4.149527,1.409963 -7.723254,-2.082361 -7.935183,-2.29445 0.140819,-0.433121 0.584184,-0.720533 1.97349,-2.499643 -0.340245,-0.501012 -1.064523,-1.284676 -2.170925,-2.405997 z"
         fill="#ee95d0"
         id="path1-5-3"
         sodipodi:nodetypes="cccccccccccccccccccccc"
         style="display:inline;fill:#e8b7c6;fill-opacity:1;stroke-width:0.0476457"
         inkscape:label="petal" /><path
         d="m 129.69107,67.450964 c -0.11754,0.0673 -3.98877,0.30389 -6.78,-4.443245 -0.90407,1.710416 -2.89143,4.380964 -6.83826,5.565023 -0.241,-0.435241 -0.25643,-1.426139 -0.61988,-3.200708 -1.07957,0.311465 -2.18797,0.503035 -3.28421,0.745271 -0.48026,-0.77156 0.3262,-5.71349 2.86753,-7.48551 -2.87619,-0.667899 -4.80056,-2.029338 -6.88041,-4.727404 0.93144,-0.670874 1.93186,-1.24595 2.91182,-1.84412 -0.36038,-0.523156 -0.42227,-0.625443 -1.53481,-2.669594 3.04985,-3.316855 8.78782,-0.501176 8.78782,-0.501176 -0.22506,-0.659959 0.29829,-6.813768 2.29882,-8.371159 0.78733,0.694397 1.57171,1.392012 2.35361,2.092531 1.27658,-1.208509 1.79891,-1.974558 2.4811,-2.474968 2.54782,1.950072 2.24165,6.292764 2.05523,7.759152 3.78771,-2.939819 8.42494,-1.257118 8.80737,-0.699571 0.0689,0.266802 -1.34936,2.797469 -1.44749,2.940331 1.51778,0.789224 -0.12796,-0.07353 2.88401,1.377745 -0.015,0.201884 -2.24244,4.258408 -7.25634,5.105532 3.63462,2.448702 3.01909,7.40743 2.97862,7.704512 -0.42997,0.150178 -0.92716,-0.02865 -3.18428,-0.05711 -0.19272,0.574142 -0.37786,1.625062 -0.60035,3.184543 z"
         fill="#ee95d0"
         id="path1-5-8"
         sodipodi:nodetypes="cccccccccccccccccccccc"
         style="display:inline;fill:#e8b7c6;fill-opacity:1;stroke-width:0.0476457"
         inkscape:label="petal" /><path
         d="m 170.53511,93.84919 c 0.10068,0.09058 1.53639,3.693522 -2.09935,7.82965 1.90738,0.32366 5.06558,1.37588 7.42485,4.75424 -0.33801,0.36505 -1.27435,0.68968 -2.84617,1.59 0.63355,0.92796 1.16223,1.9208 1.73523,2.88626 -0.5826,0.69751 -5.52879,1.47745 -8.00685,-0.38203 0.26534,2.94078 -0.42579,5.19446 -2.33784,8.01392 -0.92857,-0.67483 -1.78774,-1.44515 -2.66243,-2.1888 -0.38417,0.50594 -0.46196,0.59672 -2.0555,2.29287 -4.10444,-1.85921 -3.225,-8.19 -3.225,-8.19 -0.55645,0.4202 -6.56512,1.84814 -8.67016,0.43518 0.41326,-0.96502 0.83049,-1.92827 1.25127,-2.89005 -1.5472,-0.83448 -2.43819,-1.09096 -3.12689,-1.58238 1.0552,-3.02996 5.27571,-4.09764 6.72683,-4.37928 -3.97714,-2.677991 -3.8295,-7.608877 -3.41956,-8.146516 0.23186,-0.148898 3.07918,0.406542 3.24557,0.455056 0.27482,-1.688492 -0.0298,0.144542 0.40643,-3.170252 0.19644,-0.04891 4.74616,0.79779 7.11921,5.295063 1.18884,-4.218202 6.09125,-5.18474 6.38608,-5.239232 0.27715,0.361408 0.26282,0.889587 0.94186,3.042331 0.60562,0.0034 1.66171,-0.149453 3.21252,-0.425958 z"
         fill="#ee95d0"
         id="path1-5-1"
         sodipodi:nodetypes="cccccccccccccccccccccc"
         style="display:inline;fill:#e8b7c6;fill-opacity:1;stroke-width:0.0476457"
         inkscape:label="petal" /><path
         d="m 161.1141,124.26087 c 0.0797,0.10948 0.73782,3.9317 -3.67599,7.2248 1.79894,0.71182 4.67061,2.39555 6.27875,6.18941 -0.40631,0.2871 -1.3896,0.41069 -3.11384,0.96582 0.42754,1.03909 0.73904,2.11992 1.09958,3.18314 -0.71447,0.56167 -5.71493,0.29991 -7.75396,-2.03264 -0.3497,2.93194 -1.49277,4.99353 -3.94748,7.35567 -0.76861,-0.85258 -1.44954,-1.7842 -2.15118,-2.69294 -0.48065,0.41538 -0.57557,0.48807 -2.48595,1.81726 -3.63018,-2.66927 -1.45818,-8.68048 -1.45818,-8.68048 -0.63142,0.29581 -6.80557,0.44784 -8.57218,-1.37059 0.60423,-0.85846 1.21198,-1.71436 1.82289,-2.5681 -1.34073,-1.13693 -2.15926,-1.57245 -2.73119,-2.19589 1.66007,-2.7456 6.01022,-2.91567 7.48819,-2.89055 -3.336,-3.44389 -2.16995,-8.23719 -1.65752,-8.67824 0.25768,-0.0976 2.92814,1.03568 3.08086,1.11762 0.6187,-1.59492 -0.0591,0.13523 1.05445,-3.01726 0.20231,-0.007 4.47789,1.76382 5.86767,6.65517 2.037,-3.88036 7.03329,-3.81022 7.33301,-3.80244 0.19625,0.41099 0.0728,0.92474 0.2911,3.17146 0.59176,0.12884 1.65661,0.19807 3.23106,0.24887 z"
         fill="#ee95d0"
         id="path1-5-35"
         sodipodi:nodetypes="cccccccccccccccccccccc"
         style="display:inline;fill:#e8b7c6;fill-opacity:1;stroke-width:0.0476457"
         inkscape:label="petal" /><path
         d="m 118.56535,20.187641 c 0.0688,0.116663 0.35531,3.984523 -4.35543,6.836737 1.72193,0.881941 4.41789,2.834696 5.65275,6.765917 -0.4321,0.246587 -1.42272,0.274801 -3.19245,0.661106 0.32536,1.075467 0.53121,2.181296 0.78757,3.274327 -0.7653,0.490169 -5.71722,-0.252486 -7.52187,-2.770753 -0.63075,2.884563 -1.96726,4.826339 -4.63827,6.940818 -0.68283,-0.922708 -1.27077,-1.915641 -1.88152,-2.887788 -0.51846,0.367098 -0.61994,0.4303 -2.64958,1.569109 -3.35591,-3.006821 -0.61447,-8.780621 -0.61447,-8.780621 -0.657002,0.233548 -6.817049,-0.210392 -8.400116,-2.190675 0.684185,-0.796214 1.371626,-1.589524 2.062003,-2.380395 -1.224874,-1.260888 -1.997596,-1.773298 -2.506763,-2.448978 1.91705,-2.572753 6.26333,-2.322625 7.732,-2.15513 -2.988426,-3.74948 -1.365673,-8.408027 -0.813105,-8.797612 0.265891,-0.07233 2.814641,1.313166 2.958751,1.409444 0.76959,-1.527835 -0.0719,0.128899 1.34044,-2.901539 0.20206,0.01239 4.28697,2.187328 5.1987,7.189889 2.40162,-3.665894 7.36787,-3.11437 7.66545,-3.077733 0.15571,0.427992 -0.0167,0.927448 -0.016,3.184748 0.57658,0.185297 1.6298,0.356868 3.19202,0.55923 z"
         fill="#ee95d0"
         id="path1-5-6"
         sodipodi:nodetypes="cccccccccccccccccccccc"
         style="display:inline;fill:#e8b7c6;fill-opacity:1;stroke-width:0.0476457"
         inkscape:label="petal" /><path
         d="m 46.99256,43.293152 c -0.09722,-0.09431 -1.396637,-3.748609 2.391844,-7.74531 -1.89389,-0.395043 -5.01036,-1.565109 -7.241123,-5.029664 0.351477,-0.352102 1.299346,-0.641347 2.903857,-1.482021 -0.598255,-0.951094 -1.089285,-1.963083 -1.625636,-2.94937 0.608383,-0.675146 5.580365,-1.268823 7.986863,0.682381 -0.154741,-2.948661 0.620522,-5.174804 2.637081,-7.920493 0.902582,0.709219 1.73222,1.511258 2.578377,2.287228 0.402893,-0.491166 0.484041,-0.57896 2.140141,-2.214082 4.03174,2.012016 2.915229,8.305319 2.915229,8.305319 0.571822,-0.399018 6.629882,-1.600342 8.680379,-0.10935 -0.449201,0.948833 -0.902309,1.895727 -1.358895,2.841045 1.514773,0.891973 2.395514,1.181732 3.065274,1.698661 -1.168223,2.988209 -5.425854,3.896664 -6.886516,4.123627 3.873789,2.825429 3.541112,7.747289 3.111279,8.269163 -0.237287,0.140087 -3.061741,-0.521867 -3.22619,-0.576594 -0.338029,1.676984 0.03522,-0.14332 -0.525176,3.152758 -0.198142,0.0415 -4.712866,-0.975428 -6.915383,-5.55863 -1.346377,4.170592 -6.281624,4.952381 -6.578294,4.995765 -0.263378,-0.371559 -0.229232,-0.898827 -0.826966,-3.075549 -0.605058,-0.02618 -1.666146,0.08696 -3.226251,0.30504 z"
         fill="#ee95d0"
         id="path1-5-16"
         sodipodi:nodetypes="cccccccccccccccccccccc"
         style="display:inline;fill:#e8b7c6;fill-opacity:1;stroke-width:0.0476457"
         inkscape:label="petal" /><path
         d="m 23.970878,6.6514115 c 0.111074,-0.077509 3.945805,-0.6582497 7.149085,3.8211705 0.748006,-1.784198 2.489398,-4.6212728 6.314964,-6.1524474 0.278833,0.4120249 0.382537,1.3976028 0.902728,3.1327082 1.047511,-0.4064611 2.134413,-0.6960733 3.204702,-1.0350669 0.547124,0.7256769 0.184411,5.7198231 -2.188843,7.7113281 2.924276,0.40885 4.962354,1.593325 7.274432,4.095248 -0.867926,0.751233 -1.813105,1.4132 -2.735833,2.096344 0.405581,0.488948 0.476341,0.585311 1.76667,2.52215 -2.74204,3.575521 -8.708155,1.282547 -8.708155,1.282547 0.282989,0.637271 0.310287,6.813233 -1.543451,8.542757 -0.846089,-0.621449 -1.689532,-1.246365 -2.530766,-1.874396 -1.163769,1.317496 -1.615736,2.127058 -2.250603,2.686287 -2.711505,-1.71519 -2.793679,-6.067886 -2.738716,-7.545054 -3.510569,3.265761 -8.279337,2.003133 -8.709942,1.481896 -0.0924,-0.259598 1.094614,-2.906617 1.179616,-3.057657 -1.582093,-0.650783 0.134007,0.06184 -2.995343,-1.115173 -0.0031,-0.202418 1.853904,-4.441351 6.772329,-5.732054 -3.838429,-2.114955 -3.667381,-7.108811 -3.653553,-7.408318 0.414865,-0.1879089 0.926018,-0.05411 3.176689,-0.2269756 0.14077,-0.5890363 0.231492,-1.6522758 0.314085,-3.2253826 z"
         fill="#ee95d0"
         id="path1-5-65"
         sodipodi:nodetypes="cccccccccccccccccccccc"
         style="display:inline;fill:#e8b7c6;fill-opacity:1;stroke-width:0.0476457"
         inkscape:label="petal" /><path
         d="m 46.985332,53.23391 c 0.063,0.1199 0.159269,3.997161 -4.685815,6.614672 1.67656,0.965413 4.2734,3.048166 5.313779,7.035277 -0.44368,0.225078 -1.434488,0.204625 -3.221053,0.503583 0.272173,1.090142 0.423486,2.204744 0.625871,3.309043 -0.788443,0.452006 -5.697934,-0.532858 -7.376777,-3.136685 -0.771599,2.85012 -2.201821,4.723942 -4.973424,6.704735 -0.636709,-0.955118 -1.175186,-1.975709 -1.737483,-2.976676 -0.53586,0.341202 -0.640322,0.399346 -2.723414,1.437141 -3.204253,-3.167947 -0.182665,-8.8002 -0.182665,-8.8002 -0.667676,0.201012 -6.798501,-0.544808 -8.282437,-2.600417 0.722449,-0.761665 1.448006,-1.52027 2.176377,-2.276294 -1.161496,-1.319501 -1.908131,-1.869229 -2.383512,-2.569091 2.041043,-2.475537 6.369802,-2.012338 7.828479,-1.772943 -2.80075,-3.89167 -0.951251,-8.464933 -0.380223,-8.826922 0.269121,-0.05919 2.746778,1.449763 2.885993,1.552999 0.843661,-1.488212 -0.07812,0.125215 1.481264,-2.832234 0.201209,0.0223 4.174424,2.395151 4.839453,7.436435 2.578695,-3.543571 7.511885,-2.748902 7.807307,-2.6977 0.134512,0.43512 -0.0622,0.925509 -0.172362,3.18012 0.566788,0.213379 1.610315,0.436449 3.160718,0.715262 z"
         fill="#ee95d0"
         id="path1-5-5"
         sodipodi:nodetypes="cccccccccccccccccccccc"
         style="display:inline;fill:#e8b7c6;fill-opacity:1;stroke-width:0.0476457"
         inkscape:label="petal" /><path
         d="m 97.389528,21.097253 c -0.0018,0.135431 -1.765645,3.589591 -7.272561,3.580587 1.0135,1.647936 2.30327,4.716801 1.316945,8.717628 -0.497318,-0.01367 -1.358526,-0.504021 -3.071513,-1.092971 -0.280476,1.088036 -0.678853,2.139952 -1.027424,3.207161 -0.908566,0.02144 -4.754663,-3.184896 -4.989055,-6.274149 -2.037063,2.137504 -4.187629,3.102807 -7.568319,3.522637 -0.104338,-1.143136 -0.09111,-2.296995 -0.108182,-3.444958 -0.633711,0.04446 -0.753256,0.04577 -3.079144,-0.03509 -1.306342,-4.312378 4.03493,-7.822802 4.03493,-7.822802 -0.682745,-0.141617 -5.716406,-3.720096 -6.040831,-6.234523 0.998184,-0.325105 1.997643,-0.646039 2.998344,-0.963362 -0.391927,-1.713636 -0.786165,-2.552826 -0.870383,-3.39467 2.974368,-1.2030246 6.558685,1.267884 7.726786,2.173746 -0.606611,-4.7561877 3.199476,-7.8945129 3.87401,-7.9404773 0.264787,0.076274 1.723349,2.5839255 1.796506,2.7410457 1.451117,-0.9059799 -0.128366,0.072825 2.652357,-1.78345 0.16624,0.1155269 2.52759,4.0955886 0.708742,8.8441256 3.956172,-1.885541 7.913778,1.164904 8.149054,1.350755 -0.0892,0.446616 -0.495915,0.783904 -1.667637,2.713275 0.3965,0.457786 1.207452,1.151375 2.437392,2.135618 z"
         fill="#ee95d0"
         id="path1-5-2"
         sodipodi:nodetypes="cccccccccccccccccccccc"
         style="display:inline;fill:#e8b7c6;fill-opacity:1;stroke-width:0.0476457"
         inkscape:label="petal" /><path
         d="m 112.34873,123.99795 c -0.0894,-0.10176 -1.09357,-3.84796 3.00126,-7.53016 -1.8564,-0.54466 -4.86975,-1.95927 -6.81742,-5.59053 0.37841,-0.32298 1.34631,-0.5358 3.01269,-1.24598 -0.52059,-0.99573 -0.92944,-2.04362 -1.38551,-3.0695 0.66023,-0.62453 5.66371,-0.82023 7.90712,1.31648 0.0807,-2.95162 1.03079,-5.10892 3.25967,-7.68524 0.84322,0.77887 1.60633,1.64445 2.38798,2.48536 0.44074,-0.45751 0.52862,-0.53856 2.30972,-2.03655 3.85864,2.3268 2.24433,8.51116 2.24433,8.51116 0.60179,-0.3522 6.7363,-1.06709 8.6615,0.58251 -0.52336,0.91003 -1.05046,1.81782 -1.58091,2.72376 1.4389,1.00981 2.29376,1.36881 2.92021,1.93746 -1.40256,2.88564 -5.71903,3.45203 -7.19313,3.56191 3.63639,3.12505 2.91268,8.00477 2.44264,8.49074 -0.2477,0.12074 -3.01044,-0.76412 -3.17001,-0.83177 -0.47055,1.64472 0.0465,-0.14006 -0.77467,3.1009 -0.20081,0.0256 -4.62018,-1.34778 -6.45058,-6.09187 -1.67434,4.05007 -6.65618,4.43622 -6.95537,4.45583 -0.23294,-0.39136 -0.1569,-0.91423 -0.57932,-3.13165 -0.60105,-0.0743 -1.66778,-0.0461 -3.2403,0.047 z"
         fill="#ee95d0"
         id="path1-5-9"
         sodipodi:nodetypes="cccccccccccccccccccccc"
         style="display:inline;fill:#e8b7c6;fill-opacity:1;stroke-width:0.0476457"
         inkscape:label="petal" /><path
         d="m 97.021662,103.27765 c -0.09431,-0.0972 -1.28223,-3.789272 2.625798,-7.669159 -1.881028,-0.452336 -4.960553,-1.716442 -7.085146,-5.247101 0.362001,-0.341273 1.318211,-0.601619 2.947497,-1.393212 -0.569116,-0.968812 -1.029208,-1.995236 -1.53538,-2.997347 0.628592,-0.656371 5.616301,-1.098884 7.962479,0.924454 -0.0652,-2.951999 0.77728,-5.153591 2.87624,-7.836817 0.88064,0.736285 1.68555,1.563132 2.50777,2.364423 0.41762,-0.478712 0.50139,-0.564003 2.20635,-2.148112 3.96882,2.133445 2.66184,8.389965 2.66184,8.389965 0.58366,-0.381481 6.67539,-1.3984 8.6797,0.154134 -0.47779,0.934764 -0.95943,1.867471 -1.44449,2.798497 1.487,0.937533 2.35854,1.253887 3.01231,1.790904 -1.25837,2.951379 -5.54162,3.730207 -7.00849,3.912736 3.78626,2.941691 3.30436,7.851185 2.85889,8.359775 -0.24143,0.13282 -3.04449,-0.61454 -3.20721,-0.67424 -0.38876,1.66596 0.0396,-0.14218 -0.62061,3.13537 -0.19931,0.0355 -4.68109,-1.118 -6.7435,-5.76594 -1.47233,4.12781 -6.42903,4.75947 -6.72688,4.79383 -0.25198,-0.37938 -0.20185,-0.90537 -0.73325,-3.09923 -0.603983,-0.0445 -1.668016,0.0363 -3.234021,0.20699 z"
         fill="#ee95d0"
         id="path1-5-15"
         sodipodi:nodetypes="cccccccccccccccccccccc"
         style="display:inline;fill:#e8b7c6;fill-opacity:1;stroke-width:0.0476457"
         inkscape:label="petal" /><path
         d="m -7.4934542,29.315576 c -0.021411,-0.13374 1.1255219,-3.838732 6.55279407,-4.771964 C -2.2211414,23.093356 -4.016907,20.290382 -3.7295694,16.1798 c 0.4923259,-0.07161 1.4247239,0.264178 3.21321373,0.551395 0.0902038,-1.119979 0.30275004,-2.224541 0.46360806,-3.335648 0.89150369,-0.176559 5.22942901,2.324532 5.98886361,5.328145 1.6413551,-2.454487 3.5950765,-3.773469 6.854105,-4.765466 0.298364,1.108434 0.482731,2.247545 0.695938,3.375665 0.616763,-0.152216 0.734322,-0.173956 3.039753,-0.492199 2.024829,4.02532 -2.637151,8.397757 -2.637151,8.397757 0.696907,0.02273 6.268555,2.687312 7.018356,5.10917 -0.927852,0.491078 -1.857672,0.978264 -2.789334,1.462105 0.679312,1.621323 1.211303,2.380698 1.4383,3.195723 -2.724711,1.694133 -6.678901,-0.127157 -7.984753,-0.81983 1.411338,4.582294 -1.8017447,8.325484 -2.4584709,8.486168 -0.2739323,-0.02985 -2.1399915,-2.251009 -2.2389498,-2.393297 -1.2747323,1.140875 0.1140153,-0.09371 -2.3081496,2.210913 -0.1835533,-0.08538 -3.1909862,-3.6028 -2.2113135,-8.592495 -3.5752781,2.534552 -7.9963985,0.206129 -8.2600013,0.06327 0.011482,-0.455293 0.3544968,-0.857187 1.1788753,-2.958569 -0.468971,-0.383205 -1.3866243,-0.927834 -2.7668128,-1.687154 z"
         fill="#ee95d0"
         id="path1-5-32"
         sodipodi:nodetypes="cccccccccccccccccccccc"
         style="display:inline;fill:#e8b7c6;fill-opacity:1;stroke-width:0.0476457"
         inkscape:label="petal" /><path
         d="m 147.79495,97.902153 c -0.13232,0.02889 -3.89589,-0.908106 -5.13252,-6.274385 -1.37604,1.359927 -4.07371,3.310312 -8.19394,3.254338 -0.0992,-0.487526 0.18372,-1.437315 0.37002,-3.239115 -1.12328,-0.02715 -2.23803,-0.177309 -3.35642,-0.275498 -0.22636,-0.880177 2.0271,-5.35175 4.98331,-6.278712 -2.54282,-1.500884 -3.96946,-3.377427 -5.14297,-6.575585 1.08992,-0.360158 2.21688,-0.608223 3.33124,-0.884465 -0.18662,-0.607238 -0.21493,-0.72339 -0.66218,-3.007304 3.90522,-2.247752 8.53264,2.161247 8.53264,2.161247 -0.0165,-0.697083 2.33094,-6.409614 4.70685,-7.294277 0.54242,0.8988 1.08107,1.799784 1.61649,2.702796 1.5806,-0.769316 2.30889,-1.343125 3.10988,-1.615546 1.84451,2.625241 0.24822,6.675497 -0.37,8.018198 4.49578,-1.666518 8.41355,1.33122 8.61087,1.977883 -0.0144,0.275176 -2.12724,2.263061 -2.26374,2.369856 1.21068,1.208632 -0.1,-0.108571 2.33708,2.180309 -0.0749,0.188059 -3.41786,3.388332 -8.45471,2.6905 2.73139,3.427255 0.655,7.972192 0.52717,8.243404 -0.45522,0.01411 -0.87575,-0.305785 -3.02012,-1.010818 -0.35626,0.489757 -0.84848,1.436556 -1.52907,2.857219 z"
         fill="#ee95d0"
         id="path1-5-08"
         sodipodi:nodetypes="cccccccccccccccccccccc"
         style="display:inline;fill:#e8b7c6;fill-opacity:1;stroke-width:0.0476457"
         inkscape:label="petal" /><path
         d="m 79.132436,145.37823 c 0.03601,0.13057 -0.695968,3.93933 -5.987471,5.46452 1.432392,1.30043 3.525891,3.88862 3.692945,8.00584 -0.481447,0.12539 -1.44515,-0.10568 -3.254391,-0.19421 0.03367,1.1231 -0.05595,2.24435 -0.09348,3.36641 -0.86664,0.27366 -5.453597,-1.73455 -6.539161,-4.63627 -1.361094,2.6203 -3.157692,4.1464 -6.287665,5.49124 -0.418607,-1.06884 -0.727288,-2.18072 -1.063423,-3.2785 -0.596251,0.2192 -0.710701,0.25376 -2.967069,0.82393 -2.45577,-3.77787 1.69638,-8.63708 1.69638,-8.63708 -0.695172,0.0541 -6.526351,-1.9807 -7.538279,-4.30526 0.868133,-0.59026 1.738651,-1.17688 2.611368,-1.76037 -0.853715,-1.53666 -1.466091,-2.23283 -1.781455,-3.0179 2.521588,-1.98387 6.652286,-0.60908 8.026472,-0.0644 -1.907343,-4.39901 0.874012,-8.47325 1.50905,-8.70527 0.275554,-5e-4 2.374852,2.00167 2.488876,2.13219 1.141351,-1.2743 -0.103002,0.1057 2.050655,-2.45163 0.191839,0.0647 3.568309,3.22951 3.144043,8.29674 3.274439,-2.91284 7.925071,-1.08542 8.202803,-0.97245 0.03872,0.45379 -0.257951,0.89101 -0.845919,3.07039 0.508317,0.32923 1.480362,0.7695 2.935771,1.37222 z"
         fill="#ee95d0"
         id="path1-5-74"
         sodipodi:nodetypes="cccccccccccccccccccccc"
         style="display:inline;fill:#e8b7c6;fill-opacity:1;stroke-width:0.0476457"
         inkscape:label="petal" /></g><g
       inkscape:groupmode="layer"
       id="layer2-1-2"
       inkscape:label="Back Petal"
       style="display:inline"
       transform="matrix(-2.6632029,0,0,2.3055262,1975.2087,350.23927)"><path
         d="m 127.63677,150.59232 c 0.11464,-0.0817 3.98089,-0.54639 6.99358,4.64557 0.82716,-1.96878 2.69532,-5.07227 6.59392,-6.60572 0.26127,0.47678 0.32208,1.58967 0.76729,3.56543 1.06696,-0.4055 2.16825,-0.67772 3.25507,-1.00626 0.51629,0.84249 -0.0653,6.43813 -2.5293,8.56022 2.9111,0.60294 4.90069,2.03423 7.10714,4.95977 -0.90214,0.80184 -1.87776,1.49954 -2.83182,2.22215 0.38487,0.56947 0.45154,0.68125 1.6593,2.92153 -2.90266,3.88444 -8.77816,1.01458 -8.77816,1.01458 0.25559,0.73018 0.0131,7.67331 -1.91921,9.52641 -0.82029,-0.74001 -1.63777,-1.48378 -2.45291,-2.23093 -1.22321,1.4238 -1.71128,2.31159 -2.37159,2.90904 -2.64091,-2.06084 -2.53302,-6.95732 -2.41342,-8.61496 -3.6589,3.49858 -8.38015,1.84555 -8.78867,1.23856 -0.0812,-0.29632 1.22338,-3.21337 1.31511,-3.37897 -1.55618,-0.80907 0.13153,0.0761 -2.95141,-1.40034 0.006,-0.22767 2.05095,-4.90118 7.03365,-6.11076 -3.75216,-2.56543 -3.36263,-8.17016 -3.33569,-8.50613 0.42374,-0.19087 0.92986,-0.0154 3.1917,-0.0994 0.16673,-0.65517 0.30405,-1.8458 0.45551,-3.60994 z"
         fill="#ee95d0"
         id="path1-5-13"
         sodipodi:nodetypes="cccccccccccccccccccccc"
         style="display:inline;fill:#e8b7c6;fill-opacity:1;stroke-width:0.0506021"
         inkscape:label="petal" /><path
         d="m 100.27382,122.52351 c 0.0808,-0.12248 3.53938,-2.11661 8.01448,1.5119 0.14082,-2.17087 0.88928,-5.82071 4.03551,-8.8251 0.3966,0.33943 0.81002,1.35329 1.85868,3.01714 0.86558,-0.809 1.80593,-1.50752 2.71471,-2.25275 0.75177,0.57773 2.00259,6.03362 0.38354,9.00826 2.90953,-0.6124 5.22471,-0.0799 8.22116,1.75925 -0.58478,1.1123 -1.27149,2.1571 -1.93009,3.21641 0.54161,0.37603 0.63964,0.45342 2.48461,2.0563 -1.46345,4.79608 -7.86556,4.48976 -7.86556,4.48976 0.47252,0.57814 2.47153,7.15454 1.26248,9.66352 -1.00257,-0.35939 -2.00374,-0.72341 -3.00378,-1.09156 -0.68502,1.82223 -0.85588,2.8476 -1.28054,3.67158 -3.12468,-0.85699 -4.59335,-5.46934 -5.01304,-7.06433 -2.29272,4.74127 -7.22782,5.10447 -7.80355,4.70298 -0.17074,-0.24371 0.11161,-3.49211 0.14414,-3.68366 -1.71136,-0.1268 0.1471,0.0179 -3.202722,-0.11537 -0.06757,-0.21476 0.34285,-5.401 4.604432,-8.54077 -4.323295,-0.87929 -5.756169,-6.26617 -5.83871,-6.59053 0.33421,-0.34912 0.862706,-0.38969 2.94627,-1.38094 -0.0544,-0.67862 -0.30788,-1.84501 -0.73196,-3.55222 z"
         fill="#ee95d0"
         id="path1-5-7-9"
         sodipodi:nodetypes="cccccccccccccccccccccc"
         style="display:inline;fill:#e8b7c6;fill-opacity:1;stroke-width:0.0506021"
         inkscape:label="petal" /><path
         d="m 70.574991,129.76769 c -0.06659,-0.13279 -0.274954,-4.49007 4.504977,-7.59063 -1.708009,-1.03141 -4.370501,-3.28961 -5.528159,-7.73985 0.438135,-0.26749 1.431657,-0.27657 3.213417,-0.67063 -0.30421,-1.21717 -0.48801,-2.46576 -0.722691,-3.70111 0.777085,-0.53386 5.725505,0.41476 7.483079,3.28867 0.691005,-3.23025 2.070223,-5.38387 4.790599,-7.70124 0.665633,1.05352 1.234709,2.18384 1.827092,3.29133 0.527164,-0.40106 0.630177,-0.46984 2.687777,-1.7044 3.302523,3.45893 0.436987,9.89085 0.436987,9.89085 0.663306,-0.24769 6.828776,0.39254 8.3752,2.65624 -0.702012,0.87997 -1.407235,1.75659 -2.115347,2.6304 1.202055,1.44632 1.96615,2.04037 2.462747,2.81204 -1.973983,2.85011 -6.325372,2.46936 -7.794084,2.24735 2.919038,4.28591 1.197543,9.48892 0.635743,9.91452 -0.26799,0.0753 -2.794494,-1.54148 -2.936982,-1.65307 -0.802523,1.70097 0.07467,-0.14335 -1.402712,3.23312 -0.202285,-0.0186 -4.252473,-2.55843 -5.06439,-8.20636 -2.481964,4.06862 -7.448645,3.33468 -7.746175,3.28666 -0.147356,-0.48498 0.03567,-1.04285 0.08097,-3.58195 -0.574161,-0.22163 -1.626359,-0.4387 -3.188127,-0.70205 z"
         fill="#ee95d0"
         id="path1-5-0-5"
         sodipodi:nodetypes="cccccccccccccccccccccc"
         style="display:inline;fill:#e8b7c6;fill-opacity:1;stroke-width:0.0506021"
         inkscape:label="petal" /><path
         d="m 79.587059,64.548606 c 0.01764,-0.151092 2.178857,-3.778538 7.660914,-3.043944 -0.81591,-1.974672 -1.740313,-5.573368 -0.289189,-9.913934 0.49356,0.08071 1.293559,0.741907 2.930095,1.625347 0.406824,-1.178819 0.926805,-2.301768 1.398991,-3.448354 0.907153,0.09559 4.360713,4.184212 4.231902,7.666837 2.27886,-2.120336 4.533308,-2.915974 7.948598,-2.940282 -0.0301,1.291014 -0.17858,2.578542 -0.29617,3.863468 0.63618,0.0337 0.75537,0.04796 3.06171,0.444322 0.79511,4.990316 -4.93463,8.20996 -4.93463,8.20996 0.66319,0.248064 5.25555,4.908759 5.28378,7.760945 -1.03199,0.231928 -2.06475,0.459027 -3.09833,0.681926 0.18933,1.966304 0.48347,2.955844 0.46863,3.907563 -3.10256,0.952872 -6.381685,-2.279587 -7.438537,-3.445438 0.04637,5.394148 -4.111201,8.400004 -4.788206,8.36262 -0.254706,-0.120066 -1.412959,-3.113894 -1.467385,-3.299082 -1.551062,0.821384 0.136354,-0.06448 -2.84998,1.643778 -0.151976,-0.150955 -2.036499,-4.908764 0.331211,-9.975257 -4.160133,1.586315 -7.742996,-2.342802 -7.955468,-2.581421 0.141178,-0.48729 0.585682,-0.810651 1.978539,-2.812279 -0.341119,-0.563674 -1.067246,-1.445356 -2.176475,-2.706922 z"
         fill="#ee95d0"
         id="path1-5-3-8"
         sodipodi:nodetypes="cccccccccccccccccccccc"
         style="display:inline;fill:#e8b7c6;fill-opacity:1;stroke-width:0.0506021"
         inkscape:label="petal" /><path
         d="m 143.26752,62.281976 c -0.11784,0.07572 -3.99897,0.3419 -6.79734,-4.99897 -0.90637,1.924344 -2.89881,4.9289 -6.85573,6.26105 -0.24162,-0.489676 -0.25709,-1.604504 -0.62147,-3.601025 -1.08233,0.350421 -2.19356,0.565951 -3.2926,0.838486 -0.48149,-0.868065 0.32703,-6.428091 2.87486,-8.421741 -2.88354,-0.751435 -4.81283,-2.283152 -6.898,-5.318671 0.93382,-0.754782 1.9368,-1.401784 2.91926,-2.074768 -0.3613,-0.588589 -0.42335,-0.703669 -1.53873,-3.003486 3.05765,-3.731702 8.81029,-0.56386 8.81029,-0.56386 -0.22564,-0.742501 0.29904,-7.66598 2.30469,-9.418158 0.78934,0.781247 1.57573,1.566114 2.35963,2.354248 1.27984,-1.359659 1.8035,-2.22152 2.48744,-2.784517 2.55433,2.193972 2.24738,7.079814 2.06048,8.729606 3.79739,-3.307508 8.44647,-1.414348 8.82988,-0.787068 0.0691,0.300172 -1.35281,3.147355 -1.45119,3.308085 1.52166,0.887934 -0.12829,-0.08273 2.89138,1.550062 -0.015,0.227135 -2.24817,4.791017 -7.27488,5.744093 3.64391,2.754966 3.0268,8.333893 2.98623,8.668133 -0.43107,0.168959 -0.92953,-0.03223 -3.19242,-0.06425 -0.19321,0.645952 -0.37883,1.82831 -0.60189,3.582841 z"
         fill="#ee95d0"
         id="path1-5-8-2"
         sodipodi:nodetypes="cccccccccccccccccccccc"
         style="display:inline;fill:#e8b7c6;fill-opacity:1;stroke-width:0.0506021"
         inkscape:label="petal" /><path
         d="m 184.21596,91.981889 c 0.10093,0.10191 1.54031,4.155479 -2.10472,8.808921 1.91225,0.36414 5.07853,1.54796 7.44383,5.34886 -0.33888,0.41071 -1.27761,0.77594 -2.85345,1.78887 0.63517,1.04402 1.1652,2.16104 1.73967,3.24725 -0.5841,0.78475 -5.54293,1.66224 -8.02732,-0.42981 0.26602,3.30859 -0.42688,5.84415 -2.34381,9.01624 -0.93095,-0.75923 -1.79231,-1.6259 -2.66924,-2.46256 -0.38515,0.56922 -0.46314,0.67136 -2.06075,2.57965 -4.11494,-2.09175 -3.23325,-9.21435 -3.23325,-9.21435 -0.55787,0.47276 -6.5819,2.0793 -8.69232,0.48961 0.41432,-1.08571 0.83261,-2.16944 1.25447,-3.25152 -1.55115,-0.93885 -2.44442,-1.2274 -3.13488,-1.78029 1.05789,-3.40892 5.28919,-4.61013 6.74402,-4.927 -3.9873,-3.012935 -3.83929,-8.560539 -3.4283,-9.16542 0.23246,-0.167523 3.08705,0.457389 3.25387,0.511973 0.27552,-1.899675 -0.0299,0.162617 0.40746,-3.566766 0.19695,-0.05503 4.7583,0.897572 7.13741,5.95733 1.19188,-4.745781 6.10682,-5.833205 6.4024,-5.894514 0.27786,0.406612 0.26349,1.000853 0.94427,3.422841 0.60717,0.0038 1.66596,-0.168145 3.22073,-0.479233 z"
         fill="#ee95d0"
         id="path1-5-1-7"
         sodipodi:nodetypes="cccccccccccccccccccccc"
         style="display:inline;fill:#e8b7c6;fill-opacity:1;stroke-width:0.0506021"
         inkscape:label="petal" /><path
         d="m 174.77087,126.19723 c 0.0799,0.12317 0.7397,4.42344 -3.68539,8.12842 1.80354,0.80085 4.68255,2.69517 6.2948,6.96354 -0.40735,0.323 -1.39316,0.46205 -3.1218,1.08661 0.42863,1.16905 0.74093,2.38506 1.10239,3.58126 -0.7163,0.63192 -5.72954,0.33743 -7.77378,-2.28686 -0.35059,3.29864 -1.49659,5.61808 -3.95757,8.27566 -0.77058,-0.95922 -1.45325,-2.00736 -2.15668,-3.02976 -0.48188,0.46734 -0.57704,0.54912 -2.4923,2.04455 -3.63946,-3.00312 -1.46191,-9.76616 -1.46191,-9.76616 -0.63303,0.3328 -6.82297,0.50385 -8.59409,-1.54201 0.60577,-0.96584 1.21508,-1.92879 1.82755,-2.88931 -1.34416,-1.27912 -2.16478,-1.76911 -2.73817,-2.47053 1.66431,-3.08899 6.02558,-3.28034 7.50733,-3.25208 -3.34453,-3.87462 -2.1755,-9.26743 -1.66176,-9.76365 0.25834,-0.1098 2.93563,1.16522 3.08874,1.25741 0.62027,-1.7944 -0.0593,0.15215 1.05714,-3.39463 0.20283,-0.008 4.48934,1.98442 5.88267,7.48754 2.04221,-4.36569 7.05127,-4.28677 7.35175,-4.27802 0.19675,0.4624 0.073,1.0404 0.29185,3.56812 0.59326,0.14496 1.66084,0.22285 3.23931,0.28 z"
         fill="#ee95d0"
         id="path1-5-35-9"
         sodipodi:nodetypes="cccccccccccccccccccccc"
         style="display:inline;fill:#e8b7c6;fill-opacity:1;stroke-width:0.0506021"
         inkscape:label="petal" /><path
         d="m 132.11335,9.1073274 c 0.069,0.131254 0.35623,4.4828756 -4.36655,7.6918226 1.72633,0.992247 4.42917,3.189237 5.6672,7.612145 -0.43321,0.277428 -1.42636,0.309171 -3.20061,0.743792 0.32619,1.209978 0.53256,2.454115 0.78958,3.683854 -0.76726,0.551475 -5.73183,-0.284065 -7.5411,-3.117297 -0.63236,3.245341 -1.97229,5.429979 -4.65012,7.808921 -0.68458,-1.038113 -1.27402,-2.155234 -1.88633,-3.24897 -0.51979,0.413012 -0.62153,0.484119 -2.65636,1.765361 -3.36448,-3.382891 -0.61604,-9.878833 -0.61604,-9.878833 -0.65867,0.262759 -6.83447,-0.236706 -8.42158,-2.464667 0.68593,-0.895798 1.37513,-1.78833 2.06727,-2.678116 -1.228,-1.41859 -2.0027,-1.995088 -2.51316,-2.755277 1.92194,-2.894533 6.27933,-2.613121 7.75176,-2.424677 -2.99607,-4.2184357 -1.36917,-9.4596371 -0.81519,-9.8979481 0.26657,-0.08138 2.82183,1.477407 2.96631,1.585726 0.77156,-1.718925 -0.0721,0.145021 1.34387,-3.26444104 0.20258,0.01394 4.29793,2.46090204 5.21198,8.08914454 2.40776,-4.1243955 7.38671,-3.5038913 7.68506,-3.4626719 0.1561,0.4815217 -0.0168,1.043446 -0.016,3.5830714 0.57805,0.2084725 1.63396,0.4015022 3.20018,0.6291741 z"
         fill="#ee95d0"
         id="path1-5-6-6"
         sodipodi:nodetypes="cccccccccccccccccccccc"
         style="display:inline;fill:#e8b7c6;fill-opacity:1;stroke-width:0.0506021"
         inkscape:label="petal" /><path
         d="m 60.357629,35.102695 c -0.09746,-0.106106 -1.400206,-4.217456 2.39796,-8.714033 -1.89873,-0.444452 -5.023168,-1.760861 -7.25963,-5.658735 0.352371,-0.39614 1.302665,-0.721562 2.911277,-1.667381 -0.599785,-1.070049 -1.092073,-2.20861 -1.62979,-3.318254 0.609934,-0.759588 5.594626,-1.427518 8.007279,0.767728 -0.155139,-3.317457 0.622104,-5.822028 2.643822,-8.9111264 0.904886,0.7979229 1.736648,1.7002745 2.584966,2.5732964 0.403919,-0.552597 0.48528,-0.6513718 2.145608,-2.4910018 4.04205,2.2636629 2.922682,9.3440838 2.922682,9.3440838 0.573288,-0.448924 6.646827,-1.800501 8.702565,-0.123027 -0.450354,1.067506 -0.904618,2.13283 -1.362367,3.196381 1.518643,1.003533 2.401635,1.329533 3.073107,1.911116 -1.17121,3.361951 -5.439719,4.384028 -6.904116,4.639378 3.883692,3.178811 3.55016,8.71626 3.119231,9.303405 -0.237893,0.157608 -3.069563,-0.587138 -3.234436,-0.64871 -0.338891,1.886728 0.03529,-0.161245 -0.526514,3.547081 -0.198652,0.04669 -4.724915,-1.097427 -6.933061,-6.25386 -1.349821,4.692217 -6.297684,5.571786 -6.59511,5.620596 -0.264047,-0.418031 -0.22982,-1.011245 -0.829081,-3.460215 -0.606601,-0.02945 -1.670401,0.09784 -3.234495,0.343192 z"
         fill="#ee95d0"
         id="path1-5-16-1"
         sodipodi:nodetypes="cccccccccccccccccccccc"
         style="display:inline;fill:#e8b7c6;fill-opacity:1;stroke-width:0.0506021"
         inkscape:label="petal" /><path
         d="m 37.277099,-6.1219081 c 0.111365,-0.0872 3.955893,-0.740579 7.16736,4.299092 0.749921,-2.007351 2.495767,-5.199265 6.331107,-6.921947 0.279543,0.463558 0.383517,1.572404 0.905033,3.524523 1.050193,-0.457298 2.139873,-0.783133 3.212899,-1.164525 0.548521,0.816439 0.184881,6.43521396 -2.194441,8.675801 2.931755,0.459986 4.975038,1.792606 7.293024,4.6074493 -0.870145,0.8451917 -1.817735,1.5899524 -2.742825,2.3585385 0.406622,0.5501014 0.477561,0.6585171 1.771191,2.8376003 -2.749053,4.022719 -8.730417,1.442958 -8.730417,1.442958 0.283716,0.716976 0.311082,7.665379 -1.547396,9.611219 -0.848253,-0.699176 -1.693851,-1.402251 -2.537237,-2.108832 -1.166741,1.482279 -1.619864,2.393094 -2.256356,3.022267 -2.718431,-1.929712 -2.800813,-6.826809 -2.745715,-8.48873 -3.519539,3.674217 -8.300497,2.253669 -8.732203,1.66724 -0.09263,-0.292067 1.097415,-3.270154 1.182632,-3.440085 -1.586141,-0.732178 0.13435,0.06958 -3.003,-1.25465 -0.0033,-0.227735 1.858643,-4.9968402 6.789639,-6.448974 -3.848237,-2.3794771 -3.676755,-7.9979261 -3.662891,-8.3348931 0.415924,-0.211411 0.928384,-0.06088 3.184805,-0.255364 0.141134,-0.662708 0.232087,-1.858929 0.314889,-3.628788 z"
         fill="#ee95d0"
         id="path1-5-65-7"
         sodipodi:nodetypes="cccccccccccccccccccccc"
         style="display:inline;fill:#e8b7c6;fill-opacity:1;stroke-width:0.0506021"
         inkscape:label="petal" /><path
         d="m 60.350386,46.286765 c 0.06316,0.134896 0.159674,4.497095 -4.697796,7.441984 1.68085,1.086159 4.284323,3.429406 5.327367,7.915195 -0.444815,0.253226 -1.438158,0.230219 -3.229286,0.566569 0.272862,1.226488 0.424566,2.480495 0.627467,3.722911 -0.790456,0.508543 -5.7125,-0.599507 -7.395633,-3.529 -0.773568,3.206594 -2.207447,5.314781 -4.986138,7.543317 -0.638332,-1.074577 -1.17819,-2.222817 -1.741919,-3.34898 -0.537236,0.383878 -0.641959,0.449294 -2.730377,1.616888 -3.212445,-3.564172 -0.183134,-9.900861 -0.183134,-9.900861 -0.669379,0.226153 -6.815879,-0.612948 -8.303605,-2.925657 0.724292,-0.856928 1.451703,-1.710413 2.181938,-2.560995 -1.164464,-1.484534 -1.913003,-2.103017 -2.389603,-2.890413 2.04626,-2.785157 6.386085,-2.264025 7.848489,-1.994688 -2.807909,-4.37841 -0.953686,-9.523661 -0.381196,-9.930925 0.269809,-0.06659 2.7538,1.631088 2.893372,1.747236 0.845816,-1.674346 -0.07832,0.140876 1.48505,-3.186467 0.201722,0.02509 4.18509,2.694717 4.85182,8.366525 2.585288,-3.986773 7.531087,-3.092713 7.827268,-3.035107 0.134853,0.489542 -0.06236,1.041265 -0.172804,3.577865 0.568234,0.240066 1.614429,0.491037 3.168797,0.804721 z"
         fill="#ee95d0"
         id="path1-5-5-7"
         sodipodi:nodetypes="cccccccccccccccccccccc"
         style="display:inline;fill:#e8b7c6;fill-opacity:1;stroke-width:0.0506021"
         inkscape:label="petal" /><path
         d="m 110.88341,10.130706 c -0.002,0.15237 -1.77016,4.038549 -7.29115,4.028419 1.0161,1.854047 2.30916,5.306741 1.32032,9.807961 -0.49859,-0.01538 -1.362,-0.56706 -3.07937,-1.229672 -0.28119,1.224119 -0.68058,2.407601 -1.03004,3.608288 -0.910898,0.02412 -4.766825,-3.583238 -5.001818,-7.05887 -2.042267,2.404846 -4.19833,3.490881 -7.587665,3.963221 -0.104603,-1.286111 -0.09134,-2.584286 -0.108459,-3.875827 -0.635328,0.05002 -0.755181,0.05149 -3.087009,-0.03948 -1.309684,-4.851736 4.045245,-8.801217 4.045245,-8.801217 -0.684494,-0.159329 -5.731023,-4.1853758 -6.056274,-7.0142881 1.000732,-0.365767 2.002748,-0.72684 3.006004,-1.083852 -0.392929,-1.92796404 -0.788173,-2.87211304 -0.872609,-3.819248 2.981975,-1.35349 6.575457,1.42646096 7.746535,2.445621 -0.608158,-5.351055 3.20766,-8.881897 3.883917,-8.933611 0.265461,0.08581 1.727755,2.907103 1.801097,3.083875 1.454826,-1.019293 -0.128697,0.08193 2.659136,-2.00651 0.16667,0.129976 2.53405,4.607832 0.71056,9.95028 3.96628,-2.12137 7.934,1.310601 8.16988,1.5196968 -0.0894,0.502475 -0.49718,0.8819484 -1.67191,3.05263 0.39752,0.5150427 1.21055,1.2953803 2.44363,2.4027243 z"
         fill="#ee95d0"
         id="path1-5-2-1"
         sodipodi:nodetypes="cccccccccccccccccccccc"
         style="display:inline;fill:#e8b7c6;fill-opacity:1;stroke-width:0.0506021"
         inkscape:label="petal" /><path
         d="m 125.88085,125.90142 c -0.0896,-0.11448 -1.09637,-4.32923 3.00893,-8.47197 -1.86115,-0.61278 -4.8822,-2.20432 -6.83485,-6.28975 0.37938,-0.36338 1.34975,-0.60281 3.0204,-1.40182 -0.52192,-1.12027 -0.93182,-2.29922 -1.38906,-3.45341 0.66192,-0.70264 5.67819,-0.92281 7.92734,1.48114 0.0809,-3.32079 1.03342,-5.74791 3.268,-8.646453 0.84537,0.876286 1.61043,1.850123 2.39408,2.796213 0.44186,-0.51474 0.52997,-0.60592 2.31563,-2.291269 3.86849,2.617819 2.25006,9.575669 2.25006,9.575669 0.60333,-0.39625 6.75352,-1.20055 8.68364,0.65536 -0.5247,1.02385 -1.05315,2.04518 -1.58495,3.06443 1.44258,1.13611 2.29962,1.54001 2.92767,2.17979 -1.40614,3.24655 -5.73365,3.88378 -7.21152,4.0074 3.64569,3.51591 2.92014,9.00595 2.44889,9.5527 -0.24833,0.13584 -3.01814,-0.85969 -3.17811,-0.9358 -0.47175,1.85042 0.0466,-0.15758 -0.77665,3.48874 -0.20133,0.0288 -4.63199,-1.51635 -6.46707,-6.8538 -1.67862,4.55662 -6.6732,4.99107 -6.97315,5.01313 -0.23353,-0.44031 -0.1573,-1.02857 -0.5808,-3.52333 -0.60259,-0.0836 -1.67204,-0.0518 -3.24858,0.0529 z"
         fill="#ee95d0"
         id="path1-5-9-9"
         sodipodi:nodetypes="cccccccccccccccccccccc"
         style="display:inline;fill:#e8b7c6;fill-opacity:1;stroke-width:0.0506021"
         inkscape:label="petal" /><path
         d="m 110.5146,102.58959 c -0.0945,-0.10936 -1.2855,-4.263205 2.63251,-8.628359 -1.88583,-0.508909 -4.97323,-1.931121 -7.10325,-5.903368 0.36292,-0.383954 1.32158,-0.676863 2.95503,-1.567464 -0.57057,-1.089986 -1.03184,-2.244787 -1.5393,-3.372233 0.6302,-0.738467 5.63065,-1.236325 7.98283,1.040077 -0.0654,-3.32121 0.77927,-5.798159 2.88359,-8.816983 0.88289,0.828376 1.68985,1.758634 2.51417,2.660144 0.4187,-0.538586 0.50268,-0.634542 2.212,-2.416778 3.97897,2.400276 2.66864,9.439316 2.66864,9.439316 0.58515,-0.429192 6.69245,-1.573304 8.70189,0.173411 -0.47902,1.051679 -0.96188,2.101041 -1.44818,3.148514 1.49079,1.054792 2.36456,1.410714 3.02,2.014896 -1.26158,3.320516 -5.55578,4.196752 -7.0264,4.402112 3.79594,3.309613 3.31281,8.833145 2.8662,9.405345 -0.24205,0.14944 -3.05227,-0.6914 -3.21541,-0.75857 -0.38975,1.87433 0.0397,-0.15996 -0.6222,3.52752 -0.19981,0.0399 -4.69305,-1.25783 -6.76073,-6.4871 -1.4761,4.64409 -6.44547,5.35475 -6.74408,5.39341 -0.25262,-0.42683 -0.20237,-1.01861 -0.73512,-3.48686 -0.60552,-0.0501 -1.67228,0.0409 -3.24228,0.23288 z"
         fill="#ee95d0"
         id="path1-5-15-0"
         sodipodi:nodetypes="cccccccccccccccccccccc"
         style="display:inline;fill:#e8b7c6;fill-opacity:1;stroke-width:0.0506021"
         inkscape:label="petal" /><path
         d="M 5.7323467,19.376913 C 5.71088,19.226446 6.8607485,15.058062 12.301894,14.008109 11.018139,12.376466 9.2177794,9.2229183 9.5058542,4.5982166 c 0.4935819,-0.080567 1.4283678,0.2972198 3.2214248,0.6203596 0.09043,-1.2600573 0.303522,-2.5027693 0.464796,-3.7528453 0.893786,-0.198641 5.242793,2.615267 6.004174,5.994548 1.645548,-2.7614751 3.604259,-4.245425 6.871621,-5.361493 0.299125,1.247068 0.483963,2.52865 0.697718,3.7978665 0.618335,-0.1712537 0.7362,-0.1957127 3.047522,-0.5537592 2.03,4.5287752 -2.643893,9.4480828 -2.643893,9.4480828 0.698691,0.02557 6.28458,3.02342 7.036293,5.748185 -0.93022,0.552498 -1.862417,1.100617 -2.79646,1.644973 0.681042,1.824106 1.214394,2.678458 1.441975,3.595419 -2.731672,1.906022 -6.695971,-0.14306 -8.005164,-0.922367 1.414948,5.155411 -1.806346,9.36677 -2.464752,9.547551 -0.274638,-0.03358 -2.145461,-2.532547 -2.244672,-2.692632 -1.277992,1.283567 0.114304,-0.10543 -2.314054,2.487437 -0.184018,-0.09606 -3.199138,-4.05341 -2.216967,-9.667177 -3.584414,2.851554 -8.016836,0.23191 -8.2811063,0.07118 0.011525,-0.512238 0.3553974,-0.964397 1.181883,-3.328604 -0.4701652,-0.431133 -1.3901649,-1.04388 -2.7738843,-1.89817 z"
         fill="#ee95d0"
         id="path1-5-32-3"
         sodipodi:nodetypes="cccccccccccccccccccccc"
         style="display:inline;fill:#e8b7c6;fill-opacity:1;stroke-width:0.0506021"
         inkscape:label="petal" /><path
         d="m 161.41767,96.541768 c -0.13266,0.0325 -3.90584,-1.021686 -5.14564,-7.059136 -1.37955,1.530015 -4.08412,3.724336 -8.21488,3.661361 -0.0995,-0.548499 0.18419,-1.617078 0.37097,-3.644237 -1.12616,-0.03053 -2.24376,-0.199482 -3.365,-0.309951 -0.22694,-0.990267 2.03227,-6.021107 4.99604,-7.064008 -2.54931,-1.688602 -3.9796,-3.799847 -5.15611,-7.39801 1.0927,-0.405202 2.22254,-0.684292 3.33975,-0.995084 -0.1871,-0.683189 -0.21548,-0.813868 -0.66387,-3.383436 3.9152,-2.528885 8.55445,2.431558 8.55445,2.431558 -0.0165,-0.784267 2.3369,-7.211276 4.71888,-8.20659 0.54381,1.011214 1.08383,2.024892 1.62062,3.040842 1.58464,-0.865535 2.31479,-1.51111 3.11783,-1.817604 1.84922,2.953588 0.24885,7.510418 -0.37095,9.021053 4.50728,-1.874952 8.43506,1.497717 8.63288,2.225259 -0.0144,0.309596 -2.13267,2.546108 -2.26952,2.666261 1.21377,1.359795 -0.10026,-0.122152 2.34306,2.453003 -0.0751,0.211581 -3.4266,3.812121 -8.47633,3.027006 2.73837,3.855912 0.65668,8.969293 0.52852,9.274426 -0.45638,0.0159 -0.87799,-0.34403 -3.02785,-1.137239 -0.35716,0.551012 -0.85064,1.616226 -1.53297,3.214575 z"
         fill="#ee95d0"
         id="path1-5-08-1"
         sodipodi:nodetypes="cccccccccccccccccccccc"
         style="display:inline;fill:#e8b7c6;fill-opacity:1;stroke-width:0.0506021"
         inkscape:label="petal" /><path
         d="m 92.57966,149.95578 c 0.0361,0.1469 -0.697756,4.43204 -6.002782,6.14798 1.436054,1.46308 3.534905,4.37498 3.702389,9.00715 -0.482679,0.14107 -1.448846,-0.11889 -3.262714,-0.2185 0.03376,1.26357 -0.05611,2.52506 -0.09372,3.78745 -0.868856,0.30789 -5.467539,-1.95149 -6.555875,-5.21613 -1.364568,2.94802 -3.165764,4.665 -6.303736,6.17804 -0.419677,-1.20253 -0.729148,-2.45347 -1.066143,-3.68855 -0.597774,0.24661 -0.712515,0.2855 -2.97465,0.92698 -2.462048,-4.25038 1.700717,-9.71734 1.700717,-9.71734 -0.696948,0.0609 -6.543033,-2.22843 -7.557546,-4.84373 0.870347,-0.66408 1.743093,-1.32407 2.61804,-1.98054 -0.855895,-1.72885 -1.469843,-2.5121 -1.78601,-3.39536 2.528038,-2.232 6.669287,-0.68525 8.046993,-0.0725 -1.912222,-4.9492 0.876241,-9.53302 1.512908,-9.79406 0.276259,-5.5e-4 2.380917,2.25202 2.495231,2.39887 1.14427,-1.43368 -0.103264,0.11892 2.055896,-2.75826 0.192332,0.0728 3.577428,3.63343 3.152081,9.33443 3.28281,-3.27715 7.94533,-1.22117 8.223769,-1.09408 0.03878,0.51055 -0.258606,1.00245 -0.848078,3.45441 0.509614,0.37041 1.484138,0.86575 2.943275,1.54385 z"
         fill="#ee95d0"
         id="path1-5-74-7"
         sodipodi:nodetypes="cccccccccccccccccccccc"
         style="display:inline;fill:#e8b7c6;fill-opacity:1;stroke-width:0.0506021"
         inkscape:label="petal" /></g><g
       inkscape:groupmode="layer"
       id="layer2-1-5"
       inkscape:label="Front Small Petal"
       style="display:inline"
       transform="matrix(5.453265,0,0,5.453265,-230.59611,160.79821)"><path
         d="m 150.72783,54.688626 c -0.0798,0.01743 -2.35015,-0.547807 -3.09615,-3.784966 -0.83008,0.820364 -2.45742,1.996916 -4.94291,1.96315 -0.0599,-0.294095 0.11082,-0.867048 0.22321,-1.953967 -0.67761,-0.01638 -1.35007,-0.10696 -2.02473,-0.166191 -0.13655,-0.530959 1.22282,-3.228395 3.00613,-3.787577 -1.53393,-0.905395 -2.39454,-2.037402 -3.10245,-3.966662 0.65749,-0.217262 1.33731,-0.366905 2.00954,-0.533546 -0.11257,-0.36631 -0.12965,-0.436378 -0.39945,-1.814128 2.35579,-1.355937 5.14724,1.303752 5.14724,1.303752 -0.01,-0.420509 1.40611,-3.866541 2.83936,-4.400206 0.32721,0.542193 0.65214,1.085703 0.97513,1.630437 0.95349,-0.464083 1.39282,-0.810228 1.87601,-0.974564 1.11268,1.583654 0.14974,4.026934 -0.2232,4.836906 2.71204,-1.005312 5.0754,0.803046 5.19443,1.19314 -0.009,0.165997 -1.28324,1.365171 -1.36558,1.429594 0.73033,0.729097 -0.0603,-0.06549 1.40982,1.315252 -0.0452,0.113445 -2.06179,2.04398 -5.10022,1.623019 1.64768,2.067461 0.39512,4.809154 0.31801,4.97276 -0.27461,0.0085 -0.52829,-0.184463 -1.82186,-0.609767 -0.21491,0.295441 -0.51184,0.866589 -0.9224,1.723592 z"
         fill="#ee95d0"
         id="path1-5-08-0"
         sodipodi:nodetypes="cccccccccccccccccccccc"
         style="display:inline;fill:#f7f3f4;fill-opacity:1;stroke-width:0.0287419"
         inkscape:label="petal" /><path
         d="m 87.239616,60.404443 c -0.0798,0.01743 -2.35015,-0.547807 -3.09615,-3.784965 -0.83008,0.820363 -2.45742,1.996915 -4.94291,1.963149 -0.0599,-0.294094 0.11082,-0.867047 0.22321,-1.953966 -0.67761,-0.01638 -1.35007,-0.10696 -2.02473,-0.166191 -0.13655,-0.530959 1.22282,-3.228395 3.00613,-3.787577 -1.53393,-0.905395 -2.39454,-2.037402 -3.10245,-3.966662 0.65749,-0.217262 1.33731,-0.366905 2.00954,-0.533546 -0.11257,-0.36631 -0.12965,-0.436378 -0.39945,-1.814128 2.35579,-1.355937 5.14724,1.303752 5.14724,1.303752 -0.01,-0.420509 1.40611,-3.866541 2.83936,-4.400206 0.32721,0.542193 0.65214,1.085703 0.97513,1.630437 0.95349,-0.464083 1.39282,-0.810228 1.87601,-0.974564 1.11268,1.583654 0.14974,4.026934 -0.2232,4.836906 2.71204,-1.005312 5.0754,0.803046 5.19443,1.19314 -0.009,0.165997 -1.28324,1.365171 -1.36558,1.429594 0.73033,0.729097 -0.0603,-0.06549 1.40982,1.315252 -0.0452,0.113445 -2.06179,2.04398 -5.10022,1.623019 1.64768,2.067461 0.39512,4.809154 0.31801,4.97276 -0.27461,0.0085 -0.52829,-0.184463 -1.82186,-0.609767 -0.21491,0.295441 -0.51184,0.866589 -0.9224,1.723592 z"
         fill="#ee95d0"
         id="path1-5-08-0-2"
         sodipodi:nodetypes="cccccccccccccccccccccc"
         style="display:inline;fill:#f7f3f4;fill-opacity:1;stroke-width:0.0287419"
         inkscape:label="petal" /><path
         d="m 118.48542,28.47938 c -0.0798,0.01743 -2.35015,-0.547807 -3.09615,-3.784966 -0.83008,0.820364 -2.45742,1.996916 -4.94291,1.96315 -0.0599,-0.294095 0.11082,-0.867048 0.22321,-1.953967 -0.67761,-0.01638 -1.35007,-0.10696 -2.02473,-0.166191 -0.13655,-0.530959 1.22282,-3.228395 3.00613,-3.787577 -1.53393,-0.905395 -2.39454,-2.037402 -3.10245,-3.966662 0.65749,-0.217262 1.33731,-0.366905 2.00954,-0.533546 -0.11257,-0.36631 -0.12965,-0.436378 -0.39945,-1.814128 2.35579,-1.355937 5.14724,1.303752 5.14724,1.303752 -0.01,-0.420509 1.40611,-3.866541 2.83936,-4.400206 0.32721,0.542193 0.65214,1.085703 0.97513,1.630437 0.95349,-0.464083 1.39282,-0.810228 1.87601,-0.974564 1.11268,1.583654 0.14974,4.026934 -0.2232,4.836906 2.71204,-1.005312 5.0754,0.803046 5.19443,1.19314 -0.009,0.165997 -1.28324,1.365171 -1.36558,1.429594 0.73033,0.729097 -0.0603,-0.06549 1.40982,1.315252 -0.0452,0.113445 -2.06179,2.04398 -5.10022,1.623019 1.64768,2.067461 0.39512,4.809154 0.31801,4.97276 -0.27461,0.0085 -0.52829,-0.184463 -1.82186,-0.609767 -0.21491,0.295441 -0.51184,0.866589 -0.9224,1.723592 z"
         fill="#ee95d0"
         id="path1-5-08-0-3"
         sodipodi:nodetypes="cccccccccccccccccccccc"
         style="display:inline;fill:#f7f3f4;fill-opacity:1;stroke-width:0.0287419"
         inkscape:label="petal" /></g><g
       inkscape:groupmode="layer"
       id="layer2-1-5-5"
       inkscape:label="Back Small Petal"
       style="display:inline"
       transform="matrix(-2.9535761,0,0,2.8586604,2102.161,380.50832)" /></g><g
     inkscape:groupmode="layer"
     id="layer5"
     inkscape:label="Petals"
     style="display:inline"
     transform="translate(1.3960047,2.7920093)"><g
       inkscape:groupmode="layer"
       id="layer6-4"
       inkscape:label="Petals"
       transform="translate(-1597.729,-2825.2829)"
       style="display:inline"><path
         d="m 681.94307,2722.2029 c -0.62836,0.1372 -18.50052,-4.3123 -24.37293,-29.7953 -6.53444,6.4579 -19.34493,15.7198 -38.91077,15.454 -0.47108,-2.3152 0.87243,-6.8255 1.75712,-15.3817 -5.33415,-0.1289 -10.62779,-0.842 -15.93872,-1.3083 -1.07492,-4.1797 9.62615,-25.414 23.66437,-29.8159 -12.07515,-7.1272 -18.84987,-16.0384 -24.42255,-31.2256 5.17573,-1.7103 10.52736,-2.8883 15.81915,-4.2001 -0.88621,-2.8836 -1.02065,-3.4352 -3.14451,-14.2808 18.54481,-10.674 40.51916,10.2631 40.51916,10.2631 -0.0784,-3.3102 11.06899,-30.4375 22.35154,-34.6385 2.5758,4.2682 5.1337,8.5467 7.67626,12.8348 7.50584,-3.6532 10.96429,-6.3781 14.76797,-7.6717 8.75907,12.4665 1.17873,31.7001 -1.75703,38.0762 21.34923,-7.9139 39.95364,6.3216 40.89066,9.3924 -0.0684,1.3067 -10.10168,10.7467 -10.74988,11.2538 5.74918,5.7395 -0.47487,-0.5156 11.09815,10.3537 -0.35568,0.893 -16.23048,16.0902 -40.1491,12.7764 12.97062,16.2751 3.11042,37.8578 2.50339,39.1457 -2.16172,0.067 -4.1587,-1.4521 -14.34172,-4.8001 -1.69178,2.3257 -4.0292,6.8218 -7.26113,13.5681 z"
         fill="#ee95d0"
         id="path1-5-08-12"
         sodipodi:nodetypes="cccccccccccccccccccccc"
         style="display:inline;fill:#e8b7c6;fill-opacity:1;stroke-width:0.226256"
         inkscape:label="petal" /><path
         d="m -99.900682,3047.9049 c -0.628348,0.1372 -18.500508,-4.3123 -24.372928,-29.7953 -6.53444,6.4579 -19.34493,15.7198 -38.91077,15.454 -0.47107,-2.3152 0.87244,-6.8255 1.75712,-15.3817 -5.33414,-0.1289 -10.62779,-0.842 -15.93871,-1.3083 -1.07492,-4.1797 9.62614,-25.414 23.66437,-29.8159 -12.07516,-7.1272 -18.84988,-16.0384 -24.42255,-31.2256 5.17573,-1.7103 10.52735,-2.8883 15.81914,-4.2001 -0.88621,-2.8836 -1.02064,-3.4352 -3.14451,-14.2808 18.54482,-10.674 40.51916,10.2631 40.51916,10.2631 -0.0784,-3.3102 11.069,-30.4375 22.35154,-34.6385 2.5758,4.2682 5.133704,8.5467 7.676267,12.8348 7.505835,-3.6532 10.964284,-6.3781 14.767965,-7.6717 8.759072,12.4665 1.178729,31.7001 -1.757028,38.0762 21.349224,-7.9139 39.953638,6.3216 40.890656,9.3924 -0.06838,1.3067 -10.101678,10.7467 -10.749879,11.2538 5.749187,5.7395 -0.474873,-0.5156 11.098151,10.3537 -0.35568,0.893 -16.230478,16.0902 -40.149095,12.7764 12.97062,16.2751 3.110415,37.8578 2.503385,39.1457 -2.161715,0.067 -4.158696,-1.4521 -14.34172,-4.8001 -1.691781,2.3257 -4.029199,6.8218 -7.261134,13.5681 z"
         fill="#ee95d0"
         id="path1-5-08-4"
         sodipodi:nodetypes="cccccccccccccccccccccc"
         style="display:inline;fill:#e8b7c6;fill-opacity:1;stroke-width:0.226256"
         inkscape:label="petal" /><path
         d="m -1087.0611,1373.6216 c -0.6283,0.1372 -18.5005,-4.3123 -24.3729,-29.7953 -6.5344,6.4579 -19.3449,15.7198 -38.9108,15.454 -0.4711,-2.3152 0.8725,-6.8255 1.7571,-15.3817 -5.3341,-0.1289 -10.6277,-0.842 -15.9387,-1.3083 -1.0749,-4.1797 9.6262,-25.414 23.6644,-29.8159 -12.0752,-7.1272 -18.8499,-16.0384 -24.4226,-31.2256 5.1758,-1.7103 10.5274,-2.8883 15.8192,-4.2001 -0.8862,-2.8836 -1.0207,-3.4352 -3.1445,-14.2808 18.5448,-10.674 40.5191,10.2631 40.5191,10.2631 -0.078,-3.3102 11.069,-30.4375 22.3516,-34.6385 2.5758,4.2682 5.1337,8.5467 7.6762,12.8348 7.5059,-3.6532 10.9643,-6.3781 14.768,-7.6717 8.7591,12.4665 1.1787,31.7001 -1.757,38.0762 21.3492,-7.9139 39.9536,6.3216 40.8906,9.3924 -0.068,1.3067 -10.1016,10.7467 -10.7498,11.2538 5.7491,5.7395 -0.4749,-0.5156 11.0981,10.3537 -0.3557,0.893 -16.2305,16.0902 -40.1491,12.7764 12.9706,16.2751 3.1104,37.8578 2.5034,39.1457 -2.1617,0.067 -4.1587,-1.4521 -14.3417,-4.8001 -1.6918,2.3257 -4.0292,6.8218 -7.2612,13.5681 z"
         fill="#ee95d0"
         id="path1-5-08-7"
         sodipodi:nodetypes="cccccccccccccccccccccc"
         style="display:inline;fill:#e8b7c6;fill-opacity:1;stroke-width:0.226256"
         inkscape:label="petal" /><path
         d="m 597.41636,1463.3667 c -0.45732,0.1 -13.46494,-3.1386 -17.73897,-21.6855 -4.75586,4.7002 -14.07953,11.4411 -28.31983,11.2477 -0.34285,-1.6851 0.63498,-4.9677 1.27886,-11.1951 -3.88227,-0.094 -7.73506,-0.6128 -11.60043,-0.9522 -0.78234,-3.042 7.00605,-18.4966 17.22328,-21.7004 -8.78848,-5.1873 -13.71922,-11.673 -17.77509,-22.7265 3.76697,-1.2447 7.66196,-2.1021 11.5134,-3.0569 -0.645,-2.0987 -0.74284,-2.5001 -2.28862,-10.3937 13.49719,-7.7687 29.49043,7.4696 29.49043,7.4696 -0.0571,-2.4092 8.05618,-22.1529 16.26778,-25.2104 1.8747,3.1065 3.73638,6.2204 5.5869,9.3414 5.46285,-2.6589 7.97996,-4.6421 10.74834,-5.5836 6.37497,9.0733 0.85789,23.0718 -1.2788,27.7124 15.53828,-5.7599 29.07884,4.6009 29.76082,6.8359 -0.0498,0.9511 -7.35215,7.8216 -7.82392,8.1907 4.18435,4.1773 -0.34562,-0.3753 8.0774,7.5356 -0.25887,0.6499 -11.81278,11.7106 -29.22109,9.2988 9.4402,11.8453 2.2638,27.5535 1.82199,28.4908 -1.57332,0.049 -3.02675,-1.0568 -10.43811,-3.4936 -1.2313,1.6927 -2.93251,4.965 -5.28476,9.8751 z"
         fill="#ee95d0"
         id="path1-5-08-3"
         sodipodi:nodetypes="cccccccccccccccccccccc"
         style="display:inline;fill:#e8b7c6;fill-opacity:1;stroke-width:0.164672"
         inkscape:label="petal" /><path
         d="m -619.68332,2218.6989 c -1.02041,0.2228 -30.04377,-7.0029 -39.58024,-48.3858 -10.61156,10.4872 -31.41506,25.528 -63.18886,25.0964 -0.76499,-3.7598 1.41679,-11.0843 2.85346,-24.979 -8.66234,-0.2094 -17.25892,-1.3674 -25.88355,-2.1246 -1.74561,-6.7876 15.6323,-41.2709 38.42958,-48.4193 -19.60937,-11.5742 -30.61112,-26.0455 -39.66082,-50.7086 8.40509,-2.7775 17.09581,-4.6905 25.68938,-6.8208 -1.43916,-4.6828 -1.65747,-5.5785 -5.10651,-23.1912 30.11572,-17.3339 65.80079,16.6667 65.80079,16.6667 -0.12732,-5.3755 17.97542,-49.4287 36.29762,-56.2509 4.18295,6.9313 8.33683,13.8793 12.46582,20.843 12.18904,-5.9326 17.80536,-10.3577 23.98232,-12.4584 14.22423,20.2449 1.91419,51.4791 -2.85331,61.8335 34.66992,-12.8517 64.88241,10.266 66.40408,15.2528 -0.11108,2.122 -16.40455,17.452 -17.45719,18.2755 9.33636,9.3206 -0.77116,-0.8373 18.02276,16.8138 -0.5776,1.4502 -26.35737,26.1296 -65.19982,20.7481 21.06355,26.4299 5.05113,61.4789 4.06535,63.5704 -3.51049,0.1088 -6.75348,-2.3581 -23.29013,-7.7951 -2.74736,3.7768 -6.54319,11.0782 -11.79166,22.0338 z"
         fill="#ee95d0"
         id="path1-5-08-9"
         sodipodi:nodetypes="cccccccccccccccccccccc"
         style="display:inline;fill:#e8b7c6;fill-opacity:1;stroke-width:0.367427"
         inkscape:label="petal" /><path
         d="m -2204.0103,347.036 c -1.1074,0.2418 -32.6089,-7.60094 -42.9595,-52.51715 -11.5175,11.38271 -34.0973,27.7076 -68.5841,27.2391 -0.8303,-4.08064 1.5379,-12.03047 3.0971,-27.11168 -9.4019,-0.22725 -18.7324,-1.48409 -28.0935,-2.30593 -1.8946,-7.36717 16.9671,-44.79463 41.7108,-52.55337 -21.2837,-12.56254 -33.2247,-28.26936 -43.0472,-55.03821 9.1229,-3.01456 18.5556,-5.09088 27.8828,-7.40305 -1.562,-5.08264 -1.799,-6.05484 -5.5424,-25.17139 32.687,-18.81389 71.4188,18.08982 71.4188,18.08982 -0.1374,-5.83465 19.5101,-53.64903 39.3968,-61.05373 4.5402,7.52303 9.0487,15.06435 13.5301,22.62263 13.2298,-6.43924 19.3257,-11.24207 26.03,-13.52226 15.4387,21.9735 2.0776,55.87448 -3.0969,67.11301 37.6301,-13.9489 70.4221,11.14243 72.0737,16.55505 -0.1199,2.30325 -17.8051,18.94203 -18.9476,19.83591 10.1333,10.11635 -0.8371,-0.90876 19.5614,18.24938 -0.6269,1.57407 -28.6077,28.36061 -70.7666,22.5197 22.8619,28.68642 5.4824,66.72794 4.4125,68.998 -3.8102,0.11809 -7.3301,-2.55945 -25.2786,-8.46062 -2.982,4.09931 -7.1019,12.0241 -12.7986,23.91515 z"
         fill="#ee95d0"
         id="path1-5-08-31"
         sodipodi:nodetypes="cccccccccccccccccccccc"
         style="display:inline;fill:#e8b7c6;fill-opacity:1;stroke-width:0.398798"
         inkscape:label="petal" /><path
         d="m -1113.6752,-101.56471 c -0.4145,0.0905 -12.2061,-2.84515 -16.0805,-19.65801 -4.3112,4.26073 -12.7631,10.3714 -25.6721,10.19603 -0.3108,-1.52745 0.5757,-4.50319 1.1593,-10.14834 -3.5193,-0.0851 -7.0118,-0.55552 -10.5159,-0.86315 -0.7091,-2.75764 6.3511,-16.76735 15.6131,-19.67157 -7.9669,-4.70236 -12.4366,-10.58168 -16.1133,-20.60169 3.4148,-1.1284 6.9456,-1.9056 10.437,-2.77108 -0.5847,-1.90251 -0.6734,-2.26642 -2.0746,-9.42206 12.2352,-7.04234 26.7332,6.77132 26.7332,6.77132 -0.052,-2.18401 7.303,-20.0817 14.7469,-22.8534 1.6994,2.81599 3.387,5.63883 5.0645,8.46801 4.9521,-2.41031 7.2339,-4.20808 9.7434,-5.06159 5.779,8.22503 0.7777,20.91472 -1.1592,25.12148 14.0855,-5.2213 26.3601,4.17079 26.9783,6.19682 -0.045,0.86214 -6.6647,7.0903 -7.0923,7.4249 3.793,3.78671 -0.3134,-0.34016 7.3221,6.83103 -0.2346,0.5892 -10.7083,10.61584 -26.4891,8.42949 8.5576,10.7378 2.0522,24.97735 1.6517,25.82707 -1.4262,0.0442 -2.7438,-0.95804 -9.4622,-3.16695 -1.1162,1.53444 -2.6583,4.50081 -4.7907,8.95183 z"
         fill="#ee95d0"
         id="path1-5-08-5"
         sodipodi:nodetypes="cccccccccccccccccccccc"
         style="display:inline;fill:#e8b7c6;fill-opacity:1;stroke-width:0.149277"
         inkscape:label="petal" /><path
         d="m -2359.2396,1260.6193 c -0.4323,0.094 -12.7289,-2.967 -16.7692,-20.5 -4.4959,4.4432 -13.3099,10.8156 -26.7718,10.6327 -0.3241,-1.5929 0.6003,-4.6961 1.2089,-10.583 -3.67,-0.089 -7.3121,-0.5793 -10.9662,-0.9001 -0.7396,-2.8758 6.6231,-17.4856 16.2817,-20.5142 -8.308,-4.9038 -12.9692,-11.035 -16.8034,-21.4841 3.5611,-1.1768 7.2432,-1.9873 10.8841,-2.8898 -0.6098,-1.984 -0.7023,-2.3635 -2.1635,-9.8257 12.7593,-7.3439 27.8783,7.0614 27.8783,7.0614 -0.054,-2.2776 7.6158,-20.9419 15.3785,-23.8323 1.7722,2.9366 3.5321,5.8804 5.2814,8.8307 5.1643,-2.5136 7.5438,-4.3883 10.1609,-5.2784 6.0265,8.5774 0.8109,21.8106 -1.2089,26.1976 14.6889,-5.445 27.4892,4.3494 28.1339,6.4622 -0.047,0.8991 -6.9502,7.394 -7.3962,7.743 3.9556,3.9488 -0.3267,-0.3548 7.6358,7.1236 -0.2447,0.6144 -11.167,11.0705 -27.6237,8.7905 8.9241,11.1978 2.14,26.0473 1.7224,26.9334 -1.4873,0.046 -2.8613,-0.9991 -9.8675,-3.3026 -1.164,1.6001 -2.7722,4.6936 -4.9959,9.3352 z"
         fill="#ee95d0"
         id="path1-5-08-74"
         sodipodi:nodetypes="cccccccccccccccccccccc"
         style="display:inline;fill:#e8b7c6;fill-opacity:1;stroke-width:0.155671"
         inkscape:label="petal" /><path
         d="m 1039.99,1989.5715 c -0.6502,0.142 -19.1418,-4.4618 -25.2178,-30.8281 -6.761,6.6817 -20.0155,16.2647 -40.25956,15.9897 -0.48739,-2.3955 0.90269,-7.0621 1.81803,-15.9149 -5.51904,-0.1334 -10.99618,-0.8712 -16.4912,-1.3537 -1.11218,-4.3245 9.95982,-26.2949 24.48466,-30.8494 -12.49373,-7.3742 -19.50328,-16.5943 -25.26912,-32.308 5.35514,-1.7696 10.89226,-2.9884 16.36749,-4.3457 -0.91693,-2.9835 -1.05602,-3.5542 -3.25351,-14.7758 19.18764,-11.044 41.92371,10.6189 41.92371,10.6189 -0.081,-3.425 11.4527,-31.4926 23.1263,-35.8392 2.665,4.4161 5.3116,8.8429 7.9423,13.2797 7.766,-3.7799 11.3444,-6.5992 15.28,-7.9376 9.0626,12.8986 1.2195,32.7989 -1.818,39.396 22.0893,-8.1882 41.3386,6.5407 42.3081,9.718 -0.07,1.352 -10.4519,11.1192 -11.1226,11.6439 5.9485,5.9384 -0.4913,-0.5335 11.4829,10.7126 -0.368,0.9239 -16.7931,16.6479 -41.5408,13.2192 13.4202,16.8393 3.2182,39.1701 2.5902,40.5027 -2.2367,0.069 -4.3028,-1.5025 -14.8389,-4.9665 -1.7504,2.4063 -4.1689,7.0583 -7.5128,14.0384 z"
         fill="#ee95d0"
         id="path1-5-08-55"
         sodipodi:nodetypes="cccccccccccccccccccccc"
         style="display:inline;fill:#e8b7c6;fill-opacity:1;stroke-width:0.234099"
         inkscape:label="petal" /><path
         d="m -1722.1166,2220.3626 c -0.6283,0.1372 -18.5005,-4.3123 -24.3729,-29.7953 -6.5344,6.4579 -19.3449,15.7198 -38.9108,15.454 -0.4711,-2.3152 0.8725,-6.8255 1.7571,-15.3817 -5.3341,-0.1289 -10.6277,-0.842 -15.9387,-1.3083 -1.0749,-4.1797 9.6262,-25.414 23.6644,-29.8159 -12.0752,-7.1272 -18.8499,-16.0384 -24.4226,-31.2256 5.1758,-1.7103 10.5274,-2.8883 15.8192,-4.2001 -0.8862,-2.8836 -1.0207,-3.4352 -3.1445,-14.2808 18.5448,-10.674 40.5191,10.2631 40.5191,10.2631 -0.078,-3.3102 11.069,-30.4375 22.3516,-34.6385 2.5758,4.2682 5.1337,8.5467 7.6762,12.8348 7.5059,-3.6532 10.9643,-6.3781 14.768,-7.6717 8.7591,12.4665 1.1787,31.7001 -1.757,38.0762 21.3492,-7.9139 39.9536,6.3216 40.8906,9.3924 -0.068,1.3067 -10.1016,10.7467 -10.7498,11.2538 5.7491,5.7395 -0.4749,-0.5156 11.0981,10.3537 -0.3557,0.893 -16.2305,16.0902 -40.1491,12.7764 12.9706,16.2751 3.1104,37.8578 2.5034,39.1457 -2.1617,0.067 -4.1587,-1.4521 -14.3417,-4.8001 -1.6918,2.3257 -4.0292,6.8218 -7.2612,13.5681 z"
         fill="#ee95d0"
         id="path1-5-08-2"
         sodipodi:nodetypes="cccccccccccccccccccccc"
         style="display:inline;fill:#e8b7c6;fill-opacity:1;stroke-width:0.226256"
         inkscape:label="petal" /></g><g
       inkscape:groupmode="layer"
       id="layer7"
       inkscape:label="Small petals"
       transform="translate(-1028.0054,-942.53443)"><path
         d="m -744.04618,-1272.1017 c -0.52227,0.114 -15.38114,-3.5854 -20.26352,-24.7718 -5.43267,5.3692 -16.0832,13.0695 -32.35011,12.8484 -0.39203,-1.9248 0.72529,-5.6746 1.46085,-12.7882 -4.43478,-0.1069 -8.83587,-0.7001 -13.25134,-1.0877 -0.8937,-3.475 8.00305,-21.1291 19.67436,-24.7887 -10.03919,-5.9256 -15.67166,-13.3343 -20.30476,-25.9609 4.3031,-1.4219 8.75236,-2.4012 13.15194,-3.4919 -0.73674,-2.3973 -0.84854,-2.8559 -2.61431,-11.873 15.41806,-8.8743 33.68741,8.5327 33.68741,8.5327 -0.0654,-2.7521 9.20264,-25.3055 18.5829,-28.7983 2.1415,3.5486 4.26809,7.1058 6.38198,10.6708 6.24036,-3.0372 9.11566,-5.3026 12.27802,-6.3782 7.28221,10.3647 0.98001,26.3553 -1.46079,31.6563 17.74963,-6.5795 33.21722,5.2557 33.99625,7.8088 -0.0589,1.0865 -8.39849,8.9348 -8.93738,9.3564 4.77983,4.7717 -0.39466,-0.4286 9.22692,8.608 -0.29583,0.7425 -13.4939,13.3774 -33.37967,10.6223 10.78365,13.531 2.58596,31.4746 2.0813,32.5454 -1.79726,0.055 -3.45753,-1.2073 -11.92363,-3.9908 -1.40653,1.9336 -3.34985,5.6717 -6.03687,11.2805 z"
         fill="#ee95d0"
         id="path1-5-08-0-5"
         sodipodi:nodetypes="cccccccccccccccccccccc"
         style="display:inline;fill:#f7f3f4;fill-opacity:1;stroke-width:0.188108"
         inkscape:label="petal" /><path
         d="m -467.27912,102.14449 c -0.43517,0.0951 -12.81599,-2.987332 -16.88412,-20.640418 -4.52665,4.473663 -13.40096,10.889712 -26.955,10.705577 -0.32665,-1.603778 0.60433,-4.728242 1.21722,-10.655499 -3.69518,-0.08933 -7.36229,-0.583282 -11.04138,-0.906284 -0.74465,-2.89546 6.66836,-17.605293 16.39322,-20.654661 -8.36493,-4.937358 -13.05806,-11.110492 -16.91848,-21.631258 3.58546,-1.184787 7.2927,-2.00083 10.95855,-2.909568 -0.61387,-1.997585 -0.70702,-2.379685 -2.17831,-9.89292 12.84675,-7.394284 28.06927,7.109705 28.06927,7.109705 -0.0545,-2.293147 7.66789,-21.085273 15.48378,-23.9954894 1.78436,2.9567224 3.55629,5.9206264 5.31764,8.8912054 5.19964,-2.530768 7.59542,-4.418388 10.23038,-5.314556 6.06774,8.636085 0.81657,21.959938 -1.21717,26.37693 14.78948,-5.482233 27.6775,4.379222 28.32661,6.506508 -0.0491,0.905226 -6.99785,7.444639 -7.44687,7.795955 3.98268,3.975959 -0.32884,-0.357134 7.68812,7.172417 -0.24649,0.618646 -11.24349,11.146365 -27.81285,8.850753 8.98523,11.274412 2.15469,26.225591 1.73419,27.117778 -1.49752,0.04635 -2.88091,-1.005926 -9.93509,-3.325221 -1.17196,1.611118 -2.79119,4.725739 -5.03009,9.399206 z"
         fill="#ee95d0"
         id="path1-5-08-0-8"
         sodipodi:nodetypes="cccccccccccccccccccccc"
         style="display:inline;fill:#f7f3f4;fill-opacity:1;stroke-width:0.156737"
         inkscape:label="petal" /><path
         d="m -1967.7312,-1224.7409 c -0.4352,0.095 -12.816,-2.9874 -16.8841,-20.6405 -4.5267,4.4737 -13.401,10.8898 -26.955,10.7056 -0.3267,-1.6038 0.6043,-4.7282 1.2172,-10.6555 -3.6952,-0.089 -7.3623,-0.5833 -11.0414,-0.9063 -0.7446,-2.8954 6.6684,-17.6053 16.3932,-20.6546 -8.3649,-4.9374 -13.058,-11.1105 -16.9185,-21.6313 3.5855,-1.1848 7.2927,-2.0008 10.9586,-2.9096 -0.6139,-1.9975 -0.707,-2.3796 -2.1783,-9.8929 12.8467,-7.3943 28.0692,7.1097 28.0692,7.1097 -0.054,-2.2931 7.6679,-21.0852 15.4838,-23.9955 1.7844,2.9568 3.5563,5.9207 5.3177,8.8912 5.1996,-2.5307 7.5954,-4.4183 10.2304,-5.3145 6.0677,8.6361 0.8165,21.9599 -1.2172,26.3769 14.7895,-5.4822 27.6775,4.3792 28.3266,6.5065 -0.049,0.9053 -6.9979,7.4447 -7.4469,7.796 3.9827,3.9759 -0.3288,-0.3571 7.6881,7.1724 -0.2464,0.6187 -11.2434,11.1464 -27.8128,8.8508 8.9852,11.2744 2.1547,26.2255 1.7342,27.1177 -1.4975,0.046 -2.8809,-1.0059 -9.9351,-3.3252 -1.172,1.6111 -2.7912,4.7258 -5.0301,9.3992 z"
         fill="#ee95d0"
         id="path1-5-08-0-9"
         sodipodi:nodetypes="cccccccccccccccccccccc"
         style="display:inline;fill:#f7f3f4;fill-opacity:1;stroke-width:0.156737"
         inkscape:label="petal" /><path
         d="m -4204.0049,-2308.605 c -0.4352,0.095 -12.816,-2.9873 -16.8841,-20.6404 -4.5267,4.4736 -13.401,10.8897 -26.955,10.7055 -0.3267,-1.6037 0.6043,-4.7282 1.2172,-10.6555 -3.6952,-0.089 -7.3623,-0.5832 -11.0414,-0.9062 -0.7446,-2.8955 6.6684,-17.6053 16.3932,-20.6547 -8.3649,-4.9374 -13.058,-11.1105 -16.9185,-21.6313 3.5855,-1.1847 7.2927,-2.0008 10.9586,-2.9095 -0.6139,-1.9976 -0.707,-2.3797 -2.1783,-9.8929 12.8467,-7.3943 28.0692,7.1097 28.0692,7.1097 -0.055,-2.2932 7.6679,-21.0853 15.4838,-23.9955 1.7844,2.9567 3.5563,5.9206 5.3177,8.8912 5.1996,-2.5308 7.5954,-4.4184 10.2304,-5.3146 6.0677,8.6361 0.8165,21.96 -1.2172,26.3769 14.7895,-5.4822 27.6775,4.3793 28.3266,6.5066 -0.049,0.9052 -6.9979,7.4446 -7.4469,7.7959 3.9827,3.976 -0.3288,-0.3571 7.6881,7.1724 -0.2464,0.6187 -11.2434,11.1464 -27.8128,8.8508 8.9852,11.2744 2.1547,26.2256 1.7342,27.1178 -1.4975,0.046 -2.8809,-1.006 -9.9351,-3.3253 -1.172,1.6112 -2.7912,4.7258 -5.0301,9.3992 z"
         fill="#ee95d0"
         id="path1-5-08-0-0"
         sodipodi:nodetypes="cccccccccccccccccccccc"
         style="display:inline;fill:#f7f3f4;fill-opacity:1;stroke-width:0.156737"
         inkscape:label="petal" /><path
         d="m -3204.5424,-2310.3277 c -0.7123,0.1555 -20.9782,-4.89 -27.6372,-33.786 -7.4097,7.3229 -21.9359,17.8253 -44.1222,17.5238 -0.5348,-2.6253 0.9892,-7.7395 1.9924,-17.4418 -6.0486,-0.1457 -12.0512,-0.9548 -18.0734,-1.4835 -1.2189,-4.7395 10.9153,-28.8178 26.8337,-33.8092 -13.6924,-8.0819 -21.3744,-18.1866 -27.6936,-35.4079 5.869,-1.9393 11.9373,-3.275 17.9379,-4.7626 -1.0048,-3.2697 -1.1572,-3.8952 -3.5656,-16.1935 21.0285,-12.1036 45.946,11.6377 45.946,11.6377 -0.09,-3.7535 12.5514,-34.514 25.3451,-39.2778 2.9209,4.8399 5.8213,9.6915 8.7045,14.5538 8.5111,-4.1424 12.4327,-7.2322 16.7459,-8.6992 9.9321,14.1363 1.3365,35.9458 -1.9924,43.1759 24.2087,-8.9737 45.3048,7.1682 46.3673,10.6504 -0.08,1.4818 -11.4547,12.1861 -12.1897,12.7611 6.5192,6.5081 -0.5382,-0.5845 12.5845,11.7404 -0.4033,1.0127 -18.4041,18.2453 -45.5262,14.4877 14.7077,18.4549 3.527,42.928 2.8386,44.3885 -2.4512,0.075 -4.7156,-1.6466 -16.2625,-5.443 -1.9185,2.6372 -4.5689,7.7356 -8.2337,15.3854 z"
         fill="#ee95d0"
         id="path1-5-08-0-6"
         sodipodi:nodetypes="cccccccccccccccccccccc"
         style="display:inline;fill:#f7f3f4;fill-opacity:1;stroke-width:0.25656"
         inkscape:label="petal" /><path
         d="m -485.60919,-560.70559 c -0.65292,0.14254 -19.22887,-4.48224 -25.33263,-30.96863 -6.79171,6.71226 -20.10656,16.33886 -40.44279,16.06249 -0.4901,-2.40631 0.90673,-7.09411 1.82631,-15.98732 -5.5442,-0.13353 -11.04625,-0.87517 -16.5663,-1.35979 -1.11726,-4.34421 10.00509,-26.41467 24.59609,-30.98979 -12.55059,-7.40798 -19.59208,-16.66999 -25.38418,-32.4552 5.37957,-1.77765 10.94183,-3.00196 16.44201,-4.36551 -0.92104,-2.99701 -1.06079,-3.57031 -3.26828,-14.84313 19.27501,-11.09427 42.1146,10.66727 42.1146,10.66727 -0.0818,-3.44053 11.50476,-31.63585 23.23158,-36.00241 2.67722,4.43633 5.33579,8.88331 7.97849,13.34019 7.80144,-3.79701 11.39602,-6.62913 15.34947,-7.97378 9.10392,12.95745 1.22517,32.94824 -1.82622,39.57542 22.18986,-8.22539 41.52681,6.57047 42.50072,9.76223 -0.0737,1.3583 -10.49944,11.16989 -11.17314,11.69698 5.97554,5.96537 -0.49337,-0.53579 11.53511,10.76134 -0.36983,0.92828 -16.86952,16.72385 -41.72989,13.27957 13.48128,16.91591 3.23286,39.34826 2.60195,40.6869 -2.24685,0.069 -4.32245,-1.50923 -14.90641,-4.98907 -1.7584,2.41727 -4.18787,7.09051 -7.54707,14.10239 z"
         fill="#ee95d0"
         id="path1-5-08-0-08"
         sodipodi:nodetypes="cccccccccccccccccccccc"
         style="display:inline;fill:#f7f3f4;fill-opacity:1;stroke-width:0.235165"
         inkscape:label="petal" /><path
         d="m -1502.1796,773.43875 c -0.5876,0.12827 -17.305,-4.03366 -22.798,-27.87006 -6.1123,6.04069 -18.095,14.704 -36.3965,14.45542 -0.4411,-2.16556 0.816,-6.38434 1.6435,-14.38778 -4.9895,-0.12017 -9.941,-0.78761 -14.9088,-1.22374 -1.0054,-3.90957 9.0041,-23.77187 22.1352,-27.88924 -11.2949,-6.66681 -17.6318,-15.00215 -22.8445,-29.20804 4.8414,-1.5998 9.8471,-2.70162 14.797,-3.92874 -0.8289,-2.69729 -0.9546,-3.21323 -2.9412,-13.35806 17.3464,-9.98428 37.9009,9.6 37.9009,9.6 -0.073,-3.0963 10.3537,-28.4708 20.9073,-32.40035 2.4094,3.99234 4.8019,7.99453 7.1803,12.0055 7.0208,-3.41712 10.2558,-5.96602 13.8137,-7.176 8.1931,11.66105 1.1025,29.65174 -1.6435,35.61588 19.9698,-7.40244 37.372,5.91309 38.2485,8.78551 -0.066,1.22226 -9.449,10.05234 -10.0553,10.52669 5.3777,5.36853 -0.444,-0.48232 10.381,9.68466 -0.3327,0.83527 -15.1816,15.05048 -37.5547,11.95081 12.1324,15.22345 2.9094,35.41157 2.3416,36.61628 -2.022,0.0621 -3.89,-1.35823 -13.4151,-4.48991 -1.5825,2.17542 -3.7688,6.38096 -6.7919,12.69144 z"
         fill="#ee95d0"
         id="path1-5-08-0-58"
         sodipodi:nodetypes="cccccccccccccccccccccc"
         style="display:inline;fill:#f7f3f4;fill-opacity:1;stroke-width:0.211637"
         inkscape:label="petal" /><path
         d="m -3381.1354,-1122.0826 c -0.4352,0.095 -12.816,-2.9874 -16.8841,-20.6405 -4.5267,4.4737 -13.401,10.8898 -26.955,10.7056 -0.3267,-1.6038 0.6043,-4.7282 1.2172,-10.6555 -3.6952,-0.089 -7.3623,-0.5833 -11.0414,-0.9063 -0.7446,-2.8954 6.6684,-17.6053 16.3932,-20.6546 -8.3649,-4.9374 -13.058,-11.1105 -16.9185,-21.6313 3.5855,-1.1848 7.2927,-2.0008 10.9586,-2.9096 -0.6139,-1.9975 -0.707,-2.3796 -2.1783,-9.8929 12.8467,-7.3943 28.0692,7.1097 28.0692,7.1097 -0.055,-2.2931 7.6679,-21.0852 15.4838,-23.9955 1.7844,2.9568 3.5563,5.9207 5.3177,8.8912 5.1996,-2.5307 7.5954,-4.4183 10.2304,-5.3145 6.0677,8.6361 0.8165,21.9599 -1.2172,26.3769 14.7895,-5.4822 27.6775,4.3792 28.3266,6.5065 -0.049,0.9053 -6.9979,7.4447 -7.4469,7.796 3.9827,3.9759 -0.3288,-0.3571 7.6881,7.1724 -0.2464,0.6187 -11.2434,11.1464 -27.8128,8.8508 8.9852,11.2744 2.1547,26.2255 1.7342,27.1177 -1.4975,0.046 -2.8809,-1.0059 -9.9351,-3.3252 -1.172,1.6111 -2.7912,4.7258 -5.0301,9.3992 z"
         fill="#ee95d0"
         id="path1-5-08-0-39"
         sodipodi:nodetypes="cccccccccccccccccccccc"
         style="display:inline;fill:#f7f3f4;fill-opacity:1;stroke-width:0.156737"
         inkscape:label="petal" /><path
         d="m -2101.875,-2361.9201 c -0.4352,0.095 -12.816,-2.9874 -16.8841,-20.6405 -4.5267,4.4737 -13.401,10.8898 -26.955,10.7056 -0.3267,-1.6038 0.6043,-4.7282 1.2172,-10.6555 -3.6952,-0.089 -7.3623,-0.5833 -11.0414,-0.9063 -0.7446,-2.8954 6.6684,-17.6053 16.3932,-20.6546 -8.3649,-4.9374 -13.058,-11.1105 -16.9185,-21.6313 3.5855,-1.1848 7.2927,-2.0008 10.9586,-2.9096 -0.6139,-1.9975 -0.707,-2.3796 -2.1783,-9.8929 12.8467,-7.3943 28.0692,7.1097 28.0692,7.1097 -0.054,-2.2931 7.6679,-21.0852 15.4838,-23.9955 1.7844,2.9568 3.5563,5.9207 5.3177,8.8912 5.1996,-2.5307 7.5954,-4.4183 10.2304,-5.3145 6.0677,8.6361 0.8165,21.9599 -1.2172,26.3769 14.7895,-5.4822 27.6775,4.3792 28.3266,6.5065 -0.049,0.9053 -6.9979,7.4447 -7.4469,7.796 3.9827,3.9759 -0.3288,-0.3571 7.6881,7.1724 -0.2464,0.6187 -11.2434,11.1464 -27.8128,8.8508 8.9852,11.2744 2.1547,26.2255 1.7342,27.1177 -1.4975,0.046 -2.8809,-1.0059 -9.9351,-3.3252 -1.172,1.6111 -2.7912,4.7258 -5.0301,9.3992 z"
         fill="#ee95d0"
         id="path1-5-08-0-61"
         sodipodi:nodetypes="cccccccccccccccccccccc"
         style="display:inline;fill:#f7f3f4;fill-opacity:1;stroke-width:0.156737"
         inkscape:label="petal" /></g></g></svg>
