<?xml version="1.0" encoding="UTF-8" standalone="no"?>
<!-- Created with Inkscape (http://www.inkscape.org/) -->

<svg
   width="360mm"
   height="800mm"
   viewBox="0 0 360 800"
   version="1.1"
   id="svg1"
   inkscape:version="1.4.3 (0d15f75, 2025-12-25)"
   sodipodi:docname="spring_mobile.svg"
   xml:space="preserve"
   xmlns:inkscape="http://www.inkscape.org/namespaces/inkscape"
   xmlns:sodipodi="http://sodipodi.sourceforge.net/DTD/sodipodi-0.dtd"
   xmlns:xlink="http://www.w3.org/1999/xlink"
   xmlns="http://www.w3.org/2000/svg"
   xmlns:svg="http://www.w3.org/2000/svg"><sodipodi:namedview
     id="namedview1"
     pagecolor="#ffffff"
     bordercolor="#000000"
     borderopacity="0.25"
     inkscape:showpageshadow="2"
     inkscape:pageopacity="0.0"
     inkscape:pagecheckerboard="0"
     inkscape:deskcolor="#d1d1d1"
     inkscape:document-units="mm"
     inkscape:zoom="0.094764485"
     inkscape:cx="390.44163"
     inkscape:cy="1218.811"
     inkscape:window-width="958"
     inkscape:window-height="1101"
     inkscape:window-x="952"
     inkscape:window-y="0"
     inkscape:window-maximized="0"
     inkscape:current-layer="svg1" /><defs
     id="defs1"><linearGradient
       id="linearGradient7"
       inkscape:collect="always"><stop
         style="stop-color:#bfd1dc;stop-opacity:1;"
         offset="0"
         id="stop7" /><stop
         style="stop-color:#c7d6dd;stop-opacity:1;"
         offset="0.38147011"
         id="stop10" /><stop
         style="stop-color:#e16b5c;stop-opacity:1;"
         offset="1"
         id="stop8" /></linearGradient><linearGradient
       inkscape:collect="always"
       xlink:href="#linearGradient7"
       id="linearGradient8-4"
       x1="109.88719"
       y1="3.4478526"
       x2="115.06703"
       y2="296.90793"
       gradientUnits="userSpaceOnUse"
       spreadMethod="pad"
       gradientTransform="matrix(2.4268304,0,0,2.4268304,-116.3628,10.927042)" /></defs><g
     inkscape:groupmode="layer"
     id="layer3"
     inkscape:label="Sky"
     style="display:inline;fill:#000000"><path
       style="display:inline;opacity:1;fill:url(#linearGradient8-4);fill-opacity:1;fill-rule:nonzero;stroke-width:0.642098"
       d="M 46.536875,-50.16034 C -40.90192,-51.35813 -187.03251,2.5424998 -187.03251,2.5424998 l 21.56025,235.9649602 c 0,0 13.17571,97.02112 -32.34037,192.84447 -45.51609,95.82333 62.28517,444.3807 62.28517,444.3807 l 621.65388,-49.10946 c 0,0 126.96589,-112.59241 57.49402,-352.15073 -69.47193,-239.55835 -69.47193,-239.55835 -69.47193,-239.55835 0,0 27.54921,-245.547299 -67.07633,-280.28326 -94.62556,-34.73596 -360.535305,-4.79117 -360.535305,-4.79117 z"
       id="path4-4"
       inkscape:label="sky" /></g><g
     inkscape:groupmode="layer"
     id="layer4"
     inkscape:label="Sun"
     style="display:inline"><ellipse
       style="display:inline;fill:#d94a45;fill-opacity:1;stroke-width:0.510174;stroke-dasharray:none"
       id="path6-6"
       cx="171.71855"
       cy="370.10318"
       rx="105.47212"
       ry="101.67132"
       inkscape:label="sun" /></g><g
     inkscape:label="Foreground 3"
     inkscape:groupmode="layer"
     id="layer1-5"
     transform="translate(-1.0926367,-95.495827)"
     style="display:inline"><path
       style="fill:#dde8db;fill-opacity:1;stroke-width:0.746934"
       d="m -126.32196,588.59337 c -82.25457,237.96274 88.047182,449.11253 88.047182,449.11253 L 418.18027,896.93939 c 0,0 69.51093,-251.36901 30.12142,-392.13572 -39.38956,-140.76666 -574.62365,83.7897 -574.62365,83.7897 z"
       id="path2"
       inkscape:label="hill" /></g><g
     inkscape:label="Foreground 2"
     inkscape:groupmode="layer"
     id="layer1-4"
     transform="translate(-1.0926367,-95.495827)"
     style="display:inline"><path
       style="display:inline;fill:#c9d8c5;fill-opacity:1;stroke-width:0.724604"
       d="m -215.08761,681.02898 c 0,0 93.1374,-122.21519 237.552675,-157.1338 C 166.88034,488.97651 393.96814,632.1429 393.96814,632.1429 l -20.92976,359.66186 -255.34294,-19.2052 -194.64669,10.47558 z"
       id="path1"
       inkscape:label="hill" /></g><g
     inkscape:label="Foreground 1"
     inkscape:groupmode="layer"
     id="layer1"
     style="display:inline"><path
       style="display:inline;fill:#9fafb0;fill-opacity:1;stroke-width:0.425005"
       d="M 99.895304,811.66742 C 63.425473,751.41292 54.704429,756.96267 51.533142,693.53686 48.361852,630.11109 65.01112,594.43407 65.01112,594.43407 l 22.99185,-27.74878 34.09136,-13.47799 94.34588,22.19904 11.09951,14.27081 -4.75695,-17.4421 -43.60523,-18.23492 -29.33442,-11.09951 22.99185,-11.09952 28.5416,5.54975 -30.12725,-11.89233 -2.37847,-22.99186 -3.17128,22.19903 -19.82057,7.13541 -31.71289,7.13541 5.54975,-16.64928 11.89235,-13.47799 9.51386,-7.92822 -19.82057,6.34259 -12.68515,12.68515 -6.34258,19.02775 -29.334426,7.92822 c 0,0 -30.920073,19.82056 -29.33443,-1.58565 1.585643,-21.40621 11.892342,-39.64112 11.892342,-39.64112 l 32.505714,-19.82056 19.82056,-15.06362 22.99185,12.68515 -19.02774,-19.02774 h 32.50572 l 10.3067,11.09952 13.47797,4.75693 17.4421,5.54976 19.82056,6.34257 -1.58565,19.82057 7.1354,-15.85644 26.95598,3.96411 -23.78469,-12.68517 -20.61338,-11.89233 3.96411,-15.06363 -12.68515,10.3067 -19.82057,-8.72106 31.7129,-12.68515 30.12725,1.58564 19.02775,17.44209 15.85644,22.19903 6.34258,19.82057 -13.47798,15.85644 14.2708,-9.51387 8.72104,24.5775 -0.79282,-26.16314 8.72106,-15.06362 -12.68517,2.37845 -7.1354,-23.78466 11.09951,-3.17129 9.51388,3.17129 9.51387,4.75693 -3.96412,-7.92822 -9.51386,-5.54977 -12.68517,-0.79281 -7.92822,1.58565 -13.47798,-19.02775 17.44209,-6.34258 -24.57749,2.37847 -12.68516,-7.1354 -9.51387,-21.4062 -3.1713,15.85645 -19.02773,1.58564 8.72105,-26.16314 12.68516,-6.34258 23.78468,-0.79282 -25.37032,-7.92823 -17.4421,7.13541 -14.2708,-10.3067 4.75693,14.27081 5.54976,4.75693 -11.89235,25.37032 -23.78466,8.72104 -24.5775,-0.79282 12.68516,-15.85644 19.02774,-5.54976 -21.40621,-2.37847 -11.09951,-13.47798 1.58565,15.85645 -9.51387,15.85645 -21.40621,7.13539 -11.892333,3.96412 2.378467,-22.99185 -11.892342,23.78467 -21.406199,3.17129 c 0,0 -26.955967,18.23492 -28.54161,0 -1.585644,-18.23491 -12.68516,-57.87604 5.549757,-58.66886 18.234916,-0.79282 34.884188,-4.75693 34.884188,-4.75693 l -12.685162,19.02773 -15.856449,5.54976 h 18.234916 l 0.792827,12.68516 4.75693,-15.06363 11.892339,-19.82056 17.442092,-1.58564 3.964109,17.44209 4.75693,-17.44209 21.40621,-4.75694 20.61338,-8.72104 19.82056,-9.51388 26.16315,-7.13539 19.02773,7.13539 -17.44209,-15.85644 0.79282,-19.82056 -9.51386,16.64927 -21.40621,5.54976 -10.30669,-9.51387 v -8.72105 l -1.58564,-15.06363 -8.72106,15.06363 1.58565,12.68516 3.96412,7.1354 -22.99186,11.09951 -20.61338,3.96412 3.96411,-18.23492 14.27081,-10.30669 -18.23492,5.54975 -6.34258,-12.68515 0.79282,15.85644 -3.171289,18.23492 -32.505718,3.1713 -22.199026,-0.79284 12.685159,-19.02773 18.234912,-5.54976 8.721048,-13.47798 -15.856445,9.51387 -11.892335,3.17129 3.96411,-12.68516 8.721044,-8.72105 7.135405,-7.1354 H 63.425473 l -11.892331,11.09952 -5.549757,7.92822 -3.171295,8.72105 -6.342577,13.47798 -4.756934,7.13541 -9.513872,-15.06364 7.928225,-19.02773 -15.85645,11.89233 -29.33443,-11.89233 12.6851577,15.85644 15.8564493,11.89234 7.928224,15.06363 -26.1631393,1.58565 -20.6133827,448.73747 z"
       id="path3-6"
       inkscape:label="Front Tree" /></g><g
     inkscape:groupmode="layer"
     id="layer2"
     inkscape:label="Sakura"
     style="display:inline"
     transform="translate(1.3960047,2.7920094)"><g
       inkscape:groupmode="layer"
       id="layer2-1"
       inkscape:label="Front Petal"
       style="display:inline"
       transform="matrix(1.754908,0,0,1.754908,0.61877881,296.83667)"><path
         d="m 114.10017,145.944 c 0.11435,-0.0726 3.97075,-0.48565 6.97575,4.12913 0.82506,-1.74991 2.68845,-4.50839 6.57711,-5.87137 0.26061,0.42378 0.32126,1.41295 0.76534,3.16907 1.06423,-0.36042 2.16272,-0.60238 3.24677,-0.8944 0.51497,0.74883 -0.0651,5.72242 -2.52286,7.6086 2.90368,0.53591 4.8882,1.80809 7.08903,4.4084 -0.89984,0.7127 -1.87297,1.33284 -2.8246,1.97512 0.38389,0.50616 0.45038,0.60551 1.65507,2.59675 -2.89527,3.45261 -8.75578,0.90179 -8.75578,0.90179 0.25494,0.649 0.013,6.82028 -1.91432,8.46737 -0.8182,-0.65774 -1.6336,-1.31882 -2.44666,-1.98292 -1.22009,1.26552 -1.70691,2.05462 -2.36555,2.58565 -2.63417,-1.83174 -2.52656,-6.18389 -2.40726,-7.65725 -3.64957,3.10965 -8.35878,1.64038 -8.76626,1.10087 -0.081,-0.26338 1.22026,-2.85615 1.31176,-3.00334 -1.55222,-0.71912 0.13119,0.0676 -2.94389,-1.24466 0.006,-0.20236 2.04572,-4.35633 7.01572,-5.43144 -3.7426,-2.28024 -3.35406,-7.2619 -3.32719,-7.56052 0.42266,-0.16965 0.92749,-0.0137 3.18356,-0.0883 0.16631,-0.58234 0.30328,-1.64061 0.45436,-3.20863 z"
         fill="#ee95d0"
         id="path1-5"
         sodipodi:nodetypes="cccccccccccccccccccccc"
         style="display:inline;fill:#e8b7c6;fill-opacity:1;stroke-width:0.0476457"
         inkscape:label="petal" /><path
         d="m 86.806984,120.99555 c 0.08058,-0.10886 3.53035,-1.88131 7.994054,1.34383 0.140459,-1.92954 0.887006,-5.17363 4.025211,-7.84403 0.395593,0.30169 0.807956,1.20284 1.853941,2.68173 0.86338,-0.71907 1.80133,-1.33994 2.7078,-2.00232 0.74985,0.5135 1.99748,5.36288 0.38256,8.00683 2.90211,-0.54432 5.21139,-0.071 8.2002,1.56368 -0.58329,0.98864 -1.26825,1.9173 -1.92518,2.85885 0.54024,0.33422 0.63802,0.40301 2.47828,1.8277 -1.45972,4.26291 -7.8455,3.99064 -7.8455,3.99064 0.47131,0.51387 2.46523,6.35918 1.25926,8.58925 -1.00002,-0.31944 -1.99863,-0.643 -2.99613,-0.97022 -0.68327,1.61966 -0.8537,2.53104 -1.27727,3.26342 -3.116712,-0.76172 -4.581635,-4.86132 -5.000252,-6.279 -2.28689,4.21419 -7.209407,4.53701 -7.783662,4.18016 -0.170311,-0.21662 0.111326,-3.1039 0.143767,-3.27416 -1.706996,-0.1127 0.146725,0.0159 -3.194554,-0.10254 -0.0674,-0.19089 0.341974,-4.80058 4.592699,-7.59131 -4.312279,-0.78154 -5.741494,-5.56957 -5.823828,-5.85787 0.333359,-0.31031 0.860501,-0.34637 2.938757,-1.22743 -0.05427,-0.60318 -0.307091,-1.6399 -0.730091,-3.15732 z"
         fill="#ee95d0"
         id="path1-5-7"
         sodipodi:nodetypes="cccccccccccccccccccccc"
         style="display:inline;fill:#e8b7c6;fill-opacity:1;stroke-width:0.0476457"
         inkscape:label="petal" /><path
         d="m 57.183869,127.43441 c -0.06642,-0.11803 -0.274248,-3.99092 4.493493,-6.74679 -1.703651,-0.91676 -4.359361,-2.92391 -5.514064,-6.87943 0.437018,-0.23775 1.428004,-0.24582 3.205224,-0.59608 -0.303436,-1.08185 -0.486766,-2.19164 -0.720851,-3.28966 0.775107,-0.47451 5.71091,0.36865 7.464,2.92307 0.689249,-2.87114 2.064947,-4.78535 4.778391,-6.8451 0.663935,0.9364 1.231563,1.94107 1.822436,2.92544 0.525818,-0.35648 0.628563,-0.41761 2.680923,-1.51493 3.294104,3.07441 0.435873,8.7913 0.435873,8.7913 0.661614,-0.22015 6.811365,0.34891 8.35385,2.36095 -0.700227,0.78215 -1.40365,1.56132 -2.10996,2.33799 1.198992,1.28553 1.96114,1.81354 2.456467,2.49943 -1.968947,2.53326 -6.309245,2.19484 -7.774207,1.99752 2.911597,3.80945 1.194491,8.43405 0.634119,8.81233 -0.267307,0.0669 -2.787367,-1.37011 -2.929496,-1.4693 -0.800479,1.51188 0.07448,-0.12741 -1.399134,2.8737 -0.201767,-0.0165 -4.241631,-2.27401 -5.051481,-7.29407 -2.475637,3.61632 -7.429655,2.96397 -7.726428,2.92129 -0.14698,-0.43107 0.03554,-0.92692 0.08076,-3.18376 -0.572695,-0.19698 -1.62221,-0.38992 -3.179995,-0.624 z"
         fill="#ee95d0"
         id="path1-5-0"
         sodipodi:nodetypes="cccccccccccccccccccccc"
         style="display:inline;fill:#e8b7c6;fill-opacity:1;stroke-width:0.0476457"
         inkscape:label="petal" /><path
         d="m 66.172965,69.465616 c 0.01761,-0.134294 2.173304,-3.358485 7.641383,-2.705555 -0.813834,-1.755149 -1.735876,-4.953786 -0.288455,-8.81182 0.492307,0.07174 1.290263,0.659431 2.922625,1.44466 0.405788,-1.047772 0.924445,-2.045884 1.395425,-3.065007 0.904839,0.08496 4.349593,3.719061 4.221115,6.814529 2.273049,-1.884622 4.521743,-2.59181 7.928333,-2.613416 -0.03006,1.147495 -0.178126,2.29189 -0.295419,3.433973 0.634562,0.02995 0.75344,0.04263 3.053914,0.394926 0.793082,4.435556 -4.922057,7.297276 -4.922057,7.297276 0.661499,0.220487 5.242151,4.363058 5.270308,6.898172 -1.029354,0.206145 -2.059485,0.407999 -3.090429,0.606121 0.188843,1.74771 0.482239,2.627246 0.467433,3.473163 -3.094644,0.846942 -6.365416,-2.026169 -7.419569,-3.062415 0.04625,4.794492 -4.100721,7.466194 -4.776002,7.432962 -0.254051,-0.106715 -1.409356,-2.767728 -1.463638,-2.932325 -1.547107,0.730068 0.136002,-0.05731 -2.842718,1.461042 -0.15159,-0.134174 -2.031303,-4.363068 0.330368,-8.866326 -4.149527,1.409963 -7.723254,-2.082361 -7.935183,-2.29445 0.140819,-0.433121 0.584184,-0.720533 1.97349,-2.499643 -0.340245,-0.501012 -1.064523,-1.284676 -2.170925,-2.405997 z"
         fill="#ee95d0"
         id="path1-5-3"
         sodipodi:nodetypes="cccccccccccccccccccccc"
         style="display:inline;fill:#e8b7c6;fill-opacity:1;stroke-width:0.0476457"
         inkscape:label="petal" /><path
         d="m 129.69107,67.450964 c -0.11754,0.0673 -3.98877,0.30389 -6.78,-4.443245 -0.90407,1.710416 -2.89143,4.380964 -6.83826,5.565023 -0.241,-0.435241 -0.25643,-1.426139 -0.61988,-3.200708 -1.07957,0.311465 -2.18797,0.503035 -3.28421,0.745271 -0.48026,-0.77156 0.3262,-5.71349 2.86753,-7.48551 -2.87619,-0.667899 -4.80056,-2.029338 -6.88041,-4.727404 0.93144,-0.670874 1.93186,-1.24595 2.91182,-1.84412 -0.36038,-0.523156 -0.42227,-0.625443 -1.53481,-2.669594 3.04985,-3.316855 8.78782,-0.501176 8.78782,-0.501176 -0.22506,-0.659959 0.29829,-6.813768 2.29882,-8.371159 0.78733,0.694397 1.57171,1.392012 2.35361,2.092531 1.27658,-1.208509 1.79891,-1.974558 2.4811,-2.474968 2.54782,1.950072 2.24165,6.292764 2.05523,7.759152 3.78771,-2.939819 8.42494,-1.257118 8.80737,-0.699571 0.0689,0.266802 -1.34936,2.797469 -1.44749,2.940331 1.51778,0.789224 -0.12796,-0.07353 2.88401,1.377745 -0.015,0.201884 -2.24244,4.258408 -7.25634,5.105532 3.63462,2.448702 3.01909,7.40743 2.97862,7.704512 -0.42997,0.150178 -0.92716,-0.02865 -3.18428,-0.05711 -0.19272,0.574142 -0.37786,1.625062 -0.60035,3.184543 z"
         fill="#ee95d0"
         id="path1-5-8"
         sodipodi:nodetypes="cccccccccccccccccccccc"
         style="display:inline;fill:#e8b7c6;fill-opacity:1;stroke-width:0.0476457"
         inkscape:label="petal" /><path
         d="m 170.53511,93.84919 c 0.10068,0.09058 1.53639,3.693522 -2.09935,7.82965 1.90738,0.32366 5.06558,1.37588 7.42485,4.75424 -0.33801,0.36505 -1.27435,0.68968 -2.84617,1.59 0.63355,0.92796 1.16223,1.9208 1.73523,2.88626 -0.5826,0.69751 -5.52879,1.47745 -8.00685,-0.38203 0.26534,2.94078 -0.42579,5.19446 -2.33784,8.01392 -0.92857,-0.67483 -1.78774,-1.44515 -2.66243,-2.1888 -0.38417,0.50594 -0.46196,0.59672 -2.0555,2.29287 -4.10444,-1.85921 -3.225,-8.19 -3.225,-8.19 -0.55645,0.4202 -6.56512,1.84814 -8.67016,0.43518 0.41326,-0.96502 0.83049,-1.92827 1.25127,-2.89005 -1.5472,-0.83448 -2.43819,-1.09096 -3.12689,-1.58238 1.0552,-3.02996 5.27571,-4.09764 6.72683,-4.37928 -3.97714,-2.677991 -3.8295,-7.608877 -3.41956,-8.146516 0.23186,-0.148898 3.07918,0.406542 3.24557,0.455056 0.27482,-1.688492 -0.0298,0.144542 0.40643,-3.170252 0.19644,-0.04891 4.74616,0.79779 7.11921,5.295063 1.18884,-4.218202 6.09125,-5.18474 6.38608,-5.239232 0.27715,0.361408 0.26282,0.889587 0.94186,3.042331 0.60562,0.0034 1.66171,-0.149453 3.21252,-0.425958 z"
         fill="#ee95d0"
         id="path1-5-1"
         sodipodi:nodetypes="cccccccccccccccccccccc"
         style="display:inline;fill:#e8b7c6;fill-opacity:1;stroke-width:0.0476457"
         inkscape:label="petal" /><path
         d="m 161.1141,124.26087 c 0.0797,0.10948 0.73782,3.9317 -3.67599,7.2248 1.79894,0.71182 4.67061,2.39555 6.27875,6.18941 -0.40631,0.2871 -1.3896,0.41069 -3.11384,0.96582 0.42754,1.03909 0.73904,2.11992 1.09958,3.18314 -0.71447,0.56167 -5.71493,0.29991 -7.75396,-2.03264 -0.3497,2.93194 -1.49277,4.99353 -3.94748,7.35567 -0.76861,-0.85258 -1.44954,-1.7842 -2.15118,-2.69294 -0.48065,0.41538 -0.57557,0.48807 -2.48595,1.81726 -3.63018,-2.66927 -1.45818,-8.68048 -1.45818,-8.68048 -0.63142,0.29581 -6.80557,0.44784 -8.57218,-1.37059 0.60423,-0.85846 1.21198,-1.71436 1.82289,-2.5681 -1.34073,-1.13693 -2.15926,-1.57245 -2.73119,-2.19589 1.66007,-2.7456 6.01022,-2.91567 7.48819,-2.89055 -3.336,-3.44389 -2.16995,-8.23719 -1.65752,-8.67824 0.25768,-0.0976 2.92814,1.03568 3.08086,1.11762 0.6187,-1.59492 -0.0591,0.13523 1.05445,-3.01726 0.20231,-0.007 4.47789,1.76382 5.86767,6.65517 2.037,-3.88036 7.03329,-3.81022 7.33301,-3.80244 0.19625,0.41099 0.0728,0.92474 0.2911,3.17146 0.59176,0.12884 1.65661,0.19807 3.23106,0.24887 z"
         fill="#ee95d0"
         id="path1-5-35"
         sodipodi:nodetypes="cccccccccccccccccccccc"
         style="display:inline;fill:#e8b7c6;fill-opacity:1;stroke-width:0.0476457"
         inkscape:label="petal" /><path
         d="m 118.56535,20.187641 c 0.0688,0.116663 0.35531,3.984523 -4.35543,6.836737 1.72193,0.881941 4.41789,2.834696 5.65275,6.765917 -0.4321,0.246587 -1.42272,0.274801 -3.19245,0.661106 0.32536,1.075467 0.53121,2.181296 0.78757,3.274327 -0.7653,0.490169 -5.71722,-0.252486 -7.52187,-2.770753 -0.63075,2.884563 -1.96726,4.826339 -4.63827,6.940818 -0.68283,-0.922708 -1.27077,-1.915641 -1.88152,-2.887788 -0.51846,0.367098 -0.61994,0.4303 -2.64958,1.569109 -3.35591,-3.006821 -0.61447,-8.780621 -0.61447,-8.780621 -0.657002,0.233548 -6.817049,-0.210392 -8.400116,-2.190675 0.684185,-0.796214 1.371626,-1.589524 2.062003,-2.380395 -1.224874,-1.260888 -1.997596,-1.773298 -2.506763,-2.448978 1.91705,-2.572753 6.26333,-2.322625 7.732,-2.15513 -2.988426,-3.74948 -1.365673,-8.408027 -0.813105,-8.797612 0.265891,-0.07233 2.814641,1.313166 2.958751,1.409444 0.76959,-1.527835 -0.0719,0.128899 1.34044,-2.901539 0.20206,0.01239 4.28697,2.187328 5.1987,7.189889 2.40162,-3.665894 7.36787,-3.11437 7.66545,-3.077733 0.15571,0.427992 -0.0167,0.927448 -0.016,3.184748 0.57658,0.185297 1.6298,0.356868 3.19202,0.55923 z"
         fill="#ee95d0"
         id="path1-5-6"
         sodipodi:nodetypes="cccccccccccccccccccccc"
         style="display:inline;fill:#e8b7c6;fill-opacity:1;stroke-width:0.0476457"
         inkscape:label="petal" /><path
         d="m 46.99256,43.293152 c -0.09722,-0.09431 -1.396637,-3.748609 2.391844,-7.74531 -1.89389,-0.395043 -5.01036,-1.565109 -7.241123,-5.029664 0.351477,-0.352102 1.299346,-0.641347 2.903857,-1.482021 -0.598255,-0.951094 -1.089285,-1.963083 -1.625636,-2.94937 0.608383,-0.675146 5.580365,-1.268823 7.986863,0.682381 -0.154741,-2.948661 0.620522,-5.174804 2.637081,-7.920493 0.902582,0.709219 1.73222,1.511258 2.578377,2.287228 0.402893,-0.491166 0.484041,-0.57896 2.140141,-2.214082 4.03174,2.012016 2.915229,8.305319 2.915229,8.305319 0.571822,-0.399018 6.629882,-1.600342 8.680379,-0.10935 -0.449201,0.948833 -0.902309,1.895727 -1.358895,2.841045 1.514773,0.891973 2.395514,1.181732 3.065274,1.698661 -1.168223,2.988209 -5.425854,3.896664 -6.886516,4.123627 3.873789,2.825429 3.541112,7.747289 3.111279,8.269163 -0.237287,0.140087 -3.061741,-0.521867 -3.22619,-0.576594 -0.338029,1.676984 0.03522,-0.14332 -0.525176,3.152758 -0.198142,0.0415 -4.712866,-0.975428 -6.915383,-5.55863 -1.346377,4.170592 -6.281624,4.952381 -6.578294,4.995765 -0.263378,-0.371559 -0.229232,-0.898827 -0.826966,-3.075549 -0.605058,-0.02618 -1.666146,0.08696 -3.226251,0.30504 z"
         fill="#ee95d0"
         id="path1-5-16"
         sodipodi:nodetypes="cccccccccccccccccccccc"
         style="display:inline;fill:#e8b7c6;fill-opacity:1;stroke-width:0.0476457"
         inkscape:label="petal" /><path
         d="m 23.970878,6.6514115 c 0.111074,-0.077509 3.945805,-0.6582497 7.149085,3.8211705 0.748006,-1.784198 2.489398,-4.6212728 6.314964,-6.1524474 0.278833,0.4120249 0.382537,1.3976028 0.902728,3.1327082 1.047511,-0.4064611 2.134413,-0.6960733 3.204702,-1.0350669 0.547124,0.7256769 0.184411,5.7198231 -2.188843,7.7113281 2.924276,0.40885 4.962354,1.593325 7.274432,4.095248 -0.867926,0.751233 -1.813105,1.4132 -2.735833,2.096344 0.405581,0.488948 0.476341,0.585311 1.76667,2.52215 -2.74204,3.575521 -8.708155,1.282547 -8.708155,1.282547 0.282989,0.637271 0.310287,6.813233 -1.543451,8.542757 -0.846089,-0.621449 -1.689532,-1.246365 -2.530766,-1.874396 -1.163769,1.317496 -1.615736,2.127058 -2.250603,2.686287 -2.711505,-1.71519 -2.793679,-6.067886 -2.738716,-7.545054 -3.510569,3.265761 -8.279337,2.003133 -8.709942,1.481896 -0.0924,-0.259598 1.094614,-2.906617 1.179616,-3.057657 -1.582093,-0.650783 0.134007,0.06184 -2.995343,-1.115173 -0.0031,-0.202418 1.853904,-4.441351 6.772329,-5.732054 -3.838429,-2.114955 -3.667381,-7.108811 -3.653553,-7.408318 0.414865,-0.1879089 0.926018,-0.05411 3.176689,-0.2269756 0.14077,-0.5890363 0.231492,-1.6522758 0.314085,-3.2253826 z"
         fill="#ee95d0"
         id="path1-5-65"
         sodipodi:nodetypes="cccccccccccccccccccccc"
         style="display:inline;fill:#e8b7c6;fill-opacity:1;stroke-width:0.0476457"
         inkscape:label="petal" /><path
         d="m 46.985332,53.23391 c 0.063,0.1199 0.159269,3.997161 -4.685815,6.614672 1.67656,0.965413 4.2734,3.048166 5.313779,7.035277 -0.44368,0.225078 -1.434488,0.204625 -3.221053,0.503583 0.272173,1.090142 0.423486,2.204744 0.625871,3.309043 -0.788443,0.452006 -5.697934,-0.532858 -7.376777,-3.136685 -0.771599,2.85012 -2.201821,4.723942 -4.973424,6.704735 -0.636709,-0.955118 -1.175186,-1.975709 -1.737483,-2.976676 -0.53586,0.341202 -0.640322,0.399346 -2.723414,1.437141 -3.204253,-3.167947 -0.182665,-8.8002 -0.182665,-8.8002 -0.667676,0.201012 -6.798501,-0.544808 -8.282437,-2.600417 0.722449,-0.761665 1.448006,-1.52027 2.176377,-2.276294 -1.161496,-1.319501 -1.908131,-1.869229 -2.383512,-2.569091 2.041043,-2.475537 6.369802,-2.012338 7.828479,-1.772943 -2.80075,-3.89167 -0.951251,-8.464933 -0.380223,-8.826922 0.269121,-0.05919 2.746778,1.449763 2.885993,1.552999 0.843661,-1.488212 -0.07812,0.125215 1.481264,-2.832234 0.201209,0.0223 4.174424,2.395151 4.839453,7.436435 2.578695,-3.543571 7.511885,-2.748902 7.807307,-2.6977 0.134512,0.43512 -0.0622,0.925509 -0.172362,3.18012 0.566788,0.213379 1.610315,0.436449 3.160718,0.715262 z"
         fill="#ee95d0"
         id="path1-5-5"
         sodipodi:nodetypes="cccccccccccccccccccccc"
         style="display:inline;fill:#e8b7c6;fill-opacity:1;stroke-width:0.0476457"
         inkscape:label="petal" /><path
         d="m 97.389528,21.097253 c -0.0018,0.135431 -1.765645,3.589591 -7.272561,3.580587 1.0135,1.647936 2.30327,4.716801 1.316945,8.717628 -0.497318,-0.01367 -1.358526,-0.504021 -3.071513,-1.092971 -0.280476,1.088036 -0.678853,2.139952 -1.027424,3.207161 -0.908566,0.02144 -4.754663,-3.184896 -4.989055,-6.274149 -2.037063,2.137504 -4.187629,3.102807 -7.568319,3.522637 -0.104338,-1.143136 -0.09111,-2.296995 -0.108182,-3.444958 -0.633711,0.04446 -0.753256,0.04577 -3.079144,-0.03509 -1.306342,-4.312378 4.03493,-7.822802 4.03493,-7.822802 -0.682745,-0.141617 -5.716406,-3.720096 -6.040831,-6.234523 0.998184,-0.325105 1.997643,-0.646039 2.998344,-0.963362 -0.391927,-1.713636 -0.786165,-2.552826 -0.870383,-3.39467 2.974368,-1.2030246 6.558685,1.267884 7.726786,2.173746 -0.606611,-4.7561877 3.199476,-7.8945129 3.87401,-7.9404773 0.264787,0.076274 1.723349,2.5839255 1.796506,2.7410457 1.451117,-0.9059799 -0.128366,0.072825 2.652357,-1.78345 0.16624,0.1155269 2.52759,4.0955886 0.708742,8.8441256 3.956172,-1.885541 7.913778,1.164904 8.149054,1.350755 -0.0892,0.446616 -0.495915,0.783904 -1.667637,2.713275 0.3965,0.457786 1.207452,1.151375 2.437392,2.135618 z"
         fill="#ee95d0"
         id="path1-5-2"
         sodipodi:nodetypes="cccccccccccccccccccccc"
         style="display:inline;fill:#e8b7c6;fill-opacity:1;stroke-width:0.0476457"
         inkscape:label="petal" /><path
         d="m 112.34873,123.99795 c -0.0894,-0.10176 -1.09357,-3.84796 3.00126,-7.53016 -1.8564,-0.54466 -4.86975,-1.95927 -6.81742,-5.59053 0.37841,-0.32298 1.34631,-0.5358 3.01269,-1.24598 -0.52059,-0.99573 -0.92944,-2.04362 -1.38551,-3.0695 0.66023,-0.62453 5.66371,-0.82023 7.90712,1.31648 0.0807,-2.95162 1.03079,-5.10892 3.25967,-7.68524 0.84322,0.77887 1.60633,1.64445 2.38798,2.48536 0.44074,-0.45751 0.52862,-0.53856 2.30972,-2.03655 3.85864,2.3268 2.24433,8.51116 2.24433,8.51116 0.60179,-0.3522 6.7363,-1.06709 8.6615,0.58251 -0.52336,0.91003 -1.05046,1.81782 -1.58091,2.72376 1.4389,1.00981 2.29376,1.36881 2.92021,1.93746 -1.40256,2.88564 -5.71903,3.45203 -7.19313,3.56191 3.63639,3.12505 2.91268,8.00477 2.44264,8.49074 -0.2477,0.12074 -3.01044,-0.76412 -3.17001,-0.83177 -0.47055,1.64472 0.0465,-0.14006 -0.77467,3.1009 -0.20081,0.0256 -4.62018,-1.34778 -6.45058,-6.09187 -1.67434,4.05007 -6.65618,4.43622 -6.95537,4.45583 -0.23294,-0.39136 -0.1569,-0.91423 -0.57932,-3.13165 -0.60105,-0.0743 -1.66778,-0.0461 -3.2403,0.047 z"
         fill="#ee95d0"
         id="path1-5-9"
         sodipodi:nodetypes="cccccccccccccccccccccc"
         style="display:inline;fill:#e8b7c6;fill-opacity:1;stroke-width:0.0476457"
         inkscape:label="petal" /><path
         d="m 97.021662,103.27765 c -0.09431,-0.0972 -1.28223,-3.789272 2.625798,-7.669159 -1.881028,-0.452336 -4.960553,-1.716442 -7.085146,-5.247101 0.362001,-0.341273 1.318211,-0.601619 2.947497,-1.393212 -0.569116,-0.968812 -1.029208,-1.995236 -1.53538,-2.997347 0.628592,-0.656371 5.616301,-1.098884 7.962479,0.924454 -0.0652,-2.951999 0.77728,-5.153591 2.87624,-7.836817 0.88064,0.736285 1.68555,1.563132 2.50777,2.364423 0.41762,-0.478712 0.50139,-0.564003 2.20635,-2.148112 3.96882,2.133445 2.66184,8.389965 2.66184,8.389965 0.58366,-0.381481 6.67539,-1.3984 8.6797,0.154134 -0.47779,0.934764 -0.95943,1.867471 -1.44449,2.798497 1.487,0.937533 2.35854,1.253887 3.01231,1.790904 -1.25837,2.951379 -5.54162,3.730207 -7.00849,3.912736 3.78626,2.941691 3.30436,7.851185 2.85889,8.359775 -0.24143,0.13282 -3.04449,-0.61454 -3.20721,-0.67424 -0.38876,1.66596 0.0396,-0.14218 -0.62061,3.13537 -0.19931,0.0355 -4.68109,-1.118 -6.7435,-5.76594 -1.47233,4.12781 -6.42903,4.75947 -6.72688,4.79383 -0.25198,-0.37938 -0.20185,-0.90537 -0.73325,-3.09923 -0.603983,-0.0445 -1.668016,0.0363 -3.234021,0.20699 z"
         fill="#ee95d0"
         id="path1-5-15"
         sodipodi:nodetypes="cccccccccccccccccccccc"
         style="display:inline;fill:#e8b7c6;fill-opacity:1;stroke-width:0.0476457"
         inkscape:label="petal" /><path
         d="m -7.4934542,29.315576 c -0.021411,-0.13374 1.1255219,-3.838732 6.55279407,-4.771964 C -2.2211414,23.093356 -4.016907,20.290382 -3.7295694,16.1798 c 0.4923259,-0.07161 1.4247239,0.264178 3.21321373,0.551395 0.0902038,-1.119979 0.30275004,-2.224541 0.46360806,-3.335648 0.89150369,-0.176559 5.22942901,2.324532 5.98886361,5.328145 1.6413551,-2.454487 3.5950765,-3.773469 6.854105,-4.765466 0.298364,1.108434 0.482731,2.247545 0.695938,3.375665 0.616763,-0.152216 0.734322,-0.173956 3.039753,-0.492199 2.024829,4.02532 -2.637151,8.397757 -2.637151,8.397757 0.696907,0.02273 6.268555,2.687312 7.018356,5.10917 -0.927852,0.491078 -1.857672,0.978264 -2.789334,1.462105 0.679312,1.621323 1.211303,2.380698 1.4383,3.195723 -2.724711,1.694133 -6.678901,-0.127157 -7.984753,-0.81983 1.411338,4.582294 -1.8017447,8.325484 -2.4584709,8.486168 -0.2739323,-0.02985 -2.1399915,-2.251009 -2.2389498,-2.393297 -1.2747323,1.140875 0.1140153,-0.09371 -2.3081496,2.210913 -0.1835533,-0.08538 -3.1909862,-3.6028 -2.2113135,-8.592495 -3.5752781,2.534552 -7.9963985,0.206129 -8.2600013,0.06327 0.011482,-0.455293 0.3544968,-0.857187 1.1788753,-2.958569 -0.468971,-0.383205 -1.3866243,-0.927834 -2.7668128,-1.687154 z"
         fill="#ee95d0"
         id="path1-5-32"
         sodipodi:nodetypes="cccccccccccccccccccccc"
         style="display:inline;fill:#e8b7c6;fill-opacity:1;stroke-width:0.0476457"
         inkscape:label="petal" /><path
         d="m 147.79495,97.902153 c -0.13232,0.02889 -3.89589,-0.908106 -5.13252,-6.274385 -1.37604,1.359927 -4.07371,3.310312 -8.19394,3.254338 -0.0992,-0.487526 0.18372,-1.437315 0.37002,-3.239115 -1.12328,-0.02715 -2.23803,-0.177309 -3.35642,-0.275498 -0.22636,-0.880177 2.0271,-5.35175 4.98331,-6.278712 -2.54282,-1.500884 -3.96946,-3.377427 -5.14297,-6.575585 1.08992,-0.360158 2.21688,-0.608223 3.33124,-0.884465 -0.18662,-0.607238 -0.21493,-0.72339 -0.66218,-3.007304 3.90522,-2.247752 8.53264,2.161247 8.53264,2.161247 -0.0165,-0.697083 2.33094,-6.409614 4.70685,-7.294277 0.54242,0.8988 1.08107,1.799784 1.61649,2.702796 1.5806,-0.769316 2.30889,-1.343125 3.10988,-1.615546 1.84451,2.625241 0.24822,6.675497 -0.37,8.018198 4.49578,-1.666518 8.41355,1.33122 8.61087,1.977883 -0.0144,0.275176 -2.12724,2.263061 -2.26374,2.369856 1.21068,1.208632 -0.1,-0.108571 2.33708,2.180309 -0.0749,0.188059 -3.41786,3.388332 -8.45471,2.6905 2.73139,3.427255 0.655,7.972192 0.52717,8.243404 -0.45522,0.01411 -0.87575,-0.305785 -3.02012,-1.010818 -0.35626,0.489757 -0.84848,1.436556 -1.52907,2.857219 z"
         fill="#ee95d0"
         id="path1-5-08"
         sodipodi:nodetypes="cccccccccccccccccccccc"
         style="display:inline;fill:#e8b7c6;fill-opacity:1;stroke-width:0.0476457"
         inkscape:label="petal" /><path
         d="m 79.132436,145.37823 c 0.03601,0.13057 -0.695968,3.93933 -5.987471,5.46452 1.432392,1.30043 3.525891,3.88862 3.692945,8.00584 -0.481447,0.12539 -1.44515,-0.10568 -3.254391,-0.19421 0.03367,1.1231 -0.05595,2.24435 -0.09348,3.36641 -0.86664,0.27366 -5.453597,-1.73455 -6.539161,-4.63627 -1.361094,2.6203 -3.157692,4.1464 -6.287665,5.49124 -0.418607,-1.06884 -0.727288,-2.18072 -1.063423,-3.2785 -0.596251,0.2192 -0.710701,0.25376 -2.967069,0.82393 -2.45577,-3.77787 1.69638,-8.63708 1.69638,-8.63708 -0.695172,0.0541 -6.526351,-1.9807 -7.538279,-4.30526 0.868133,-0.59026 1.738651,-1.17688 2.611368,-1.76037 -0.853715,-1.53666 -1.466091,-2.23283 -1.781455,-3.0179 2.521588,-1.98387 6.652286,-0.60908 8.026472,-0.0644 -1.907343,-4.39901 0.874012,-8.47325 1.50905,-8.70527 0.275554,-5e-4 2.374852,2.00167 2.488876,2.13219 1.141351,-1.2743 -0.103002,0.1057 2.050655,-2.45163 0.191839,0.0647 3.568309,3.22951 3.144043,8.29674 3.274439,-2.91284 7.925071,-1.08542 8.202803,-0.97245 0.03872,0.45379 -0.257951,0.89101 -0.845919,3.07039 0.508317,0.32923 1.480362,0.7695 2.935771,1.37222 z"
         fill="#ee95d0"
         id="path1-5-74"
         sodipodi:nodetypes="cccccccccccccccccccccc"
         style="display:inline;fill:#e8b7c6;fill-opacity:1;stroke-width:0.0476457"
         inkscape:label="petal" /></g><g
       inkscape:groupmode="layer"
       id="layer2-1-5"
       inkscape:label="Front Small Petal"
       style="display:inline"
       transform="matrix(2.6940732,0,0,2.6940732,-167.88611,317.47372)"><path
         d="m 150.72783,54.688626 c -0.0798,0.01743 -2.35015,-0.547807 -3.09615,-3.784966 -0.83008,0.820364 -2.45742,1.996916 -4.94291,1.96315 -0.0599,-0.294095 0.11082,-0.867048 0.22321,-1.953967 -0.67761,-0.01638 -1.35007,-0.10696 -2.02473,-0.166191 -0.13655,-0.530959 1.22282,-3.228395 3.00613,-3.787577 -1.53393,-0.905395 -2.39454,-2.037402 -3.10245,-3.966662 0.65749,-0.217262 1.33731,-0.366905 2.00954,-0.533546 -0.11257,-0.36631 -0.12965,-0.436378 -0.39945,-1.814128 2.35579,-1.355937 5.14724,1.303752 5.14724,1.303752 -0.01,-0.420509 1.40611,-3.866541 2.83936,-4.400206 0.32721,0.542193 0.65214,1.085703 0.97513,1.630437 0.95349,-0.464083 1.39282,-0.810228 1.87601,-0.974564 1.11268,1.583654 0.14974,4.026934 -0.2232,4.836906 2.71204,-1.005312 5.0754,0.803046 5.19443,1.19314 -0.009,0.165997 -1.28324,1.365171 -1.36558,1.429594 0.73033,0.729097 -0.0603,-0.06549 1.40982,1.315252 -0.0452,0.113445 -2.06179,2.04398 -5.10022,1.623019 1.64768,2.067461 0.39512,4.809154 0.31801,4.97276 -0.27461,0.0085 -0.52829,-0.184463 -1.82186,-0.609767 -0.21491,0.295441 -0.51184,0.866589 -0.9224,1.723592 z"
         fill="#ee95d0"
         id="path1-5-08-0"
         sodipodi:nodetypes="cccccccccccccccccccccc"
         style="display:inline;fill:#f7f3f4;fill-opacity:1;stroke-width:0.0287419"
         inkscape:label="petal" /><path
         d="m 87.239616,60.404443 c -0.0798,0.01743 -2.35015,-0.547807 -3.09615,-3.784965 -0.83008,0.820363 -2.45742,1.996915 -4.94291,1.963149 -0.0599,-0.294094 0.11082,-0.867047 0.22321,-1.953966 -0.67761,-0.01638 -1.35007,-0.10696 -2.02473,-0.166191 -0.13655,-0.530959 1.22282,-3.228395 3.00613,-3.787577 -1.53393,-0.905395 -2.39454,-2.037402 -3.10245,-3.966662 0.65749,-0.217262 1.33731,-0.366905 2.00954,-0.533546 -0.11257,-0.36631 -0.12965,-0.436378 -0.39945,-1.814128 2.35579,-1.355937 5.14724,1.303752 5.14724,1.303752 -0.01,-0.420509 1.40611,-3.866541 2.83936,-4.400206 0.32721,0.542193 0.65214,1.085703 0.97513,1.630437 0.95349,-0.464083 1.39282,-0.810228 1.87601,-0.974564 1.11268,1.583654 0.14974,4.026934 -0.2232,4.836906 2.71204,-1.005312 5.0754,0.803046 5.19443,1.19314 -0.009,0.165997 -1.28324,1.365171 -1.36558,1.429594 0.73033,0.729097 -0.0603,-0.06549 1.40982,1.315252 -0.0452,0.113445 -2.06179,2.04398 -5.10022,1.623019 1.64768,2.067461 0.39512,4.809154 0.31801,4.97276 -0.27461,0.0085 -0.52829,-0.184463 -1.82186,-0.609767 -0.21491,0.295441 -0.51184,0.866589 -0.9224,1.723592 z"
         fill="#ee95d0"
         id="path1-5-08-0-2"
         sodipodi:nodetypes="cccccccccccccccccccccc"
         style="display:inline;fill:#f7f3f4;fill-opacity:1;stroke-width:0.0287419"
         inkscape:label="petal" /><path
         d="m 118.48542,28.47938 c -0.0798,0.01743 -2.35015,-0.547807 -3.09615,-3.784966 -0.83008,0.820364 -2.45742,1.996916 -4.94291,1.96315 -0.0599,-0.294095 0.11082,-0.867048 0.22321,-1.953967 -0.67761,-0.01638 -1.35007,-0.10696 -2.02473,-0.166191 -0.13655,-0.530959 1.22282,-3.228395 3.00613,-3.787577 -1.53393,-0.905395 -2.39454,-2.037402 -3.10245,-3.966662 0.65749,-0.217262 1.33731,-0.366905 2.00954,-0.533546 -0.11257,-0.36631 -0.12965,-0.436378 -0.39945,-1.814128 2.35579,-1.355937 5.14724,1.303752 5.14724,1.303752 -0.01,-0.420509 1.40611,-3.866541 2.83936,-4.400206 0.32721,0.542193 0.65214,1.085703 0.97513,1.630437 0.95349,-0.464083 1.39282,-0.810228 1.87601,-0.974564 1.11268,1.583654 0.14974,4.026934 -0.2232,4.836906 2.71204,-1.005312 5.0754,0.803046 5.19443,1.19314 -0.009,0.165997 -1.28324,1.365171 -1.36558,1.429594 0.73033,0.729097 -0.0603,-0.06549 1.40982,1.315252 -0.0452,0.113445 -2.06179,2.04398 -5.10022,1.623019 1.64768,2.067461 0.39512,4.809154 0.31801,4.97276 -0.27461,0.0085 -0.52829,-0.184463 -1.82186,-0.609767 -0.21491,0.295441 -0.51184,0.866589 -0.9224,1.723592 z"
         fill="#ee95d0"
         id="path1-5-08-0-3"
         sodipodi:nodetypes="cccccccccccccccccccccc"
         style="display:inline;fill:#f7f3f4;fill-opacity:1;stroke-width:0.0287419"
         inkscape:label="petal" /></g></g><g
     inkscape:groupmode="layer"
     id="layer5"
     inkscape:label="Petals"
     style="display:inline"
     transform="matrix(0.39377155,0,0,0.39377155,-0.80078924,-17.046231)"><g
       inkscape:groupmode="layer"
       id="layer6-4"
       inkscape:label="Petals"
       transform="translate(-1597.729,-2825.2829)"
       style="display:inline"><path
         d="m 681.94307,2722.2029 c -0.62836,0.1372 -18.50052,-4.3123 -24.37293,-29.7953 -6.53444,6.4579 -19.34493,15.7198 -38.91077,15.454 -0.47108,-2.3152 0.87243,-6.8255 1.75712,-15.3817 -5.33415,-0.1289 -10.62779,-0.842 -15.93872,-1.3083 -1.07492,-4.1797 9.62615,-25.414 23.66437,-29.8159 -12.07515,-7.1272 -18.84987,-16.0384 -24.42255,-31.2256 5.17573,-1.7103 10.52736,-2.8883 15.81915,-4.2001 -0.88621,-2.8836 -1.02065,-3.4352 -3.14451,-14.2808 18.54481,-10.674 40.51916,10.2631 40.51916,10.2631 -0.0784,-3.3102 11.06899,-30.4375 22.35154,-34.6385 2.5758,4.2682 5.1337,8.5467 7.67626,12.8348 7.50584,-3.6532 10.96429,-6.3781 14.76797,-7.6717 8.75907,12.4665 1.17873,31.7001 -1.75703,38.0762 21.34923,-7.9139 39.95364,6.3216 40.89066,9.3924 -0.0684,1.3067 -10.10168,10.7467 -10.74988,11.2538 5.74918,5.7395 -0.47487,-0.5156 11.09815,10.3537 -0.35568,0.893 -16.23048,16.0902 -40.1491,12.7764 12.97062,16.2751 3.11042,37.8578 2.50339,39.1457 -2.16172,0.067 -4.1587,-1.4521 -14.34172,-4.8001 -1.69178,2.3257 -4.0292,6.8218 -7.26113,13.5681 z"
         fill="#ee95d0"
         id="path1-5-08-12"
         sodipodi:nodetypes="cccccccccccccccccccccc"
         style="display:inline;fill:#e8b7c6;fill-opacity:1;stroke-width:0.226256"
         inkscape:label="petal" /><path
         d="m -99.900682,3047.9049 c -0.628348,0.1372 -18.500508,-4.3123 -24.372928,-29.7953 -6.53444,6.4579 -19.34493,15.7198 -38.91077,15.454 -0.47107,-2.3152 0.87244,-6.8255 1.75712,-15.3817 -5.33414,-0.1289 -10.62779,-0.842 -15.93871,-1.3083 -1.07492,-4.1797 9.62614,-25.414 23.66437,-29.8159 -12.07516,-7.1272 -18.84988,-16.0384 -24.42255,-31.2256 5.17573,-1.7103 10.52735,-2.8883 15.81914,-4.2001 -0.88621,-2.8836 -1.02064,-3.4352 -3.14451,-14.2808 18.54482,-10.674 40.51916,10.2631 40.51916,10.2631 -0.0784,-3.3102 11.069,-30.4375 22.35154,-34.6385 2.5758,4.2682 5.133704,8.5467 7.676267,12.8348 7.505835,-3.6532 10.964284,-6.3781 14.767965,-7.6717 8.759072,12.4665 1.178729,31.7001 -1.757028,38.0762 21.349224,-7.9139 39.953638,6.3216 40.890656,9.3924 -0.06838,1.3067 -10.101678,10.7467 -10.749879,11.2538 5.749187,5.7395 -0.474873,-0.5156 11.098151,10.3537 -0.35568,0.893 -16.230478,16.0902 -40.149095,12.7764 12.97062,16.2751 3.110415,37.8578 2.503385,39.1457 -2.161715,0.067 -4.158696,-1.4521 -14.34172,-4.8001 -1.691781,2.3257 -4.029199,6.8218 -7.261134,13.5681 z"
         fill="#ee95d0"
         id="path1-5-08-4"
         sodipodi:nodetypes="cccccccccccccccccccccc"
         style="display:inline;fill:#e8b7c6;fill-opacity:1;stroke-width:0.226256"
         inkscape:label="petal" /><path
         d="m -1087.0611,1373.6216 c -0.6283,0.1372 -18.5005,-4.3123 -24.3729,-29.7953 -6.5344,6.4579 -19.3449,15.7198 -38.9108,15.454 -0.4711,-2.3152 0.8725,-6.8255 1.7571,-15.3817 -5.3341,-0.1289 -10.6277,-0.842 -15.9387,-1.3083 -1.0749,-4.1797 9.6262,-25.414 23.6644,-29.8159 -12.0752,-7.1272 -18.8499,-16.0384 -24.4226,-31.2256 5.1758,-1.7103 10.5274,-2.8883 15.8192,-4.2001 -0.8862,-2.8836 -1.0207,-3.4352 -3.1445,-14.2808 18.5448,-10.674 40.5191,10.2631 40.5191,10.2631 -0.078,-3.3102 11.069,-30.4375 22.3516,-34.6385 2.5758,4.2682 5.1337,8.5467 7.6762,12.8348 7.5059,-3.6532 10.9643,-6.3781 14.768,-7.6717 8.7591,12.4665 1.1787,31.7001 -1.757,38.0762 21.3492,-7.9139 39.9536,6.3216 40.8906,9.3924 -0.068,1.3067 -10.1016,10.7467 -10.7498,11.2538 5.7491,5.7395 -0.4749,-0.5156 11.0981,10.3537 -0.3557,0.893 -16.2305,16.0902 -40.1491,12.7764 12.9706,16.2751 3.1104,37.8578 2.5034,39.1457 -2.1617,0.067 -4.1587,-1.4521 -14.3417,-4.8001 -1.6918,2.3257 -4.0292,6.8218 -7.2612,13.5681 z"
         fill="#ee95d0"
         id="path1-5-08-7"
         sodipodi:nodetypes="cccccccccccccccccccccc"
         style="display:inline;fill:#e8b7c6;fill-opacity:1;stroke-width:0.226256"
         inkscape:label="petal" /><path
         d="m 597.41636,1463.3667 c -0.45732,0.1 -13.46494,-3.1386 -17.73897,-21.6855 -4.75586,4.7002 -14.07953,11.4411 -28.31983,11.2477 -0.34285,-1.6851 0.63498,-4.9677 1.27886,-11.1951 -3.88227,-0.094 -7.73506,-0.6128 -11.60043,-0.9522 -0.78234,-3.042 7.00605,-18.4966 17.22328,-21.7004 -8.78848,-5.1873 -13.71922,-11.673 -17.77509,-22.7265 3.76697,-1.2447 7.66196,-2.1021 11.5134,-3.0569 -0.645,-2.0987 -0.74284,-2.5001 -2.28862,-10.3937 13.49719,-7.7687 29.49043,7.4696 29.49043,7.4696 -0.0571,-2.4092 8.05618,-22.1529 16.26778,-25.2104 1.8747,3.1065 3.73638,6.2204 5.5869,9.3414 5.46285,-2.6589 7.97996,-4.6421 10.74834,-5.5836 6.37497,9.0733 0.85789,23.0718 -1.2788,27.7124 15.53828,-5.7599 29.07884,4.6009 29.76082,6.8359 -0.0498,0.9511 -7.35215,7.8216 -7.82392,8.1907 4.18435,4.1773 -0.34562,-0.3753 8.0774,7.5356 -0.25887,0.6499 -11.81278,11.7106 -29.22109,9.2988 9.4402,11.8453 2.2638,27.5535 1.82199,28.4908 -1.57332,0.049 -3.02675,-1.0568 -10.43811,-3.4936 -1.2313,1.6927 -2.93251,4.965 -5.28476,9.8751 z"
         fill="#ee95d0"
         id="path1-5-08-3"
         sodipodi:nodetypes="cccccccccccccccccccccc"
         style="display:inline;fill:#e8b7c6;fill-opacity:1;stroke-width:0.164672"
         inkscape:label="petal" /><path
         d="m -619.68332,2218.6989 c -1.02041,0.2228 -30.04377,-7.0029 -39.58024,-48.3858 -10.61156,10.4872 -31.41506,25.528 -63.18886,25.0964 -0.76499,-3.7598 1.41679,-11.0843 2.85346,-24.979 -8.66234,-0.2094 -17.25892,-1.3674 -25.88355,-2.1246 -1.74561,-6.7876 15.6323,-41.2709 38.42958,-48.4193 -19.60937,-11.5742 -30.61112,-26.0455 -39.66082,-50.7086 8.40509,-2.7775 17.09581,-4.6905 25.68938,-6.8208 -1.43916,-4.6828 -1.65747,-5.5785 -5.10651,-23.1912 30.11572,-17.3339 65.80079,16.6667 65.80079,16.6667 -0.12732,-5.3755 17.97542,-49.4287 36.29762,-56.2509 4.18295,6.9313 8.33683,13.8793 12.46582,20.843 12.18904,-5.9326 17.80536,-10.3577 23.98232,-12.4584 14.22423,20.2449 1.91419,51.4791 -2.85331,61.8335 34.66992,-12.8517 64.88241,10.266 66.40408,15.2528 -0.11108,2.122 -16.40455,17.452 -17.45719,18.2755 9.33636,9.3206 -0.77116,-0.8373 18.02276,16.8138 -0.5776,1.4502 -26.35737,26.1296 -65.19982,20.7481 21.06355,26.4299 5.05113,61.4789 4.06535,63.5704 -3.51049,0.1088 -6.75348,-2.3581 -23.29013,-7.7951 -2.74736,3.7768 -6.54319,11.0782 -11.79166,22.0338 z"
         fill="#ee95d0"
         id="path1-5-08-9"
         sodipodi:nodetypes="cccccccccccccccccccccc"
         style="display:inline;fill:#e8b7c6;fill-opacity:1;stroke-width:0.367427"
         inkscape:label="petal" /><path
         d="m -2204.0103,347.036 c -1.1074,0.2418 -32.6089,-7.60094 -42.9595,-52.51715 -11.5175,11.38271 -34.0973,27.7076 -68.5841,27.2391 -0.8303,-4.08064 1.5379,-12.03047 3.0971,-27.11168 -9.4019,-0.22725 -18.7324,-1.48409 -28.0935,-2.30593 -1.8946,-7.36717 16.9671,-44.79463 41.7108,-52.55337 -21.2837,-12.56254 -33.2247,-28.26936 -43.0472,-55.03821 9.1229,-3.01456 18.5556,-5.09088 27.8828,-7.40305 -1.562,-5.08264 -1.799,-6.05484 -5.5424,-25.17139 32.687,-18.81389 71.4188,18.08982 71.4188,18.08982 -0.1374,-5.83465 19.5101,-53.64903 39.3968,-61.05373 4.5402,7.52303 9.0487,15.06435 13.5301,22.62263 13.2298,-6.43924 19.3257,-11.24207 26.03,-13.52226 15.4387,21.9735 2.0776,55.87448 -3.0969,67.11301 37.6301,-13.9489 70.4221,11.14243 72.0737,16.55505 -0.1199,2.30325 -17.8051,18.94203 -18.9476,19.83591 10.1333,10.11635 -0.8371,-0.90876 19.5614,18.24938 -0.6269,1.57407 -28.6077,28.36061 -70.7666,22.5197 22.8619,28.68642 5.4824,66.72794 4.4125,68.998 -3.8102,0.11809 -7.3301,-2.55945 -25.2786,-8.46062 -2.982,4.09931 -7.1019,12.0241 -12.7986,23.91515 z"
         fill="#ee95d0"
         id="path1-5-08-31"
         sodipodi:nodetypes="cccccccccccccccccccccc"
         style="display:inline;fill:#e8b7c6;fill-opacity:1;stroke-width:0.398798"
         inkscape:label="petal" /><path
         d="m -1113.6752,-101.56471 c -0.4145,0.0905 -12.2061,-2.84515 -16.0805,-19.65801 -4.3112,4.26073 -12.7631,10.3714 -25.6721,10.19603 -0.3108,-1.52745 0.5757,-4.50319 1.1593,-10.14834 -3.5193,-0.0851 -7.0118,-0.55552 -10.5159,-0.86315 -0.7091,-2.75764 6.3511,-16.76735 15.6131,-19.67157 -7.9669,-4.70236 -12.4366,-10.58168 -16.1133,-20.60169 3.4148,-1.1284 6.9456,-1.9056 10.437,-2.77108 -0.5847,-1.90251 -0.6734,-2.26642 -2.0746,-9.42206 12.2352,-7.04234 26.7332,6.77132 26.7332,6.77132 -0.052,-2.18401 7.303,-20.0817 14.7469,-22.8534 1.6994,2.81599 3.387,5.63883 5.0645,8.46801 4.9521,-2.41031 7.2339,-4.20808 9.7434,-5.06159 5.779,8.22503 0.7777,20.91472 -1.1592,25.12148 14.0855,-5.2213 26.3601,4.17079 26.9783,6.19682 -0.045,0.86214 -6.6647,7.0903 -7.0923,7.4249 3.793,3.78671 -0.3134,-0.34016 7.3221,6.83103 -0.2346,0.5892 -10.7083,10.61584 -26.4891,8.42949 8.5576,10.7378 2.0522,24.97735 1.6517,25.82707 -1.4262,0.0442 -2.7438,-0.95804 -9.4622,-3.16695 -1.1162,1.53444 -2.6583,4.50081 -4.7907,8.95183 z"
         fill="#ee95d0"
         id="path1-5-08-5"
         sodipodi:nodetypes="cccccccccccccccccccccc"
         style="display:inline;fill:#e8b7c6;fill-opacity:1;stroke-width:0.149277"
         inkscape:label="petal" /><path
         d="m -2359.2396,1260.6193 c -0.4323,0.094 -12.7289,-2.967 -16.7692,-20.5 -4.4959,4.4432 -13.3099,10.8156 -26.7718,10.6327 -0.3241,-1.5929 0.6003,-4.6961 1.2089,-10.583 -3.67,-0.089 -7.3121,-0.5793 -10.9662,-0.9001 -0.7396,-2.8758 6.6231,-17.4856 16.2817,-20.5142 -8.308,-4.9038 -12.9692,-11.035 -16.8034,-21.4841 3.5611,-1.1768 7.2432,-1.9873 10.8841,-2.8898 -0.6098,-1.984 -0.7023,-2.3635 -2.1635,-9.8257 12.7593,-7.3439 27.8783,7.0614 27.8783,7.0614 -0.054,-2.2776 7.6158,-20.9419 15.3785,-23.8323 1.7722,2.9366 3.5321,5.8804 5.2814,8.8307 5.1643,-2.5136 7.5438,-4.3883 10.1609,-5.2784 6.0265,8.5774 0.8109,21.8106 -1.2089,26.1976 14.6889,-5.445 27.4892,4.3494 28.1339,6.4622 -0.047,0.8991 -6.9502,7.394 -7.3962,7.743 3.9556,3.9488 -0.3267,-0.3548 7.6358,7.1236 -0.2447,0.6144 -11.167,11.0705 -27.6237,8.7905 8.9241,11.1978 2.14,26.0473 1.7224,26.9334 -1.4873,0.046 -2.8613,-0.9991 -9.8675,-3.3026 -1.164,1.6001 -2.7722,4.6936 -4.9959,9.3352 z"
         fill="#ee95d0"
         id="path1-5-08-74"
         sodipodi:nodetypes="cccccccccccccccccccccc"
         style="display:inline;fill:#e8b7c6;fill-opacity:1;stroke-width:0.155671"
         inkscape:label="petal" /><path
         d="m 1039.99,1989.5715 c -0.6502,0.142 -19.1418,-4.4618 -25.2178,-30.8281 -6.761,6.6817 -20.0155,16.2647 -40.25956,15.9897 -0.48739,-2.3955 0.90269,-7.0621 1.81803,-15.9149 -5.51904,-0.1334 -10.99618,-0.8712 -16.4912,-1.3537 -1.11218,-4.3245 9.95982,-26.2949 24.48466,-30.8494 -12.49373,-7.3742 -19.50328,-16.5943 -25.26912,-32.308 5.35514,-1.7696 10.89226,-2.9884 16.36749,-4.3457 -0.91693,-2.9835 -1.05602,-3.5542 -3.25351,-14.7758 19.18764,-11.044 41.92371,10.6189 41.92371,10.6189 -0.081,-3.425 11.4527,-31.4926 23.1263,-35.8392 2.665,4.4161 5.3116,8.8429 7.9423,13.2797 7.766,-3.7799 11.3444,-6.5992 15.28,-7.9376 9.0626,12.8986 1.2195,32.7989 -1.818,39.396 22.0893,-8.1882 41.3386,6.5407 42.3081,9.718 -0.07,1.352 -10.4519,11.1192 -11.1226,11.6439 5.9485,5.9384 -0.4913,-0.5335 11.4829,10.7126 -0.368,0.9239 -16.7931,16.6479 -41.5408,13.2192 13.4202,16.8393 3.2182,39.1701 2.5902,40.5027 -2.2367,0.069 -4.3028,-1.5025 -14.8389,-4.9665 -1.7504,2.4063 -4.1689,7.0583 -7.5128,14.0384 z"
         fill="#ee95d0"
         id="path1-5-08-55"
         sodipodi:nodetypes="cccccccccccccccccccccc"
         style="display:inline;fill:#e8b7c6;fill-opacity:1;stroke-width:0.234099"
         inkscape:label="petal" /><path
         d="m -1722.1166,2220.3626 c -0.6283,0.1372 -18.5005,-4.3123 -24.3729,-29.7953 -6.5344,6.4579 -19.3449,15.7198 -38.9108,15.454 -0.4711,-2.3152 0.8725,-6.8255 1.7571,-15.3817 -5.3341,-0.1289 -10.6277,-0.842 -15.9387,-1.3083 -1.0749,-4.1797 9.6262,-25.414 23.6644,-29.8159 -12.0752,-7.1272 -18.8499,-16.0384 -24.4226,-31.2256 5.1758,-1.7103 10.5274,-2.8883 15.8192,-4.2001 -0.8862,-2.8836 -1.0207,-3.4352 -3.1445,-14.2808 18.5448,-10.674 40.5191,10.2631 40.5191,10.2631 -0.078,-3.3102 11.069,-30.4375 22.3516,-34.6385 2.5758,4.2682 5.1337,8.5467 7.6762,12.8348 7.5059,-3.6532 10.9643,-6.3781 14.768,-7.6717 8.7591,12.4665 1.1787,31.7001 -1.757,38.0762 21.3492,-7.9139 39.9536,6.3216 40.8906,9.3924 -0.068,1.3067 -10.1016,10.7467 -10.7498,11.2538 5.7491,5.7395 -0.4749,-0.5156 11.0981,10.3537 -0.3557,0.893 -16.2305,16.0902 -40.1491,12.7764 12.9706,16.2751 3.1104,37.8578 2.5034,39.1457 -2.1617,0.067 -4.1587,-1.4521 -14.3417,-4.8001 -1.6918,2.3257 -4.0292,6.8218 -7.2612,13.5681 z"
         fill="#ee95d0"
         id="path1-5-08-2"
         sodipodi:nodetypes="cccccccccccccccccccccc"
         style="display:inline;fill:#e8b7c6;fill-opacity:1;stroke-width:0.226256"
         inkscape:label="petal" /></g><g
       inkscape:groupmode="layer"
       id="layer7"
       inkscape:label="Small petals"
       transform="translate(-1028.0054,-942.53443)"><path
         d="m -744.04618,-1272.1017 c -0.52227,0.114 -15.38114,-3.5854 -20.26352,-24.7718 -5.43267,5.3692 -16.0832,13.0695 -32.35011,12.8484 -0.39203,-1.9248 0.72529,-5.6746 1.46085,-12.7882 -4.43478,-0.1069 -8.83587,-0.7001 -13.25134,-1.0877 -0.8937,-3.475 8.00305,-21.1291 19.67436,-24.7887 -10.03919,-5.9256 -15.67166,-13.3343 -20.30476,-25.9609 4.3031,-1.4219 8.75236,-2.4012 13.15194,-3.4919 -0.73674,-2.3973 -0.84854,-2.8559 -2.61431,-11.873 15.41806,-8.8743 33.68741,8.5327 33.68741,8.5327 -0.0654,-2.7521 9.20264,-25.3055 18.5829,-28.7983 2.1415,3.5486 4.26809,7.1058 6.38198,10.6708 6.24036,-3.0372 9.11566,-5.3026 12.27802,-6.3782 7.28221,10.3647 0.98001,26.3553 -1.46079,31.6563 17.74963,-6.5795 33.21722,5.2557 33.99625,7.8088 -0.0589,1.0865 -8.39849,8.9348 -8.93738,9.3564 4.77983,4.7717 -0.39466,-0.4286 9.22692,8.608 -0.29583,0.7425 -13.4939,13.3774 -33.37967,10.6223 10.78365,13.531 2.58596,31.4746 2.0813,32.5454 -1.79726,0.055 -3.45753,-1.2073 -11.92363,-3.9908 -1.40653,1.9336 -3.34985,5.6717 -6.03687,11.2805 z"
         fill="#ee95d0"
         id="path1-5-08-0-5"
         sodipodi:nodetypes="cccccccccccccccccccccc"
         style="display:inline;fill:#f7f3f4;fill-opacity:1;stroke-width:0.188108"
         inkscape:label="petal" /><path
         d="m -467.27912,102.14449 c -0.43517,0.0951 -12.81599,-2.987332 -16.88412,-20.640418 -4.52665,4.473663 -13.40096,10.889712 -26.955,10.705577 -0.32665,-1.603778 0.60433,-4.728242 1.21722,-10.655499 -3.69518,-0.08933 -7.36229,-0.583282 -11.04138,-0.906284 -0.74465,-2.89546 6.66836,-17.605293 16.39322,-20.654661 -8.36493,-4.937358 -13.05806,-11.110492 -16.91848,-21.631258 3.58546,-1.184787 7.2927,-2.00083 10.95855,-2.909568 -0.61387,-1.997585 -0.70702,-2.379685 -2.17831,-9.89292 12.84675,-7.394284 28.06927,7.109705 28.06927,7.109705 -0.0545,-2.293147 7.66789,-21.085273 15.48378,-23.9954894 1.78436,2.9567224 3.55629,5.9206264 5.31764,8.8912054 5.19964,-2.530768 7.59542,-4.418388 10.23038,-5.314556 6.06774,8.636085 0.81657,21.959938 -1.21717,26.37693 14.78948,-5.482233 27.6775,4.379222 28.32661,6.506508 -0.0491,0.905226 -6.99785,7.444639 -7.44687,7.795955 3.98268,3.975959 -0.32884,-0.357134 7.68812,7.172417 -0.24649,0.618646 -11.24349,11.146365 -27.81285,8.850753 8.98523,11.274412 2.15469,26.225591 1.73419,27.117778 -1.49752,0.04635 -2.88091,-1.005926 -9.93509,-3.325221 -1.17196,1.611118 -2.79119,4.725739 -5.03009,9.399206 z"
         fill="#ee95d0"
         id="path1-5-08-0-8"
         sodipodi:nodetypes="cccccccccccccccccccccc"
         style="display:inline;fill:#f7f3f4;fill-opacity:1;stroke-width:0.156737"
         inkscape:label="petal" /><path
         d="m -1967.7312,-1224.7409 c -0.4352,0.095 -12.816,-2.9874 -16.8841,-20.6405 -4.5267,4.4737 -13.401,10.8898 -26.955,10.7056 -0.3267,-1.6038 0.6043,-4.7282 1.2172,-10.6555 -3.6952,-0.089 -7.3623,-0.5833 -11.0414,-0.9063 -0.7446,-2.8954 6.6684,-17.6053 16.3932,-20.6546 -8.3649,-4.9374 -13.058,-11.1105 -16.9185,-21.6313 3.5855,-1.1848 7.2927,-2.0008 10.9586,-2.9096 -0.6139,-1.9975 -0.707,-2.3796 -2.1783,-9.8929 12.8467,-7.3943 28.0692,7.1097 28.0692,7.1097 -0.054,-2.2931 7.6679,-21.0852 15.4838,-23.9955 1.7844,2.9568 3.5563,5.9207 5.3177,8.8912 5.1996,-2.5307 7.5954,-4.4183 10.2304,-5.3145 6.0677,8.6361 0.8165,21.9599 -1.2172,26.3769 14.7895,-5.4822 27.6775,4.3792 28.3266,6.5065 -0.049,0.9053 -6.9979,7.4447 -7.4469,7.796 3.9827,3.9759 -0.3288,-0.3571 7.6881,7.1724 -0.2464,0.6187 -11.2434,11.1464 -27.8128,8.8508 8.9852,11.2744 2.1547,26.2255 1.7342,27.1177 -1.4975,0.046 -2.8809,-1.0059 -9.9351,-3.3252 -1.172,1.6111 -2.7912,4.7258 -5.0301,9.3992 z"
         fill="#ee95d0"
         id="path1-5-08-0-9"
         sodipodi:nodetypes="cccccccccccccccccccccc"
         style="display:inline;fill:#f7f3f4;fill-opacity:1;stroke-width:0.156737"
         inkscape:label="petal" /><path
         d="m -4204.0049,-2308.605 c -0.4352,0.095 -12.816,-2.9873 -16.8841,-20.6404 -4.5267,4.4736 -13.401,10.8897 -26.955,10.7055 -0.3267,-1.6037 0.6043,-4.7282 1.2172,-10.6555 -3.6952,-0.089 -7.3623,-0.5832 -11.0414,-0.9062 -0.7446,-2.8955 6.6684,-17.6053 16.3932,-20.6547 -8.3649,-4.9374 -13.058,-11.1105 -16.9185,-21.6313 3.5855,-1.1847 7.2927,-2.0008 10.9586,-2.9095 -0.6139,-1.9976 -0.707,-2.3797 -2.1783,-9.8929 12.8467,-7.3943 28.0692,7.1097 28.0692,7.1097 -0.055,-2.2932 7.6679,-21.0853 15.4838,-23.9955 1.7844,2.9567 3.5563,5.9206 5.3177,8.8912 5.1996,-2.5308 7.5954,-4.4184 10.2304,-5.3146 6.0677,8.6361 0.8165,21.96 -1.2172,26.3769 14.7895,-5.4822 27.6775,4.3793 28.3266,6.5066 -0.049,0.9052 -6.9979,7.4446 -7.4469,7.7959 3.9827,3.976 -0.3288,-0.3571 7.6881,7.1724 -0.2464,0.6187 -11.2434,11.1464 -27.8128,8.8508 8.9852,11.2744 2.1547,26.2256 1.7342,27.1178 -1.4975,0.046 -2.8809,-1.006 -9.9351,-3.3253 -1.172,1.6112 -2.7912,4.7258 -5.0301,9.3992 z"
         fill="#ee95d0"
         id="path1-5-08-0-0"
         sodipodi:nodetypes="cccccccccccccccccccccc"
         style="display:inline;fill:#f7f3f4;fill-opacity:1;stroke-width:0.156737"
         inkscape:label="petal" /><path
         d="m -3204.5424,-2310.3277 c -0.7123,0.1555 -20.9782,-4.89 -27.6372,-33.786 -7.4097,7.3229 -21.9359,17.8253 -44.1222,17.5238 -0.5348,-2.6253 0.9892,-7.7395 1.9924,-17.4418 -6.0486,-0.1457 -12.0512,-0.9548 -18.0734,-1.4835 -1.2189,-4.7395 10.9153,-28.8178 26.8337,-33.8092 -13.6924,-8.0819 -21.3744,-18.1866 -27.6936,-35.4079 5.869,-1.9393 11.9373,-3.275 17.9379,-4.7626 -1.0048,-3.2697 -1.1572,-3.8952 -3.5656,-16.1935 21.0285,-12.1036 45.946,11.6377 45.946,11.6377 -0.09,-3.7535 12.5514,-34.514 25.3451,-39.2778 2.9209,4.8399 5.8213,9.6915 8.7045,14.5538 8.5111,-4.1424 12.4327,-7.2322 16.7459,-8.6992 9.9321,14.1363 1.3365,35.9458 -1.9924,43.1759 24.2087,-8.9737 45.3048,7.1682 46.3673,10.6504 -0.08,1.4818 -11.4547,12.1861 -12.1897,12.7611 6.5192,6.5081 -0.5382,-0.5845 12.5845,11.7404 -0.4033,1.0127 -18.4041,18.2453 -45.5262,14.4877 14.7077,18.4549 3.527,42.928 2.8386,44.3885 -2.4512,0.075 -4.7156,-1.6466 -16.2625,-5.443 -1.9185,2.6372 -4.5689,7.7356 -8.2337,15.3854 z"
         fill="#ee95d0"
         id="path1-5-08-0-6"
         sodipodi:nodetypes="cccccccccccccccccccccc"
         style="display:inline;fill:#f7f3f4;fill-opacity:1;stroke-width:0.25656"
         inkscape:label="petal" /><path
         d="m -485.60919,-560.70559 c -0.65292,0.14254 -19.22887,-4.48224 -25.33263,-30.96863 -6.79171,6.71226 -20.10656,16.33886 -40.44279,16.06249 -0.4901,-2.40631 0.90673,-7.09411 1.82631,-15.98732 -5.5442,-0.13353 -11.04625,-0.87517 -16.5663,-1.35979 -1.11726,-4.34421 10.00509,-26.41467 24.59609,-30.98979 -12.55059,-7.40798 -19.59208,-16.66999 -25.38418,-32.4552 5.37957,-1.77765 10.94183,-3.00196 16.44201,-4.36551 -0.92104,-2.99701 -1.06079,-3.57031 -3.26828,-14.84313 19.27501,-11.09427 42.1146,10.66727 42.1146,10.66727 -0.0818,-3.44053 11.50476,-31.63585 23.23158,-36.00241 2.67722,4.43633 5.33579,8.88331 7.97849,13.34019 7.80144,-3.79701 11.39602,-6.62913 15.34947,-7.97378 9.10392,12.95745 1.22517,32.94824 -1.82622,39.57542 22.18986,-8.22539 41.52681,6.57047 42.50072,9.76223 -0.0737,1.3583 -10.49944,11.16989 -11.17314,11.69698 5.97554,5.96537 -0.49337,-0.53579 11.53511,10.76134 -0.36983,0.92828 -16.86952,16.72385 -41.72989,13.27957 13.48128,16.91591 3.23286,39.34826 2.60195,40.6869 -2.24685,0.069 -4.32245,-1.50923 -14.90641,-4.98907 -1.7584,2.41727 -4.18787,7.09051 -7.54707,14.10239 z"
         fill="#ee95d0"
         id="path1-5-08-0-08"
         sodipodi:nodetypes="cccccccccccccccccccccc"
         style="display:inline;fill:#f7f3f4;fill-opacity:1;stroke-width:0.235165"
         inkscape:label="petal" /><path
         d="m -1502.1796,773.43875 c -0.5876,0.12827 -17.305,-4.03366 -22.798,-27.87006 -6.1123,6.04069 -18.095,14.704 -36.3965,14.45542 -0.4411,-2.16556 0.816,-6.38434 1.6435,-14.38778 -4.9895,-0.12017 -9.941,-0.78761 -14.9088,-1.22374 -1.0054,-3.90957 9.0041,-23.77187 22.1352,-27.88924 -11.2949,-6.66681 -17.6318,-15.00215 -22.8445,-29.20804 4.8414,-1.5998 9.8471,-2.70162 14.797,-3.92874 -0.8289,-2.69729 -0.9546,-3.21323 -2.9412,-13.35806 17.3464,-9.98428 37.9009,9.6 37.9009,9.6 -0.073,-3.0963 10.3537,-28.4708 20.9073,-32.40035 2.4094,3.99234 4.8019,7.99453 7.1803,12.0055 7.0208,-3.41712 10.2558,-5.96602 13.8137,-7.176 8.1931,11.66105 1.1025,29.65174 -1.6435,35.61588 19.9698,-7.40244 37.372,5.91309 38.2485,8.78551 -0.066,1.22226 -9.449,10.05234 -10.0553,10.52669 5.3777,5.36853 -0.444,-0.48232 10.381,9.68466 -0.3327,0.83527 -15.1816,15.05048 -37.5547,11.95081 12.1324,15.22345 2.9094,35.41157 2.3416,36.61628 -2.022,0.0621 -3.89,-1.35823 -13.4151,-4.48991 -1.5825,2.17542 -3.7688,6.38096 -6.7919,12.69144 z"
         fill="#ee95d0"
         id="path1-5-08-0-58"
         sodipodi:nodetypes="cccccccccccccccccccccc"
         style="display:inline;fill:#f7f3f4;fill-opacity:1;stroke-width:0.211637"
         inkscape:label="petal" /><path
         d="m -3381.1354,-1122.0826 c -0.4352,0.095 -12.816,-2.9874 -16.8841,-20.6405 -4.5267,4.4737 -13.401,10.8898 -26.955,10.7056 -0.3267,-1.6038 0.6043,-4.7282 1.2172,-10.6555 -3.6952,-0.089 -7.3623,-0.5833 -11.0414,-0.9063 -0.7446,-2.8954 6.6684,-17.6053 16.3932,-20.6546 -8.3649,-4.9374 -13.058,-11.1105 -16.9185,-21.6313 3.5855,-1.1848 7.2927,-2.0008 10.9586,-2.9096 -0.6139,-1.9975 -0.707,-2.3796 -2.1783,-9.8929 12.8467,-7.3943 28.0692,7.1097 28.0692,7.1097 -0.055,-2.2931 7.6679,-21.0852 15.4838,-23.9955 1.7844,2.9568 3.5563,5.9207 5.3177,8.8912 5.1996,-2.5307 7.5954,-4.4183 10.2304,-5.3145 6.0677,8.6361 0.8165,21.9599 -1.2172,26.3769 14.7895,-5.4822 27.6775,4.3792 28.3266,6.5065 -0.049,0.9053 -6.9979,7.4447 -7.4469,7.796 3.9827,3.9759 -0.3288,-0.3571 7.6881,7.1724 -0.2464,0.6187 -11.2434,11.1464 -27.8128,8.8508 8.9852,11.2744 2.1547,26.2255 1.7342,27.1177 -1.4975,0.046 -2.8809,-1.0059 -9.9351,-3.3252 -1.172,1.6111 -2.7912,4.7258 -5.0301,9.3992 z"
         fill="#ee95d0"
         id="path1-5-08-0-39"
         sodipodi:nodetypes="cccccccccccccccccccccc"
         style="display:inline;fill:#f7f3f4;fill-opacity:1;stroke-width:0.156737"
         inkscape:label="petal" /><path
         d="m -2101.875,-2361.9201 c -0.4352,0.095 -12.816,-2.9874 -16.8841,-20.6405 -4.5267,4.4737 -13.401,10.8898 -26.955,10.7056 -0.3267,-1.6038 0.6043,-4.7282 1.2172,-10.6555 -3.6952,-0.089 -7.3623,-0.5833 -11.0414,-0.9063 -0.7446,-2.8954 6.6684,-17.6053 16.3932,-20.6546 -8.3649,-4.9374 -13.058,-11.1105 -16.9185,-21.6313 3.5855,-1.1848 7.2927,-2.0008 10.9586,-2.9096 -0.6139,-1.9975 -0.707,-2.3796 -2.1783,-9.8929 12.8467,-7.3943 28.0692,7.1097 28.0692,7.1097 -0.054,-2.2931 7.6679,-21.0852 15.4838,-23.9955 1.7844,2.9568 3.5563,5.9207 5.3177,8.8912 5.1996,-2.5307 7.5954,-4.4183 10.2304,-5.3145 6.0677,8.6361 0.8165,21.9599 -1.2172,26.3769 14.7895,-5.4822 27.6775,4.3792 28.3266,6.5065 -0.049,0.9053 -6.9979,7.4447 -7.4469,7.796 3.9827,3.9759 -0.3288,-0.3571 7.6881,7.1724 -0.2464,0.6187 -11.2434,11.1464 -27.8128,8.8508 8.9852,11.2744 2.1547,26.2255 1.7342,27.1177 -1.4975,0.046 -2.8809,-1.0059 -9.9351,-3.3252 -1.172,1.6111 -2.7912,4.7258 -5.0301,9.3992 z"
         fill="#ee95d0"
         id="path1-5-08-0-61"
         sodipodi:nodetypes="cccccccccccccccccccccc"
         style="display:inline;fill:#f7f3f4;fill-opacity:1;stroke-width:0.156737"
         inkscape:label="petal" /></g></g></svg>
