<svg width="1920mm" height="1080mm" viewBox="0 0 1920 1080" version="1.1" id="svg1" inkscape:version="1.4.3 (0d15f75, 2025-12-25)" sodipodi:docname="summer.svg" xml:space="preserve" xmlns:inkscape="http://www.inkscape.org/namespaces/inkscape" xmlns:sodipodi="http://sodipodi.sourceforge.net/DTD/sodipodi-0.dtd" xmlns:xlink="http://www.w3.org/1999/xlink" xmlns="http://www.w3.org/2000/svg" xmlns:svg="http://www.w3.org/2000/svg" preserveAspectRatio="xMidYMid" style="fill: rgb(0, 0, 0); stroke: none; stroke-width: 1px; stroke-linejoin: miter; stroke-linecap: butt; stroke-miterlimit: 4; opacity: 1; filter: none;"><sodipodi:namedview id="namedview1" pagecolor="#ffffff" bordercolor="#000000" borderopacity="0.25" inkscape:showpageshadow="2" inkscape:pageopacity="0.0" inkscape:pagecheckerboard="0" inkscape:deskcolor="#d1d1d1" inkscape:document-units="mm" inkscape:zoom="0.06700861" inkscape:cx="1238.6468" inkscape:cy="1678.8887" inkscape:window-width="1920" inkscape:window-height="1111" inkscape:window-x="-9" inkscape:window-y="-9" inkscape:window-maximized="1" inkscape:current-layer="layer5"></sodipodi:namedview><defs id="defs1"><linearGradient id="linearGradient7" inkscape:collect="always"><stop style="stop-color:#bfd1dc;stop-opacity:1;" offset="0" id="stop7"></stop><stop style="stop-color:#c7d6dd;stop-opacity:1;" offset="0.38147011" id="stop10"></stop><stop style="stop-color:#e16b5c;stop-opacity:1;" offset="1" id="stop8"></stop></linearGradient><linearGradient inkscape:collect="always" xlink:href="#linearGradient7" id="linearGradient8-4" x1="109.88719" y1="3.4478526" x2="115.06703" y2="296.90793" gradientUnits="userSpaceOnUse" spreadMethod="pad" gradientTransform="matrix(8.8758556,0,0,4.2943525,-104.15945,-125.12299)"></linearGradient></defs><g inkscape:groupmode="layer" id="layer3" inkscape:label="Sky" style="display:inline;fill:#000000"><path style="display:inline;fill:url(#linearGradient8-4);fill-opacity:1;fill-rule:nonzero;stroke-width:1.63348" d=" m 491.6276,-233.21902 c -319.79744,-2.11953 -854.25342,93.25933 -854.25342,93.25933 l 78.85416,417.54742 c 0,0 48.18866,171.68193 -118.28124,341.24436 -166.46989,169.56239 227.80092,786.34551 227.80092,786.34551 l 2273.62828,-86.9007 c 0,0 464.3633,-199.2358 210.2778,-623.14172 -254.0857,-423.90604 -254.0857,-423.90604 -254.0857,-423.90604 0,0 100.7582,-434.50367 -245.324,-495.97004 -346.0821,-61.46638 -1318.6168,-8.47812 -1318.6168,-8.47812 z " id="path4-4" inkscape:label="sky"></path></g><g inkscape:groupmode="layer" id="layer4-7" inkscape:label="Sun" style="display:inline;fill:#000000" transform="translate(2.2101031,-119.61716)"><ellipse style="fill:#d94a45;fill-opacity:1;stroke-width:1.325;stroke-dasharray:none" id="path6-6" cx="992.71173" cy="651.73834" rx="273.92703" ry="264.05576" inkscape:label="sun"></ellipse></g><g inkscape:groupmode="layer" id="layer2" inkscape:label="Clouds" transform="translate(29.613732,13.819741)"><path style="fill: rgb(245, 247, 244); fill-opacity: 1; stroke-width: 1.59418; stroke: none; stroke-linejoin: miter; stroke-linecap: butt; stroke-miterlimit: 4; opacity: 1; filter: none;" d="M -2182.8683 269.97852 L -1209.5493000000001 269.97852 C -1209.5493000000001 269.97852 -1191.0451 131.81425000000002 -1283.5659 131.81425000000002 C -1376.0867 131.81425000000002 -1413.0951 153.25354000000002 -1413.0951 153.25354000000002 C -1413.0951 153.25354000000002 -1483.4109 15.08927700000001 -1568.5301 46.05712900000002 C -1653.6491999999998 77.02497900000002 -1668.4524999999999 131.81425000000002 -1668.4524999999999 131.81425000000002 C -1668.4524999999999 131.81425000000002 -1690.6574999999998 -1.5857190999999773 -1786.8791999999999 34.146417000000014 C -1883.1009 69.87855200000001 -1890.5024999999998 134.19639 -1890.5024999999998 134.19639 C -1890.5024999999998 134.19639 -1990.4249999999997 -27.78929599999998 -2071.8433999999997 5.560706900000014 C -2153.2616999999996 38.91070100000002 -2164.3641999999995 105.61069000000002 -2164.3641999999995 105.61069000000002 C -2164.3641999999995 105.61069000000002 -2271.6882999999993 10.324992000000023 -2330.9016999999994 91.31783300000002 C -2390.1149999999993 172.31069000000002 -2364.2091999999993 262.83209 -2364.2091999999993 262.83209 Z" id="path7" inkscape:label="cloudhigh"><animateTransform attributeName="transform" attributeType="auto" type="translate" values="0 0;4485.66 0" calcMode="spline" keyTimes="0; 1" keySplines="0 0 1 1" dur="3.98s" begin="0s" repeatCount="1" additive="sum" accumulate="none" id="animateTransform3392" style="stroke: none; stroke-width: 1.59418px; stroke-linejoin: miter; stroke-linecap: butt; stroke-miterlimit: 4; opacity: 1; filter: none; fill: rgb(245, 247, 244);"></animateTransform></path><path style="fill: rgb(207, 207, 207); fill-opacity: 1; stroke-width: 1.80291; stroke: none; stroke-linejoin: miter; stroke-linecap: butt; stroke-miterlimit: 4; opacity: 1; filter: none;" d="M -1313.1552 392.38194 L -124.09905000000003 390.21986 C -124.09905000000003 390.21986 -9.365554600000038 303.73595 -171.03545000000003 247.52146 C -332.70545000000004 191.30692 -410.93275000000006 288.6013 -410.93275000000006 288.6013 C -410.93275000000006 288.6013 -468.29945000000004 161.03754999999998 -671.69075 212.92788 C -875.08194 264.8182 -859.43642 295.08759999999995 -859.43642 295.08759999999995 C -859.43642 295.08759999999995 -1052.3973 176.17220999999995 -1167.1308 210.76578999999995 C -1281.8643 245.35936999999996 -1323.5855 256.16981 -1344.4461999999999 297.24969 C -1365.3067999999998 338.32953 -1313.1552 392.38194 -1313.1552 392.38194 Z" id="path8" inkscape:label="cloudlow"><animateTransform attributeName="transform" attributeType="auto" type="translate" values="0 0;3331.5 0" calcMode="spline" keyTimes="0; 1" keySplines="0 0 1 1" dur="6s" begin="0s" repeatCount="1" additive="sum" accumulate="none" id="animateTransform9520" style="stroke: none; stroke-width: 1.80291px; stroke-linejoin: miter; stroke-linecap: butt; stroke-miterlimit: 4; opacity: 1; filter: none; fill: rgb(207, 207, 207);"></animateTransform></path><path style="fill: rgb(227, 227, 227); fill-opacity: 1; stroke-width: 1.76574; stroke: none; stroke-linejoin: miter; stroke-linecap: butt; stroke-miterlimit: 4; opacity: 1; filter: none;" d="M 2852.1748 247.76045 L 2007.3988999999997 245.11024999999998 C 2007.3988999999997 245.11024999999998 1848.2382999999998 109.95001999999997 2035.9661999999996 67.54680299999998 C 2223.6941999999995 25.143593999999986 2227.7751999999996 139.10222 2227.7751999999996 139.10222 C 2227.7751999999996 139.10222 2219.6132 -30.510617000000025 2382.8551999999995 -6.658810799999998 C 2546.0962999999997 17.192995000000003 2525.6910999999996 125.85122000000001 2525.6910999999996 125.85122000000001 C 2525.6910999999996 125.85122000000001 2493.0427999999997 -38.46121599999998 2721.5812999999994 -11.959209999999985 C 2950.1198999999992 14.542796000000017 2823.6077999999993 128.50142000000002 2823.6077999999993 128.50142000000002 C 2823.6077999999993 128.50142000000002 3007.2546999999995 22.493394000000023 3015.416599999999 147.05283000000003 C 3023.578499999999 271.61225 2852.174799999999 247.76045000000005 2852.174799999999 247.76045000000005 Z" id="path9" inkscape:label="cloudmedium"><animateTransform attributeName="transform" attributeType="auto" type="translate" values="0 0;-3389.5 0" calcMode="spline" keyTimes="0; 1" keySplines="0 0 1 1" dur="7.92s" begin="0s" repeatCount="1" additive="sum" accumulate="none" id="animateTransform5404" style="stroke: none; stroke-width: 1.76574px; stroke-linejoin: miter; stroke-linecap: butt; stroke-miterlimit: 4; opacity: 1; filter: none; fill: rgb(227, 227, 227);"></animateTransform></path></g><g inkscape:label="Foreground 3" inkscape:groupmode="layer" id="layer1-4" transform="translate(-1.0926367,-95.495827)" style="display:inline"><path style="fill:#b4cbd2;fill-opacity:1;stroke-width:1.68982" d=" m -353.77858,1429.536 331.732375,-744.94445 77.54782,25.29131 43.08212,-25.29131 150.787445,239.11793 219.71883,-246.01558 86.16423,20.6929 150.78743,-16.0945 219.71883,34.48821 120.63,-62.07871 116.3217,119.55896 150.7874,-105.76371 90.4725,62.07871 51.6986,-39.0866 112.0134,16.09449 60.315,-22.9921 47.3904,80.47236 116.3217,87.37006 77.5478,-163.24402 60.315,-11.49605 146.4792,202.33057 112.0135,473.63753 -516.9855,135.6535 z " id="path2" inkscape:label="mountain"></path></g><g inkscape:label="Foreground 2" inkscape:groupmode="layer" id="layer1-5" transform="translate(-1.0926367,-95.495827)" style="display:inline"><path style="fill:#bfd6cc;fill-opacity:1;stroke-width:1.7255" d=" m -135.42164,993.59576 -132.47712,324.16784 c 0,0 377.35903,321.5948 413.48916,321.5948 36.13011,0 2199.9226,-244.4121 2199.9226,-244.4121 L 1948.0818,831.51195 c 0,0 -365.3156,-87.47385 -875.1517,5.1455 C 563.09396,929.2768 133.54702,1065.633 1.0699218,1029.6144 -131.40718,993.59576 -135.42164,993.59576 -135.42164,993.59576 Z " id="path3" inkscape:label="hill"></path></g><g inkscape:label="Foreground 1" inkscape:groupmode="layer" id="layer1" style="display:inline"><path style="fill:#afcfc1;fill-opacity:1;stroke-width:1.65938" d=" m 2036.6847,845.98929 217.4137,295.71931 -344.5802,249.1496 c 0,0 -1977.234071,-34.9275 -1973.131927,-53.5556 4.102161,-18.6279 -41.021463,-537.88333 -41.021463,-537.88333 0,0 258.4352,-90.81147 906.57423,44.24148 648.13876,135.05301 1234.74566,2.32854 1234.74566,2.32854 z " id="path5" inkscape:label="hill"></path></g><g inkscape:groupmode="layer" id="layer5" inkscape:label="Rain" style="display:inline"><g inkscape:groupmode="layer" id="layer7" inkscape:label="Rain 1" transform="translate(2.5113978,-1074.2661)" style="fill: rgb(0, 0, 0); stroke: none; stroke-width: 1px; stroke-linejoin: miter; stroke-linecap: butt; stroke-miterlimit: 4; opacity: 1; filter: none;"><path style="display:inline;fill:#1e4ed8;fill-opacity:1;stroke-width:0.65984" d="M 927.62917 549.8065 L 928.06367 586.196 L 929.04131 583.48039 L 928.3895299999999 548.28575 Z" id="path10-35" inkscape:label="rain"></path><path style="display:inline;fill:#1e4ed8;fill-opacity:1;stroke-width:0.65984" d="M 137.58331 203.66242 L 138.01781000000003 240.05192 L 138.99545000000003 237.33631 L 138.34367000000003 202.14167 Z" id="path10-35-5" inkscape:label="rain"></path><path style="display:inline;fill:#1e4ed8;fill-opacity:1;stroke-width:0.65984" d="M 293.4229 166.09158 L 293.85740000000004 202.48108 L 294.83504000000005 199.76547 L 294.1832600000001 164.57083 Z" id="path10-35-2" inkscape:label="rain"></path><path style="display:inline;fill:#1e4ed8;fill-opacity:1;stroke-width:0.65984" d="M 265.90623 369.55617 L 266.34073 405.94567 L 267.31837 403.23006 L 266.66659000000004 368.03542 Z" id="path10-35-6" inkscape:label="rain"></path><path style="display:inline;fill:#1e4ed8;fill-opacity:1;stroke-width:0.65984" d="M 255.85206 543.12283 L 256.28656 579.51233 L 257.2642 576.79672 L 256.61242000000004 541.60208 Z" id="path10-35-7" inkscape:label="rain"></path><path style="display:inline;fill:#1e4ed8;fill-opacity:1;stroke-width:0.65984" d="M 544.2479 452.37075 L 544.6823999999999 488.76025 L 545.6600399999999 486.04463999999996 L 545.0082599999998 450.84999999999997 Z" id="path10-35-59" inkscape:label="rain"></path><path style="display:inline;fill:#1e4ed8;fill-opacity:1;stroke-width:0.65984" d="M 694.26665 243.08533 L 694.70115 279.47483 L 695.6787899999999 276.75921999999997 L 695.0270099999999 241.56457999999998 Z" id="path10-35-26" inkscape:label="rain"></path><path style="display:inline;fill:#1e4ed8;fill-opacity:1;stroke-width:0.65984" d="M 984.51456 223.50617 L 984.9490599999999 259.89567 L 985.9266999999999 257.18005999999997 L 985.2749199999998 221.98541999999998 Z" id="path10-35-0" inkscape:label="rain"></path><path style="display:inline;fill:#1e4ed8;fill-opacity:1;stroke-width:0.65984" d="M 1110.7208 241.23325 L 1111.1553000000001 277.62275 L 1112.133 274.90713999999997 L 1111.4812 239.71249999999998 Z" id="path10-35-9" inkscape:label="rain"></path><path style="display:inline;fill:#1e4ed8;fill-opacity:1;stroke-width:0.65984" d="M 548.21665 426.70617 L 548.6511499999999 463.09567 L 549.6287899999999 460.38005999999996 L 548.9770099999998 425.18541999999997 Z" id="path10-35-51" inkscape:label="rain"></path><path style="display:inline;fill:#1e4ed8;fill-opacity:1;stroke-width:0.65984" d="M 684.47706 691.2895 L 684.91156 727.679 L 685.8892 724.96339 L 685.2374199999999 689.76875 Z" id="path10-35-4" inkscape:label="rain"></path><path style="display:inline;fill:#1e4ed8;fill-opacity:1;stroke-width:0.65984" d="M 1223.4333 681.49992 L 1223.8678 717.88942 L 1224.8455 715.17381 L 1224.1936999999998 679.97917 Z" id="path10-35-98" inkscape:label="rain"></path><path style="display:inline;fill:#1e4ed8;fill-opacity:1;stroke-width:0.65984" d="M 1243.0125 345.74367 L 1243.4470000000001 382.13317 L 1244.4246 379.41756 L 1243.7728 344.22292 Z" id="path10-35-988" inkscape:label="rain"></path><path style="display:inline;fill:#1e4ed8;fill-opacity:1;stroke-width:0.65984" d="M 1189.8312 164.2395 L 1190.2657000000002 200.629 L 1191.2434 197.91339 L 1190.5916 162.71875 Z" id="path10-35-8" inkscape:label="rain"></path><path style="display:inline;fill:#1e4ed8;fill-opacity:1;stroke-width:0.65984" d="M 1566.8625 223.50617 L 1567.297 259.89567 L 1568.2746 257.18005999999997 L 1567.6227999999999 221.98541999999998 Z" id="path10-35-1" inkscape:label="rain"></path><path style="display:inline;fill:#1e4ed8;fill-opacity:1;stroke-width:0.65984" d="M 1564.7458 517.45825 L 1565.1803 553.84775 L 1566.1579 551.13214 L 1565.5062 515.9375 Z" id="path10-35-96" inkscape:label="rain"></path><path style="display:inline;fill:#1e4ed8;fill-opacity:1;stroke-width:0.65984" d="M 1537.2292 764.3145 L 1537.6637 800.704 L 1538.6413 797.98839 L 1537.9895 762.7937499999999 Z" id="path10-35-968" inkscape:label="rain"></path><path style="display:inline;fill:#1e4ed8;fill-opacity:1;stroke-width:0.65984" d="M 1758.4208 653.71867 L 1758.8553000000002 690.10817 L 1759.833 687.39256 L 1759.1812 652.19792 Z" id="path10-35-99" inkscape:label="rain"></path><path style="display:inline;fill:#1e4ed8;fill-opacity:1;stroke-width:0.65984" d="M 1813.7187 280.65617 L 1814.1532 317.04567 L 1815.1308999999999 314.33005999999995 L 1814.4790999999998 279.13541999999995 Z" id="path10-35-3" inkscape:label="rain"></path><path style="display:inline;fill:#1e4ed8;fill-opacity:1;stroke-width:0.65984" d="M 1890.7125 511.63742 L 1891.1470000000002 548.02692 L 1892.1246 545.31131 L 1891.4728 510.11667000000006 Z" id="path10-35-80" inkscape:label="rain"></path><path style="display:inline;fill:#1e4ed8;fill-opacity:1;stroke-width:0.65984" d="M 1870.8687 884.69992 L 1871.3032 921.08942 L 1872.2809 918.37381 L 1871.6290999999999 883.17917 Z" id="path10-35-81" inkscape:label="rain"></path><path style="display:inline;fill:#1e4ed8;fill-opacity:1;stroke-width:0.65984" d="M 1596.4958 954.02075 L 1596.9303 990.41025 L 1597.9079 987.69464 L 1597.2562 952.5 Z" id="path10-35-22" inkscape:label="rain"></path><path style="display:inline;fill:#1e4ed8;fill-opacity:1;stroke-width:0.65984" d="M 1116.8062 943.96658 L 1117.2407 980.35608 L 1118.2184 977.64047 L 1117.5665999999999 942.44583 Z" id="path10-35-07" inkscape:label="rain"></path><path style="display:inline;fill:#1e4ed8;fill-opacity:1;stroke-width:0.65984" d="M 682.3604 888.66867 L 682.7949 925.05817 L 683.7725399999999 922.34256 L 683.1207599999999 887.14792 Z" id="path10-35-61" inkscape:label="rain"></path><path style="display:inline;fill:#1e4ed8;fill-opacity:1;stroke-width:0.65984" d="M 251.88331 910.3645 L 252.31781 946.754 L 253.29545000000002 944.03839 L 252.64367000000001 908.84375 Z" id="path10-35-86" inkscape:label="rain"></path><path style="display:inline;fill:#1e4ed8;fill-opacity:1;stroke-width:0.65984" d="M 182.82706 561.1145 L 183.26156 597.504 L 184.2392 594.78839 L 183.58742 559.59375 Z" id="path10-35-92" inkscape:label="rain"></path><path style="display:inline;fill:#1e4ed8;fill-opacity:1;stroke-width:0.65984" d="M 305.32915 312.14158 L 305.76365000000004 348.53108 L 306.74129000000005 345.81546999999995 L 306.0895100000001 310.62082999999996 Z" id="path10-35-21" inkscape:label="rain"></path><path style="display:inline;fill:#1e4ed8;fill-opacity:1;stroke-width:0.65984" d="M 143.40415 693.40617 L 143.83865 729.79567 L 144.81629 727.08006 L 144.16451 691.88542 Z" id="path10-35-29" inkscape:label="rain"></path><path style="display:inline;fill:#1e4ed8;fill-opacity:1;stroke-width:0.65984" d="M 508.52915 566.93533 L 508.96365000000003 603.32483 L 509.94129000000004 600.60922 L 509.28951000000006 565.41458 Z" id="path10-35-39" inkscape:label="rain"></path><path style="display:inline;fill:#1e4ed8;fill-opacity:1;stroke-width:0.65984" d="M 589.49165 448.402 L 589.92615 484.7915 L 590.90379 482.07588999999996 L 590.2520099999999 446.88124999999997 Z" id="path10-35-53" inkscape:label="rain"></path><path style="display:inline;fill:#1e4ed8;fill-opacity:1;stroke-width:0.65984" d="M 482.86456 665.62492 L 483.29906 702.01442 L 484.2767 699.29881 L 483.62492000000003 664.10417 Z" id="path10-35-867" inkscape:label="rain"></path><path style="display:inline;fill:#1e4ed8;fill-opacity:1;stroke-width:0.65984" d="M 1154.1125 746.58742 L 1154.547 782.97692 L 1155.5246 780.26131 L 1154.8727999999999 745.0666699999999 Z" id="path10-35-41" inkscape:label="rain"></path><path style="display:inline;fill:#1e4ed8;fill-opacity:1;stroke-width:0.65984" d="M 1379.2729 454.48742 L 1379.7074 490.87692 L 1380.685 488.16130999999996 L 1380.0333 452.96666999999997 Z" id="path10-35-25" inkscape:label="rain"></path><path style="display:inline;fill:#1e4ed8;fill-opacity:1;stroke-width:0.65984" d="M 988.48331 484.12075 L 988.9178099999999 520.51025 L 989.8954499999999 517.7946400000001 L 989.24367 482.6 Z" id="path10-35-250" inkscape:label="rain"></path><path style="display:inline;fill:#1e4ed8;fill-opacity:1;stroke-width:0.65984" d="M 787.1354 746.58742 L 787.5699 782.97692 L 788.5475399999999 780.26131 L 787.8957599999999 745.0666699999999 Z" id="path10-35-967" inkscape:label="rain"></path><path style="display:inline;fill:#1e4ed8;fill-opacity:1;stroke-width:0.65984" d="M 698.2354 495.76242 L 698.6699 532.15192 L 699.6475399999999 529.43631 L 698.9957599999999 494.24167000000006 Z" id="path10-35-93" inkscape:label="rain"></path><path style="display:inline;fill:#1e4ed8;fill-opacity:1;stroke-width:0.65984" d="M 867.83331 430.67492 L 868.2678099999999 467.06442 L 869.2454499999999 464.34880999999996 L 868.5936699999999 429.15416999999997 Z" id="path10-35-58" inkscape:label="rain"></path><path style="display:inline;fill:#1e4ed8;fill-opacity:1;stroke-width:0.65984" d="M 919.16248 663.77283 L 919.5969799999999 700.16233 L 920.5746199999999 697.44672 L 919.9228399999998 662.25208 Z" id="path10-35-16" inkscape:label="rain"></path><path style="display:inline;fill:#1e4ed8;fill-opacity:1;stroke-width:0.65984" d="M 1513.4167 466.12908 L 1513.8512 502.51858 L 1514.8288 499.80296999999996 L 1514.177 464.60832999999997 Z" id="path10-35-55" inkscape:label="rain"></path><path style="display:inline;fill:#1e4ed8;fill-opacity:1;stroke-width:0.65984" d="M 1691.2167 253.1395 L 1691.6512 289.529 L 1692.6288 286.81338999999997 L 1691.9769999999999 251.61874999999998 Z" id="path10-35-536" inkscape:label="rain"></path><path style="display:inline;fill:#1e4ed8;fill-opacity:1;stroke-width:0.65984" d="M 1780.1167 456.3395 L 1780.5512 492.729 L 1781.5288 490.01338999999996 L 1780.877 454.81874999999997 Z" id="path10-35-14" inkscape:label="rain"></path><path style="display:inline;fill:#1e4ed8;fill-opacity:1;stroke-width:0.65984" d="M 1715.0292 821.72908 L 1715.4637 858.11858 L 1716.4413 855.40297 L 1715.7894999999999 820.2083299999999 Z" id="path10-35-50" inkscape:label="rain"></path><path style="display:inline;fill:#1e4ed8;fill-opacity:1;stroke-width:0.65984" d="M 1395.1479 865.12075 L 1395.5824 901.51025 L 1396.56 898.7946400000001 L 1395.9083 863.6 Z" id="path10-35-293" inkscape:label="rain"></path><path style="display:inline;fill:#1e4ed8;fill-opacity:1;stroke-width:0.65984" d="M 727.86873 878.87908 L 728.30323 915.26858 L 729.2808699999999 912.5529700000001 L 728.6290899999999 877.35833 Z" id="path10-35-963" inkscape:label="rain"></path><path style="display:inline;fill:#1e4ed8;fill-opacity:1;stroke-width:0.65984" d="M 372.53331 926.2395 L 372.96781 962.629 L 373.94545 959.91339 L 373.29367 924.71875 Z" id="path10-35-75" inkscape:label="rain"></path><path style="display:inline;fill:#1e4ed8;fill-opacity:1;stroke-width:0.65984" d="M 439.4729 1003.2332 L 439.9074 1039.6228 L 440.88504 1036.9071000000001 L 440.23326000000003 1001.7125000000001 Z" id="path10-35-74" inkscape:label="rain"></path><path style="display:inline;fill:#1e4ed8;fill-opacity:1;stroke-width:0.65984" d="M 1177.925 1031.0145 L 1178.3595 1067.404 L 1179.3371 1064.6884 L 1178.6852999999999 1029.4938 Z" id="path10-35-2930" inkscape:label="rain"></path><path style="display:inline;fill:#1e4ed8;fill-opacity:1;stroke-width:0.65984" d="M 1722.7021 985.50617 L 1723.1366 1021.8957 L 1724.1142 1019.1801 L 1723.4624 983.9854200000001 Z" id="path10-35-30" inkscape:label="rain"></path><path style="display:inline;fill:#1e4ed8;fill-opacity:1;stroke-width:0.65984" d="M 1781.9687 807.70617 L 1782.4032 844.09567 L 1783.3808999999999 841.3800600000001 L 1782.7290999999998 806.18542 Z" id="path10-35-20" inkscape:label="rain"></path><path style="display:inline;fill:#1e4ed8;fill-opacity:1;stroke-width:0.65984" d="M 1359.4292 720.92283 L 1359.8637 757.31233 L 1360.8413 754.59672 L 1360.1895 719.40208 Z" id="path10-35-753" inkscape:label="rain"></path><path style="display:inline;fill:#1e4ed8;fill-opacity:1;stroke-width:0.65984" d="M 865.98123 849.24575 L 866.4157299999999 885.63525 L 867.3933699999999 882.9196400000001 L 866.7415899999999 847.725 Z" id="path10-35-13" inkscape:label="rain"></path><path style="display:inline;fill:#1e4ed8;fill-opacity:1;stroke-width:0.65984" d="M 372.53331 738.64992 L 372.96781 775.03942 L 373.94545 772.32381 L 373.29367 737.1291699999999 Z" id="path10-35-12" inkscape:label="rain"></path><path style="display:inline;fill:#1e4ed8;fill-opacity:1;stroke-width:0.65984" d="M 297.39165 412.94783 L 297.82615000000004 449.33733 L 298.80379000000005 446.62172 L 298.1520100000001 411.42708 Z" id="path10-35-070" inkscape:label="rain"></path><path style="display:inline;fill:#1e4ed8;fill-opacity:1;stroke-width:0.65984" d="M 305.32915 152.33325 L 305.76365000000004 188.72275 L 306.74129000000005 186.00714 L 306.0895100000001 150.8125 Z" id="path10-35-531" inkscape:label="rain"></path><path style="display:inline;fill:#1e4ed8;fill-opacity:1;stroke-width:0.65984" d="M 157.16248 438.61242 L 157.59698 475.00192 L 158.57462 472.28630999999996 L 157.92284 437.09166999999997 Z" id="path10-35-00" inkscape:label="rain"></path><path style="display:inline;fill:#1e4ed8;fill-opacity:1;stroke-width:0.65984" d="M 178.85831 845.277 L 179.29281 881.6665 L 180.27045 878.9508900000001 L 179.61867 843.75625 Z" id="path10-35-56" inkscape:label="rain"></path><path style="display:inline;fill:#1e4ed8;fill-opacity:1;stroke-width:0.65984" d="M 127.52915 523.54367 L 127.96365 559.93317 L 128.94129 557.21756 L 128.28951 522.02292 Z" id="path10-35-68" inkscape:label="rain"></path><path style="display:inline;fill:#1e4ed8;fill-opacity:1;stroke-width:0.65984" d="M 226.21873 101.00408 L 226.65323 137.39358 L 227.63087000000002 134.67797 L 226.97909 99.48333 Z" id="path10-35-49" inkscape:label="rain"></path><path style="display:inline;fill:#1e4ed8;fill-opacity:1;stroke-width:0.65984" d="M 864.12915 156.302 L 864.5636499999999 192.6915 L 865.5412899999999 189.97589 L 864.8895099999999 154.78125 Z" id="path10-35-60" inkscape:label="rain"></path><path style="display:inline;fill:#1e4ed8;fill-opacity:1;stroke-width:0.65984" d="M 1594.3792 185.93533 L 1594.8137000000002 222.32483 L 1595.7913 219.60922 L 1595.1395 184.41458 Z" id="path10-35-73" inkscape:label="rain"></path><path style="display:inline;fill:#1e4ed8;fill-opacity:1;stroke-width:0.65984" d="M 1730.6396 276.68742 L 1731.0741 313.07692 L 1732.0517 310.36130999999995 L 1731.3999 275.16666999999995 Z" id="path10-35-65" inkscape:label="rain"></path><path style="display:inline;fill:#1e4ed8;fill-opacity:1;stroke-width:0.65984" d="M 1685.3958 744.73533 L 1685.8303 781.12483 L 1686.8079 778.40922 L 1686.1562000000001 743.21458 Z" id="path10-35-79" inkscape:label="rain"></path><path style="display:inline;fill:#1e4ed8;fill-opacity:1;stroke-width:0.65984" d="M 1278.7312 902.69158 L 1279.1657 939.08108 L 1280.1434 936.3654700000001 L 1279.4915999999998 901.17083 Z" id="path10-35-23" inkscape:label="rain"></path><path style="display:inline;fill:#1e4ed8;fill-opacity:1;stroke-width:0.65984" d="M 948.79581 296.53117 L 949.2303099999999 332.92067 L 950.2079499999999 330.20505999999995 L 949.5561699999998 295.01041999999995 Z" id="path10-35-54" inkscape:label="rain"></path><path style="display:inline;fill:#1e4ed8;fill-opacity:1;stroke-width:0.65984" d="M 542.13123 217.42075 L 542.5657299999999 253.81025 L 543.5433699999999 251.09464 L 542.89159 215.9 Z" id="path10-35-611" inkscape:label="rain"></path><path style="display:inline;fill:#1e4ed8;fill-opacity:1;stroke-width:0.65984" d="M 325.1729 649.74992 L 325.60740000000004 686.13942 L 326.58504000000005 683.42381 L 325.9332600000001 648.22917 Z" id="path10-35-04" inkscape:label="rain"></path><path style="display:inline;fill:#1e4ed8;fill-opacity:1;stroke-width:0.65984" d="M 107.94998 592.59992 L 108.38448 628.98942 L 109.36211999999999 626.27381 L 108.71033999999999 591.07917 Z" id="path10-35-290" inkscape:label="rain"></path><path style="display:inline;fill:#1e4ed8;fill-opacity:1;stroke-width:0.65984" d="M 609.3354 286.477 L 609.7699 322.8665 L 610.74754 320.15088999999995 L 610.0957599999999 284.95624999999995 Z" id="path10-35-77" inkscape:label="rain"></path><path style="display:inline;fill:#1e4ed8;fill-opacity:1;stroke-width:0.65984" d="M 698.2354 801.88533 L 698.6699 838.27483 L 699.6475399999999 835.55922 L 698.9957599999999 800.3645799999999 Z" id="path10-35-074" inkscape:label="rain"></path><path style="display:inline;fill:#1e4ed8;fill-opacity:1;stroke-width:0.65984" d="M 1618.1917 681.49992 L 1618.6262000000002 717.88942 L 1619.6038 715.17381 L 1618.952 679.97917 Z" id="path10-35-10" inkscape:label="rain"></path><path style="display:inline;fill:#1e4ed8;fill-opacity:1;stroke-width:0.65984" d="M 1734.6083 302.352 L 1735.0428000000002 338.7415 L 1736.0205 336.02588999999995 L 1735.3687 300.83124999999995 Z" id="path10-35-501" inkscape:label="rain"></path><path style="display:inline;fill:#1e4ed8;fill-opacity:1;stroke-width:0.65984" d="M 58.4729 166.09158 L 58.9074 202.48108 L 59.8851 199.76547 L 59.2333 164.57083 Z" id="path10-35-501-0" inkscape:label="rain"></path><path style="display:inline;fill:#1e4ed8;fill-opacity:1;stroke-width:0.65984" d="M 64.5583 389.13533 L 64.9928 425.52483 L 65.9705 422.80922 L 65.3187 387.61458 Z" id="path10-35-501-6" inkscape:label="rain"></path><path style="display:inline;fill:#1e4ed8;fill-opacity:1;stroke-width:0.65984" d="M 38.8937 709.01658 L 39.3282 745.40608 L 40.3059 742.69047 L 39.6541 707.49583 Z" id="path10-35-501-1" inkscape:label="rain"></path><path style="display:inline;fill:#1e4ed8;fill-opacity:1;stroke-width:0.65984" d="M 46.5667 989.47492 L 47.0012 1025.8644 L 47.978899999999996 1023.1487999999999 L 47.327099999999994 987.95417 Z" id="path10-35-501-7" inkscape:label="rain"></path><path style="display:inline;fill:#1e4ed8;fill-opacity:1;stroke-width:0.65984" d="M 1152.2604 683.352 L 1152.6949 719.7415 L 1153.6725999999999 717.02589 L 1153.0207999999998 681.83125 Z" id="path10-35-501-13" inkscape:label="rain"></path><path style="display:inline;fill:#1e4ed8;fill-opacity:1;stroke-width:0.65984" d="M 1811.6021 326.1645 L 1812.0366000000001 362.554 L 1813.0143 359.83838999999995 L 1812.3625 324.64374999999995 Z" id="path10-35-501-2" inkscape:label="rain"></path><path style="display:inline;fill:#1e4ed8;fill-opacity:1;stroke-width:0.65984" d="M 1853.1417 168.20825 L 1853.5762 204.59775 L 1854.5538999999999 201.88214 L 1853.9020999999998 166.6875 Z" id="path10-35-501-4" inkscape:label="rain"></path><path style="display:inline;fill:#1e4ed8;fill-opacity:1;stroke-width:0.65984" d="M 1114.6896 138.57492 L 1115.1241 174.96442 L 1116.1018 172.24881 L 1115.4499999999998 137.05417 Z" id="path10-35-501-9" inkscape:label="rain"></path><path style="display:inline;fill:#1e4ed8;fill-opacity:1;stroke-width:0.65984" d="M 652.7271 314.25825 L 653.1615999999999 350.64775 L 654.1392999999999 347.93213999999995 L 653.4875 312.73749999999995 Z" id="path10-35-501-15" inkscape:label="rain"></path><path style="display:inline;fill:#1e4ed8;fill-opacity:1;stroke-width:0.65984" d="M 1310.2167 391.252 L 1310.6512 427.6415 L 1311.6289 424.92589 L 1310.9770999999998 389.73125 Z" id="path10-35-501-3" inkscape:label="rain"></path><path style="display:inline;fill:#1e4ed8;fill-opacity:1;stroke-width:0.65984" d="M 1507.5958 645.78117 L 1508.0303000000001 682.17067 L 1509.008 679.45506 L 1508.3562 644.26042 Z" id="path10-35-501-5" inkscape:label="rain"></path><path style="display:inline;fill:#1e4ed8;fill-opacity:1;stroke-width:0.65984" d="M 682.3604 866.97283 L 682.7949 903.36233 L 683.7726 900.6467200000001 L 683.1208 865.45208 Z" id="path10-35-501-64" inkscape:label="rain"></path><path style="display:inline;fill:#1e4ed8;fill-opacity:1;stroke-width:0.65984" d="M 445.5583 484.12075 L 445.9928 520.51025 L 446.9705 517.7946400000001 L 446.3187 482.6 Z" id="path10-35-501-91" inkscape:label="rain"></path><path style="display:inline;fill:#1e4ed8;fill-opacity:1;stroke-width:0.65984" d="M 362.4792 653.71867 L 362.9137 690.10817 L 363.89140000000003 687.39256 L 363.23960000000005 652.19792 Z" id="path10-35-501-63" inkscape:label="rain"></path><path style="display:inline;fill:#1e4ed8;fill-opacity:1;stroke-width:0.65984" d="M 743.47917 908.51242 L 743.9136699999999 944.90192 L 744.8913699999999 942.18631 L 744.23957 906.99167 Z" id="path10-35-501-10" inkscape:label="rain"></path><path style="display:inline;fill:#1e4ed8;fill-opacity:1;stroke-width:0.65984" d="M 1087.1729 635.99158 L 1087.6074 672.38108 L 1088.5851 669.66547 L 1087.9333 634.47083 Z" id="path10-35-501-22" inkscape:label="rain"></path><path style="display:inline;fill:#1e4ed8;fill-opacity:1;stroke-width:0.65984" d="M 526.5208 405.01033 L 526.9553 441.39983 L 527.933 438.68422 L 527.2812 403.48958 Z" id="path10-35-501-23" inkscape:label="rain"></path><path style="display:inline;fill:#1e4ed8;fill-opacity:1;stroke-width:0.65984" d="M 1047.75 203.66242 L 1048.1845 240.05192 L 1049.1622 237.33631 L 1048.5104 202.14167 Z" id="path10-35-501-52" inkscape:label="rain"></path><path style="display:inline;fill:#1e4ed8;fill-opacity:1;stroke-width:0.65984" d="M 1620.0438 442.58117 L 1620.4783 478.97067 L 1621.456 476.25505999999996 L 1620.8041999999998 441.06041999999997 Z" id="path10-35-501-25" inkscape:label="rain"></path><path style="display:inline;fill:#1e4ed8;fill-opacity:1;stroke-width:0.65984" d="M 1557.0729 959.84158 L 1557.5074 996.23108 L 1558.4850999999999 993.51547 L 1557.8332999999998 958.32083 Z" id="path10-35-501-50" inkscape:label="rain"></path><path style="display:inline;fill:#1e4ed8;fill-opacity:1;stroke-width:0.65984" d="M 779.19792 874.91033 L 779.6324199999999 911.29983 L 780.6101199999999 908.5842200000001 L 779.95832 873.38958 Z" id="path10-35-501-34" inkscape:label="rain"></path><animateTransform attributeName="transform" attributeType="auto" type="translate" values="0 0;0 2500" calcMode="spline" keyTimes="0;1" keySplines="0 0 1 1" dur="3.98s" begin="0s" repeatCount="1" additive="sum" accumulate="none" id="animateTransform876" style="stroke: none; stroke-width: 1px; stroke-linejoin: miter; stroke-linecap: butt; stroke-miterlimit: 4; opacity: 1; filter: none; fill: rgb(0, 0, 0);"></animateTransform></g><g inkscape:groupmode="layer" id="layer8" inkscape:label="Rain 2" transform="translate(118.6604,-1086.0917)" style="fill: rgb(0, 0, 0); stroke: none; stroke-width: 1px; stroke-linejoin: miter; stroke-linecap: butt; stroke-miterlimit: 4; opacity: 1; filter: none;"><path style="display:inline;fill:#1e4ed8;fill-opacity:1;stroke-width:0.65984" d="M 956.99792 434.90825 L 957.43242 471.29775 L 958.41012 468.58214 L 957.75832 433.3875 Z" id="path10-35-501-34-5" inkscape:label="rain"></path><path style="display:inline;fill:#1e4ed8;fill-opacity:1;stroke-width:0.65984" d="M 1735.9313 133.28325 L 1736.3658 169.67275 L 1737.3434 166.95714 L 1736.6917 131.76250000000002 Z" id="path10-35-501-34-1" inkscape:label="rain"></path><path style="display:inline;fill:#1e4ed8;fill-opacity:1;stroke-width:0.65984" d="M 1802.8708 607.94575 L 1803.3053 644.33525 L 1804.283 641.61964 L 1803.6311999999998 606.425 Z" id="path10-35-501-34-2" inkscape:label="rain"></path><path style="display:inline;fill:#1e4ed8;fill-opacity:1;stroke-width:0.65984" d="M 1749.9542 878.87908 L 1750.3887 915.26858 L 1751.3663999999999 912.5529700000001 L 1750.7145999999998 877.35833 Z" id="path10-35-501-34-7" inkscape:label="rain"></path><path style="display:inline;fill:#1e4ed8;fill-opacity:1;stroke-width:0.65984" d="M 1448.3292 1043.4499 L 1448.7637 1079.8394 L 1449.7413999999999 1077.1238 L 1449.0895999999998 1041.9292 Z" id="path10-35-501-34-3" inkscape:label="rain"></path><path style="display:inline;fill:#1e4ed8;fill-opacity:1;stroke-width:0.65984" d="M 820.20833 1010.1124 L 820.64283 1046.5019 L 821.62053 1043.7863 L 820.96873 1008.5917 Z" id="path10-35-501-34-33" inkscape:label="rain"></path><path style="display:inline;fill:#1e4ed8;fill-opacity:1;stroke-width:0.65984" d="M 256.11667 968.04367 L 256.55117 1004.4332 L 257.52887000000004 1001.7176000000001 L 256.87707000000006 966.5229200000001 Z" id="path10-35-501-34-9" inkscape:label="rain"></path><path style="display:inline;fill:#1e4ed8;fill-opacity:1;stroke-width:0.65984" d="M 203.2 390.19367 L 203.6345 426.58317 L 204.6122 423.86755999999997 L 203.9604 388.67292 Z" id="path10-35-501-34-56" inkscape:label="rain"></path><path style="display:inline;fill:#1e4ed8;fill-opacity:1;stroke-width:0.65984" d="M 267.22917 166.88533 L 267.66367 203.27483 L 268.64137000000005 200.55922 L 267.98957000000007 165.36458000000002 Z" id="path10-35-501-34-4" inkscape:label="rain"></path><path style="display:inline;fill:#1e4ed8;fill-opacity:1;stroke-width:0.65984" d="M 292.36458 753.202 L 292.79908 789.5915 L 293.77678000000003 786.87589 L 293.12498000000005 751.68125 Z" id="path10-35-501-34-30" inkscape:label="rain"></path><path style="display:inline;fill:#1e4ed8;fill-opacity:1;stroke-width:0.65984" d="M 446.0875 312.14158 L 446.522 348.53108 L 447.4997 345.81546999999995 L 446.84790000000004 310.62082999999996 Z" id="path10-35-501-34-29" inkscape:label="rain"></path><path style="display:inline;fill:#1e4ed8;fill-opacity:1;stroke-width:0.65984" d="M 568.85417 839.72075 L 569.2886699999999 876.11025 L 570.2663699999999 873.39464 L 569.61457 838.1999999999999 Z" id="path10-35-501-34-20" inkscape:label="rain"></path><path style="display:inline;fill:#1e4ed8;fill-opacity:1;stroke-width:0.65984" d="M 1096.4333 817.49575 L 1096.8678 853.88525 L 1097.8455 851.1696400000001 L 1097.1936999999998 815.975 Z" id="path10-35-501-34-28" inkscape:label="rain"></path><path style="display:inline;fill:#1e4ed8;fill-opacity:1;stroke-width:0.65984" d="M 1210.9979 267.427 L 1211.4324000000001 303.8165 L 1212.4101 301.10089 L 1211.7583 265.90625 Z" id="path10-35-501-34-43" inkscape:label="rain"></path><path style="display:inline;fill:#1e4ed8;fill-opacity:1;stroke-width:0.65984" d="M 1035.05 850.83325 L 1035.4845 887.22275 L 1036.4622 884.50714 L 1035.8103999999998 849.3125 Z" id="path10-35-501-34-8" inkscape:label="rain"></path><path style="display:inline;fill:#1e4ed8;fill-opacity:1;stroke-width:0.65984" d="M 1177.3958 510.3145 L 1177.8303 546.704 L 1178.808 543.98839 L 1178.1562 508.79375 Z" id="path10-35-501-34-94" inkscape:label="rain"></path><path style="display:inline;fill:#1e4ed8;fill-opacity:1;stroke-width:0.65984" d="M 809.09583 457.13325 L 809.5303299999999 493.52275 L 810.50803 490.80713999999995 L 809.85623 455.61249999999995 Z" id="path10-35-501-34-80" inkscape:label="rain"></path><path style="display:inline;fill:#1e4ed8;fill-opacity:1;stroke-width:0.65984" d="M 1152.525 177.99783 L 1152.9595000000002 214.38733 L 1153.9372 211.67172 L 1153.2854 176.47708 Z" id="path10-35-501-34-27" inkscape:label="rain"></path><path style="display:inline;fill:#1e4ed8;fill-opacity:1;stroke-width:0.65984" d="M 1635.3896 85.92283 L 1635.8241 122.31233 L 1636.8018 119.59672 L 1636.1499999999999 84.40208000000001 Z" id="path10-35-501-34-37" inkscape:label="rain"></path><path style="display:inline;fill:#1e4ed8;fill-opacity:1;stroke-width:0.65984" d="M 1721.9083 454.48742 L 1722.3428000000001 490.87692 L 1723.3205 488.16130999999996 L 1722.6687 452.96666999999997 Z" id="path10-35-501-34-83" inkscape:label="rain"></path><path style="display:inline;fill:#1e4ed8;fill-opacity:1;stroke-width:0.65984" d="M 1716.3521 901.10408 L 1716.7866000000001 937.49358 L 1717.7643 934.77797 L 1717.1125 899.5833299999999 Z" id="path10-35-501-34-93" inkscape:label="rain"></path><path style="display:inline;fill:#1e4ed8;fill-opacity:1;stroke-width:0.65984" d="M 1534.8479 331.45617 L 1535.2824 367.84567 L 1536.2601 365.13005999999996 L 1535.6082999999999 329.93541999999997 Z" id="path10-35-501-34-801" inkscape:label="rain"></path><path style="display:inline;fill:#1e4ed8;fill-opacity:1;stroke-width:0.65984" d="M 1395.4125 158.41867 L 1395.847 194.80817 L 1396.8247 192.09256 L 1396.1728999999998 156.89792 Z" id="path10-35-501-34-0" inkscape:label="rain"></path><path style="display:inline;fill:#1e4ed8;fill-opacity:1;stroke-width:0.65984" d="M 1470.5542 789.44992 L 1470.9887 825.83942 L 1471.9664 823.12381 L 1471.3146 787.92917 Z" id="path10-35-501-34-87" inkscape:label="rain"></path><path style="display:inline;fill:#1e4ed8;fill-opacity:1;stroke-width:0.65984" d="M 1132.9458 457.13325 L 1133.3803 493.52275 L 1134.358 490.80713999999995 L 1133.7061999999999 455.61249999999995 Z" id="path10-35-501-34-58" inkscape:label="rain"></path><path style="display:inline;fill:#1e4ed8;fill-opacity:1;stroke-width:0.65984" d="M 577.32083 108.14783 L 577.75533 144.53733 L 578.73303 141.82172 L 578.08123 106.62708 Z" id="path10-35-501-34-39" inkscape:label="rain"></path><path style="display:inline;fill:#1e4ed8;fill-opacity:1;stroke-width:0.65984" d="M 345.54583 239.38117 L 345.98033000000004 275.77067 L 346.95803000000006 273.05505999999997 L 346.3062300000001 237.86041999999998 Z" id="path10-35-501-34-86" inkscape:label="rain"></path><path style="display:inline;fill:#1e4ed8;fill-opacity:1;stroke-width:0.65984" d="M 233.89167 761.40408 L 234.32617000000002 797.79358 L 235.30387000000002 795.07797 L 234.65207 759.88333 Z" id="path10-35-501-34-96" inkscape:label="rain"></path><path style="display:inline;fill:#1e4ed8;fill-opacity:1;stroke-width:0.65984" d="M 166.6875 233.82492 L 167.122 270.21442 L 168.0997 267.49881 L 167.4479 232.30417 Z" id="path10-35-501-34-53" inkscape:label="rain"></path><path style="display:inline;fill:#1e4ed8;fill-opacity:1;stroke-width:0.65984" d="M 147.37292 46.7645 L 147.80742 83.154 L 148.78512 80.43839 L 148.13332 45.24375 Z" id="path10-35-501-34-6" inkscape:label="rain"></path><path style="display:inline;fill:#1e4ed8;fill-opacity:1;stroke-width:0.65984" d="M 85.725 376.17075 L 86.1595 412.56025 L 87.13719999999999 409.84463999999997 L 86.4854 374.65 Z" id="path10-35-501-34-562" inkscape:label="rain"></path><path style="display:inline;fill:#1e4ed8;fill-opacity:1;stroke-width:0.65984" d="M 91.54583 298.11867 L 91.98033 334.50817 L 92.95803 331.79256 L 92.30623 296.59792 Z" id="path10-35-501-34-61" inkscape:label="rain"></path><path style="display:inline;fill:#1e4ed8;fill-opacity:1;stroke-width:0.65984" d="M 284.1625 789.44992 L 284.59700000000004 825.83942 L 285.57470000000006 823.12381 L 284.9229000000001 787.92917 Z" id="path10-35-501-34-68" inkscape:label="rain"></path><path style="display:inline;fill:#1e4ed8;fill-opacity:1;stroke-width:0.65984" d="M 1051.9833 158.41867 L 1052.4178000000002 194.80817 L 1053.3955 192.09256 L 1052.7437 156.89792 Z" id="path10-35-501-34-01" inkscape:label="rain"></path><path style="display:inline;fill:#1e4ed8;fill-opacity:1;stroke-width:0.65984" d="M 1565.5396 493.38117 L 1565.9741000000001 529.77067 L 1566.9518 527.05506 L 1566.3 491.86042000000003 Z" id="path10-35-501-34-00" inkscape:label="rain"></path><path style="display:inline;fill:#1e4ed8;fill-opacity:1;stroke-width:0.65984" d="M 1724.8188 951.37492 L 1725.2532 987.76442 L 1726.2309 985.04881 L 1725.5792000000001 949.85417 Z" id="path10-35-501-34-62" inkscape:label="rain"></path><path style="display:inline;fill:#1e4ed8;fill-opacity:1;stroke-width:0.65984" d="M 669.39583 887.08117 L 669.83033 923.47067 L 670.80803 920.7550600000001 L 670.15623 885.56042 Z" id="path10-35-501-34-34" inkscape:label="rain"></path><path style="display:inline;fill:#1e4ed8;fill-opacity:1;stroke-width:0.65984" d="M 138.90625 948.72908 L 139.34075 985.11858 L 140.31845 982.40297 L 139.66665 947.2083299999999 Z" id="path10-35-501-34-73" inkscape:label="rain"></path><path style="display:inline;fill:#1e4ed8;fill-opacity:1;stroke-width:0.65984" d="M 1074.2083 836.81033 L 1074.6428 873.19983 L 1075.6205 870.48422 L 1074.9687 835.28958 Z" id="path10-35-501-34-88" inkscape:label="rain"></path><path style="display:inline;fill:#1e4ed8;fill-opacity:1;stroke-width:0.65984" d="M 769.9375 649.74992 L 770.372 686.13942 L 771.3497 683.42381 L 770.6979 648.22917 Z" id="path10-35-501-34-36" inkscape:label="rain"></path><path style="display:inline;fill:#1e4ed8;fill-opacity:1;stroke-width:0.65984" d="M 842.43333 431.99783 L 842.8678299999999 468.38733 L 843.8455299999999 465.67172 L 843.19373 430.47708 Z" id="path10-35-501-34-98" inkscape:label="rain"></path><path style="display:inline;fill:#1e4ed8;fill-opacity:1;stroke-width:0.65984" d="M 1283.4938 426.44158 L 1283.9283 462.83108 L 1284.9059 460.11546999999996 L 1284.2542 424.92082999999997 Z" id="path10-35-501-34-23" inkscape:label="rain"></path><path style="display:inline;fill:#1e4ed8;fill-opacity:1;stroke-width:0.65984" d="M 942.975 451.577 L 943.4095 487.9665 L 944.3872 485.25088999999997 L 943.7354 450.05625 Z" id="path10-35-501-34-89" inkscape:label="rain"></path><path style="display:inline;fill:#1e4ed8;fill-opacity:1;stroke-width:0.65984" d="M 1180.3063 507.40408 L 1180.7408 543.79358 L 1181.7184 541.07797 L 1181.0667 505.88333000000006 Z" id="path10-35-501-34-42" inkscape:label="rain"></path><path style="display:inline;fill:#1e4ed8;fill-opacity:1;stroke-width:0.65984" d="M 1735.9313 264.51658 L 1736.3658 300.90608 L 1737.3434 298.19046999999995 L 1736.6917 262.99582999999996 Z" id="path10-35-501-34-287" inkscape:label="rain"></path><path style="display:inline;fill:#1e4ed8;fill-opacity:1;stroke-width:0.65984" d="M 1705.2396 250.49367 L 1705.6741000000002 286.88317 L 1706.6518 284.16756 L 1706 248.97292 Z" id="path10-35-501-34-19" inkscape:label="rain"></path><path style="display:inline;fill:#1e4ed8;fill-opacity:1;stroke-width:0.65984" d="M 1333.7646 820.14158 L 1334.1991 856.53108 L 1335.1768 853.81547 L 1334.5249999999999 818.62083 Z" id="path10-35-501-34-980" inkscape:label="rain"></path><path style="display:inline;fill:#1e4ed8;fill-opacity:1;stroke-width:0.65984" d="M 1021.2917 468.24575 L 1021.7262 504.63525 L 1022.7039 501.91963999999996 L 1022.0521 466.72499999999997 Z" id="path10-35-501-34-55" inkscape:label="rain"></path><path style="display:inline;fill:#1e4ed8;fill-opacity:1;stroke-width:0.65984" d="M 965.2 144.39575 L 965.6345 180.78525 L 966.6122 178.06964 L 965.9604 142.875 Z" id="path10-35-501-34-24" inkscape:label="rain"></path><path style="display:inline;fill:#1e4ed8;fill-opacity:1;stroke-width:0.65984" d="M 406.92917 574.34367 L 407.36367 610.73317 L 408.34137000000004 608.01756 L 407.68957000000006 572.82292 Z" id="path10-35-501-34-05" inkscape:label="rain"></path><path style="display:inline;fill:#1e4ed8;fill-opacity:1;stroke-width:0.65984" d="M 926.30625 663.77283 L 926.7407499999999 700.16233 L 927.71845 697.44672 L 927.06665 662.25208 Z" id="path10-35-501-34-08" inkscape:label="rain"></path><animateTransform attributeName="transform" attributeType="auto" type="translate" values="0 0;0 2500" calcMode="spline" keyTimes="0;1" keySplines="0 0 1 1" dur="6.02s" begin="0s" repeatCount="1" additive="sum" accumulate="none" id="animateTransform3388" style="stroke: none; stroke-width: 1px; stroke-linejoin: miter; stroke-linecap: butt; stroke-miterlimit: 4; opacity: 1; filter: none; fill: rgb(0, 0, 0);"></animateTransform></g><g inkscape:groupmode="layer" id="layer9" inkscape:label="Rain 3" transform="translate(-110.28437,-1044.2115)" style="fill: rgb(0, 0, 0); stroke: none; stroke-width: 1px; stroke-linejoin: miter; stroke-linecap: butt; stroke-miterlimit: 4; opacity: 1; filter: none;"><path style="display:inline;fill:#1e4ed8;fill-opacity:1;stroke-width:0.65984" d="M 1590.675 272.98325 L 1591.1095 309.37275 L 1592.0872 306.65713999999997 L 1591.4353999999998 271.4625 Z" id="path10-35-501-34-08-6" inkscape:label="rain"></path><path style="display:inline;fill:#1e4ed8;fill-opacity:1;stroke-width:0.65984" d="M 1719.2625 739.17908 L 1719.6970000000001 775.56858 L 1720.6747 772.85297 L 1720.0229 737.65833 Z" id="path10-35-501-34-08-0" inkscape:label="rain"></path><path style="display:inline;fill:#1e4ed8;fill-opacity:1;stroke-width:0.65984" d="M 1652.0583 915.127 L 1652.4928 951.5165 L 1653.4705 948.80089 L 1652.8186999999998 913.6062499999999 Z" id="path10-35-501-34-08-8" inkscape:label="rain"></path><path style="display:inline;fill:#1e4ed8;fill-opacity:1;stroke-width:0.65984" d="M 1749.9542 177.99783 L 1750.3887 214.38733 L 1751.3663999999999 211.67172 L 1750.7145999999998 176.47708 Z" id="path10-35-501-34-08-1" inkscape:label="rain"></path><path style="display:inline;fill:#1e4ed8;fill-opacity:1;stroke-width:0.65984" d="M 1487.4875 398.66033 L 1487.922 435.04983 L 1488.8997 432.33421999999996 L 1488.2478999999998 397.13957999999997 Z" id="path10-35-501-34-08-85" inkscape:label="rain"></path><path style="display:inline;fill:#1e4ed8;fill-opacity:1;stroke-width:0.65984" d="M 1409.1708 714.04367 L 1409.6053000000002 750.43317 L 1410.583 747.71756 L 1409.9312 712.52292 Z" id="path10-35-501-34-08-9" inkscape:label="rain"></path><path style="display:inline;fill:#1e4ed8;fill-opacity:1;stroke-width:0.65984" d="M 1328.2083 356.59158 L 1328.6428 392.98108 L 1329.6205 390.26547 L 1328.9687 355.07083 Z" id="path10-35-501-34-08-97" inkscape:label="rain"></path><path style="display:inline;fill:#1e4ed8;fill-opacity:1;stroke-width:0.65984" d="M 937.41875 180.90825 L 937.85325 217.29775 L 938.83095 214.58214 L 938.17915 179.38750000000002 Z" id="path10-35-501-34-08-5" inkscape:label="rain"></path><path style="display:inline;fill:#1e4ed8;fill-opacity:1;stroke-width:0.65984" d="M 856.45625 834.1645 L 856.8907499999999 870.554 L 857.8684499999999 867.83839 L 857.21665 832.64375 Z" id="path10-35-501-34-08-67" inkscape:label="rain"></path><path style="display:inline;fill:#1e4ed8;fill-opacity:1;stroke-width:0.65984" d="M 348.19167 859.29992 L 348.62617 895.68942 L 349.60387000000003 892.9738100000001 L 348.95207000000005 857.77917 Z" id="path10-35-501-34-08-12" inkscape:label="rain"></path><path style="display:inline;fill:#1e4ed8;fill-opacity:1;stroke-width:0.65984" d="M 384.70417 501.84783 L 385.13867 538.2373299999999 L 386.11637 535.52172 L 385.46457000000004 500.32707999999997 Z" id="path10-35-501-34-08-2" inkscape:label="rain"></path><path style="display:inline;fill:#1e4ed8;fill-opacity:1;stroke-width:0.65984" d="M 264.58333 206.04367 L 265.01783 242.43317 L 265.99553000000003 239.71756 L 265.34373000000005 204.52292 Z" id="path10-35-501-34-08-23" inkscape:label="rain"></path><path style="display:inline;fill:#1e4ed8;fill-opacity:1;stroke-width:0.65984" d="M 119.32708 111.05825 L 119.76158 147.44774999999998 L 120.73928 144.73214 L 120.08748 109.5375 Z" id="path10-35-501-34-08-27" inkscape:label="rain"></path><path style="display:inline;fill:#1e4ed8;fill-opacity:1;stroke-width:0.65984" d="M 847.98958 144.39575 L 848.42408 180.78525 L 849.40178 178.06964 L 848.74998 142.875 Z" id="path10-35-501-34-08-04" inkscape:label="rain"></path><path style="display:inline;fill:#1e4ed8;fill-opacity:1;stroke-width:0.65984" d="M 1342.2313 228.26867 L 1342.6657 264.65817 L 1343.6435 261.94255999999996 L 1342.9916999999998 226.74791999999997 Z" id="path10-35-501-34-08-3" inkscape:label="rain"></path><path style="display:inline;fill:#1e4ed8;fill-opacity:1;stroke-width:0.65984" d="M 1652.0583 373.52492 L 1652.4928 409.91442 L 1653.4705 407.19881 L 1652.8186999999998 372.00417 Z" id="path10-35-501-34-08-88" inkscape:label="rain"></path><path style="display:inline;fill:#1e4ed8;fill-opacity:1;stroke-width:0.65984" d="M 1060.1854 823.052 L 1060.6199000000001 859.4415 L 1061.5976 856.72589 L 1060.9458 821.53125 Z" id="path10-35-501-34-08-98" inkscape:label="rain"></path><path style="display:inline;fill:#1e4ed8;fill-opacity:1;stroke-width:0.65984" d="M 836.87708 507.40408 L 837.3115799999999 543.79358 L 838.28928 541.07797 L 837.63748 505.88333000000006 Z" id="path10-35-501-34-08-99" inkscape:label="rain"></path><path style="display:inline;fill:#1e4ed8;fill-opacity:1;stroke-width:0.65984" d="M 510.11667 560.58533 L 510.55117 596.97483 L 511.52887000000004 594.25922 L 510.87707000000006 559.06458 Z" id="path10-35-501-34-08-986" inkscape:label="rain"></path><path style="display:inline;fill:#1e4ed8;fill-opacity:1;stroke-width:0.65984" d="M 289.71875 912.21658 L 290.15325 948.60608 L 291.13095000000004 945.89047 L 290.47915000000006 910.69583 Z" id="path10-35-501-34-08-26" inkscape:label="rain"></path><path style="display:inline;fill:#1e4ed8;fill-opacity:1;stroke-width:0.65984" d="M 211.40208 839.72075 L 211.83658000000003 876.11025 L 212.81428000000002 873.39464 L 212.16248000000002 838.1999999999999 Z" id="path10-35-501-34-08-82" inkscape:label="rain"></path><path style="display:inline;fill:#1e4ed8;fill-opacity:1;stroke-width:0.65984" d="M 940.32917 446.02075 L 940.7636699999999 482.41025 L 941.74137 479.69464 L 941.08957 444.5 Z" id="path10-35-501-34-08-08" inkscape:label="rain"></path><path style="display:inline;fill:#1e4ed8;fill-opacity:1;stroke-width:0.65984" d="M 1403.6146 906.66033 L 1404.0491000000002 943.04983 L 1405.0268 940.3342200000001 L 1404.375 905.13958 Z" id="path10-35-501-34-08-05" inkscape:label="rain"></path><path style="display:inline;fill:#1e4ed8;fill-opacity:1;stroke-width:0.65984" d="M 1663.4354 968.04367 L 1663.8699000000001 1004.4332 L 1664.8476 1001.7176000000001 L 1664.1958 966.5229200000001 Z" id="path10-35-501-34-08-7" inkscape:label="rain"></path><path style="display:inline;fill:#1e4ed8;fill-opacity:1;stroke-width:0.65984" d="M 1375.8333 864.85617 L 1376.2678 901.24567 L 1377.2455 898.53006 L 1376.5937 863.33542 Z" id="path10-35-501-34-08-60" inkscape:label="rain"></path><path style="display:inline;fill:#1e4ed8;fill-opacity:1;stroke-width:0.65984" d="M 1777.7354 328.81033 L 1778.1699 365.19983 L 1779.1476 362.48422 L 1778.4958 327.28958 Z" id="path10-35-501-34-08-00" inkscape:label="rain"></path><path style="display:inline;fill:#1e4ed8;fill-opacity:1;stroke-width:0.65984" d="M 1839.1188 287.00617 L 1839.5533 323.39567 L 1840.5309 320.68005999999997 L 1839.8792 285.48542 Z" id="path10-35-501-34-08-52" inkscape:label="rain"></path><path style="display:inline;fill:#1e4ed8;fill-opacity:1;stroke-width:0.65984" d="M 1791.7583 661.127 L 1792.1928 697.5165 L 1793.1705 694.80089 L 1792.5186999999999 659.6062499999999 Z" id="path10-35-501-34-08-4" inkscape:label="rain"></path><path style="display:inline;fill:#1e4ed8;fill-opacity:1;stroke-width:0.65984" d="M 1730.375 803.47283 L 1730.8095 839.86233 L 1731.7872 837.1467200000001 L 1731.1354 801.95208 Z" id="path10-35-501-34-08-35" inkscape:label="rain"></path><path style="display:inline;fill:#1e4ed8;fill-opacity:1;stroke-width:0.65984" d="M 895.61458 755.84783 L 896.04908 792.23733 L 897.02678 789.5217200000001 L 896.37498 754.32708 Z" id="path10-35-501-34-08-84" inkscape:label="rain"></path><path style="display:inline;fill:#1e4ed8;fill-opacity:1;stroke-width:0.65984" d="M 242.09375 415.32908 L 242.52825 451.71858 L 243.50595 449.00296999999995 L 242.85415 413.80832999999996 Z" id="path10-35-501-34-08-21" inkscape:label="rain"></path><path style="display:inline;fill:#1e4ed8;fill-opacity:1;stroke-width:0.65984" d="M 116.68125 292.56242 L 117.11575 328.95192 L 118.09345 326.23630999999995 L 117.44165000000001 291.04166999999995 Z" id="path10-35-501-34-08-30" inkscape:label="rain"></path><path style="display:inline;fill:#1e4ed8;fill-opacity:1;stroke-width:0.65984" d="M 113.77083 621.96867 L 114.20533 658.35817 L 115.18303 655.64256 L 114.53123000000001 620.44792 Z" id="path10-35-501-34-08-678" inkscape:label="rain"></path><path style="display:inline;fill:#1e4ed8;fill-opacity:1;stroke-width:0.65984" d="M 138.90625 761.40408 L 139.34075 797.79358 L 140.31845 795.07797 L 139.66665 759.88333 Z" id="path10-35-501-34-08-19" inkscape:label="rain"></path><path style="display:inline;fill:#1e4ed8;fill-opacity:1;stroke-width:0.65984" d="M 1250.1563 599.47908 L 1250.5907000000002 635.86858 L 1251.5685 633.15297 L 1250.9167 597.9583299999999 Z" id="path10-35-501-34-08-73" inkscape:label="rain"></path><path style="display:inline;fill:#1e4ed8;fill-opacity:1;stroke-width:0.65984" d="M 1705.2396 518.51658 L 1705.6741000000002 554.90608 L 1706.6518 552.19047 L 1706 516.99583 Z" id="path10-35-501-34-08-15" inkscape:label="rain"></path><path style="display:inline;fill:#1e4ed8;fill-opacity:1;stroke-width:0.65984" d="M 1707.8854 845.277 L 1708.3199 881.6665 L 1709.2975999999999 878.9508900000001 L 1708.6457999999998 843.75625 Z" id="path10-35-501-34-08-66" inkscape:label="rain"></path><path style="display:inline;fill:#1e4ed8;fill-opacity:1;stroke-width:0.65984" d="M 1272.3813 901.10408 L 1272.8158 937.49358 L 1273.7934 934.77797 L 1273.1417000000001 899.5833299999999 Z" id="path10-35-501-34-08-49" inkscape:label="rain"></path><path style="display:inline;fill:#1e4ed8;fill-opacity:1;stroke-width:0.65984" d="M 482.33542 870.41242 L 482.76992 906.80192 L 483.74762000000004 904.08631 L 483.09582000000006 868.89167 Z" id="path10-35-501-34-08-95" inkscape:label="rain"></path><path style="display:inline;fill:#1e4ed8;fill-opacity:1;stroke-width:0.65984" d="M 306.3875 998.73533 L 306.822 1035.1248 L 307.79970000000003 1032.4092 L 307.14790000000005 997.2145800000001 Z" id="path10-35-501-34-08-59" inkscape:label="rain"></path><path style="display:inline;fill:#1e4ed8;fill-opacity:1;stroke-width:0.65984" d="M 1568.45 996.0895 L 1568.8845000000001 1032.479 L 1569.8622 1029.7634 L 1569.2104 994.56875 Z" id="path10-35-501-34-08-90" inkscape:label="rain"></path><animateTransform attributeName="transform" attributeType="auto" type="translate" values="0 0;0 2500" calcMode="spline" keyTimes="0;1" keySplines="0 0 1 1" dur="7.94s" begin="0s" repeatCount="1" additive="sum" accumulate="none" id="animateTransform5190" style="stroke: none; stroke-width: 1px; stroke-linejoin: miter; stroke-linecap: butt; stroke-miterlimit: 4; opacity: 1; filter: none; fill: rgb(0, 0, 0);"></animateTransform></g></g>></svg>