<?xml version="1.0" encoding="UTF-8" standalone="no"?>
<!-- Created with Inkscape (http://www.inkscape.org/) -->

<svg
   width="210mm"
   height="297mm"
   viewBox="0 0 210 297"
   version="1.1"
   id="svg1"
   inkscape:version="1.4.3 (0d15f75, 2025-12-25)"
   sodipodi:docname="summer full.svg"
   xml:space="preserve"
   xmlns:inkscape="http://www.inkscape.org/namespaces/inkscape"
   xmlns:sodipodi="http://sodipodi.sourceforge.net/DTD/sodipodi-0.dtd"
   xmlns:xlink="http://www.w3.org/1999/xlink"
   xmlns="http://www.w3.org/2000/svg"
   xmlns:svg="http://www.w3.org/2000/svg"><sodipodi:namedview
     id="namedview1"
     pagecolor="#ffffff"
     bordercolor="#000000"
     borderopacity="0.25"
     inkscape:showpageshadow="2"
     inkscape:pageopacity="0.0"
     inkscape:pagecheckerboard="0"
     inkscape:deskcolor="#d1d1d1"
     inkscape:document-units="mm"
     inkscape:zoom="0.53606888"
     inkscape:cx="52.232094"
     inkscape:cy="631.44871"
     inkscape:window-width="1920"
     inkscape:window-height="1111"
     inkscape:window-x="-9"
     inkscape:window-y="-9"
     inkscape:window-maximized="1"
     inkscape:current-layer="layer5" /><defs
     id="defs1"><linearGradient
       id="linearGradient7"
       inkscape:collect="always"><stop
         style="stop-color:#bfd1dc;stop-opacity:1;"
         offset="0"
         id="stop7" /><stop
         style="stop-color:#c7d6dd;stop-opacity:1;"
         offset="0.38147011"
         id="stop10" /><stop
         style="stop-color:#e16b5c;stop-opacity:1;"
         offset="1"
         id="stop8" /></linearGradient><linearGradient
       inkscape:collect="always"
       xlink:href="#linearGradient7"
       id="linearGradient8"
       x1="109.88719"
       y1="3.4478526"
       x2="115.06703"
       y2="296.90793"
       gradientUnits="userSpaceOnUse"
       spreadMethod="pad" /></defs><g
     inkscape:groupmode="layer"
     id="layer3"
     inkscape:label="Sky"
     style="display:inline;fill:#000000"><path
       style="fill:url(#linearGradient8);fill-opacity:1;stroke-width:0.264583;opacity:1;fill-rule:nonzero"
       d="m 67.124457,-25.171672 c -36.030039,-0.493562 -96.244625,21.7167368 -96.244625,21.7167368 l 8.884118,97.2317502 c 0,0 5.429184,39.978535 -13.326179,79.463515 -18.755362,39.48497 25.6652339,183.11156 25.6652339,183.11156 L 248.26178,336.11584 c 0,0 52.31758,-46.39484 23.69099,-145.10727 -28.62661,-98.71244 -28.62661,-98.71244 -28.62661,-98.71244 0,0 11.35193,-101.1802495 -27.63948,-115.493553 -38.99142,-14.313304 -148.562223,-1.974249 -148.562223,-1.974249 z"
       id="path4" /></g><g
     inkscape:groupmode="layer"
     id="layer2"
     inkscape:label="Clouds"><path
       style="fill:#f5f7f4;fill-opacity:1;stroke-width:0.264999"
       d="m 4.44206,50.836906 h 129.80685 c 0,0 2.46781,-28.626608 -9.87124,-28.626608 -12.33905,0 -17.27468,4.44206 -17.27468,4.44206 0,0 -9.377677,-28.6266068 -20.729606,-22.2102983 C 75.021452,10.858368 73.047205,22.210298 73.047205,22.210298 c 0,0 -2.961372,-27.639482 -15.793989,-20.2360494 C 44.420597,9.3776814 43.433473,22.70386 43.433473,22.70386 c 0,0 -13.326179,-33.562229 -24.184548,-26.6523576 C 8.390558,2.961373 6.909871,16.781114 6.909871,16.781114 c 0,0 -14.313304,-19.7424872 -22.210299,-2.961373 -7.896995,16.781115 -4.442058,35.536478 -4.442058,35.536478 z"
       id="path7" /><path
       style="fill:#cfcfcf;fill-opacity:1;stroke-width:0.264999"
       d="M 41.952785,86.373385 154.48497,85.879821 c 0,0 10.85837,-19.742486 -4.44206,-32.575103 -15.30043,-12.832617 -22.70386,9.37768 -22.70386,9.37768 0,0 -5.42918,-29.120168 -24.67811,-17.274675 -19.248931,11.845491 -17.768243,18.755363 -17.768243,18.755363 0,0 -18.261801,-27.145922 -29.120169,-19.248927 -10.85837,7.896998 -14.806866,10.364806 -16.781115,19.742489 -1.97425,9.377682 2.961372,21.716737 2.961372,21.716737 z"
       id="path8" /><path
       style="fill:#e3e3e3;fill-opacity:1;stroke-width:0.264999"
       d="M 214.20598,63.669523 112.03861,63.175961 c 0,0 -19.248921,-25.171672 3.45493,-33.068667 22.70386,-7.896996 23.19742,13.326179 23.19742,13.326179 0,0 -0.98712,-31.587981 18.75537,-27.145921 19.74249,4.44206 17.27467,24.67811 17.27467,24.67811 0,0 -3.94849,-30.600856 23.69099,-25.665234 27.63948,4.935622 12.33905,26.158795 12.33905,26.158795 0,0 22.2103,-19.742487 23.19743,3.454937 0.98712,23.197423 -19.74249,18.755363 -19.74249,18.755363 z"
       id="path9" /></g><g
     inkscape:groupmode="layer"
     id="layer4"
     inkscape:label="Sun"
     style="display:inline"><ellipse
       style="fill:#d94a45;fill-opacity:1;stroke-width:0.265;stroke-dasharray:none"
       id="path6"
       cx="164.84976"
       cy="171.26608"
       rx="54.785404"
       ry="52.811153" /></g><g
     inkscape:label="Foreground 3"
     inkscape:groupmode="layer"
     id="layer1-4"
     transform="translate(-1.0926367,-95.495827)"
     style="display:inline"><path
       style="fill:#b4cbd2;fill-opacity:1;stroke-width:0.264999"
       d="m -49.744268,428.15674 38.004288,-159.91414 8.8841194,5.42918 4.9356219,-5.42918 17.2746767,51.33046 25.171673,-52.81115 9.871242,4.44206 17.274677,-3.45494 25.171672,7.40344 13.819748,-13.32618 13.32618,25.66523 17.27467,-22.70386 10.36481,13.32618 5.92275,-8.39056 12.83261,3.45494 6.90987,-4.93562 5.42919,17.27467 13.32618,18.75537 8.88411,-35.04292 6.90988,-2.46781 16.78111,43.43347 12.83262,101.67382 -59.22747,29.12017 z"
       id="path2" /></g><g
     inkscape:label="Foreground 2"
     inkscape:groupmode="layer"
     id="layer1-5"
     transform="translate(-1.0926367,-95.495827)"
     style="display:inline"><path
       style="fill:#bfd6cc;fill-opacity:1;stroke-width:0.264999"
       d="m -30.495344,328.95074 -16.287552,62.18885 c 0,0 46.39484605,61.69525 50.8369065,61.69525 4.442059,0 270.4720795,-46.8884 270.4720795,-46.8884 L 225.66344,297.85633 c 0,0 -44.91416,-16.78112 -107.59656,0.98712 -62.682403,17.76824 -115.4935569,43.92703 -131.781109,37.01716 -16.287553,-6.90987 -16.781115,-6.90987 -16.781115,-6.90987 z"
       id="path3" /></g><g
     inkscape:label="Foreground 1"
     inkscape:groupmode="layer"
     id="layer1"
     style="display:inline"><path
       style="fill:#afcfc1;fill-opacity:1;stroke-width:0.264999"
       d="m 224.07723,234.93561 26.15879,62.68238 -41.45922,52.81118 c 0,0 -237.89697,-7.40344 -237.403408,-11.35195 0.493564,-3.94848 -4.935622,-114.01286 -4.935622,-114.01286 0,0 31.0944191,-19.24892 109.077245,9.37768 77.982815,28.62661 148.562215,0.49357 148.562215,0.49357 z"
       id="path5" /></g><g
     inkscape:groupmode="layer"
     id="layer5"
     inkscape:label="Rain"
     style="display:inline"><path
       style="fill:#8cb3c6;fill-opacity:1;stroke-width:0.264999"
       d="M 4.644372,51.811667 4.8188727,66.426091 5.211499,65.335463 4.949748,51.200914 Z"
       id="path10" /><path
       style="fill:#8cb3c6;fill-opacity:1;stroke-width:0.264999"
       d="m 15.875,54.585752 0.174501,14.614424 0.392626,-1.090628 -0.261751,-14.134549 z"
       id="path10-8" /><path
       style="fill:#8cb3c6;fill-opacity:1;stroke-width:0.264999"
       d="m 13.49375,88.717002 0.174501,14.614428 0.392626,-1.09063 -0.261751,-14.134551 z"
       id="path10-7" /><path
       style="fill:#8cb3c6;fill-opacity:1;stroke-width:0.264999"
       d="M 39.158333,64.110752 39.332834,78.725176 39.72546,77.634548 39.463709,63.499999 Z"
       id="path10-86" /><path
       style="fill:#8cb3c6;fill-opacity:1;stroke-width:0.264999"
       d="m 38.629167,97.712835 0.174501,14.614425 0.392626,-1.09063 -0.261751,-14.134548 z"
       id="path10-6" /><path
       style="fill:#8cb3c6;fill-opacity:1;stroke-width:0.264999"
       d="m 31.75,107.50242 0.174501,14.61442 0.392626,-1.09062 -0.261751,-14.13455 z"
       id="path10-65" /><path
       style="fill:#8cb3c6;fill-opacity:1;stroke-width:0.264999"
       d="m 67.733333,99.035752 0.174501,14.614428 0.392626,-1.09063 -0.261751,-14.134551 z"
       id="path10-61" /><path
       style="fill:#8cb3c6;fill-opacity:1;stroke-width:0.264999"
       d="m 64.29375,74.429502 0.174501,14.614424 0.392626,-1.090628 -0.261751,-14.134549 z"
       id="path10-4" /><path
       style="fill:#8cb3c6;fill-opacity:1;stroke-width:0.264999"
       d="M 79.639583,49.294085 79.814084,63.908509 80.20671,62.817881 79.944959,48.683332 Z"
       id="path10-618" /><path
       style="fill:#8cb3c6;fill-opacity:1;stroke-width:0.264999"
       d="m 100.27708,64.639919 0.1745,14.614424 0.39263,-1.090628 -0.26175,-14.134549 z"
       id="path10-78" /><path
       style="fill:#8cb3c6;fill-opacity:1;stroke-width:0.264999"
       d="m 88.10625,105.65033 0.174501,14.61443 0.392626,-1.09063 -0.261751,-14.13455 z"
       id="path10-3" /><path
       style="fill:#8cb3c6;fill-opacity:1;stroke-width:0.264999"
       d="m 109.27291,129.19825 0.1745,14.61443 0.39263,-1.09063 -0.26175,-14.13455 z"
       id="path10-0" /><path
       style="fill:#8cb3c6;fill-opacity:1;stroke-width:0.264999"
       d="m 130.96875,93.214919 0.1745,14.614421 0.39263,-1.09062 -0.26175,-14.134554 z"
       id="path10-1" /><path
       style="fill:#8cb3c6;fill-opacity:1;stroke-width:0.264999"
       d="m 133.35,51.675335 0.1745,14.614424 0.39263,-1.090628 -0.26175,-14.134549 z"
       id="path10-9" /><path
       style="fill:#8cb3c6;fill-opacity:1;stroke-width:0.264999"
       d="m 165.62916,52.733669 0.1745,14.614424 0.39263,-1.090628 -0.26175,-14.134549 z"
       id="path10-60" /><path
       style="fill:#8cb3c6;fill-opacity:1;stroke-width:0.264999"
       d="m 143.40416,95.067002 0.1745,14.614428 0.39263,-1.09063 -0.26175,-14.134551 z"
       id="path10-5" /><path
       style="fill:#8cb3c6;fill-opacity:1;stroke-width:0.264999"
       d="m 161.66041,129.19825 0.1745,14.61443 0.39263,-1.09063 -0.26175,-14.13455 z"
       id="path10-01" /><path
       style="fill:#8cb3c6;fill-opacity:1;stroke-width:0.264999"
       d="m 185.20833,69.137835 0.1745,14.614424 0.39263,-1.090628 -0.26175,-14.134549 z"
       id="path10-17" /><path
       style="fill:#8cb3c6;fill-opacity:1;stroke-width:0.264999"
       d="m 194.20416,77.339919 0.1745,14.614424 0.39263,-1.090628 -0.26175,-14.134549 z"
       id="path10-35" /><path
       style="fill:#8cb3c6;fill-opacity:1;stroke-width:0.264999"
       d="m 191.82291,149.83575 0.1745,14.61443 0.39263,-1.09063 -0.26175,-14.13455 z"
       id="path10-82" /><path
       style="fill:#8cb3c6;fill-opacity:1;stroke-width:0.264999"
       d="m 178.85833,185.5545 0.1745,14.61442 0.39263,-1.09063 -0.26175,-14.13455 z"
       id="path10-80" /><path
       style="fill:#8cb3c6;fill-opacity:1;stroke-width:0.264999"
       d="m 144.19791,157.24409 0.1745,14.61442 0.39263,-1.09063 -0.26175,-14.13455 z"
       id="path10-94" /><path
       style="fill:#8cb3c6;fill-opacity:1;stroke-width:0.264999"
       d="m 119.0625,146.39617 0.1745,14.61442 0.39263,-1.09063 -0.26175,-14.13454 z"
       id="path10-12" /><path
       style="fill:#8cb3c6;fill-opacity:1;stroke-width:0.264999"
       d="m 116.68125,212.542 0.1745,14.61442 0.39263,-1.09063 -0.26175,-14.13455 z"
       id="path10-06" /><path
       style="fill:#8cb3c6;fill-opacity:1;stroke-width:0.264999"
       d="m 125.14791,245.08575 0.1745,14.61442 0.39263,-1.09063 -0.26175,-14.13455 z"
       id="path10-41" /><path
       style="fill:#8cb3c6;fill-opacity:1;stroke-width:0.264999"
       d="m 155.31041,193.75659 0.1745,14.61442 0.39263,-1.09063 -0.26175,-14.13455 z"
       id="path10-808" /><path
       style="fill:#8cb3c6;fill-opacity:1;stroke-width:0.264999"
       d="m 168.01041,146.92534 0.1745,14.61442 0.39263,-1.09063 -0.26175,-14.13455 z"
       id="path10-83" /><path
       style="fill:#8cb3c6;fill-opacity:1;stroke-width:0.264999"
       d="m 184.41458,210.68992 0.1745,14.61442 0.39263,-1.09063 -0.26175,-14.13455 z"
       id="path10-34" /><path
       style="fill:#8cb3c6;fill-opacity:1;stroke-width:0.264999"
       d="m 190.76458,260.96075 0.1745,14.61442 0.39263,-1.09063 -0.26175,-14.13455 z"
       id="path10-09" /><path
       style="fill:#8cb3c6;fill-opacity:1;stroke-width:0.264999"
       d="m 171.45,305.93992 0.1745,14.61442 0.39263,-1.09063 -0.26175,-14.13455 z"
       id="path10-48" /><path
       style="fill:#8cb3c6;fill-opacity:1;stroke-width:0.264999"
       d="m 122.50208,256.19825 0.1745,14.61442 0.39263,-1.09063 -0.26175,-14.13455 z"
       id="path10-55" /><path
       style="fill:#8cb3c6;fill-opacity:1;stroke-width:0.264999"
       d="m 107.42083,210.68992 0.1745,14.61442 0.39263,-1.09063 -0.26175,-14.13455 z"
       id="path10-43" /><path
       style="fill:#8cb3c6;fill-opacity:1;stroke-width:0.264999"
       d="m 86.51875,154.33367 0.174501,14.61442 0.392626,-1.09063 -0.261751,-14.13455 z"
       id="path10-068" /><path
       style="fill:#8cb3c6;fill-opacity:1;stroke-width:0.264999"
       d="m 82.020833,199.842 0.174501,14.61442 0.392626,-1.09063 -0.261751,-14.13455 z"
       id="path10-72" /><path
       style="fill:#8cb3c6;fill-opacity:1;stroke-width:0.264999"
       d="m 91.016667,259.10867 0.174501,14.61442 0.392626,-1.09063 -0.261751,-14.13455 z"
       id="path10-90" /><path
       style="fill:#8cb3c6;fill-opacity:1;stroke-width:0.264999"
       d="m 52.916667,277.36492 0.174501,14.61442 0.392626,-1.09063 -0.261751,-14.13455 z"
       id="path10-861" /><path
       style="fill:#8cb3c6;fill-opacity:1;stroke-width:0.264999"
       d="M 5.55625,272.867 5.7307507,287.48142 6.123377,286.39079 5.861626,272.25624 Z"
       id="path10-862" /><path
       style="fill:#8cb3c6;fill-opacity:1;stroke-width:0.264999"
       d="m 36.777083,191.9045 0.174501,14.61442 0.392626,-1.09063 -0.261751,-14.13455 z"
       id="path10-2" /><path
       style="fill:#8cb3c6;fill-opacity:1;stroke-width:0.264999"
       d="m 37.30625,122.31909 0.174501,14.61442 0.392626,-1.09063 -0.261751,-14.13455 z"
       id="path10-21" /><path
       style="fill:#8cb3c6;fill-opacity:1;stroke-width:0.264999"
       d="m 12.435417,151.42325 0.1745,14.61443 0.392627,-1.09063 -0.261751,-14.13455 z"
       id="path10-29" /><path
       style="fill:#8cb3c6;fill-opacity:1;stroke-width:0.264999"
       d="m 8.9958333,208.57325 0.1745007,14.61442 0.3926263,-1.09063 -0.261751,-14.13455 z"
       id="path10-39" /><path
       style="fill:#8cb3c6;fill-opacity:1;stroke-width:0.264999"
       d="m -3.175,259.10867 0.1745007,14.61442 0.3926263,-1.09063 -0.261751,-14.13455 z"
       id="path10-53" /><path
       style="fill:#8cb3c6;fill-opacity:1;stroke-width:0.264999"
       d="m 38.629167,272.867 0.174501,14.61442 0.392626,-1.09063 -0.261751,-14.13455 z"
       id="path10-867" /><path
       style="fill:#8cb3c6;fill-opacity:1;stroke-width:0.264999"
       d="m 66.939583,196.40242 0.174501,14.61442 0.392626,-1.09063 -0.261751,-14.13455 z"
       id="path10-419" /><path
       style="fill:#8cb3c6;fill-opacity:1;stroke-width:0.264999"
       d="m 96.572917,126.817 0.174501,14.61443 0.392626,-1.09063 -0.261751,-14.13455 z"
       id="path10-554" /><path
       style="fill:#8cb3c6;fill-opacity:1;stroke-width:0.264999"
       d="m 156.63333,97.712835 0.1745,14.614425 0.39263,-1.09063 -0.26175,-14.134548 z"
       id="path10-08" /><path
       style="fill:#8cb3c6;fill-opacity:1;stroke-width:0.264999"
       d="m 178.85833,135.01909 0.1745,14.61442 0.39263,-1.09063 -0.26175,-14.13455 z"
       id="path10-67" /><path
       style="fill:#8cb3c6;fill-opacity:1;stroke-width:0.264999"
       d="m 119.59166,204.6045 0.1745,14.61442 0.39263,-1.09063 -0.26175,-14.13455 z"
       id="path10-93" /><path
       style="fill:#8cb3c6;fill-opacity:1;stroke-width:0.264999"
       d="m 115.62291,262.01909 0.1745,14.61442 0.39263,-1.09063 -0.26175,-14.13455 z"
       id="path10-58" /><path
       style="fill:#8cb3c6;fill-opacity:1;stroke-width:0.264999"
       d="m 167.48125,221.00867 0.1745,14.61442 0.39263,-1.09063 -0.26175,-14.13455 z"
       id="path10-16" /><path
       style="fill:#8cb3c6;fill-opacity:1;stroke-width:0.264999"
       d="m 153.19375,123.90659 0.1745,14.61442 0.39263,-1.09063 -0.26175,-14.13455 z"
       id="path10-553" /><path
       style="fill:#8cb3c6;fill-opacity:1;stroke-width:0.264999"
       d="m 129.91041,94.273252 0.1745,14.614428 0.39263,-1.09063 -0.26175,-14.134551 z"
       id="path10-36" /><path
       style="fill:#8cb3c6;fill-opacity:1;stroke-width:0.264999"
       d="m 87.047917,121.26075 0.174501,14.61443 0.392626,-1.09063 L 87.353293,120.65 Z"
       id="path10-14" /><path
       style="fill:#8cb3c6;fill-opacity:1;stroke-width:0.264999"
       d="m 44.714583,190.05242 0.174501,14.61442 0.392626,-1.09063 -0.261751,-14.13455 z"
       id="path10-50" /><path
       style="fill:#8cb3c6;fill-opacity:1;stroke-width:0.264999"
       d="m 60.854167,249.0545 0.174501,14.61442 0.392626,-1.09063 -0.261751,-14.13455 z"
       id="path10-293" /><path
       style="fill:#8cb3c6;fill-opacity:1;stroke-width:0.264999"
       d="m 22.489583,238.73575 0.174501,14.61442 0.392626,-1.09063 -0.261751,-14.13455 z"
       id="path10-96" /><path
       style="fill:#8cb3c6;fill-opacity:1;stroke-width:0.264999"
       d="m 34.395833,132.63783 0.174501,14.61443 0.392626,-1.09063 -0.261751,-14.13455 z"
       id="path10-87" /><path
       style="fill:#8cb3c6;fill-opacity:1;stroke-width:0.264999"
       d="m 59.53125,65.962835 0.174501,14.614424 0.392626,-1.090628 -0.261751,-14.134549 z"
       id="path10-57" /><path
       style="fill:#8cb3c6;fill-opacity:1;stroke-width:0.264999"
       d="m 108.21458,89.246169 0.1745,14.614421 0.39263,-1.09062 -0.26175,-14.134554 z"
       id="path10-42" /><path
       style="fill:#8cb3c6;fill-opacity:1;stroke-width:0.264999"
       d="m 74.347917,194.81492 0.174501,14.61442 0.392626,-1.09063 -0.261751,-14.13455 z"
       id="path10-787" /><path
       style="fill:#8cb3c6;fill-opacity:1;stroke-width:0.264999"
       d="m 118.26875,241.64617 0.1745,14.61442 0.39263,-1.09063 -0.26175,-14.13455 z"
       id="path10-25" /><path
       style="fill:#8cb3c6;fill-opacity:1;stroke-width:0.264999"
       d="m 168.01041,198.2545 0.1745,14.61442 0.39263,-1.09063 -0.26175,-14.13455 z"
       id="path10-297" /><path
       style="fill:#8cb3c6;fill-opacity:1;stroke-width:0.264999"
       d="m 189.17708,99.564919 0.1745,14.614421 0.39263,-1.09062 -0.26175,-14.134554 z"
       id="path10-211" /><path
       style="fill:#8cb3c6;fill-opacity:1;stroke-width:0.264999"
       d="m 200.55416,52.733669 0.1745,14.614424 0.39263,-1.090628 -0.26175,-14.134549 z"
       id="path10-51" /><path
       style="fill:#8cb3c6;fill-opacity:1;stroke-width:0.264999"
       d="m 190.76458,177.617 0.1745,14.61442 0.39263,-1.09063 -0.26175,-14.13455 z"
       id="path10-40" /><path
       style="fill:#8cb3c6;fill-opacity:1;stroke-width:0.264999"
       d="m 173.0375,265.45867 0.1745,14.61442 0.39263,-1.09063 -0.26175,-14.13455 z"
       id="path10-00" /><path
       style="fill:#8cb3c6;fill-opacity:1;stroke-width:0.264999"
       d="m 186.26666,286.62534 0.1745,14.61442 0.39263,-1.09063 -0.26175,-14.13455 z"
       id="path10-675" /><path
       style="fill:#8cb3c6;fill-opacity:1;stroke-width:0.264999"
       d="m 155.31041,223.12534 0.1745,14.61442 0.39263,-1.09063 -0.26175,-14.13455 z"
       id="path10-49" /><path
       style="fill:#8cb3c6;fill-opacity:1;stroke-width:0.264999"
       d="m 61.383333,237.67742 0.174501,14.61442 0.392626,-1.09063 -0.261751,-14.13455 z"
       id="path10-216" /><path
       style="fill:#8cb3c6;fill-opacity:1;stroke-width:0.264999"
       d="M 7.14375,240.85242 7.3182507,255.46684 7.710877,254.37621 7.449126,240.24166 Z"
       id="path10-84" /><path
       style="fill:#8cb3c6;fill-opacity:1;stroke-width:0.264999"
       d="m 53.975,273.39617 0.174501,14.61442 0.392626,-1.09063 -0.261751,-14.13455 z"
       id="path10-060" /><path
       style="fill:#8cb3c6;fill-opacity:1;stroke-width:0.264999"
       d="m 120.65,263.87117 0.1745,14.61442 0.39263,-1.09063 -0.26175,-14.13455 z"
       id="path10-73" /><path
       style="fill:#8cb3c6;fill-opacity:1;stroke-width:0.264999"
       d="m 195.2625,214.1295 0.1745,14.61442 0.39263,-1.09063 -0.26175,-14.13455 z"
       id="path10-657" /><path
       style="fill:#8cb3c6;fill-opacity:1;stroke-width:0.264999"
       d="m 146.31458,189.52325 0.1745,14.61442 0.39263,-1.09063 -0.26175,-14.13455 z"
       id="path10-98" /><path
       style="fill:#8cb3c6;fill-opacity:1;stroke-width:0.264999"
       d="m 61.383333,191.37534 0.174501,14.61442 0.392626,-1.09063 -0.261751,-14.13455 z"
       id="path10-367" /><path
       style="fill:#8cb3c6;fill-opacity:1;stroke-width:0.264999"
       d="m 25.929167,183.967 0.174501,14.61442 0.392626,-1.09063 -0.261751,-14.13455 z"
       id="path10-02" /><path
       style="fill:#8cb3c6;fill-opacity:1;stroke-width:0.264999"
       d="m 41.539583,150.36492 0.174501,14.61442 0.392626,-1.09063 -0.261751,-14.13454 z"
       id="path10-11" /><path
       style="fill:#8cb3c6;fill-opacity:1;stroke-width:0.264999"
       d="m 112.7125,153.8045 0.1745,14.61442 0.39263,-1.09063 -0.26175,-14.13455 z"
       id="path10-483" /><path
       style="fill:#8cb3c6;fill-opacity:1;stroke-width:0.264999"
       d="m 180.44583,151.42325 0.1745,14.61443 0.39263,-1.09063 -0.26175,-14.13455 z"
       id="path10-03" /><path
       style="fill:#8cb3c6;fill-opacity:1;stroke-width:0.264999"
       d="m 198.17291,111.47117 0.1745,14.61442 0.39263,-1.09062 -0.26175,-14.13455 z"
       id="path10-70" /><path
       style="fill:#8cb3c6;fill-opacity:1;stroke-width:0.264999"
       d="m 115.09375,95.067002 0.1745,14.614428 0.39263,-1.09063 -0.26175,-14.134551 z"
       id="path10-74" /><path
       style="fill:#8cb3c6;fill-opacity:1;stroke-width:0.264999"
       d="m 29.36875,93.744085 0.174501,14.614425 0.392626,-1.09063 -0.261751,-14.134548 z"
       id="path10-10" /><path
       style="fill:#8cb3c6;fill-opacity:1;stroke-width:0.264999"
       d="M 39.158333,51.146169 39.332834,65.760593 39.72546,64.669965 39.463709,50.535416 Z"
       id="path10-501" /><path
       style="fill:#8cb3c6;fill-opacity:1;stroke-width:0.264999"
       d="m 124.61875,53.792002 0.1745,14.614424 0.39263,-1.090628 -0.26175,-14.134549 z"
       id="path10-035" /><path
       style="fill:#8cb3c6;fill-opacity:1;stroke-width:0.264999"
       d="m 161.66041,93.214919 0.1745,14.614421 0.39263,-1.09062 -0.26175,-14.134554 z"
       id="path10-677" /><path
       style="fill:#8cb3c6;fill-opacity:1;stroke-width:0.264999"
       d="m 149.225,143.48575 0.1745,14.61443 0.39263,-1.09063 -0.26175,-14.13455 z"
       id="path10-27" /><path
       style="fill:#8cb3c6;fill-opacity:1;stroke-width:0.264999"
       d="m 87.047917,163.85867 0.174501,14.61442 0.392626,-1.09063 -0.261751,-14.13455 z"
       id="path10-13" /><path
       style="fill:#8cb3c6;fill-opacity:1;stroke-width:0.264999"
       d="m 7.6729167,185.5545 0.1745007,14.61442 0.3926263,-1.09063 -0.261751,-14.13455 z"
       id="path10-26" /><path
       style="fill:#8cb3c6;fill-opacity:1;stroke-width:0.264999"
       d="M 3.175,219.42117 3.3495007,234.03559 3.742127,232.94496 3.480376,218.81041 Z"
       id="path10-44" /><path
       style="fill:#8cb3c6;fill-opacity:1;stroke-width:0.264999"
       d="m 106.3625,253.55242 0.1745,14.61442 0.39263,-1.09063 -0.26175,-14.13455 z"
       id="path10-37" /><path
       style="fill:#8cb3c6;fill-opacity:1;stroke-width:0.264999"
       d="m 161.13125,282.12742 0.1745,14.61442 0.39263,-1.09063 -0.26175,-14.13455 z"
       id="path10-85" /><path
       style="fill:#8cb3c6;fill-opacity:1;stroke-width:0.264999"
       d="m 213.51875,244.292 0.1745,14.61442 0.39263,-1.09063 -0.26175,-14.13455 z"
       id="path10-115" /><path
       style="fill:#8cb3c6;fill-opacity:1;stroke-width:0.264999"
       d="m 182.29791,129.72742 0.1745,14.61442 0.39263,-1.09063 -0.26175,-14.13454 z"
       id="path10-64" /><path
       style="fill:#8cb3c6;fill-opacity:1;stroke-width:0.264999"
       d="m 175.94791,126.28784 0.1745,14.61442 0.39263,-1.09063 -0.26175,-14.13455 z"
       id="path10-91" /><path
       style="fill:#8cb3c6;fill-opacity:1;stroke-width:0.264999"
       d="m 173.56666,243.23367 0.1745,14.61442 0.39263,-1.09063 -0.26175,-14.13455 z"
       id="path10-63" /><path
       style="fill:#8cb3c6;fill-opacity:1;stroke-width:0.264999"
       d="m 151.34166,281.33367 0.1745,14.61442 0.39263,-1.09063 -0.26175,-14.13455 z"
       id="path10-103" /><path
       style="fill:#8cb3c6;fill-opacity:1;stroke-width:0.264999"
       d="m 66.939583,280.8045 0.174501,14.61442 0.392626,-1.09063 -0.261751,-14.13455 z"
       id="path10-217" /><path
       style="fill:#8cb3c6;fill-opacity:1;stroke-width:0.264999"
       d="m 6.6145833,279.74617 0.1745007,14.61442 0.3926263,-1.09063 -0.261751,-14.13455 z"
       id="path10-630" /><path
       style="fill:#8cb3c6;fill-opacity:1;stroke-width:0.264999"
       d="m 23.283333,310.967 0.174501,14.61442 0.392626,-1.09063 -0.261751,-14.13455 z"
       id="path10-07" /><path
       style="fill:#8cb3c6;fill-opacity:1;stroke-width:0.264999"
       d="m 160.60208,287.1545 0.1745,14.61442 0.39263,-1.09063 -0.26175,-14.13455 z"
       id="path10-108" /><path
       style="fill:#8cb3c6;fill-opacity:1;stroke-width:0.264999"
       d="m 193.14583,209.63159 0.1745,14.61442 0.39263,-1.09063 -0.26175,-14.13455 z"
       id="path10-05" /><path
       style="fill:#8cb3c6;fill-opacity:1;stroke-width:0.264999"
       d="m 89.164583,185.5545 0.174501,14.61442 0.392626,-1.09063 -0.261751,-14.13455 z"
       id="path10-485" /><path
       style="fill:#8cb3c6;fill-opacity:1;stroke-width:0.264999"
       d="m 33.3375,142.16283 0.174501,14.61443 0.392626,-1.09063 -0.261751,-14.13455 z"
       id="path10-139" /><path
       style="fill:#8cb3c6;fill-opacity:1;stroke-width:0.264999"
       d="m 37.835417,103.53367 0.174501,14.61442 0.392626,-1.09062 -0.261751,-14.13455 z"
       id="path10-961" /><path
       style="fill:#8cb3c6;fill-opacity:1;stroke-width:0.264999"
       d="m 57.414583,183.43784 0.174501,14.61442 0.392626,-1.09063 -0.261751,-14.13455 z"
       id="path10-034" /><path
       style="fill:#8cb3c6;fill-opacity:1;stroke-width:0.264999"
       d="m 67.204167,230.79825 0.174501,14.61442 0.392626,-1.09063 -0.261751,-14.13455 z"
       id="path10-32" /><path
       style="fill:#8cb3c6;fill-opacity:1;stroke-width:0.264999"
       d="m 160.60208,155.392 0.1745,14.61442 0.39263,-1.09063 -0.26175,-14.13455 z"
       id="path10-087" /><path
       style="fill:#8cb3c6;fill-opacity:1;stroke-width:0.264999"
       d="m 189.70625,93.214919 0.1745,14.614421 0.39263,-1.09062 -0.26175,-14.134554 z"
       id="path10-077" /><path
       style="fill:#8cb3c6;fill-opacity:1;stroke-width:0.264999"
       d="m 122.2375,61.200335 0.1745,14.614424 0.39263,-1.090628 -0.26175,-14.134549 z"
       id="path10-6301" /><path
       style="fill:#8cb3c6;fill-opacity:1;stroke-width:0.264999"
       d="m 60.325,121.78992 0.174501,14.61442 0.392626,-1.09063 -0.261751,-14.13454 z"
       id="path10-931" /><path
       style="fill:#8cb3c6;fill-opacity:1;stroke-width:0.264999"
       d="m 29.36875,181.58575 0.174501,14.61442 0.392626,-1.09063 -0.261751,-14.13455 z"
       id="path10-559" /><path
       style="fill:#8cb3c6;fill-opacity:1;stroke-width:0.264999"
       d="m 130.43958,192.43367 0.1745,14.61442 0.39263,-1.09063 -0.26175,-14.13455 z"
       id="path10-481" /><path
       style="fill:#8cb3c6;fill-opacity:1;stroke-width:0.264999"
       d="m 168.01041,81.308669 0.1745,14.614424 0.39263,-1.090628 -0.26175,-14.134549 z"
       id="path10-268" /><path
       style="fill:#8cb3c6;fill-opacity:1;stroke-width:0.264999"
       d="m 194.73333,98.242002 0.1745,14.614428 0.39263,-1.09063 -0.26175,-14.134551 z"
       id="path10-945" /><path
       style="fill:#8cb3c6;fill-opacity:1;stroke-width:0.264999"
       d="m 185.20833,215.98159 0.1745,14.61442 0.39263,-1.09063 -0.26175,-14.13455 z"
       id="path10-013" /><path
       style="fill:#8cb3c6;fill-opacity:1;stroke-width:0.264999"
       d="m 130.96875,226.8295 0.1745,14.61442 0.39263,-1.09063 -0.26175,-14.13455 z"
       id="path10-031" /><path
       style="fill:#8cb3c6;fill-opacity:1;stroke-width:0.264999"
       d="m 123.03125,85.806585 0.1745,14.614425 0.39263,-1.090629 -0.26175,-14.134549 z"
       id="path10-95" /><path
       style="fill:#8cb3c6;fill-opacity:1;stroke-width:0.264999"
       d="M 70.908333,32.360752 71.082834,46.975176 71.47546,45.884548 71.213709,31.749999 Z"
       id="path10-837" /><path
       style="fill:#8cb3c6;fill-opacity:1;stroke-width:0.264999"
       d="M 34.395833,72.048252 34.570334,86.662676 34.96296,85.572048 34.701209,71.437499 Z"
       id="path10-828" /><path
       style="fill:#8cb3c6;fill-opacity:1;stroke-width:0.264999"
       d="m 46.0375,183.967 0.174501,14.61442 0.392626,-1.09063 -0.261751,-14.13455 z"
       id="path10-860" /><path
       style="fill:#8cb3c6;fill-opacity:1;stroke-width:0.264999"
       d="m 35.189583,227.35867 0.174501,14.61442 0.392626,-1.09063 -0.261751,-14.13455 z"
       id="path10-876" /><path
       style="fill:#8cb3c6;fill-opacity:1;stroke-width:0.264999"
       d="m 115.09375,200.90034 0.1745,14.61442 0.39263,-1.09063 -0.26175,-14.13455 z"
       id="path10-839" /><path
       style="fill:#8cb3c6;fill-opacity:1;stroke-width:0.264999"
       d="m 111.65416,98.242002 0.1745,14.614428 0.39263,-1.09063 -0.26175,-14.134551 z"
       id="path10-76" /></g></svg>
