<svg width="360mm" height="800mm" viewBox="0 0 360 800" version="1.1" id="svg1" inkscape:version="1.4.3 (0d15f75, 2025-12-25)" sodipodi:docname="summer_mobile.svg" xml:space="preserve" xmlns:inkscape="http://www.inkscape.org/namespaces/inkscape" xmlns:sodipodi="http://sodipodi.sourceforge.net/DTD/sodipodi-0.dtd" xmlns:xlink="http://www.w3.org/1999/xlink" xmlns="http://www.w3.org/2000/svg" xmlns:svg="http://www.w3.org/2000/svg" preserveAspectRatio="xMidYMid" style="fill: rgb(0, 0, 0); stroke: none; stroke-width: 1px; stroke-linejoin: miter; stroke-linecap: butt; stroke-miterlimit: 4; opacity: 1; filter: none;"><sodipodi:namedview id="namedview1" pagecolor="#ffffff" bordercolor="#000000" borderopacity="0.25" inkscape:showpageshadow="2" inkscape:pageopacity="0.0" inkscape:pagecheckerboard="0" inkscape:deskcolor="#d1d1d1" inkscape:document-units="mm" inkscape:zoom="0.13401722" inkscape:cx="417.85675" inkscape:cy="1279.6863" inkscape:window-width="1920" inkscape:window-height="1111" inkscape:window-x="-9" inkscape:window-y="-9" inkscape:window-maximized="1" inkscape:current-layer="layer9"></sodipodi:namedview><defs id="defs1"><linearGradient id="linearGradient7" inkscape:collect="always"><stop style="stop-color:#bfd1dc;stop-opacity:1;" offset="0" id="stop7"></stop><stop style="stop-color:#c7d6dd;stop-opacity:1;" offset="0.38147011" id="stop10"></stop><stop style="stop-color:#e16b5c;stop-opacity:1;" offset="1" id="stop8"></stop></linearGradient><linearGradient inkscape:collect="always" xlink:href="#linearGradient7" id="linearGradient8-4" x1="109.88719" y1="3.4478526" x2="115.06703" y2="296.90793" gradientUnits="userSpaceOnUse" spreadMethod="pad" gradientTransform="matrix(2.4268304,0,0,2.4268304,24.464015,-50.564158)"></linearGradient></defs><g inkscape:groupmode="layer" id="layer3" inkscape:label="Sky" style="display:inline;fill:#000000"><path style="display:inline;opacity:1;fill:url(#linearGradient8-4);fill-opacity:1;fill-rule:nonzero;stroke-width:0.642098" d=" M 187.36369,-111.65154 C 99.924895,-112.84933 -46.20569,-58.9487 -46.20569,-58.9487 l 21.560245,235.96496 c 0,0 13.17571,97.02112 -32.340374,192.84447 -45.516081,95.82333 62.2851741,444.3807 62.2851741,444.3807 L 626.95324,765.13197 c 0,0 126.96589,-112.59241 57.49402,-352.15073 -69.47193,-239.55835 -69.47193,-239.55835 -69.47193,-239.55835 0,0 27.54921,-245.547299 -67.07633,-280.28326 -94.62556,-34.73596 -360.53531,-4.79117 -360.53531,-4.79117 z " id="path4-4" inkscape:label="sky" transform="translate(-135.60272,81.313396)"></path></g><g inkscape:groupmode="layer" id="layer2" inkscape:label="Clouds" style="display:inline"><path style="fill: rgb(245, 247, 244); fill-opacity: 1; stroke-width: 0.766683; stroke: none; stroke-linejoin: miter; stroke-linecap: butt; stroke-miterlimit: 4; opacity: 1; filter: none;" d="M -567.49126 155.81656 L -99.39648299999999 155.81656 C -99.39648299999999 155.81656 -90.497323 89.36971400000002 -134.99302999999998 89.36971400000002 C -179.48871999999997 89.36971400000002 -197.28702999999996 99.68043400000002 -197.28702999999996 99.68043400000002 C -197.28702999999996 99.68043400000002 -231.10375999999997 33.233598000000015 -272.03981999999996 48.12685500000002 C -312.97583999999995 63.02011000000002 -320.09513999999996 89.36971400000002 -320.09513999999996 89.36971400000002 C -320.09513999999996 89.36971400000002 -330.77410999999995 25.214151000000015 -377.04965999999996 42.398679000000016 C -423.32521999999994 59.583204000000016 -426.88483999999994 90.51534400000001 -426.88483999999994 90.51534400000001 C -426.88483999999994 90.51534400000001 -474.94019999999995 12.61215900000002 -514.09646 28.65105900000001 C -553.25267 44.689948000000015 -558.59215 76.76773200000001 -558.59215 76.76773200000001 C -558.59215 76.76773200000001 -610.20714 30.942327000000006 -638.6844299999999 69.89391900000001 C -667.1616599999999 108.84552000000001 -654.7028799999999 152.37965000000003 -654.7028799999999 152.37965000000003 Z" id="path7-2" inkscape:label="cloudhigh"><animateTransform attributeName="transform" attributeType="auto" type="translate" values="0 0;1101.24 0" calcMode="spline" keyTimes="0; 1" keySplines="0 0 1 1" dur="3.98s" begin="0s" repeatCount="1" additive="sum" accumulate="none" id="animateTransform6558" style="stroke: none; stroke-width: 0.766683px; stroke-linejoin: miter; stroke-linecap: butt; stroke-miterlimit: 4; opacity: 1; filter: none; fill: rgb(245, 247, 244);"></animateTransform></path><path style="fill: rgb(207, 207, 207); fill-opacity: 1; stroke-width: 0.727258; stroke: none; stroke-linejoin: miter; stroke-linecap: butt; stroke-miterlimit: 4; opacity: 1; filter: none;" d="M -526.19172 297.76404 L -46.55011300000001 296.8919 C -46.55011300000001 296.8919 -0.2688982000000095 262.00601 -65.48332300000001 239.33020000000002 C -130.69779 216.65437000000003 -162.25313 255.90099 -162.25313 255.90099 C -162.25313 255.90099 -185.39371 204.44431 -267.43772 225.37584 C -349.48167 246.30736000000002 -343.17059 258.51744 -343.17059 258.51744 C -343.17059 258.51744 -421.00717 210.54933000000003 -467.28838 224.50369 C -513.5696 238.45806000000002 -530.3991 242.81877 -538.81389 259.38958 C -547.22864 275.96037 -526.19172 297.76404 -526.19172 297.76404 Z" id="path8-1" inkscape:label="cloudlow"><animateTransform attributeName="transform" attributeType="auto" type="translate" values="0 0;1000 0" calcMode="spline" keyTimes="0; 1" keySplines="0 0 1 1" dur="6.02s" begin="0s" repeatCount="1" additive="sum" accumulate="none" id="animateTransform3871" style="stroke: none; stroke-width: 0.727258px; stroke-linejoin: miter; stroke-linecap: butt; stroke-miterlimit: 4; opacity: 1; filter: none; fill: rgb(207, 207, 207);"></animateTransform></path><path style="fill: rgb(227, 227, 227); fill-opacity: 1; stroke-width: 0.759023; stroke: none; stroke-linejoin: miter; stroke-linecap: butt; stroke-miterlimit: 4; opacity: 1; filter: none;" d="M 802.75727 204.44158 L 439.62114999999994 203.30236 C 439.62114999999994 203.30236 371.20422999999994 145.20226 451.90110999999996 126.97476999999999 C 532.59804 108.74727999999999 534.3523 157.73364999999998 534.3523 157.73364999999998 C 534.3523 157.73364999999998 530.84378 84.82371499999998 601.01513 95.07667499999998 C 671.1861 105.32962999999998 662.4147 152.03757 662.4147 152.03757 C 662.4147 152.03757 648.3804700000001 81.40606499999998 746.6202400000001 92.79824499999998 C 844.86004 104.19041999999997 790.4774400000001 153.17677999999998 790.4774400000001 153.17677999999998 C 790.4774400000001 153.17677999999998 869.4200600000001 107.60805999999998 872.9285400000001 161.15130999999997 C 876.4370200000001 214.69452999999996 802.7572700000001 204.44157999999996 802.7572700000001 204.44157999999996 Z" id="path9-5" inkscape:label="cloudmedium"><animateTransform attributeName="transform" attributeType="auto" type="translate" values="0 0;-1000 0" calcMode="spline" keyTimes="0; 1" keySplines="0 0 1 1" dur="8.02s" begin="0s" repeatCount="1" additive="sum" accumulate="none" id="animateTransform5992" style="stroke: none; stroke-width: 0.759023px; stroke-linejoin: miter; stroke-linecap: butt; stroke-miterlimit: 4; opacity: 1; filter: none; fill: rgb(227, 227, 227);"></animateTransform></path></g><g inkscape:groupmode="layer" id="layer4" inkscape:label="Sun" style="display:inline"><ellipse style="display:inline;fill:#d94a45;fill-opacity:1;stroke-width:0.510174;stroke-dasharray:none" id="path6-6" cx="185.71817" cy="426.57965" rx="105.47212" ry="101.67132" inkscape:label="sun"></ellipse></g><g inkscape:label="Foreground 3" inkscape:groupmode="layer" id="layer1-4" transform="translate(-1.0926367,-95.495827)" style="display:inline"><path style="fill:#b4cbd2;fill-opacity:1;stroke-width:0.63242" d=" m -129.36261,1006.1895 74.333804,-465.64528 17.376735,15.80894 9.653741,-15.80894 33.7880972,149.46638 49.2340848,-153.77792 19.307482,12.9346 33.788106,-10.06026 49.23408,21.55768 27.03049,-38.80378 26.0651,74.73319 33.78809,-66.11014 20.27287,38.80378 11.58449,-24.43201 25.09972,10.06025 13.51524,-14.37177 10.61912,50.30118 26.06511,54.61274 17.37671,-102.03957 13.51526,-7.18589 32.82271,126.47157 25.09974,296.05847 -115.84492,84.79338 z " id="path2" inkscape:label="mountain"></path></g><g inkscape:label="Foreground 2" inkscape:groupmode="layer" id="layer1-5" transform="translate(-1.0926367,-95.495827)" style="display:inline"><path style="fill:#bfd6cc;fill-opacity:1;stroke-width:0.619002" d=" m -128.052,691.35236 -34.9019,158.34874 c 0,0 99.417522,157.092 108.936225,157.092 9.518697,0 579.583025,-119.38996 579.583025,-119.38996 L 420.85967,612.17803 c 0,0 -96.24463,-42.72903 -230.56406,2.51346 C 55.976186,659.93398 -57.190578,726.54096 -92.092468,708.94666 -126.99437,691.35236 -128.052,691.35236 -128.052,691.35236 Z " id="path3" inkscape:label="hill"></path></g><g inkscape:label="Foreground 1" inkscape:groupmode="layer" id="layer1" style="display:inline"><path style="fill:#afcfc1;fill-opacity:1;stroke-width:0.68675" d=" m 421.09299,576.48173 50.90729,216.31766 -80.68326,182.25204 c 0,0 -462.968187,-25.54937 -462.007673,-39.17572 0.960519,-13.62626 -9.60515,-393.45979 -9.60515,-393.45979 0,0 60.512445,-66.42826 212.273803,32.36249 151.76134,98.79079 289.11499,1.70332 289.11499,1.70332 z " id="path5" inkscape:label="hill"></path></g><g inkscape:groupmode="layer" id="layer5" inkscape:label="Rain" style="display:inline"><g inkscape:groupmode="layer" id="layer9" inkscape:label="Rain 3" transform="matrix(0.53109715,0,0,0.53109715,-59.690298,-57.454525)" style="display: inline; fill: rgb(0, 0, 0); stroke: none; stroke-width: 1px; stroke-linejoin: miter; stroke-linecap: butt; stroke-miterlimit: 4; opacity: 1; filter: none;"><path style="display:inline;fill:#1e4ed8;fill-opacity:1;stroke-width:0.65984" d="M 313.2095 -2910.1664 L 313.644 -2873.7769 L 314.62170000000003 -2876.4925 L 313.96990000000005 -2911.6870999999996 Z" id="path10-35-501-34-08-6" inkscape:label="rain"></path><path style="display:inline;fill:#1e4ed8;fill-opacity:1;stroke-width:0.65984" d="M 441.79698 -2443.9705 L 442.23148000000003 -2407.581 L 443.20918000000006 -2410.2966 L 442.5573800000001 -2445.4913 Z" id="path10-35-501-34-08-0" inkscape:label="rain"></path><path style="display:inline;fill:#1e4ed8;fill-opacity:1;stroke-width:0.65984" d="M 374.5928 -2268.0226 L 375.0273 -2231.6331 L 376.00500000000005 -2234.3487 L 375.3532000000001 -2269.5434 Z" id="path10-35-501-34-08-8" inkscape:label="rain"></path><path style="display:inline;fill:#1e4ed8;fill-opacity:1;stroke-width:0.65984" d="M 472.48868 -3005.1518 L 472.92318 -2968.7623000000003 L 473.90088000000003 -2971.4779000000003 L 473.24908000000005 -3006.6725 Z" id="path10-35-501-34-08-1" inkscape:label="rain"></path><path style="display:inline;fill:#1e4ed8;fill-opacity:1;stroke-width:0.65984" d="M 210.022 -2784.4893 L 210.4565 -2748.0998 L 211.4342 -2750.8154 L 210.7824 -2786.0099999999998 Z" id="path10-35-501-34-08-85" inkscape:label="rain"></path><path style="display:inline;fill:#1e4ed8;fill-opacity:1;stroke-width:0.65984" d="M 778.32364 -1483.4073 L 778.7581399999999 -1447.0178 L 779.7358399999999 -1449.7334 L 779.08404 -1484.928 Z" id="path10-35-501-34-08-9" inkscape:label="rain"></path><path style="display:inline;fill:#1e4ed8;fill-opacity:1;stroke-width:0.65984" d="M 697.36114 -1840.8594 L 697.7956399999999 -1804.4699 L 698.77334 -1807.1855 L 698.12154 -1842.3801 Z" id="path10-35-501-34-08-97" inkscape:label="rain"></path><path style="display:inline;fill:#1e4ed8;fill-opacity:1;stroke-width:0.65984" d="M 306.57159 -2016.5427 L 307.00609000000003 -1980.1532 L 307.98379000000006 -1982.8688 L 307.3319900000001 -2018.0634 Z" id="path10-35-501-34-08-5" inkscape:label="rain"></path><path style="display:inline;fill:#1e4ed8;fill-opacity:1;stroke-width:0.65984" d="M 225.60909 -1363.2864 L 226.04359000000002 -1326.8969 L 227.02129000000002 -1329.6126 L 226.36949 -1364.8072 Z" id="path10-35-501-34-08-67" inkscape:label="rain"></path><path style="display:inline;fill:#1e4ed8;fill-opacity:1;stroke-width:0.65984" d="M 384.99109 -349.8238 L 385.42559 -313.4343 L 386.40329 -316.14991000000003 L 385.75149000000005 -351.34455 Z" id="path10-35-501-34-08-12" inkscape:label="rain"></path><path style="display:inline;fill:#1e4ed8;fill-opacity:1;stroke-width:0.65984" d="M 421.50359 -707.27589 L 421.93809 -670.88639 L 422.91579 -673.602 L 422.26399000000004 -708.79664 Z" id="path10-35-501-34-08-2" inkscape:label="rain"></path><path style="display:inline;fill:#1e4ed8;fill-opacity:1;stroke-width:0.65984" d="M 301.38275 -1003.0801 L 301.81725 -966.69055 L 302.79495000000003 -969.40616 L 302.14315000000005 -1004.6008 Z" id="path10-35-501-34-08-23" inkscape:label="rain"></path><path style="display:inline;fill:#1e4ed8;fill-opacity:1;stroke-width:0.65984" d="M 156.1265 -1098.0655 L 156.561 -1061.676 L 157.5387 -1064.3916 L 156.8869 -1099.5862 Z" id="path10-35-501-34-08-27" inkscape:label="rain"></path><path style="display:inline;fill:#1e4ed8;fill-opacity:1;stroke-width:0.65984" d="M 217.14242 -2053.0552 L 217.57692 -2016.6656999999998 L 218.55462 -2019.3812999999998 L 217.90282 -2054.5759 Z" id="path10-35-501-34-08-04" inkscape:label="rain"></path><path style="display:inline;fill:#1e4ed8;fill-opacity:1;stroke-width:0.65984" d="M 711.38414 -1969.1823 L 711.81854 -1932.7928 L 712.79634 -1935.5084 L 712.14454 -1970.703 Z" id="path10-35-501-34-08-3" inkscape:label="rain"></path><path style="display:inline;fill:#1e4ed8;fill-opacity:1;stroke-width:0.65984" d="M 374.5928 -2809.6247 L 375.0273 -2773.2352 L 376.00500000000005 -2775.9508 L 375.3532000000001 -2811.1454 Z" id="path10-35-501-34-08-88" inkscape:label="rain"></path><path style="display:inline;fill:#1e4ed8;fill-opacity:1;stroke-width:0.65984" d="M 429.33824 -1374.3989 L 429.77274 -1338.0094 L 430.75044 -1340.7250999999999 L 430.09864000000005 -1375.9197 Z" id="path10-35-501-34-08-98" inkscape:label="rain"></path><path style="display:inline;fill:#1e4ed8;fill-opacity:1;stroke-width:0.65984" d="M 206.02992 -1690.0469 L 206.46442000000002 -1653.6574 L 207.44212000000002 -1656.373 L 206.79032 -1691.5676 Z" id="path10-35-501-34-08-99" inkscape:label="rain"></path><path style="display:inline;fill:#1e4ed8;fill-opacity:1;stroke-width:0.65984" d="M 546.91609 -648.53839 L 547.35059 -612.14889 L 548.32829 -614.8645 L 547.6764900000001 -650.0591400000001 Z" id="path10-35-501-34-08-986" inkscape:label="rain"></path><path style="display:inline;fill:#1e4ed8;fill-opacity:1;stroke-width:0.65984" d="M 326.51817 -296.90714 L 326.95267 -260.51764000000003 L 327.93037000000004 -263.23325000000006 L 327.27857000000006 -298.42789000000005 Z" id="path10-35-501-34-08-26" inkscape:label="rain"></path><path style="display:inline;fill:#1e4ed8;fill-opacity:1;stroke-width:0.65984" d="M 248.2015 -369.40297 L 248.63600000000002 -333.01347 L 249.61370000000002 -335.72908 L 248.9619 -370.92372 Z" id="path10-35-501-34-08-82" inkscape:label="rain"></path><path style="display:inline;fill:#1e4ed8;fill-opacity:1;stroke-width:0.65984" d="M 309.48201 -1751.4302 L 309.91651 -1715.0407 L 310.89421000000004 -1717.7563 L 310.24241000000006 -1752.9509 Z" id="path10-35-501-34-08-08" inkscape:label="rain"></path><path style="display:inline;fill:#1e4ed8;fill-opacity:1;stroke-width:0.65984" d="M 772.76744 -1290.7906 L 773.2019399999999 -1254.4011 L 774.17964 -1257.1167 L 773.52784 -1292.3114 Z" id="path10-35-501-34-08-05" inkscape:label="rain"></path><path style="display:inline;fill:#1e4ed8;fill-opacity:1;stroke-width:0.65984" d="M 385.9699 -2215.1059 L 386.4044 -2178.7164000000002 L 387.38210000000004 -2181.4320000000002 L 386.73030000000006 -2216.6267000000003 Z" id="path10-35-501-34-08-7" inkscape:label="rain"></path><path style="display:inline;fill:#1e4ed8;fill-opacity:1;stroke-width:0.65984" d="M 744.98614 -1332.5948 L 745.4206399999999 -1296.2053 L 746.39834 -1298.9209 L 745.74654 -1334.1155 Z" id="path10-35-501-34-08-60" inkscape:label="rain"></path><path style="display:inline;fill:#1e4ed8;fill-opacity:1;stroke-width:0.65984" d="M 500.26988 -2854.3393 L 500.70438 -2817.9498000000003 L 501.68208000000004 -2820.6654000000003 L 501.03028000000006 -2855.86 Z" id="path10-35-501-34-08-00" inkscape:label="rain"></path><path style="display:inline;fill:#1e4ed8;fill-opacity:1;stroke-width:0.65984" d="M 561.65328 -2896.1434 L 562.08778 -2859.7538999999997 L 563.06538 -2862.4694999999997 L 562.41368 -2897.6641999999997 Z" id="path10-35-501-34-08-52" inkscape:label="rain"></path><path style="display:inline;fill:#1e4ed8;fill-opacity:1;stroke-width:0.65984" d="M 514.29278 -2522.0226 L 514.72728 -2485.6331 L 515.70498 -2488.3487 L 515.05318 -2523.5434 Z" id="path10-35-501-34-08-4" inkscape:label="rain"></path><path style="display:inline;fill:#1e4ed8;fill-opacity:1;stroke-width:0.65984" d="M 452.90948 -2379.6768 L 453.34398 -2343.2873 L 454.32168 -2346.0029 L 453.66988000000003 -2381.1974999999998 Z" id="path10-35-501-34-08-35" inkscape:label="rain"></path><path style="display:inline;fill:#1e4ed8;fill-opacity:1;stroke-width:0.65984" d="M 264.76742 -1441.6031 L 265.20192000000003 -1405.2136 L 266.17962000000006 -1407.9292 L 265.5278200000001 -1443.1239 Z" id="path10-35-501-34-08-84" inkscape:label="rain"></path><path style="display:inline;fill:#1e4ed8;fill-opacity:1;stroke-width:0.65984" d="M 278.89317 -793.79464 L 279.32767 -757.40514 L 280.30537000000004 -760.1207499999999 L 279.65357000000006 -795.31539 Z" id="path10-35-501-34-08-21" inkscape:label="rain"></path><path style="display:inline;fill:#1e4ed8;fill-opacity:1;stroke-width:0.65984" d="M 153.48067 -916.5613 L 153.91517000000002 -880.1718 L 154.89287000000002 -882.8874099999999 L 154.24107 -918.08205 Z" id="path10-35-501-34-08-30" inkscape:label="rain"></path><path style="display:inline;fill:#1e4ed8;fill-opacity:1;stroke-width:0.65984" d="M 150.57025 -587.15505 L 151.00475 -550.76555 L 151.98245 -553.4811599999999 L 151.33065 -588.6758 Z" id="path10-35-501-34-08-678" inkscape:label="rain"></path><path style="display:inline;fill:#1e4ed8;fill-opacity:1;stroke-width:0.65984" d="M 175.70567 -447.71964 L 176.14017 -411.33014000000003 L 177.11787 -414.04575000000006 L 176.46607 -449.24039000000005 Z" id="path10-35-501-34-08-19" inkscape:label="rain"></path><path style="display:inline;fill:#1e4ed8;fill-opacity:1;stroke-width:0.65984" d="M 619.30914 -1597.9719 L 619.7435399999999 -1561.5824 L 620.7213399999999 -1564.298 L 620.06954 -1599.4926 Z" id="path10-35-501-34-08-73" inkscape:label="rain"></path><path style="display:inline;fill:#1e4ed8;fill-opacity:1;stroke-width:0.65984" d="M 427.77408 -2664.633 L 428.20858000000004 -2628.2434999999996 L 429.18628000000007 -2630.9590999999996 L 428.5344800000001 -2666.1537999999996 Z" id="path10-35-501-34-08-15" inkscape:label="rain"></path><path style="display:inline;fill:#1e4ed8;fill-opacity:1;stroke-width:0.65984" d="M 430.41988 -2337.8726 L 430.85438 -2301.4831000000004 L 431.83208 -2304.1987000000004 L 431.18028000000004 -2339.3934000000004 Z" id="path10-35-501-34-08-66" inkscape:label="rain"></path><path style="display:inline;fill:#1e4ed8;fill-opacity:1;stroke-width:0.65984" d="M 641.53414 -1296.3469 L 641.9686399999999 -1259.9574 L 642.94624 -1262.673 L 642.29454 -1297.8676 Z" id="path10-35-501-34-08-49" inkscape:label="rain"></path><path style="display:inline;fill:#1e4ed8;fill-opacity:1;stroke-width:0.65984" d="M 519.13484 -338.7113 L 519.56934 -302.3218 L 520.54704 -305.03741 L 519.8952400000001 -340.23205 Z" id="path10-35-501-34-08-95" inkscape:label="rain"></path><path style="display:inline;fill:#1e4ed8;fill-opacity:1;stroke-width:0.65984" d="M 343.18692 -210.38839 L 343.62142 -173.99892 L 344.59912 -176.71452 L 343.94732000000005 -211.90913999999998 Z" id="path10-35-501-34-08-59" inkscape:label="rain"></path><path style="display:inline;fill:#1e4ed8;fill-opacity:1;stroke-width:0.65984" d="M 290.9845 -2187.0601 L 291.41900000000004 -2150.6706000000004 L 292.39670000000007 -2153.3862000000004 L 291.7449000000001 -2188.5809000000004 Z" id="path10-35-501-34-08-90" inkscape:label="rain"></path><animateTransform attributeName="transform" attributeType="auto" type="translate" values="0 0;0 5500" calcMode="spline" keyTimes="0; 1" keySplines="0 0 1 1" dur="3.98s" begin="0s" repeatCount="1" additive="sum" accumulate="none" id="animateTransform877" style="stroke: none; stroke-width: 1px; stroke-linejoin: miter; stroke-linecap: butt; stroke-miterlimit: 4; opacity: 1; filter: none; fill: rgb(0, 0, 0);"></animateTransform></g><g inkscape:groupmode="layer" id="layer8" inkscape:label="Rain 2" transform="matrix(0.64420749,0,0,0.64420749,-54.617349,-28.503408)" style="display: inline; fill: rgb(0, 0, 0); stroke: none; stroke-width: 1px; stroke-linejoin: miter; stroke-linecap: butt; stroke-miterlimit: 4; opacity: 1; filter: none;"><path style="display:inline;fill:#1e4ed8;fill-opacity:1;stroke-width:0.65984" d="M 436.91528 -1376.7129 L 437.34978 -1340.3234 L 438.32748000000004 -1343.039 L 437.67568000000006 -1378.2337 Z" id="path10-35-501-34-5" inkscape:label="rain"></path><path style="display:inline;fill:#1e4ed8;fill-opacity:1;stroke-width:0.65984" d="M 682.76395 -2490.967 L 683.19845 -2454.5775000000003 L 684.17605 -2457.2931000000003 L 683.52435 -2492.4877 Z" id="path10-35-501-34-1" inkscape:label="rain"></path><path style="display:inline;fill:#1e4ed8;fill-opacity:1;stroke-width:0.65984" d="M 749.70345 -2016.3045 L 750.1379499999999 -1979.915 L 751.11565 -1982.6307 L 750.46385 -2017.8252 Z" id="path10-35-501-34-2" inkscape:label="rain"></path><path style="display:inline;fill:#1e4ed8;fill-opacity:1;stroke-width:0.65984" d="M 696.78685 -1745.3712 L 697.2213499999999 -1708.9817 L 698.1990499999999 -1711.6973 L 697.54725 -1746.892 Z" id="path10-35-501-34-7" inkscape:label="rain"></path><path style="display:inline;fill:#1e4ed8;fill-opacity:1;stroke-width:0.65984" d="M 395.16186 -1580.8004 L 395.59636 -1544.4109 L 396.57406000000003 -1547.1265 L 395.92226000000005 -1582.3211000000001 Z" id="path10-35-501-34-3" inkscape:label="rain"></path><path style="display:inline;fill:#1e4ed8;fill-opacity:1;stroke-width:0.65984" d="M 300.12569 -801.50878 L 300.56019000000003 -765.11928 L 301.53789000000006 -767.83488 L 300.8860900000001 -803.02948 Z" id="path10-35-501-34-33" inkscape:label="rain"></path><path style="display:inline;fill:#1e4ed8;fill-opacity:1;stroke-width:0.65984" d="M 286.45482 -28.781377 L 286.88932 7.608152500000003 L 287.86702 4.8925525000000025 L 287.21522000000004 -30.302127 Z" id="path10-35-501-34-9" inkscape:label="rain"></path><path style="display:inline;fill:#1e4ed8;fill-opacity:1;stroke-width:0.65984" d="M 233.53815 -606.63138 L 233.97265000000002 -570.24188 L 234.95035000000001 -572.95749 L 234.29855 -608.15213 Z" id="path10-35-501-34-56" inkscape:label="rain"></path><path style="display:inline;fill:#1e4ed8;fill-opacity:1;stroke-width:0.65984" d="M 297.56732 -829.93972 L 298.00182 -793.55022 L 298.97952000000004 -796.2658299999999 L 298.32772000000006 -831.46047 Z" id="path10-35-501-34-4" inkscape:label="rain"></path><path style="display:inline;fill:#1e4ed8;fill-opacity:1;stroke-width:0.65984" d="M 322.70273 -243.62305 L 323.13723 -207.23355 L 324.11493 -209.94916 L 323.46313000000004 -245.1438 Z" id="path10-35-501-34-30" inkscape:label="rain"></path><path style="display:inline;fill:#1e4ed8;fill-opacity:1;stroke-width:0.65984" d="M 476.42565 -684.68347 L 476.86015000000003 -648.2939700000001 L 477.83785000000006 -651.00958 L 477.1860500000001 -686.2042200000001 Z" id="path10-35-501-34-29" inkscape:label="rain"></path><path style="display:inline;fill:#1e4ed8;fill-opacity:1;stroke-width:0.65984" d="M 599.19232 -157.1043 L 599.62682 -120.7148 L 600.60452 -123.43041 L 599.95272 -158.62505 Z" id="path10-35-501-34-20" inkscape:label="rain"></path><path style="display:inline;fill:#1e4ed8;fill-opacity:1;stroke-width:0.65984" d="M 576.35066 -994.12542 L 576.7851599999999 -957.73592 L 577.7628599999999 -960.4515299999999 L 577.11106 -995.64617 Z" id="path10-35-501-34-28" inkscape:label="rain"></path><path style="display:inline;fill:#1e4ed8;fill-opacity:1;stroke-width:0.65984" d="M 157.83056 -2356.8232 L 158.26506 -2320.4336999999996 L 159.24276 -2323.1494 L 158.59096 -2358.3439999999996 Z" id="path10-35-501-34-43" inkscape:label="rain"></path><path style="display:inline;fill:#1e4ed8;fill-opacity:1;stroke-width:0.65984" d="M 514.96736 -960.78792 L 515.4018599999999 -924.39842 L 516.37956 -927.11403 L 515.72776 -962.30867 Z" id="path10-35-501-34-8" inkscape:label="rain"></path><path style="display:inline;fill:#1e4ed8;fill-opacity:1;stroke-width:0.65984" d="M 657.31316 -1301.3067 L 657.74766 -1264.9172 L 658.72536 -1267.6328 L 658.07356 -1302.8274000000001 Z" id="path10-35-501-34-94" inkscape:label="rain"></path><path style="display:inline;fill:#1e4ed8;fill-opacity:1;stroke-width:0.65984" d="M 289.01319 -1354.4879 L 289.44769 -1318.0984 L 290.42539000000005 -1320.814 L 289.77359000000007 -1356.0087 Z" id="path10-35-501-34-80" inkscape:label="rain"></path><path style="display:inline;fill:#1e4ed8;fill-opacity:1;stroke-width:0.65984" d="M 632.44236 -1633.6233 L 632.87686 -1597.2338 L 633.85456 -1599.9495 L 633.20276 -1635.1441 Z" id="path10-35-501-34-27" inkscape:label="rain"></path><path style="display:inline;fill:#1e4ed8;fill-opacity:1;stroke-width:0.65984" d="M 582.22225 -2538.3274 L 582.65675 -2501.9379 L 583.63445 -2504.6535 L 582.98265 -2539.8482 Z" id="path10-35-501-34-37" inkscape:label="rain"></path><path style="display:inline;fill:#1e4ed8;fill-opacity:1;stroke-width:0.65984" d="M 668.74095 -2169.7628 L 669.17545 -2133.3733 L 670.15315 -2136.0889 L 669.50135 -2171.2836 Z" id="path10-35-501-34-83" inkscape:label="rain"></path><path style="display:inline;fill:#1e4ed8;fill-opacity:1;stroke-width:0.65984" d="M 663.18475 -1723.1462 L 663.61925 -1686.7567 L 664.59695 -1689.4723 L 663.94515 -1724.667 Z" id="path10-35-501-34-93" inkscape:label="rain"></path><path style="display:inline;fill:#1e4ed8;fill-opacity:1;stroke-width:0.65984" d="M 481.68056 -2292.7941 L 482.11506 -2256.4046 L 483.09276000000006 -2259.1202 L 482.4409600000001 -2294.3147999999997 Z" id="path10-35-501-34-801" inkscape:label="rain"></path><path style="display:inline;fill:#1e4ed8;fill-opacity:1;stroke-width:0.65984" d="M 342.24516 -2465.8316 L 342.67966 -2429.4421 L 343.65736000000004 -2432.1577 L 343.00556000000006 -2467.3523 Z" id="path10-35-501-34-0" inkscape:label="rain"></path><path style="display:inline;fill:#1e4ed8;fill-opacity:1;stroke-width:0.65984" d="M 417.38686 -1834.8004 L 417.82136 -1798.4109 L 418.79906000000005 -1801.1265 L 418.1472600000001 -1836.3211000000001 Z" id="path10-35-501-34-87" inkscape:label="rain"></path><path style="display:inline;fill:#1e4ed8;fill-opacity:1;stroke-width:0.65984" d="M 612.86316 -1354.4879 L 613.29766 -1318.0984 L 614.27536 -1320.814 L 613.62356 -1356.0087 Z" id="path10-35-501-34-58" inkscape:label="rain"></path><path style="display:inline;fill:#1e4ed8;fill-opacity:1;stroke-width:0.65984" d="M 607.65898 -888.67722 L 608.09348 -852.28772 L 609.07118 -855.00333 L 608.41938 -890.19797 Z" id="path10-35-501-34-39" inkscape:label="rain"></path><path style="display:inline;fill:#1e4ed8;fill-opacity:1;stroke-width:0.65984" d="M 375.88398 -757.44388 L 376.31848 -721.05438 L 377.29618000000005 -723.76999 L 376.64438000000007 -758.96463 Z" id="path10-35-501-34-86" inkscape:label="rain"></path><path style="display:inline;fill:#1e4ed8;fill-opacity:1;stroke-width:0.65984" d="M 264.22982 -235.42097 L 264.66432000000003 -199.03147 L 265.64202000000006 -201.74708 L 264.9902200000001 -236.94172 Z" id="path10-35-501-34-96" inkscape:label="rain"></path><path style="display:inline;fill:#1e4ed8;fill-opacity:1;stroke-width:0.65984" d="M 197.02565 -763.00013 L 197.46015000000003 -726.61063 L 198.43785000000003 -729.32624 L 197.78605000000002 -764.52088 Z" id="path10-35-501-34-53" inkscape:label="rain"></path><path style="display:inline;fill:#1e4ed8;fill-opacity:1;stroke-width:0.65984" d="M 177.71107 -950.06055 L 178.14557000000002 -913.67105 L 179.12327000000002 -916.38666 L 178.47147 -951.5813 Z" id="path10-35-501-34-6" inkscape:label="rain"></path><path style="display:inline;fill:#1e4ed8;fill-opacity:1;stroke-width:0.65984" d="M 116.06315 -620.6543 L 116.49765 -584.2648 L 117.47534999999999 -586.98041 L 116.82355 -622.17505 Z" id="path10-35-501-34-562" inkscape:label="rain"></path><path style="display:inline;fill:#1e4ed8;fill-opacity:1;stroke-width:0.65984" d="M 121.88398 -698.70638 L 122.31848 -662.31688 L 123.29617999999999 -665.0324899999999 L 122.64438 -700.22713 Z" id="path10-35-501-34-61" inkscape:label="rain"></path><path style="display:inline;fill:#1e4ed8;fill-opacity:1;stroke-width:0.65984" d="M 314.50065 -207.37513 L 314.93515 -170.98563000000001 L 315.91285000000005 -173.70124 L 315.26105000000007 -208.89588 Z" id="path10-35-501-34-68" inkscape:label="rain"></path><path style="display:inline;fill:#1e4ed8;fill-opacity:1;stroke-width:0.65984" d="M 531.90066 -1653.2025 L 532.33516 -1616.813 L 533.31286 -1619.5286 L 532.66106 -1654.7233 Z" id="path10-35-501-34-01" inkscape:label="rain"></path><path style="display:inline;fill:#1e4ed8;fill-opacity:1;stroke-width:0.65984" d="M 512.37225 -2130.8691 L 512.80675 -2094.4795999999997 L 513.78445 -2097.1951999999997 L 513.13265 -2132.3897999999995 Z" id="path10-35-501-34-00" inkscape:label="rain"></path><path style="display:inline;fill:#1e4ed8;fill-opacity:1;stroke-width:0.65984" d="M 671.65145 -1672.8754 L 672.0858499999999 -1636.4859 L 673.06355 -1639.2015 L 672.41185 -1674.3961 Z" id="path10-35-501-34-62" inkscape:label="rain"></path><path style="display:inline;fill:#1e4ed8;fill-opacity:1;stroke-width:0.65984" d="M 149.31319 -924.54 L 149.74769 -888.1505099999999 L 150.72539 -890.8661199999999 L 150.07359 -926.0607499999999 Z" id="path10-35-501-34-34" inkscape:label="rain"></path><path style="display:inline;fill:#1e4ed8;fill-opacity:1;stroke-width:0.65984" d="M 169.2444 -48.095967 L 169.67890000000003 -11.706467000000004 L 170.65660000000003 -14.422077000000003 L 170.00480000000002 -49.616717 Z" id="path10-35-501-34-73" inkscape:label="rain"></path><path style="display:inline;fill:#1e4ed8;fill-opacity:1;stroke-width:0.65984" d="M 554.12566 -974.81084 L 554.56016 -938.42134 L 555.53786 -941.13695 L 554.88606 -976.33159 Z" id="path10-35-501-34-88" inkscape:label="rain"></path><path style="display:inline;fill:#1e4ed8;fill-opacity:1;stroke-width:0.65984" d="M 249.85486 -1161.8713 L 250.28936000000002 -1125.4818 L 251.26706000000001 -1128.1974 L 250.61526 -1163.392 Z" id="path10-35-501-34-36" inkscape:label="rain"></path><path style="display:inline;fill:#1e4ed8;fill-opacity:1;stroke-width:0.65984" d="M 322.35069 -1379.6233 L 322.78519 -1343.2338 L 323.76289 -1345.9495 L 323.11109000000005 -1381.1441 Z" id="path10-35-501-34-98" inkscape:label="rain"></path><path style="display:inline;fill:#1e4ed8;fill-opacity:1;stroke-width:0.65984" d="M 230.32646 -2197.8087 L 230.76096 -2161.4192000000003 L 231.73856 -2164.1348000000003 L 231.08686 -2199.3294 Z" id="path10-35-501-34-23" inkscape:label="rain"></path><path style="display:inline;fill:#1e4ed8;fill-opacity:1;stroke-width:0.65984" d="M 422.89236 -1360.0442 L 423.32686 -1323.6547 L 424.30456000000004 -1326.3703 L 423.65276000000006 -1361.5649 Z" id="path10-35-501-34-89" inkscape:label="rain"></path><path style="display:inline;fill:#1e4ed8;fill-opacity:1;stroke-width:0.65984" d="M 660.22366 -1304.2171 L 660.65816 -1267.8276 L 661.63576 -1270.5432 L 660.98406 -1305.7378 Z" id="path10-35-501-34-42" inkscape:label="rain"></path><path style="display:inline;fill:#1e4ed8;fill-opacity:1;stroke-width:0.65984" d="M 682.76395 -2359.7337 L 683.19845 -2323.3442000000005 L 684.17605 -2326.0598000000005 L 683.52435 -2361.2544000000003 Z" id="path10-35-501-34-287" inkscape:label="rain"></path><path style="display:inline;fill:#1e4ed8;fill-opacity:1;stroke-width:0.65984" d="M 652.07225 -2373.7566 L 652.50675 -2337.3671000000004 L 653.48445 -2340.0827000000004 L 652.8326500000001 -2375.2773 Z" id="path10-35-501-34-19" inkscape:label="rain"></path><path style="display:inline;fill:#1e4ed8;fill-opacity:1;stroke-width:0.65984" d="M 280.59726 -1804.1087 L 281.03176 -1767.7192 L 282.00946000000005 -1770.4348 L 281.35766000000007 -1805.6295 Z" id="path10-35-501-34-980" inkscape:label="rain"></path><path style="display:inline;fill:#1e4ed8;fill-opacity:1;stroke-width:0.65984" d="M 501.20906 -1343.3754 L 501.64356000000004 -1306.9859 L 502.62126000000006 -1309.7015 L 501.9694600000001 -1344.8962 Z" id="path10-35-501-34-55" inkscape:label="rain"></path><path style="display:inline;fill:#1e4ed8;fill-opacity:1;stroke-width:0.65984" d="M 445.11736 -1667.2254 L 445.55186000000003 -1630.8359 L 446.52956000000006 -1633.5515 L 445.8777600000001 -1668.7462 Z" id="path10-35-501-34-24" inkscape:label="rain"></path><path style="display:inline;fill:#1e4ed8;fill-opacity:1;stroke-width:0.65984" d="M 437.26732 -422.48138 L 437.70182 -386.09188 L 438.67952 -388.80749000000003 L 438.02772000000004 -424.00213 Z" id="path10-35-501-34-05" inkscape:label="rain"></path><path style="display:inline;fill:#1e4ed8;fill-opacity:1;stroke-width:0.65984" d="M 406.22361 -1147.8483 L 406.65811 -1111.4588 L 407.63581000000005 -1114.1745 L 406.98401000000007 -1149.3691000000001 Z" id="path10-35-501-34-08" inkscape:label="rain"></path><animateTransform attributeName="transform" attributeType="auto" type="translate" values="0 0;0 5500" calcMode="spline" keyTimes="0; 1" keySplines="0 0 1 1" dur="5.94s" begin="0s" repeatCount="1" additive="sum" accumulate="none" id="animateTransform1088" style="stroke: none; stroke-width: 1px; stroke-linejoin: miter; stroke-linecap: butt; stroke-miterlimit: 4; opacity: 1; filter: none; fill: rgb(0, 0, 0);"></animateTransform></g><g inkscape:groupmode="layer" id="layer7" inkscape:label="Rain 1" transform="matrix(0.582682,0,0,0.582682,-23.099096,-52.683225)" style="display: inline; fill: rgb(0, 0, 0); stroke: none; stroke-width: 1px; stroke-linejoin: miter; stroke-linecap: butt; stroke-miterlimit: 4; opacity: 1; filter: none;"><path style="display:inline;fill:#1e4ed8;fill-opacity:1;stroke-width:0.65984" d="M 352.63092 -1453.1041 L 353.06542 -1416.7146 L 354.04306 -1419.4302 L 353.39128000000005 -1454.6248 Z" id="path10-35" inkscape:label="rain"></path><path style="display:inline;fill:#1e4ed8;fill-opacity:1;stroke-width:0.65984" d="M 171.12487 -898.41755 L 171.55937 -862.02805 L 172.53701 -864.74366 L 171.88523 -899.9383 Z" id="path10-35-5" inkscape:label="rain"></path><path style="display:inline;fill:#1e4ed8;fill-opacity:1;stroke-width:0.65984" d="M 326.96446 -935.98839 L 327.39896 -899.59889 L 328.3766 -902.3145 L 327.72482 -937.50914 Z" id="path10-35-2" inkscape:label="rain"></path><path style="display:inline;fill:#1e4ed8;fill-opacity:1;stroke-width:0.65984" d="M 299.44779 -732.5238 L 299.88229 -696.1343 L 300.85993 -698.84991 L 300.20815000000005 -734.0445500000001 Z" id="path10-35-6" inkscape:label="rain"></path><path style="display:inline;fill:#1e4ed8;fill-opacity:1;stroke-width:0.65984" d="M 289.39362 -558.95714 L 289.82812 -522.56764 L 290.80576 -525.28325 L 290.15398000000005 -560.47789 Z" id="path10-35-7" inkscape:label="rain"></path><path style="display:inline;fill:#1e4ed8;fill-opacity:1;stroke-width:0.65984" d="M 577.78946 -649.70922 L 578.2239599999999 -613.31972 L 579.2015999999999 -616.0353299999999 L 578.5498199999998 -651.22997 Z" id="path10-35-59" inkscape:label="rain"></path><path style="display:inline;fill:#1e4ed8;fill-opacity:1;stroke-width:0.65984" d="M 119.2684 -1759.8252 L 119.7029 -1723.4357 L 120.68054 -1726.1513 L 120.02875999999999 -1761.346 Z" id="path10-35-26" inkscape:label="rain"></path><path style="display:inline;fill:#1e4ed8;fill-opacity:1;stroke-width:0.65984" d="M 409.51631 -1779.4044 L 409.95081 -1743.0149 L 410.92845 -1745.7305 L 410.27667 -1780.9251 Z" id="path10-35-0" inkscape:label="rain"></path><path style="display:inline;fill:#1e4ed8;fill-opacity:1;stroke-width:0.65984" d="M 535.72255 -1761.6773 L 536.1570499999999 -1725.2878 L 537.1347499999999 -1728.0034 L 536.48295 -1763.1981 Z" id="path10-35-9" inkscape:label="rain"></path><path style="display:inline;fill:#1e4ed8;fill-opacity:1;stroke-width:0.65984" d="M 581.75821 -675.3738 L 582.1927099999999 -638.9843 L 583.1703499999999 -641.6999099999999 L 582.5185699999998 -676.89455 Z" id="path10-35-51" inkscape:label="rain"></path><path style="display:inline;fill:#1e4ed8;fill-opacity:1;stroke-width:0.65984" d="M 109.47881 -1311.6211 L 109.91331 -1275.2316 L 110.89094999999999 -1277.9472 L 110.23916999999999 -1313.1418 Z" id="path10-35-4" inkscape:label="rain"></path><path style="display:inline;fill:#1e4ed8;fill-opacity:1;stroke-width:0.65984" d="M 648.43505 -1321.4106 L 648.86955 -1285.0211 L 649.84725 -1287.7368 L 649.19545 -1322.9314 Z" id="path10-35-98" inkscape:label="rain"></path><path style="display:inline;fill:#1e4ed8;fill-opacity:1;stroke-width:0.65984" d="M 668.01425 -1657.1669 L 668.4487499999999 -1620.7774 L 669.42635 -1623.493 L 668.77455 -1658.6876 Z" id="path10-35-988" inkscape:label="rain"></path><path style="display:inline;fill:#1e4ed8;fill-opacity:1;stroke-width:0.65984" d="M 614.83295 -1838.6711 L 615.2674499999999 -1802.2816 L 616.24515 -1804.9972 L 615.59335 -1840.1918 Z" id="path10-35-8" inkscape:label="rain"></path><path style="display:inline;fill:#1e4ed8;fill-opacity:1;stroke-width:0.65984" d="M 402.49105 -2677.8392 L 402.92555 -2641.4497 L 403.90315 -2644.1653 L 403.25135 -2679.3599 Z" id="path10-35-1" inkscape:label="rain"></path><path style="display:inline;fill:#1e4ed8;fill-opacity:1;stroke-width:0.65984" d="M 400.37435 -2383.8871 L 400.80885 -2347.4975999999997 L 401.78645 -2350.2131999999997 L 401.13475 -2385.4077999999995 Z" id="path10-35-96" inkscape:label="rain"></path><path style="display:inline;fill:#1e4ed8;fill-opacity:1;stroke-width:0.65984" d="M 372.85775 -2137.0308 L 373.29225 -2100.6413000000002 L 374.26985 -2103.3570000000004 L 373.61805000000004 -2138.5516000000002 Z" id="path10-35-968" inkscape:label="rain"></path><path style="display:inline;fill:#1e4ed8;fill-opacity:1;stroke-width:0.65984" d="M 594.04936 -2247.6267 L 594.4838599999999 -2211.2371999999996 L 595.46156 -2213.9527999999996 L 594.80976 -2249.1473999999994 Z" id="path10-35-99" inkscape:label="rain"></path><path style="display:inline;fill:#1e4ed8;fill-opacity:1;stroke-width:0.65984" d="M 649.34726 -2620.6892 L 649.78176 -2584.2996999999996 L 650.75946 -2587.0152999999996 L 650.10766 -2622.2098999999994 Z" id="path10-35-3" inkscape:label="rain"></path><path style="display:inline;fill:#1e4ed8;fill-opacity:1;stroke-width:0.65984" d="M 726.34106 -2389.7079 L 726.7755599999999 -2353.3184 L 727.75316 -2356.034 L 727.10136 -2391.2287 Z" id="path10-35-80" inkscape:label="rain"></path><path style="display:inline;fill:#1e4ed8;fill-opacity:1;stroke-width:0.65984" d="M 706.49726 -2016.6454 L 706.9317599999999 -1980.2559 L 707.90946 -1982.9715 L 707.25766 -2018.1662000000001 Z" id="path10-35-81" inkscape:label="rain"></path><path style="display:inline;fill:#1e4ed8;fill-opacity:1;stroke-width:0.65984" d="M 432.12435 -1947.3246 L 432.55885 -1910.9351 L 433.53645 -1913.6507 L 432.88475 -1948.8453 Z" id="path10-35-22" inkscape:label="rain"></path><path style="display:inline;fill:#1e4ed8;fill-opacity:1;stroke-width:0.65984" d="M 541.80795 -1058.944 L 542.24245 -1022.5545 L 543.22015 -1025.2701 L 542.56835 -1060.4647 Z" id="path10-35-07" inkscape:label="rain"></path><path style="display:inline;fill:#1e4ed8;fill-opacity:1;stroke-width:0.65984" d="M 107.36215 -1114.2419 L 107.79665 -1077.8524 L 108.77429 -1080.568 L 108.12250999999999 -1115.7626 Z" id="path10-35-61" inkscape:label="rain"></path><path style="display:inline;fill:#1e4ed8;fill-opacity:1;stroke-width:0.65984" d="M 285.42487 -191.71547 L 285.85937 -155.32597 L 286.83701 -158.04158 L 286.18523000000005 -193.23622 Z" id="path10-35-86" inkscape:label="rain"></path><path style="display:inline;fill:#1e4ed8;fill-opacity:1;stroke-width:0.65984" d="M 216.36862 -540.96547 L 216.80312 -504.57597 L 217.78076000000001 -507.29158 L 217.12898 -542.48622 Z" id="path10-35-92" inkscape:label="rain"></path><path style="display:inline;fill:#1e4ed8;fill-opacity:1;stroke-width:0.65984" d="M 338.87071 -789.93839 L 339.30521 -753.54889 L 340.28285 -756.2645 L 339.63107 -791.45914 Z" id="path10-35-21" inkscape:label="rain"></path><path style="display:inline;fill:#1e4ed8;fill-opacity:1;stroke-width:0.65984" d="M 176.94571 -408.6738 L 177.38021 -372.28430000000003 L 178.35785 -374.99991000000006 L 177.70607 -410.19455000000005 Z" id="path10-35-29" inkscape:label="rain"></path><path style="display:inline;fill:#1e4ed8;fill-opacity:1;stroke-width:0.65984" d="M 542.07071 -535.14464 L 542.5052099999999 -498.75514 L 543.4828499999999 -501.47075 L 542.8310699999998 -536.66539 Z" id="path10-35-39" inkscape:label="rain"></path><path style="display:inline;fill:#1e4ed8;fill-opacity:1;stroke-width:0.65984" d="M 623.03321 -653.67797 L 623.46771 -617.28847 L 624.44535 -620.0040799999999 L 623.7935699999999 -655.19872 Z" id="path10-35-53" inkscape:label="rain"></path><path style="display:inline;fill:#1e4ed8;fill-opacity:1;stroke-width:0.65984" d="M 516.40612 -436.45505 L 516.84062 -400.06555000000003 L 517.8182599999999 -402.78116000000006 L 517.1664799999999 -437.97580000000005 Z" id="path10-35-867" inkscape:label="rain"></path><path style="display:inline;fill:#1e4ed8;fill-opacity:1;stroke-width:0.65984" d="M 579.11425 -1256.3231 L 579.5487499999999 -1219.9336 L 580.52635 -1222.6493 L 579.87455 -1257.8439 Z" id="path10-35-41" inkscape:label="rain"></path><path style="display:inline;fill:#1e4ed8;fill-opacity:1;stroke-width:0.65984" d="M 214.90145 -2446.8579 L 215.33595000000003 -2410.4683999999997 L 216.31355000000002 -2413.1839999999997 L 215.66185000000002 -2448.3786999999998 Z" id="path10-35-25" inkscape:label="rain"></path><path style="display:inline;fill:#1e4ed8;fill-opacity:1;stroke-width:0.65984" d="M 413.48506 -1518.7898 L 413.91956 -1482.4003 L 414.8972 -1485.1159 L 414.24542 -1520.3106 Z" id="path10-35-250" inkscape:label="rain"></path><path style="display:inline;fill:#1e4ed8;fill-opacity:1;stroke-width:0.65984" d="M 212.13715 -1256.3231 L 212.57165 -1219.9336 L 213.54929 -1222.6493 L 212.89751 -1257.8439 Z" id="path10-35-967" inkscape:label="rain"></path><path style="display:inline;fill:#1e4ed8;fill-opacity:1;stroke-width:0.65984" d="M 123.23715 -1507.1481 L 123.67165 -1470.7586000000001 L 124.64929 -1473.4743 L 123.99750999999999 -1508.6689000000001 Z" id="path10-35-93" inkscape:label="rain"></path><path style="display:inline;fill:#1e4ed8;fill-opacity:1;stroke-width:0.65984" d="M 292.83506 -1572.2356 L 293.26956 -1535.8461 L 294.2472 -1538.5618 L 293.59542000000005 -1573.7564 Z" id="path10-35-58" inkscape:label="rain"></path><path style="display:inline;fill:#1e4ed8;fill-opacity:1;stroke-width:0.65984" d="M 344.16423 -1339.1377 L 344.59873 -1302.7482 L 345.57637 -1305.4638 L 344.92459 -1340.6585 Z" id="path10-35-16" inkscape:label="rain"></path><path style="display:inline;fill:#1e4ed8;fill-opacity:1;stroke-width:0.65984" d="M 349.04525 -2435.2163 L 349.47975 -2398.8268 L 350.45735 -2401.5424 L 349.80555000000004 -2436.7369999999996 Z" id="path10-35-55" inkscape:label="rain"></path><path style="display:inline;fill:#1e4ed8;fill-opacity:1;stroke-width:0.65984" d="M 526.84526 -2648.2058 L 527.27976 -2611.8163000000004 L 528.2573600000001 -2614.5320000000006 L 527.6055600000001 -2649.7266000000004 Z" id="path10-35-536" inkscape:label="rain"></path><path style="display:inline;fill:#1e4ed8;fill-opacity:1;stroke-width:0.65984" d="M 615.74526 -2445.0058 L 616.17976 -2408.6162999999997 L 617.15736 -2411.332 L 616.5055600000001 -2446.5265999999997 Z" id="path10-35-14" inkscape:label="rain"></path><path style="display:inline;fill:#1e4ed8;fill-opacity:1;stroke-width:0.65984" d="M 550.65776 -2079.6162 L 551.09226 -2043.2267 L 552.0698600000001 -2045.9424 L 551.4180600000001 -2081.1369999999997 Z" id="path10-35-50" inkscape:label="rain"></path><path style="display:inline;fill:#1e4ed8;fill-opacity:1;stroke-width:0.65984" d="M 230.77645 -2036.2246 L 231.21095000000003 -1999.8351 L 232.18855000000002 -2002.5507 L 231.53685000000002 -2037.7453 Z" id="path10-35-293" inkscape:label="rain"></path><path style="display:inline;fill:#1e4ed8;fill-opacity:1;stroke-width:0.65984" d="M 152.87048 -1124.0315 L 153.30498 -1087.642 L 154.28262 -1090.3576 L 153.63084 -1125.5522 Z" id="path10-35-963" inkscape:label="rain"></path><path style="display:inline;fill:#1e4ed8;fill-opacity:1;stroke-width:0.65984" d="M 406.07487 -175.84047 L 406.50937 -139.45097 L 407.48701 -142.16658 L 406.83523 -177.36122 Z" id="path10-35-75" inkscape:label="rain"></path><path style="display:inline;fill:#1e4ed8;fill-opacity:1;stroke-width:0.65984" d="M 473.01446 -98.846771 L 473.44896 -62.457171 L 474.4266 -65.172871 L 473.77482000000003 -100.36747 Z" id="path10-35-74" inkscape:label="rain"></path><path style="display:inline;fill:#1e4ed8;fill-opacity:1;stroke-width:0.65984" d="M 602.92675 -971.89606 L 603.3612499999999 -935.50656 L 604.33885 -938.22216 L 603.68705 -973.4167600000001 Z" id="path10-35-2930" inkscape:label="rain"></path><path style="display:inline;fill:#1e4ed8;fill-opacity:1;stroke-width:0.65984" d="M 558.33066 -1915.8392 L 558.7651599999999 -1879.4496 L 559.74276 -1882.1652 L 559.09096 -1917.3599 Z" id="path10-35-30" inkscape:label="rain"></path><path style="display:inline;fill:#1e4ed8;fill-opacity:1;stroke-width:0.65984" d="M 617.59726 -2093.6392 L 618.03176 -2057.2497000000003 L 619.00946 -2059.9653000000003 L 618.35766 -2095.1599 Z" id="path10-35-20" inkscape:label="rain"></path><path style="display:inline;fill:#1e4ed8;fill-opacity:1;stroke-width:0.65984" d="M 195.05775 -2180.4225 L 195.49225 -2144.0330000000004 L 196.46985 -2146.7486000000004 L 195.81805 -2181.9433000000004 Z" id="path10-35-753" inkscape:label="rain"></path><path style="display:inline;fill:#1e4ed8;fill-opacity:1;stroke-width:0.65984" d="M 290.98298 -1153.6648 L 291.41748 -1117.2753 L 292.39512 -1119.9909 L 291.74334000000005 -1155.1856 Z" id="path10-35-13" inkscape:label="rain"></path><path style="display:inline;fill:#1e4ed8;fill-opacity:1;stroke-width:0.65984" d="M 406.07487 -363.43005 L 406.50937 -327.04055 L 407.48701 -329.75616 L 406.83523 -364.9508 Z" id="path10-35-12" inkscape:label="rain"></path><path style="display:inline;fill:#1e4ed8;fill-opacity:1;stroke-width:0.65984" d="M 330.93321 -689.13214 L 331.36771 -652.74264 L 332.34535 -655.45825 L 331.69357 -690.6528900000001 Z" id="path10-35-070" inkscape:label="rain"></path><path style="display:inline;fill:#1e4ed8;fill-opacity:1;stroke-width:0.65984" d="M 338.87071 -949.74672 L 339.30521 -913.35722 L 340.28285 -916.07283 L 339.63107 -951.26747 Z" id="path10-35-531" inkscape:label="rain"></path><path style="display:inline;fill:#1e4ed8;fill-opacity:1;stroke-width:0.65984" d="M 190.70404 -663.46755 L 191.13854 -627.07805 L 192.11618 -629.7936599999999 L 191.4644 -664.9883 Z" id="path10-35-00" inkscape:label="rain"></path><path style="display:inline;fill:#1e4ed8;fill-opacity:1;stroke-width:0.65984" d="M 212.39987 -256.80297 L 212.83437 -220.41347000000002 L 213.81201000000001 -223.12908000000002 L 213.16023 -258.32372000000004 Z" id="path10-35-56" inkscape:label="rain"></path><path style="display:inline;fill:#1e4ed8;fill-opacity:1;stroke-width:0.65984" d="M 161.07071 -578.5363 L 161.50521 -542.1468 L 162.48285 -544.86241 L 161.83107 -580.05705 Z" id="path10-35-68" inkscape:label="rain"></path><path style="display:inline;fill:#1e4ed8;fill-opacity:1;stroke-width:0.65984" d="M 259.76029 -1001.0759 L 260.19479 -964.6863900000001 L 261.17243 -967.402 L 260.52065000000005 -1002.5966000000001 Z" id="path10-35-49" inkscape:label="rain"></path><path style="display:inline;fill:#1e4ed8;fill-opacity:1;stroke-width:0.65984" d="M 289.1309 -1846.6086 L 289.5654 -1810.2191 L 290.54304 -1812.9347 L 289.89126000000005 -1848.1293 Z" id="path10-35-60" inkscape:label="rain"></path><path style="display:inline;fill:#1e4ed8;fill-opacity:1;stroke-width:0.65984" d="M 430.00775 -2715.41 L 430.44225 -2679.0204999999996 L 431.41985 -2681.7360999999996 L 430.76805 -2716.9307999999996 Z" id="path10-35-73" inkscape:label="rain"></path><path style="display:inline;fill:#1e4ed8;fill-opacity:1;stroke-width:0.65984" d="M 566.26816 -2624.6579 L 566.7026599999999 -2588.2684 L 567.68026 -2590.984 L 567.02846 -2626.1787 Z" id="path10-35-65" inkscape:label="rain"></path><path style="display:inline;fill:#1e4ed8;fill-opacity:1;stroke-width:0.65984" d="M 521.02436 -2156.61 L 521.45886 -2120.2205000000004 L 522.43646 -2122.9361000000004 L 521.78476 -2158.1308000000004 Z" id="path10-35-79" inkscape:label="rain"></path><path style="display:inline;fill:#1e4ed8;fill-opacity:1;stroke-width:0.65984" d="M 114.35975 -1998.6537 L 114.79425 -1962.2642 L 115.77195 -1964.9799 L 115.12015000000001 -2000.1745 Z" id="path10-35-23" inkscape:label="rain"></path><path style="display:inline;fill:#1e4ed8;fill-opacity:1;stroke-width:0.65984" d="M 373.79756 -1706.3794 L 374.23206 -1669.9899 L 375.2097 -1672.7055 L 374.55792 -1707.9001 Z" id="path10-35-54" inkscape:label="rain"></path><path style="display:inline;fill:#1e4ed8;fill-opacity:1;stroke-width:0.65984" d="M 575.67279 -884.65922 L 576.1072899999999 -848.26972 L 577.0849299999999 -850.98533 L 576.4331499999998 -886.17997 Z" id="path10-35-611" inkscape:label="rain"></path><path style="display:inline;fill:#1e4ed8;fill-opacity:1;stroke-width:0.65984" d="M 358.71446 -452.33005 L 359.14896 -415.94055000000003 L 360.1266 -418.65616000000006 L 359.47482 -453.85080000000005 Z" id="path10-35-04" inkscape:label="rain"></path><path style="display:inline;fill:#1e4ed8;fill-opacity:1;stroke-width:0.65984" d="M 141.49154 -509.48005 L 141.92604 -473.09055 L 142.90368 -475.80616000000003 L 142.2519 -511.0008 Z" id="path10-35-290" inkscape:label="rain"></path><path style="display:inline;fill:#1e4ed8;fill-opacity:1;stroke-width:0.65984" d="M 642.87696 -815.60297 L 643.31146 -779.21347 L 644.2891 -781.92908 L 643.6373199999999 -817.12372 Z" id="path10-35-77" inkscape:label="rain"></path><path style="display:inline;fill:#1e4ed8;fill-opacity:1;stroke-width:0.65984" d="M 123.23715 -1201.0252 L 123.67165 -1164.6357 L 124.64929 -1167.3513 L 123.99750999999999 -1202.546 Z" id="path10-35-074" inkscape:label="rain"></path><path style="display:inline;fill:#1e4ed8;fill-opacity:1;stroke-width:0.65984" d="M 453.82026 -2219.8454 L 454.25476000000003 -2183.4559 L 455.23236 -2186.1715 L 454.58056000000005 -2221.3662 Z" id="path10-35-10" inkscape:label="rain"></path><path style="display:inline;fill:#1e4ed8;fill-opacity:1;stroke-width:0.65984" d="M 570.23686 -2598.9933 L 570.6713599999999 -2562.6038 L 571.64906 -2565.3195 L 570.99726 -2600.5141 Z" id="path10-35-501" inkscape:label="rain"></path><path style="display:inline;fill:#1e4ed8;fill-opacity:1;stroke-width:0.65984" d="M 92.014464 -935.98839 L 92.448964 -899.59889 L 93.426664 -902.3145 L 92.77486400000001 -937.50914 Z" id="path10-35-501-0" inkscape:label="rain"></path><path style="display:inline;fill:#1e4ed8;fill-opacity:1;stroke-width:0.65984" d="M 98.099864 -712.94464 L 98.534364 -676.55514 L 99.512064 -679.27075 L 98.860264 -714.4653900000001 Z" id="path10-35-501-6" inkscape:label="rain"></path><path style="display:inline;fill:#1e4ed8;fill-opacity:1;stroke-width:0.65984" d="M 72.435264 -393.06339 L 72.869764 -356.67389000000003 L 73.847464 -359.38950000000006 L 73.19566400000001 -394.58414000000005 Z" id="path10-35-501-1" inkscape:label="rain"></path><path style="display:inline;fill:#1e4ed8;fill-opacity:1;stroke-width:0.65984" d="M 80.108264 -112.60505 L 80.542764 -76.21557100000001 L 81.520464 -78.931171 L 80.86866400000001 -114.1258 Z" id="path10-35-501-7" inkscape:label="rain"></path><path style="display:inline;fill:#1e4ed8;fill-opacity:1;stroke-width:0.65984" d="M 577.26215 -1319.5586 L 577.69665 -1283.1691 L 578.67435 -1285.8847 L 578.02255 -1321.0793 Z" id="path10-35-501-13" inkscape:label="rain"></path><path style="display:inline;fill:#1e4ed8;fill-opacity:1;stroke-width:0.65984" d="M 647.23066 -2575.1808 L 647.6651599999999 -2538.7913 L 648.6428599999999 -2541.507 L 647.99106 -2576.7016 Z" id="path10-35-501-2" inkscape:label="rain"></path><path style="display:inline;fill:#1e4ed8;fill-opacity:1;stroke-width:0.65984" d="M 688.77026 -2733.1371 L 689.20476 -2696.7475999999997 L 690.18246 -2699.4631999999997 L 689.53066 -2734.6577999999995 Z" id="path10-35-501-4" inkscape:label="rain"></path><path style="display:inline;fill:#1e4ed8;fill-opacity:1;stroke-width:0.65984" d="M 539.69135 -1864.3356 L 540.12585 -1827.9461000000001 L 541.10355 -1830.6618 L 540.4517500000001 -1865.8564000000001 Z" id="path10-35-501-9" inkscape:label="rain"></path><path style="display:inline;fill:#1e4ed8;fill-opacity:1;stroke-width:0.65984" d="M 686.26866 -787.82172 L 686.7031599999999 -751.43222 L 687.6808599999999 -754.14783 L 687.02906 -789.34247 Z" id="path10-35-501-15" inkscape:label="rain"></path><path style="display:inline;fill:#1e4ed8;fill-opacity:1;stroke-width:0.65984" d="M 145.84525 -2510.0933 L 146.27975 -2473.7038000000002 L 147.25745 -2476.4195000000004 L 146.60565 -2511.6141000000002 Z" id="path10-35-501-3" inkscape:label="rain"></path><path style="display:inline;fill:#1e4ed8;fill-opacity:1;stroke-width:0.65984" d="M 343.22435 -2255.5642 L 343.65885000000003 -2219.1746999999996 L 344.63655000000006 -2221.8902999999996 L 343.9847500000001 -2257.0848999999994 Z" id="path10-35-501-5" inkscape:label="rain"></path><path style="display:inline;fill:#1e4ed8;fill-opacity:1;stroke-width:0.65984" d="M 107.36215 -1135.9377 L 107.79665 -1099.5482 L 108.77435 -1102.2638 L 108.12255 -1137.4585 Z" id="path10-35-501-64" inkscape:label="rain"></path><path style="display:inline;fill:#1e4ed8;fill-opacity:1;stroke-width:0.65984" d="M 479.09986 -617.95922 L 479.53436 -581.56972 L 480.51206 -584.2853299999999 L 479.86026000000004 -619.47997 Z" id="path10-35-501-91" inkscape:label="rain"></path><path style="display:inline;fill:#1e4ed8;fill-opacity:1;stroke-width:0.65984" d="M 396.02076 -448.3613 L 396.45526 -411.97180000000003 L 397.43296000000004 -414.68741000000006 L 396.78116000000006 -449.88205000000005 Z" id="path10-35-501-63" inkscape:label="rain"></path><path style="display:inline;fill:#1e4ed8;fill-opacity:1;stroke-width:0.65984" d="M 168.48092 -1094.3981 L 168.91542 -1058.0086000000001 L 169.89312 -1060.7242 L 169.24132 -1095.9189000000001 Z" id="path10-35-501-10" inkscape:label="rain"></path><path style="display:inline;fill:#1e4ed8;fill-opacity:1;stroke-width:0.65984" d="M 512.17465 -1366.919 L 512.60915 -1330.5295 L 513.58685 -1333.2451 L 512.93505 -1368.4397000000001 Z" id="path10-35-501-22" inkscape:label="rain"></path><path style="display:inline;fill:#1e4ed8;fill-opacity:1;stroke-width:0.65984" d="M 560.06236 -697.06964 L 560.49686 -660.68014 L 561.47456 -663.39575 L 560.82276 -698.5903900000001 Z" id="path10-35-501-23" inkscape:label="rain"></path><path style="display:inline;fill:#1e4ed8;fill-opacity:1;stroke-width:0.65984" d="M 472.75175 -1799.2481 L 473.18625000000003 -1762.8586 L 474.16395000000006 -1765.5743 L 473.5121500000001 -1800.7689 Z" id="path10-35-501-52" inkscape:label="rain"></path><path style="display:inline;fill:#1e4ed8;fill-opacity:1;stroke-width:0.65984" d="M 455.67236 -2458.7642 L 456.10686000000004 -2422.3747000000003 L 457.08456000000007 -2425.0903000000003 L 456.4327600000001 -2460.2849 Z" id="path10-35-501-25" inkscape:label="rain"></path><path style="display:inline;fill:#1e4ed8;fill-opacity:1;stroke-width:0.65984" d="M 392.70145 -1941.5037 L 393.13595000000004 -1905.1142 L 394.11365000000006 -1907.8299 L 393.4618500000001 -1943.0245 Z" id="path10-35-501-50" inkscape:label="rain"></path><path style="display:inline;fill:#1e4ed8;fill-opacity:1;stroke-width:0.65984" d="M 204.19967 -1128.0002 L 204.63417 -1091.6107 L 205.61187 -1094.3263 L 204.96007 -1129.521 Z" id="path10-35-501-34" inkscape:label="rain"></path><animateTransform attributeName="transform" attributeType="auto" type="translate" values="0 0;0 5500" calcMode="spline" keyTimes="0;1" keySplines="0 0 1 1" dur="7.94s" begin="0s" repeatCount="1" additive="sum" accumulate="none" id="animateTransform5816" style="stroke: none; stroke-width: 1px; stroke-linejoin: miter; stroke-linecap: butt; stroke-miterlimit: 4; opacity: 1; filter: none; fill: rgb(0, 0, 0);"></animateTransform></g></g></svg>