<svg width="210mm" height="297mm" viewBox="0 0 210 297" version="1.1" id="svg1" inkscape:version="1.4.3 (0d15f75, 2025-12-25)" sodipodi:docname="winter.svg" xmlns:inkscape="http://www.inkscape.org/namespaces/inkscape" xmlns:sodipodi="http://sodipodi.sourceforge.net/DTD/sodipodi-0.dtd" xmlns:xlink="http://www.w3.org/1999/xlink" xmlns="http://www.w3.org/2000/svg" xmlns:svg="http://www.w3.org/2000/svg" preserveAspectRatio="xMidYMid" style="fill: rgb(0, 0, 0); stroke: none; stroke-width: 1px; stroke-linejoin: miter; stroke-linecap: butt; stroke-miterlimit: 4; opacity: 1; filter: none;">
  <sodipodi:namedview id="namedview1" pagecolor="#ffffff" bordercolor="#000000" borderopacity="0.25" inkscape:showpageshadow="2" inkscape:pageopacity="0.0" inkscape:pagecheckerboard="0" inkscape:deskcolor="#d1d1d1" inkscape:document-units="mm" inkscape:zoom="0.37905794" inkscape:cx="13.190596" inkscape:cy="-241.3879" inkscape:window-width="1920" inkscape:window-height="1111" inkscape:window-x="-9" inkscape:window-y="-9" inkscape:window-maximized="1" inkscape:current-layer="layer3-3"></sodipodi:namedview>
  <defs id="defs1">
    <linearGradient inkscape:collect="always" xlink:href="#linearGradient7" id="linearGradient8-4" x1="109.88719" y1="3.4478526" x2="115.06703" y2="296.90793" gradientUnits="userSpaceOnUse" spreadMethod="pad" gradientTransform="translate(110.98237)"></linearGradient>
    <linearGradient id="linearGradient7" inkscape:collect="always">
      <stop style="stop-color:#bfd1dc;stop-opacity:1;" offset="0" id="stop7"></stop>
      <stop style="stop-color:#c7d6dd;stop-opacity:1;" offset="0.38147011" id="stop10"></stop>
      <stop style="stop-color:#e16b5c;stop-opacity:1;" offset="1" id="stop8-8"></stop>
    </linearGradient>
  </defs>
  <g inkscape:groupmode="layer" id="layer3-2" inkscape:label="Sky" style="display:inline;fill:#000000" transform="translate(-118.45212,13.181079)">
    <path style="opacity:1;fill:url(#linearGradient8-4);fill-opacity:1;fill-rule:nonzero;stroke-width:0.264583" d=" M 178.10683,-25.171672 C 142.07679,-25.665234 81.862206,-3.4549352 81.862206,-3.4549352 l 8.884118,97.2317502 c 0,0 5.429184,39.978535 -13.326179,79.463515 -18.755362,39.48497 25.665235,183.11156 25.665235,183.11156 l 256.15877,-20.23605 c 0,0 52.31758,-46.39484 23.69099,-145.10727 -28.62661,-98.71244 -28.62661,-98.71244 -28.62661,-98.71244 0,0 11.35193,-101.1802495 -27.63948,-115.493553 -38.99142,-14.313304 -148.56222,-1.974249 -148.56222,-1.974249 z " id="path4-4" inkscape:label="sky"></path>
  </g>
  <g inkscape:groupmode="layer" id="layer4-7" inkscape:label="Sun" style="display:inline" transform="translate(-0.25073454,5.1054868)">
    <ellipse style="fill:#d94a45;fill-opacity:1;stroke-width:0.265;stroke-dasharray:none" id="path6-6" cx="164.84976" cy="171.26608" rx="54.785404" ry="52.811153" inkscape:label="sun"></ellipse>
  </g>
  <g inkscape:label="Foreground 3" inkscape:groupmode="layer" id="layer1-5" class="hill1" transform="translate(-1.0926367,-95.495827)" style="display:inline">
    <path style="fill: rgb(185, 204, 217); fill-opacity: 1; stroke-width: 0.255611; stroke: none; stroke-linejoin: miter; stroke-linecap: butt; stroke-miterlimit: 4; opacity: 1; filter: none;" d="M 231.14222 311.04822 C 109.06784 260.21131 141.77455 275.51174 74.057829 279.9538 C 6.3411035 284.39586 -24.522987 271.06968 -24.522987 271.06968 L -4.7146877 461.5847 L 209.03064 442.33576 Z" id="path3" inkscape:label="hill3"><animateTransform attributeName="transform" attributeType="auto" type="translate" values="352.54 211.77;0 0" calcMode="spline" keyTimes="0;1" keySplines="0 0 1 1" dur="6s" begin="0s" repeatCount="1" additive="sum" accumulate="none" id="animateTransform1837" style="stroke: none; stroke-width: 0.255611px; stroke-linejoin: miter; stroke-linecap: butt; stroke-miterlimit: 4; opacity: 1; filter: none; fill: rgb(185, 204, 217);"></animateTransform></path>
  </g>
  <g inkscape:label="Foreground 2" inkscape:groupmode="layer" id="layer1-4" class="hill2" transform="translate(-1.0926367,-95.495827)" style="display: inline; fill: rgb(0, 0, 0); stroke: none; stroke-width: 1px; stroke-linejoin: miter; stroke-linecap: butt; stroke-miterlimit: 4; opacity: 1; filter: none;">
    <path style="fill: rgb(214, 225, 232); fill-opacity: 1; stroke-width: 0.264583; stroke: none; stroke-linejoin: miter; stroke-linecap: butt; stroke-miterlimit: 4; opacity: 1; filter: none;" d="M -17.542968 299.95033 C 114.73170999999999 285.63703 9.6029522 317.22501 151.74887 319.19926 C 293.89477999999997 321.17350999999996 280.07502999999997 348.31943 280.07502999999997 348.31943 L 187.77890999999997 431.23788 L -21.98502700000003 409.52114 Z" id="path2" inkscape:label="hill2"><animateTransform attributeName="transform" attributeType="auto" type="translate" values="-396.1 240.23;0 0" calcMode="spline" keyTimes="0;1" keySplines="0 0 1 1" dur="3.92s" begin="0s" repeatCount="1" additive="sum" accumulate="none" id="animateTransform7455" style="stroke: none; stroke-width: 0.264583px; stroke-linejoin: miter; stroke-linecap: butt; stroke-miterlimit: 4; opacity: 1; filter: none; fill: rgb(214, 225, 232);"></animateTransform></path>
  </g>
  <g inkscape:label="Foreground 1" inkscape:groupmode="layer" id="layer1" class="hill3" style="display: inline; fill: rgb(0, 0, 0); stroke: none; stroke-width: 1px; stroke-linejoin: miter; stroke-linecap: butt; stroke-miterlimit: 4; opacity: 1; filter: none;">
    <path style="fill: rgb(230, 238, 242); fill-opacity: 1; stroke-width: 0.264583; stroke: none; stroke-linejoin: miter; stroke-linecap: butt; stroke-miterlimit: 4; opacity: 1; filter: none;" d="M -49.475976 322.57069 C 34.429593999999994 207.57071000000002 -0.11975825000000384 267.29173000000003 102.04760999999999 225.33895 C 204.21498 183.38616000000002 249.62270999999998 292.4634 249.62270999999998 292.4634 L 236.79009 378.8368 L -4.068255899999997 375.87541999999996 Z" id="path1" inkscape:label="hill1"><animateTransform attributeName="transform" attributeType="auto" type="translate" values="0 200;0 0" calcMode="spline" keyTimes="0; 1" keySplines="0 0 1 1" dur="1.999s" begin="0s" repeatCount="1" additive="sum" accumulate="none" id="animateTransform759" style="stroke: none; stroke-width: 0.264583px; stroke-linejoin: miter; stroke-linecap: butt; stroke-miterlimit: 4; opacity: 1; filter: none; fill: rgb(230, 238, 242);"></animateTransform></path>
  </g>
  <g inkscape:groupmode="layer" id="layer2" inkscape:label="Snowflakes" style="display: inline; fill: rgb(0, 0, 0); stroke: none; stroke-width: 1px; stroke-linejoin: miter; stroke-linecap: butt; stroke-miterlimit: 4; opacity: 1; filter: none;">
    <g inkscape:groupmode="layer" id="layer3" inkscape:label="Snowflakes 1" style="fill: rgb(0, 0, 0); stroke: none; stroke-width: 1px; stroke-linejoin: miter; stroke-linecap: butt; stroke-miterlimit: 4; opacity: 1; filter: none;">
      <path style="display:inline;fill:#f5f7f6;fill-opacity:1;stroke-width:0.150784" d=" M 18.626566 -21.361718 L 15.344829 -20.168359 L 13.853131000000001 -18.079981999999998 L 14.002301000000001 -15.842432999999998 L 15.543723000000002 -13.654607999999998 L 17.980164000000002 -12.809313999999997 L 21.361347000000002 -13.654607999999996 L 23.101663000000002 -15.792709999999996 L 23.101663000000002 -18.179427999999994 L 21.311624000000002 -20.466697999999994 L 19.720479 -21.262271999999992 Z " id="path7" inkscape:label="snowflake"></path>
      <path style="display:inline;fill:#f5f7f6;fill-opacity:1;stroke-width:0.150784" d=" M 48.429685 -84.666667 L 45.147948 -83.473308 L 43.65625 -81.38493100000001 L 43.80542 -79.14738200000001 L 45.346841999999995 -76.959557 L 47.783283 -76.11426300000001 L 51.164466 -76.959557 L 52.904782 -79.09765900000001 L 52.904782 -81.48437700000001 L 51.114743 -83.77164700000002 L 49.523598 -84.56722100000002 Z " id="path7-7" inkscape:label="snowflake"></path>
      <path style="display:inline;fill:#f5f7f6;fill-opacity:1;stroke-width:0.150784" d=" M 15.621352 -125.14792 L 12.339615 -123.95456 L 10.847917 -121.86618 L 10.997087 -119.62863 L 12.538509000000001 -117.44081 L 14.974950000000002 -116.59551 L 18.356133 -117.44081 L 20.096449 -119.57891 L 20.096449 -121.96562999999999 L 18.30641 -124.2529 L 16.715265 -125.04847 Z " id="path7-9" inkscape:label="snowflake"></path>
      <path style="display:inline;fill:#f5f7f6;fill-opacity:1;stroke-width:0.150784" d=" M 42.079685 -197.64375 L 38.797948 -196.45039 L 37.30625 -194.36201 L 37.45542 -192.12446 L 38.996841999999994 -189.93664 L 41.433282999999996 -189.09134 L 44.814465999999996 -189.93664 L 46.554781999999996 -192.07474000000002 L 46.554781999999996 -194.46146000000002 L 44.764742999999996 -196.74873000000002 L 43.173598 -197.54430000000002 Z " id="path7-5" inkscape:label="snowflake"></path>
      <path style="display:inline;fill:#f5f7f6;fill-opacity:1;stroke-width:0.150784" d=" M 97.113018 -222.77917 L 93.83128099999999 -221.58580999999998 L 92.33958299999999 -219.49742999999998 L 92.48875299999999 -217.25987999999998 L 94.03017499999999 -215.07206 L 96.46661599999999 -214.22675999999998 L 99.84779899999998 -215.07206 L 101.58811999999998 -217.21016 L 101.58811999999998 -219.59688 L 99.79807599999998 -221.88415 L 98.20693099999998 -222.67972 Z " id="path7-0" inkscape:label="snowflake"></path>
      <path style="display:inline;fill:#f5f7f6;fill-opacity:1;stroke-width:0.150784" d=" M 152.41094 -166.95209 L 149.1292 -165.75872999999999 L 147.6375 -163.67034999999998 L 147.78667 -161.4328 L 149.32808999999997 -159.24498 L 151.76452999999998 -158.39968 L 155.14571999999998 -159.24498 L 156.88602999999998 -161.38308 L 156.88602999999998 -163.7698 L 155.09598999999997 -166.05707 L 153.50484999999998 -166.85264 Z " id="path7-50" inkscape:label="snowflake"></path>
      <path style="display:inline;fill:#f5f7f6;fill-opacity:1;stroke-width:0.150784" d=" M 111.92968 -70.64375 L 108.64795000000001 -69.450391 L 107.15625000000001 -67.362014 L 107.30542000000001 -65.124465 L 108.84684000000001 -62.93664 L 111.28328000000002 -62.091345999999994 L 114.66447000000002 -62.93664 L 116.40478000000002 -65.074742 L 116.40478000000002 -67.46146 L 114.61474000000001 -69.74873000000001 L 113.02360000000002 -70.54430400000001 Z " id="path7-1" inkscape:label="snowflake"></path>
      <path style="display:inline;fill:#f5f7f6;fill-opacity:1;stroke-width:0.150784" d=" M 183.63177 -65.616667 L 180.35002999999998 -64.423308 L 178.85832999999997 -62.334931000000005 L 179.00749999999996 -60.097382 L 180.54891999999995 -57.90955700000001 L 182.98535999999996 -57.064263000000004 L 186.36654999999996 -57.90955700000001 L 188.10685999999995 -60.04765900000001 L 188.10685999999995 -62.43437700000001 L 186.31681999999995 -64.72164700000002 L 184.72567999999995 -65.51722100000002 Z " id="path7-4" inkscape:label="snowflake"></path>
      <path style="display:inline;fill:#f5f7f6;fill-opacity:1;stroke-width:0.150784" d=" M 199.77136 -184.41459 L 196.48961999999997 -183.22123 L 194.99791999999997 -181.13285 L 195.14708999999996 -178.8953 L 196.68850999999995 -176.70748 L 199.12494999999996 -175.86218 L 202.50613999999996 -176.70748 L 204.24644999999995 -178.84558 L 204.24644999999995 -181.2323 L 202.45640999999995 -183.51957000000002 L 200.86526999999995 -184.31514 Z " id="path7-18" inkscape:label="snowflake"></path>
      <path style="display:inline;fill:#f5f7f6;fill-opacity:1;stroke-width:0.150784" d=" M 94.996352 -196.32084 L 91.714615 -195.12748 L 90.222917 -193.0391 L 90.372087 -190.80155 L 91.91350899999999 -188.61373 L 94.34994999999999 -187.76843 L 97.731133 -188.61373 L 99.471449 -190.75183 L 99.471449 -193.13855 L 97.68141000000001 -195.42582000000002 L 96.09026500000002 -196.22139 Z " id="path7-8" inkscape:label="snowflake"></path>
      <path style="display:inline;fill:#f5f7f6;fill-opacity:1;stroke-width:0.150784" d=" M 75.417185 -136.26042 L 72.135448 -135.06706 L 70.64375 -132.97868 L 70.79292 -130.74113 L 72.33434199999999 -128.55331 L 74.770783 -127.70801000000002 L 78.15196599999999 -128.55331 L 79.892282 -130.69141000000002 L 79.892282 -133.07813000000002 L 78.102243 -135.36540000000002 L 76.511098 -136.16097000000002 Z " id="path7-3" inkscape:label="snowflake"></path>
      <path style="display:inline;fill:#f5f7f6;fill-opacity:1;stroke-width:0.150784" d=" M 154.52761 -71.172917 L 151.24587 -69.979558 L 149.75417 -67.891181 L 149.90334 -65.653632 L 151.44475999999997 -63.465807 L 153.88119999999998 -62.620512999999995 L 157.26238999999998 -63.465807 L 159.00269999999998 -65.603909 L 159.00269999999998 -67.990627 L 157.21265999999997 -70.27789700000001 L 155.62151999999998 -71.07347100000001 Z " id="path7-07" inkscape:label="snowflake"></path>
      <path style="display:inline;fill:#f5f7f6;fill-opacity:1;stroke-width:0.150784" d=" M 210.35469 -41.275 L 207.07295 -40.081641 L 205.58124999999998 -37.993263999999996 L 205.73041999999998 -35.755714999999995 L 207.27183999999997 -33.56788999999999 L 209.70827999999997 -32.72259599999999 L 213.08946999999998 -33.56788999999999 L 214.82977999999997 -35.705991999999995 L 214.82977999999997 -38.09271 L 213.03973999999997 -40.379979999999996 L 211.44859999999997 -41.175554 Z " id="path7-54" inkscape:label="snowflake"></path>
      <path style="display:inline;fill:#f5f7f6;fill-opacity:1;stroke-width:0.150784" d=" M 192.09844 -236.00834 L 188.8167 -234.81498 L 187.325 -232.7266 L 187.47417 -230.48905 L 189.01558999999997 -228.30123 L 191.45202999999998 -227.45593 L 194.83321999999998 -228.30123 L 196.57352999999998 -230.43933 L 196.57352999999998 -232.82605 L 194.78348999999997 -235.11332000000002 L 193.19234999999998 -235.90889 Z " id="path7-37" inkscape:label="snowflake"></path>
      <path style="display:inline;fill:#f5f7f6;fill-opacity:1;stroke-width:0.150784" d=" M 99.229685 -282.04584 L 95.947948 -280.85248 L 94.45625 -278.76410000000004 L 94.60542 -276.52655000000004 L 96.14684199999999 -274.33873000000006 L 98.583283 -273.49343000000005 L 101.96446999999999 -274.33873000000006 L 103.70477999999999 -276.47683000000006 L 103.70477999999999 -278.8635500000001 L 101.91473999999998 -281.15082000000007 L 100.32359999999998 -281.94639000000006 Z " id="path7-6" inkscape:label="snowflake"></path>
      <path style="display:inline;fill:#f5f7f6;fill-opacity:1;stroke-width:0.150784" d=" M 9.8005183 -229.12917 L 6.5187813000000006 -227.93580999999998 L 5.027083300000001 -225.84742999999997 L 5.176253300000001 -223.60987999999998 L 6.717675300000001 -221.42206 L 9.1541163 -220.57675999999998 L 12.535299 -221.42206 L 14.275615 -223.56016 L 14.275615 -225.94688 L 12.485576 -228.23415 L 10.894431 -229.02972 Z " id="path7-12" inkscape:label="snowflake"></path>
      <path style="display:inline;fill:#f5f7f6;fill-opacity:1;stroke-width:0.150784" d=" M 160.08386 -253.47084 L 156.80211999999997 -252.27748 L 155.31041999999997 -250.1891 L 155.45958999999996 -247.95155 L 157.00100999999995 -245.76373 L 159.43744999999996 -244.91843 L 162.81863999999996 -245.76373 L 164.55894999999995 -247.90183000000002 L 164.55894999999995 -250.28855000000001 L 162.76890999999995 -252.57582000000002 L 161.17776999999995 -253.37139000000002 Z " id="path7-60" inkscape:label="snowflake"></path>
      <path style="display:inline;fill:#f5f7f6;fill-opacity:1;stroke-width:0.150784" d=" M 151.61719 -201.08334 L 148.33544999999998 -199.88997999999998 L 146.84374999999997 -197.80159999999998 L 146.99291999999997 -195.56404999999998 L 148.53433999999996 -193.37623 L 150.97077999999996 -192.53092999999998 L 154.35196999999997 -193.37623 L 156.09227999999996 -195.51433 L 156.09227999999996 -197.90105 L 154.30223999999995 -200.18832 L 152.71109999999996 -200.98389 Z " id="path7-77" inkscape:label="snowflake"></path>
      <path style="display:inline;fill:#f5f7f6;fill-opacity:1;stroke-width:0.150784" d=" M 81.767185 -270.13959 L 78.48544799999999 -268.94623 L 76.99374999999999 -266.85785000000004 L 77.14291999999999 -264.62030000000004 L 78.68434199999999 -262.43248000000006 L 81.12078299999999 -261.58718000000005 L 84.50196599999998 -262.43248000000006 L 86.24228199999999 -264.57058000000006 L 86.24228199999999 -266.9573000000001 L 84.452243 -269.24457000000007 L 82.861098 -270.04014000000006 Z " id="path7-98" inkscape:label="snowflake"></path>
      <path style="display: inline; fill: rgb(245, 247, 246); fill-opacity: 1; stroke-width: 0.150784; stroke: none; stroke-linejoin: miter; stroke-linecap: butt; stroke-miterlimit: 4; opacity: 1; filter: none;" d=" M 122.24844 -122.2375 L 118.9667 -121.04414 L 117.47500000000001 -118.95576 L 117.62417 -116.71821 L 119.16559000000001 -114.53039 L 121.60203000000001 -113.68509 L 124.98322000000002 -114.53039 L 126.72353000000001 -116.66848999999999 L 126.72353000000001 -119.05520999999999 L 124.93349 -121.34248 L 123.34235000000001 -122.13804999999999 Z " id="path7-603" inkscape:label="snowflake"></path>
    <animateTransform attributeName="transform" attributeType="auto" type="translate" values="0 0;0 1000" calcMode="spline" keyTimes="0; 1" keySplines="0 0 1 1" dur="4s" begin="0s" repeatCount="1" additive="sum" accumulate="none" id="animateTransform6726" style="stroke: none; stroke-width: 1px; stroke-linejoin: miter; stroke-linecap: butt; stroke-miterlimit: 4; opacity: 1; filter: none; fill: rgb(0, 0, 0);"></animateTransform></g>
    <g inkscape:groupmode="layer" id="layer3-27" inkscape:label="Snowflakes 2" style="display: inline; fill: rgb(0, 0, 0); stroke: none; stroke-width: 1px; stroke-linejoin: miter; stroke-linecap: butt; stroke-miterlimit: 4; opacity: 1; filter: none;">
      <path style="display:inline;fill:#f5f7f6;fill-opacity:1;stroke-width:0.150784" d=" M 166.16927 -29.36875 L 162.88753 -28.175390999999998 L 161.39583 -26.087013999999996 L 161.545 -23.849464999999995 L 163.08641999999998 -21.661639999999995 L 165.52285999999998 -20.816345999999996 L 168.90404999999998 -21.661639999999995 L 170.64435999999998 -23.799741999999995 L 170.64435999999998 -26.186459999999997 L 168.85431999999997 -28.473729999999996 L 167.26317999999998 -29.269303999999995 Z " id="path7-09" inkscape:label="snowflake"></path>
      <path style="display:inline;fill:#f5f7f6;fill-opacity:1;stroke-width:0.150784" d=" M 77.533852 -25.929167 L 74.25211499999999 -24.735808 L 72.76041699999999 -22.647430999999997 L 72.90958699999999 -20.409881999999996 L 74.45100899999998 -18.222056999999996 L 76.88744999999999 -17.376762999999997 L 80.268633 -18.222056999999996 L 82.008949 -20.360158999999996 L 82.008949 -22.746876999999998 L 80.21891000000001 -25.034146999999997 L 78.62776500000001 -25.829720999999996 Z " id="path7-120" inkscape:label="snowflake"></path>
      <path style="display:inline;fill:#f5f7f6;fill-opacity:1;stroke-width:0.150784" d=" M 206.12136 -120.12083 L 202.83962 -118.92747 L 201.34792 -116.8391 L 201.49709 -114.60155 L 203.03850999999997 -112.41372 L 205.47494999999998 -111.56842999999999 L 208.85613999999998 -112.41372 L 210.59644999999998 -114.55181999999999 L 210.59644999999998 -116.93853999999999 L 208.80640999999997 -119.22581 L 207.21526999999998 -120.02139 Z " id="path7-61" inkscape:label="snowflake"></path>
      <path style="display:inline;fill:#f5f7f6;fill-opacity:1;stroke-width:0.150784" d=" M 145.26719 -134.67292 L 141.98545 -133.47956 L 140.49374999999998 -131.39118 L 140.64291999999998 -129.15363 L 142.18433999999996 -126.96580999999999 L 144.62077999999997 -126.12051 L 148.00196999999997 -126.96580999999999 L 149.74227999999997 -129.10390999999998 L 149.74227999999997 -131.49062999999998 L 147.95223999999996 -133.7779 L 146.36109999999996 -134.57347 Z " id="path7-14" inkscape:label="snowflake"></path>
      <path style="display:inline;fill:#f5f7f6;fill-opacity:1;stroke-width:0.150784" d=" M 78.327602 -124.35417 L 75.04586499999999 -123.16081 L 73.55416699999999 -121.07243 L 73.70333699999999 -118.83488 L 75.24475899999999 -116.64706 L 77.68119999999999 -115.80176 L 81.06238299999998 -116.64706 L 82.80269899999999 -118.78515999999999 L 82.80269899999999 -121.17187999999999 L 81.01266 -123.45915 L 79.421515 -124.25471999999999 Z " id="path7-87" inkscape:label="snowflake"></path>
      <path style="display:inline;fill:#f5f7f6;fill-opacity:1;stroke-width:0.150784" d=" M 83.883852 -233.09792 L 80.602115 -231.90455999999998 L 79.110417 -229.81617999999997 L 79.259587 -227.57862999999998 L 80.801009 -225.39081 L 83.23745 -224.54550999999998 L 86.61863299999999 -225.39081 L 88.358949 -227.52891 L 88.358949 -229.91563 L 86.56891 -232.2029 L 84.977765 -232.99847 Z " id="path7-71" inkscape:label="snowflake"></path>
      <path style="display:inline;fill:#f5f7f6;fill-opacity:1;stroke-width:0.150784" d=" M 175.42969 -281.25209 L 172.14794999999998 -280.05873 L 170.65624999999997 -277.97035000000005 L 170.80541999999997 -275.73280000000005 L 172.34683999999996 -273.54498000000007 L 174.78327999999996 -272.69968000000006 L 178.16446999999997 -273.54498000000007 L 179.90477999999996 -275.6830800000001 L 179.90477999999996 -278.0698000000001 L 178.11473999999995 -280.3570700000001 L 176.52359999999996 -281.1526400000001 Z " id="path7-96" inkscape:label="snowflake"></path>
      <path style="display:inline;fill:#f5f7f6;fill-opacity:1;stroke-width:0.150784" d=" M 65.892185 -282.04584 L 62.610448 -280.85248 L 61.11875 -278.76410000000004 L 61.26792 -276.52655000000004 L 62.809341999999994 -274.33873000000006 L 65.24578299999999 -273.49343000000005 L 68.62696599999998 -274.33873000000006 L 70.36728199999999 -276.47683000000006 L 70.36728199999999 -278.8635500000001 L 68.577243 -281.15082000000007 L 66.986098 -281.94639000000006 Z " id="path7-968" inkscape:label="snowflake"></path>
      <path style="display:inline;fill:#f5f7f6;fill-opacity:1;stroke-width:0.150784" d=" M 37.052602 -222.77917 L 33.770865 -221.58580999999998 L 32.279167 -219.49742999999998 L 32.428337 -217.25987999999998 L 33.969758999999996 -215.07206 L 36.4062 -214.22675999999998 L 39.787383 -215.07206 L 41.527699 -217.21016 L 41.527699 -219.59688 L 39.73766 -221.88415 L 38.146515 -222.67972 Z " id="path7-99" inkscape:label="snowflake"></path>
      <path style="display:inline;fill:#f5f7f6;fill-opacity:1;stroke-width:0.150784" d=" M 32.290102 -97.895833 L 29.008364999999998 -96.702474 L 27.516666999999998 -94.614097 L 27.665837 -92.376548 L 29.207259 -90.188723 L 31.6437 -89.343429 L 35.024883 -90.188723 L 36.765199 -92.326825 L 36.765199 -94.713543 L 34.97516 -97.00081300000001 L 33.384015000000005 -97.79638700000001 Z " id="path7-374" inkscape:label="snowflake"></path>
      <path style="display:inline;fill:#f5f7f6;fill-opacity:1;stroke-width:0.150784" d=" M 137.59427 -58.7375 L 134.31252999999998 -57.544140999999996 L 132.82082999999997 -55.455763999999995 L 132.96999999999997 -53.218214999999994 L 134.51141999999996 -51.03039 L 136.94785999999996 -50.185095999999994 L 140.32904999999997 -51.03039 L 142.06935999999996 -53.168492 L 142.06935999999996 -55.55521 L 140.27931999999996 -57.84248 L 138.68817999999996 -58.638054000000004 Z " id="path7-06" inkscape:label="snowflake"></path>
      <path style="display:inline;fill:#f5f7f6;fill-opacity:1;stroke-width:0.150784" d=" M 164.05261 -237.33125 L 160.77086999999997 -236.13789 L 159.27916999999997 -234.04951 L 159.42833999999996 -231.81196 L 160.96975999999995 -229.62414 L 163.40619999999996 -228.77884 L 166.78738999999996 -229.62414 L 168.52769999999995 -231.76224000000002 L 168.52769999999995 -234.14896000000002 L 166.73765999999995 -236.43623000000002 L 165.14651999999995 -237.23180000000002 Z " id="path7-2" inkscape:label="snowflake"></path>
      <path style="display:inline;fill:#f5f7f6;fill-opacity:1;stroke-width:0.150784" d=" M 143.94427 -322.52709 L 140.66252999999998 -321.33373 L 139.17082999999997 -319.24535000000003 L 139.31999999999996 -317.00780000000003 L 140.86141999999995 -314.81998000000004 L 143.29785999999996 -313.97468000000003 L 146.67904999999996 -314.81998000000004 L 148.41935999999995 -316.95808000000005 L 148.41935999999995 -319.3448000000001 L 146.62931999999995 -321.63207000000006 L 145.03817999999995 -322.42764000000005 Z " id="path7-78" inkscape:label="snowflake"></path>
      <path style="display:inline;fill:#f5f7f6;fill-opacity:1;stroke-width:0.150784" d=" M 61.658852 -319.88125 L 58.377115 -318.68789000000004 L 56.885417000000004 -316.59951000000007 L 57.034587 -314.36196000000007 L 58.576009 -312.1741400000001 L 61.01245 -311.32884000000007 L 64.393633 -312.1741400000001 L 66.133949 -314.3122400000001 L 66.133949 -316.6989600000001 L 64.34391000000001 -318.9862300000001 L 62.75276500000001 -319.7818000000001 Z " id="path7-124" inkscape:label="snowflake"></path>
      <path style="display:inline;fill:#f5f7f6;fill-opacity:1;stroke-width:0.150784" d=" M 23.294268 -315.64792 L 20.012531 -314.45456 L 18.520833 -312.36618000000004 L 18.670003 -310.12863000000004 L 20.211425000000002 -307.94081000000006 L 22.647866 -307.09551000000005 L 26.029049 -307.94081000000006 L 27.769365 -310.07891000000006 L 27.769365 -312.4656300000001 L 25.979326 -314.75290000000007 L 24.388181 -315.54847000000007 Z " id="path7-26" inkscape:label="snowflake"></path>
      <path style="display:inline;fill:#f5f7f6;fill-opacity:1;stroke-width:0.150784" d=" M 9.2713517 -227.54167 L 5.989614700000001 -226.34831 L 4.497916700000001 -224.25993 L 4.647086700000001 -222.02238 L 6.188508700000001 -219.83456 L 8.6249497 -218.98926 L 12.006133 -219.83456 L 13.746449 -221.97266000000002 L 13.746449 -224.35938000000002 L 11.95641 -226.64665000000002 L 10.365265 -227.44222000000002 Z " id="path7-618" inkscape:label="snowflake"></path>
      <path style="display:inline;fill:#f5f7f6;fill-opacity:1;stroke-width:0.150784" d=" M 25.940102 -93.6625 L 22.658365 -92.469141 L 21.166667 -90.380764 L 21.315837000000002 -88.143215 L 22.857259000000003 -85.95539 L 25.2937 -85.110096 L 28.674883 -85.95539 L 30.415199 -88.093492 L 30.415199 -90.48021 L 28.62516 -92.76748 L 27.034015 -93.56305400000001 Z " id="path7-76" inkscape:label="snowflake"></path>
      <path style="display:inline;fill:#f5f7f6;fill-opacity:1;stroke-width:0.150784" d=" M 164.84636 -169.06875 L 161.56462 -167.87538999999998 L 160.07291999999998 -165.78700999999998 L 160.22208999999998 -163.54945999999998 L 161.76350999999997 -161.36164 L 164.19994999999997 -160.51633999999999 L 167.58113999999998 -161.36164 L 169.32144999999997 -163.49974 L 169.32144999999997 -165.88646 L 167.53140999999997 -168.17373 L 165.94026999999997 -168.9693 Z " id="path7-03" inkscape:label="snowflake"></path>
      <path style="display:inline;fill:#f5f7f6;fill-opacity:1;stroke-width:0.150784" d=" M 182.30886 -307.975 L 179.02712 -306.78164000000004 L 177.53542 -304.69326000000007 L 177.68459 -302.45571000000007 L 179.22600999999997 -300.2678900000001 L 181.66244999999998 -299.42259000000007 L 185.04363999999998 -300.2678900000001 L 186.78394999999998 -302.4059900000001 L 186.78394999999998 -304.7927100000001 L 184.99390999999997 -307.0799800000001 L 183.40276999999998 -307.8755500000001 Z " id="path7-95" inkscape:label="snowflake"></path>
    <animateTransform attributeName="transform" attributeType="auto" type="translate" values="0 0;0 1000" calcMode="spline" keyTimes="0; 1" keySplines="0 0 1 1" dur="5.539s" begin="0s" repeatCount="1" additive="sum" accumulate="none" id="animateTransform1963" style="stroke: none; stroke-width: 1px; stroke-linejoin: miter; stroke-linecap: butt; stroke-miterlimit: 4; opacity: 1; filter: none; fill: rgb(0, 0, 0);"></animateTransform></g>
    <g inkscape:groupmode="layer" id="layer3-8" inkscape:label="Snowflakes 3" style="display: inline; fill: rgb(0, 0, 0); stroke: none; stroke-width: 1px; stroke-linejoin: miter; stroke-linecap: butt; stroke-miterlimit: 4; opacity: 1; filter: none;">
      <path style="display:inline;fill:#f5f7f6;fill-opacity:1;stroke-width:0.150784" d=" M 170.40261 -39.952083 L 167.12087 -38.758724 L 165.62917 -36.670347 L 165.77834 -34.432798 L 167.31975999999997 -32.244973 L 169.75619999999998 -31.399679000000003 L 173.13738999999998 -32.244973 L 174.87769999999998 -34.383075000000005 L 174.87769999999998 -36.76979300000001 L 173.08765999999997 -39.05706300000001 L 171.49651999999998 -39.85263700000001 Z " id="path7-86" inkscape:label="snowflake"></path>
      <path style="display:inline;fill:#f5f7f6;fill-opacity:1;stroke-width:0.150784" d=" M 77.004685 -32.808333 L 73.72294799999999 -31.614973999999997 L 72.23124999999999 -29.526596999999995 L 72.38041999999999 -27.289047999999994 L 73.92184199999998 -25.101222999999994 L 76.35828299999999 -24.255928999999995 L 79.739466 -25.101222999999994 L 81.479782 -27.239324999999994 L 81.479782 -29.626042999999996 L 79.689743 -31.913312999999995 L 78.09859800000001 -32.708887 Z " id="path7-41" inkscape:label="snowflake"></path>
      <path style="display:inline;fill:#f5f7f6;fill-opacity:1;stroke-width:0.150784" d=" M 99.229685 -84.666667 L 95.947948 -83.473308 L 94.45625 -81.38493100000001 L 94.60542 -79.14738200000001 L 96.14684199999999 -76.959557 L 98.583283 -76.11426300000001 L 101.96446999999999 -76.959557 L 103.70477999999999 -79.09765900000001 L 103.70477999999999 -81.48437700000001 L 101.91473999999998 -83.77164700000002 L 100.32359999999998 -84.56722100000002 Z " id="path7-55" inkscape:label="snowflake"></path>
      <path style="display:inline;fill:#f5f7f6;fill-opacity:1;stroke-width:0.150784" d=" M 185.74844 -176.74167 L 182.46669999999997 -175.54831 L 180.97499999999997 -173.45992999999999 L 181.12416999999996 -171.22238 L 182.66558999999995 -169.03456 L 185.10202999999996 -168.18926 L 188.48321999999996 -169.03456 L 190.22352999999995 -171.17266 L 190.22352999999995 -173.55938 L 188.43348999999995 -175.84665 L 186.84234999999995 -176.64222 Z " id="path7-08" inkscape:label="snowflake"></path>
      <path style="display:inline;fill:#f5f7f6;fill-opacity:1;stroke-width:0.150784" d=" M 151.61719 -260.35 L 148.33544999999998 -259.15664000000004 L 146.84374999999997 -257.06826000000007 L 146.99291999999997 -254.83071000000007 L 148.53433999999996 -252.64289000000008 L 150.97077999999996 -251.79759000000007 L 154.35196999999997 -252.64289000000008 L 156.09227999999996 -254.7809900000001 L 156.09227999999996 -257.1677100000001 L 154.30223999999995 -259.4549800000001 L 152.71109999999996 -260.2505500000001 Z " id="path7-67" inkscape:label="snowflake"></path>
      <path style="display:inline;fill:#f5f7f6;fill-opacity:1;stroke-width:0.150784" d=" M 100.02343 -120.12083 L 96.741698 -118.92747 L 95.25 -116.8391 L 95.39917 -114.60155 L 96.940592 -112.41372 L 99.377033 -111.56842999999999 L 102.75822 -112.41372 L 104.49852999999999 -114.55181999999999 L 104.49852999999999 -116.93853999999999 L 102.70848999999998 -119.22581 L 101.11734999999999 -120.02139 Z " id="path7-93" inkscape:label="snowflake"></path>
      <path style="display:inline;fill:#f5f7f6;fill-opacity:1;stroke-width:0.150784" d=" M 14.827602 -78.316667 L 11.545865000000001 -77.123308 L 10.054167000000001 -75.034931 L 10.203337000000001 -72.797382 L 11.744759000000002 -70.609557 L 14.181200000000002 -69.764263 L 17.562383000000004 -70.609557 L 19.302699000000004 -72.747659 L 19.302699000000004 -75.134377 L 17.512660000000004 -77.42164700000001 L 15.921515000000003 -78.21722100000001 Z " id="path7-58" inkscape:label="snowflake"></path>
      <path style="display:inline;fill:#f5f7f6;fill-opacity:1;stroke-width:0.150784" d=" M 14.033852 -207.43334 L 10.752115 -206.23997999999997 L 9.2604167 -204.15159999999997 L 9.4095867 -201.91404999999997 L 10.951009 -199.72623 L 13.387450000000001 -198.88092999999998 L 16.768633 -199.72623 L 18.508949 -201.86433 L 18.508949 -204.25105 L 16.71891 -206.53832 L 15.127765 -207.33389 Z " id="path7-16" inkscape:label="snowflake"></path>
      <path style="display:inline;fill:#f5f7f6;fill-opacity:1;stroke-width:0.150784" d=" M 57.425518 -293.15834 L 54.143781 -291.96498 L 52.652083 -289.87660000000005 L 52.801252999999996 -287.63905000000005 L 54.34267499999999 -285.45123000000007 L 56.779115999999995 -284.60593000000006 L 60.160298999999995 -285.45123000000007 L 61.900614999999995 -287.5893300000001 L 61.900614999999995 -289.9760500000001 L 60.110575999999995 -292.2633200000001 L 58.519431 -293.0588900000001 Z " id="path7-53" inkscape:label="snowflake"></path>
      <path style="display:inline;fill:#f5f7f6;fill-opacity:1;stroke-width:0.150784" d=" M 67.744268 -155.83959 L 64.462531 -154.64622999999997 L 62.970833 -152.55784999999997 L 63.120003 -150.32029999999997 L 64.661425 -148.13248 L 67.097866 -147.28717999999998 L 70.479049 -148.13248 L 72.21936500000001 -150.27058 L 72.21936500000001 -152.6573 L 70.42932600000002 -154.94457 L 68.83818100000002 -155.74014 Z " id="path7-36" inkscape:label="snowflake"></path>
      <path style="display:inline;fill:#f5f7f6;fill-opacity:1;stroke-width:0.150784" d=" M 146.85469 -113.77083 L 143.57295 -112.57747 L 142.08124999999998 -110.48910000000001 L 142.23041999999998 -108.25155000000001 L 143.77183999999997 -106.06372 L 146.20827999999997 -105.21843 L 149.58946999999998 -106.06372 L 151.32977999999997 -108.20183 L 151.32977999999997 -110.58854 L 149.53973999999997 -112.87581 L 147.94859999999997 -113.67139 Z " id="path7-46" inkscape:label="snowflake"></path>
      <path style="display:inline;fill:#f5f7f6;fill-opacity:1;stroke-width:0.150784" d=" M 85.206768 -230.45209 L 81.92503099999999 -229.25872999999999 L 80.43333299999999 -227.17034999999998 L 80.58250299999999 -224.9328 L 82.12392499999999 -222.74498 L 84.56036599999999 -221.89968 L 87.94154899999998 -222.74498 L 89.68186499999999 -224.88308 L 89.68186499999999 -227.2698 L 87.891826 -229.55707 L 86.300681 -230.35264 Z " id="path7-036" inkscape:label="snowflake"></path>
      <path style="display:inline;fill:#f5f7f6;fill-opacity:1;stroke-width:0.150784" d=" M 171.72552 -300.30209 L 168.44377999999998 -299.10873000000004 L 166.95207999999997 -297.02035000000006 L 167.10124999999996 -294.78280000000007 L 168.64266999999995 -292.5949800000001 L 171.07910999999996 -291.74968000000007 L 174.46029999999996 -292.5949800000001 L 176.20060999999995 -294.7330800000001 L 176.20060999999995 -297.1198000000001 L 174.41056999999995 -299.4070700000001 L 172.81942999999995 -300.2026400000001 Z " id="path7-34" inkscape:label="snowflake"></path>
      <path style="display:inline;fill:#f5f7f6;fill-opacity:1;stroke-width:0.150784" d=" M 161.40677 -221.45625 L 158.12502999999998 -220.26289 L 156.63332999999997 -218.17451 L 156.78249999999997 -215.93696 L 158.32391999999996 -213.74914 L 160.76035999999996 -212.90384 L 164.14154999999997 -213.74914 L 165.88185999999996 -215.88724000000002 L 165.88185999999996 -218.27396000000002 L 164.09181999999996 -220.56123000000002 L 162.50067999999996 -221.35680000000002 Z " id="path7-63" inkscape:label="snowflake"></path>
      <path style="display: inline; fill: rgb(245, 247, 246); fill-opacity: 1; stroke-width: 0.150784; stroke: none; stroke-linejoin: miter; stroke-linecap: butt; stroke-miterlimit: 4; opacity: 1; filter: none;" d=" M 104.78593 -130.70417 L 101.5042 -129.51081 L 100.0125 -127.42242999999999 L 100.16167 -125.18487999999999 L 101.70309 -122.99705999999999 L 104.13953000000001 -122.15176 L 107.52072000000001 -122.99705999999999 L 109.26103 -125.13515999999998 L 109.26103 -127.52187999999998 L 107.47099 -129.80915 L 105.87985 -130.60472 Z " id="path7-581" inkscape:label="snowflake"></path>
    <animateTransform attributeName="transform" attributeType="auto" type="translate" values="0 0;0 1000" calcMode="spline" keyTimes="0; 1" keySplines="0 0 1 1" dur="7.18s" begin="0s" repeatCount="1" additive="sum" accumulate="none" id="animateTransform8171" style="stroke: none; stroke-width: 1px; stroke-linejoin: miter; stroke-linecap: butt; stroke-miterlimit: 4; opacity: 1; filter: none; fill: rgb(0, 0, 0);"></animateTransform></g>
    <g inkscape:groupmode="layer" id="layer3-89" inkscape:label="Snowflakes 4" style="display: inline; fill: rgb(0, 0, 0); stroke: none; stroke-width: 1px; stroke-linejoin: miter; stroke-linecap: butt; stroke-miterlimit: 4; opacity: 1; filter: none;">
      <path style="display:inline;fill:#f5f7f6;fill-opacity:1;stroke-width:0.150784" d=" M 144.73802 -26.722917 L 141.45628 -25.529557999999998 L 139.96457999999998 -23.441180999999997 L 140.11374999999998 -21.203631999999995 L 141.65516999999997 -19.015806999999995 L 144.09160999999997 -18.170512999999996 L 147.47279999999998 -19.015806999999995 L 149.21310999999997 -21.153908999999995 L 149.21310999999997 -23.540626999999994 L 147.42306999999997 -25.827896999999993 L 145.83192999999997 -26.62347099999999 Z " id="path7-44" inkscape:label="snowflake"></path>
      <path style="display:inline;fill:#f5f7f6;fill-opacity:1;stroke-width:0.150784" d=" M 58.748435 -24.60625 L 55.466698 -23.412891 L 53.975 -21.324513999999997 L 54.12417 -19.086964999999996 L 55.665592 -16.899139999999996 L 58.102033 -16.053845999999997 L 61.483216 -16.899139999999996 L 63.223532 -19.037241999999996 L 63.223532 -21.423959999999994 L 61.433493 -23.711229999999993 L 59.842348 -24.506803999999992 Z " id="path7-30" inkscape:label="snowflake"></path>
      <path style="display:inline;fill:#f5f7f6;fill-opacity:1;stroke-width:0.150784" d=" M -21.420315 -46.0375 L -24.702052 -44.844141 L -26.193749999999998 -42.755764 L -26.044579999999996 -40.518215 L -24.503157999999996 -38.330389999999994 L -22.066716999999997 -37.48509599999999 L -18.685533999999997 -38.330389999999994 L -16.945217999999997 -40.468492 L -16.945217999999997 -42.85521 L -18.735256999999997 -45.14248 L -20.326401999999998 -45.938054 Z " id="path7-303" inkscape:label="snowflake"></path>
      <path style="display:inline;fill:#f5f7f6;fill-opacity:1;stroke-width:0.150784" d=" M 131.24427 -62.970833 L 127.96253 -61.777474 L 126.47083 -59.689097 L 126.62 -57.451547999999995 L 128.16142 -55.263723 L 130.59786 -54.418428999999996 L 133.97905 -55.263723 L 135.71936 -57.401825 L 135.71936 -59.788543000000004 L 133.92932 -62.075813000000004 L 132.33818 -62.871387000000006 Z " id="path7-372" inkscape:label="snowflake"></path>
      <path style="display:inline;fill:#f5f7f6;fill-opacity:1;stroke-width:0.150784" d=" M 224.90677 -135.46667 L 221.62502999999998 -134.27330999999998 L 220.13332999999997 -132.18492999999998 L 220.28249999999997 -129.94737999999998 L 221.82391999999996 -127.75955999999998 L 224.26035999999996 -126.91425999999998 L 227.64154999999997 -127.75955999999998 L 229.38185999999996 -129.89765999999997 L 229.38185999999996 -132.28437999999997 L 227.59181999999996 -134.57164999999998 L 226.00067999999996 -135.36721999999997 Z " id="path7-32" inkscape:label="snowflake"></path>
      <path style="display:inline;fill:#f5f7f6;fill-opacity:1;stroke-width:0.150784" d=" M 103.46302 -154.25209 L 100.18128 -153.05873 L 98.689583 -150.97035 L 98.838753 -148.7328 L 100.38016999999999 -146.54498 L 102.81661999999999 -145.69968 L 106.19779999999999 -146.54498 L 107.93810999999998 -148.68308000000002 L 107.93810999999998 -151.06980000000001 L 106.14807999999998 -153.35707000000002 L 104.55692999999998 -154.15264000000002 Z " id="path7-35" inkscape:label="snowflake"></path>
      <path style="display:inline;fill:#f5f7f6;fill-opacity:1;stroke-width:0.150784" d=" M 26.733852 -82.55 L 23.452115 -81.356641 L 21.960417 -79.268264 L 22.109587 -77.030715 L 23.651009000000002 -74.84289 L 26.08745 -73.997596 L 29.468633 -74.84289 L 31.208949 -76.980992 L 31.208949 -79.36771 L 29.41891 -81.65498000000001 L 27.827765 -82.45055400000001 Z " id="path7-40" inkscape:label="snowflake"></path>
      <path style="display:inline;fill:#f5f7f6;fill-opacity:1;stroke-width:0.150784" d=" M 44.196352 -162.71875 L 40.914615 -161.52539 L 39.422917 -159.43701 L 39.572086999999996 -157.19946 L 41.11350899999999 -155.01164 L 43.549949999999995 -154.16634 L 46.931132999999996 -155.01164 L 48.671448999999996 -157.14974 L 48.671448999999996 -159.53646 L 46.881409999999995 -161.82373 L 45.290265 -162.6193 Z " id="path7-00" inkscape:label="snowflake"></path>
      <path style="display:inline;fill:#f5f7f6;fill-opacity:1;stroke-width:0.150784" d=" M 171.72552 -215.9 L 168.44377999999998 -214.70664 L 166.95207999999997 -212.61826 L 167.10124999999996 -210.38071 L 168.64266999999995 -208.19289 L 171.07910999999996 -207.34759 L 174.46029999999996 -208.19289 L 176.20060999999995 -210.33099 L 176.20060999999995 -212.71771 L 174.41056999999995 -215.00498000000002 L 172.81942999999995 -215.80055000000002 Z " id="path7-675" inkscape:label="snowflake"></path>
      <path style="display:inline;fill:#f5f7f6;fill-opacity:1;stroke-width:0.150784" d=" M 86.000518 -282.83959 L 82.71878099999999 -281.64623 L 81.227083 -279.55785000000003 L 81.37625299999999 -277.32030000000003 L 82.91767499999999 -275.13248000000004 L 85.35411599999999 -274.28718000000003 L 88.735299 -275.13248000000004 L 90.475615 -277.27058000000005 L 90.475615 -279.6573000000001 L 88.68557600000001 -281.94457000000006 L 87.09443100000001 -282.74014000000005 Z " id="path7-49" inkscape:label="snowflake"></path>
      <path style="display:inline;fill:#f5f7f6;fill-opacity:1;stroke-width:0.150784" d=" M 80.444268 -176.74167 L 77.16253099999999 -175.54831 L 75.67083299999999 -173.45992999999999 L 75.82000299999999 -171.22238 L 77.36142499999998 -169.03456 L 79.79786599999998 -168.18926 L 83.17904899999999 -169.03456 L 84.919365 -171.17266 L 84.919365 -173.55938 L 83.129326 -175.84665 L 81.53818100000001 -176.64222 Z " id="path7-168" inkscape:label="snowflake"></path>
      <path style="display:inline;fill:#f5f7f6;fill-opacity:1;stroke-width:0.150784" d=" M 175.42969 -259.02709 L 172.14794999999998 -257.83373 L 170.65624999999997 -255.74535 L 170.80541999999997 -253.5078 L 172.34683999999996 -251.31998000000002 L 174.78327999999996 -250.47468 L 178.16446999999997 -251.31998000000002 L 179.90477999999996 -253.45808000000002 L 179.90477999999996 -255.84480000000002 L 178.11473999999995 -258.13207 L 176.52359999999996 -258.92764 Z " id="path7-92" inkscape:label="snowflake"></path>
      <path style="display:inline;fill:#f5f7f6;fill-opacity:1;stroke-width:0.150784" d=" M 46.313018 -314.85417 L 43.031281 -313.66081 L 41.539583 -311.57243000000005 L 41.688753 -309.33488000000006 L 43.230174999999996 -307.14706000000007 L 45.666616 -306.30176000000006 L 49.047799 -307.14706000000007 L 50.788115 -309.2851600000001 L 50.788115 -311.6718800000001 L 48.998076 -313.9591500000001 L 47.406931 -314.7547200000001 Z " id="path7-070" inkscape:label="snowflake"></path>
      <path style="display:inline;fill:#f5f7f6;fill-opacity:1;stroke-width:0.150784" d=" M 11.917185 -256.91042 L 8.635448 -255.71705999999998 L 7.143750000000001 -253.62867999999997 L 7.2929200000000005 -251.39112999999998 L 8.834342000000001 -249.20331 L 11.270783000000002 -248.35800999999998 L 14.651966000000002 -249.20331 L 16.392282 -251.34141 L 16.392282 -253.72813 L 14.602243000000001 -256.0154 L 13.011098 -256.81097 Z " id="path7-492" inkscape:label="snowflake"></path>
      <path style="display:inline;fill:#f5f7f6;fill-opacity:1;stroke-width:0.150784" d=" M 86.794268 -277.8125 L 83.512531 -276.61914 L 82.020833 -274.53076000000004 L 82.170003 -272.29321000000004 L 83.71142499999999 -270.10539000000006 L 86.147866 -269.26009000000005 L 89.52904899999999 -270.10539000000006 L 91.269365 -272.24349000000007 L 91.269365 -274.6302100000001 L 89.479326 -276.91748000000007 L 87.888181 -277.71305000000007 Z " id="path7-45" inkscape:label="snowflake"></path>
      <path style="display:inline;fill:#f5f7f6;fill-opacity:1;stroke-width:0.150784" d=" M 166.96302 -325.96667 L 163.68128 -324.77331000000004 L 162.18957999999998 -322.68493000000007 L 162.33874999999998 -320.44738000000007 L 163.88016999999996 -318.2595600000001 L 166.31660999999997 -317.41426000000007 L 169.69779999999997 -318.2595600000001 L 171.43810999999997 -320.3976600000001 L 171.43810999999997 -322.7843800000001 L 169.64806999999996 -325.0716500000001 L 168.05692999999997 -325.8672200000001 Z " id="path7-22" inkscape:label="snowflake"></path>
      <path style="display:inline;fill:#f5f7f6;fill-opacity:1;stroke-width:0.150784" d=" M 148.17761 -216.42917 L 144.89586999999997 -215.23581 L 143.40416999999997 -213.14742999999999 L 143.55333999999996 -210.90988 L 145.09475999999995 -208.72206 L 147.53119999999996 -207.87676 L 150.91238999999996 -208.72206 L 152.65269999999995 -210.86016 L 152.65269999999995 -213.24688 L 150.86265999999995 -215.53415 L 149.27151999999995 -216.32972 Z " id="path7-554" inkscape:label="snowflake"></path>
      <path style="display:inline;fill:#f5f7f6;fill-opacity:1;stroke-width:0.150784" d=" M 141.82761 -142.61042 L 138.54586999999998 -141.41706 L 137.05416999999997 -139.32868 L 137.20333999999997 -137.09113 L 138.74475999999996 -134.90331 L 141.18119999999996 -134.05801 L 144.56238999999997 -134.90331 L 146.30269999999996 -137.04141 L 146.30269999999996 -139.42813 L 144.51265999999995 -141.71540000000002 L 142.92151999999996 -142.51097000000001 Z " id="path7-611" inkscape:label="snowflake"></path>
      <path style="display:inline;fill:#f5f7f6;fill-opacity:1;stroke-width:0.150784" d=" M 133.36094 -204.52292 L 130.0792 -203.32956 L 128.58749999999998 -201.24117999999999 L 128.73666999999998 -199.00363 L 130.27808999999996 -196.81581 L 132.71452999999997 -195.97051 L 136.09571999999997 -196.81581 L 137.83602999999997 -198.95391 L 137.83602999999997 -201.34063 L 136.04598999999996 -203.6279 L 134.45484999999996 -204.42347 Z " id="path7-04" inkscape:label="snowflake"></path>
      <path style="display:inline;fill:#f5f7f6;fill-opacity:1;stroke-width:0.150784" d=" M 136.27136 -268.81667 L 132.98961999999997 -267.62331 L 131.49791999999997 -265.53493000000003 L 131.64708999999996 -263.29738000000003 L 133.18850999999995 -261.10956000000004 L 135.62494999999996 -260.26426000000004 L 139.00613999999996 -261.10956000000004 L 140.74644999999995 -263.24766000000005 L 140.74644999999995 -265.6343800000001 L 138.95640999999995 -267.92165000000006 L 137.36526999999995 -268.71722000000005 Z " id="path7-29" inkscape:label="snowflake"></path>
      <path style="display:inline;fill:#f5f7f6;fill-opacity:1;stroke-width:0.150784" d=" M 125.68802 -311.41459 L 122.40628 -310.22123 L 120.91458 -308.13285 L 121.06375 -305.8953 L 122.60517 -303.70748000000003 L 125.04161 -302.86218 L 128.4228 -303.70748000000003 L 130.16311 -305.84558000000004 L 130.16311 -308.23230000000007 L 128.37306999999998 -310.51957000000004 L 126.78192999999999 -311.31514000000004 Z " id="path7-770" inkscape:label="snowflake"></path>
      <path style="display:inline;fill:#f5f7f6;fill-opacity:1;stroke-width:0.150784" d=" M 92.879685 -326.76042 L 89.59794799999999 -325.56706 L 88.10624999999999 -323.47868000000005 L 88.25541999999999 -321.24113000000006 L 89.79684199999998 -319.05331000000007 L 92.23328299999999 -318.20801000000006 L 95.614466 -319.05331000000007 L 97.354782 -321.1914100000001 L 97.354782 -323.5781300000001 L 95.564743 -325.8654000000001 L 93.97359800000001 -326.6609700000001 Z " id="path7-74" inkscape:label="snowflake"></path>
      <path style="display:inline;fill:#f5f7f6;fill-opacity:1;stroke-width:0.150784" d=" M 95.790102 -245.00417 L 92.508365 -243.81080999999998 L 91.016667 -241.72242999999997 L 91.165837 -239.48487999999998 L 92.707259 -237.29706 L 95.1437 -236.45175999999998 L 98.52488299999999 -237.29706 L 100.2652 -239.43516 L 100.2652 -241.82188 L 98.47515999999999 -244.10915 L 96.88401499999999 -244.90472 Z " id="path7-10" inkscape:label="snowflake"></path>
      <path style="display:inline;fill:#f5f7f6;fill-opacity:1;stroke-width:0.150784" d=" M 32.290102 -248.70834 L 29.008364999999998 -247.51497999999998 L 27.516666999999998 -245.42659999999998 L 27.665837 -243.18904999999998 L 29.207259 -241.00123 L 31.6437 -240.15592999999998 L 35.024883 -241.00123 L 36.765199 -243.13933 L 36.765199 -245.52605 L 34.97516 -247.81332 L 33.384015000000005 -248.60889 Z " id="path7-501" inkscape:label="snowflake"></path>
    <animateTransform attributeName="transform" attributeType="auto" type="translate" values="0 0;0 1000" calcMode="spline" keyTimes="0; 1" keySplines="0 0 1 1" dur="8.78s" begin="0s" repeatCount="1" additive="sum" accumulate="none" id="animateTransform2046" style="stroke: none; stroke-width: 1px; stroke-linejoin: miter; stroke-linecap: butt; stroke-miterlimit: 4; opacity: 1; filter: none; fill: rgb(0, 0, 0);"></animateTransform></g>
    <g inkscape:groupmode="layer" id="layer3-3" inkscape:label="Snowflakes 5" style="display: inline; fill: rgb(0, 0, 0); stroke: none; stroke-width: 1px; stroke-linejoin: miter; stroke-linecap: butt; stroke-miterlimit: 4; opacity: 1; filter: none;">
      <path style="display:inline;fill:#f5f7f6;fill-opacity:1;stroke-width:0.150784" d=" M 60.865102 -55.827083 L 57.583365 -54.633724 L 56.091667 -52.545347 L 56.240837 -50.307798 L 57.782258999999996 -48.119973 L 60.2187 -47.274679 L 63.599883 -48.119973 L 65.340199 -50.258075000000005 L 65.340199 -52.64479300000001 L 63.55016 -54.93206300000001 L 61.959015 -55.72763700000001 Z " id="path7-356" inkscape:label="snowflake"></path>
      <path style="display:inline;fill:#f5f7f6;fill-opacity:1;stroke-width:0.150784" d=" M 110.34219 -76.2 L 107.06045 -75.006641 L 105.56875000000001 -72.91826400000001 L 105.71792 -70.680715 L 107.25934000000001 -68.49289 L 109.69578000000001 -67.64759600000001 L 113.07697000000002 -68.49289 L 114.81728000000001 -70.630992 L 114.81728000000001 -73.01771000000001 L 113.02724 -75.30498000000001 L 111.43610000000001 -76.10055400000002 Z " id="path7-771" inkscape:label="snowflake"></path>
      <path style="display:inline;fill:#f5f7f6;fill-opacity:1;stroke-width:0.150784" d=" M 185.74844 -139.7 L 182.46669999999997 -138.50663999999998 L 180.97499999999997 -136.41825999999998 L 181.12416999999996 -134.18070999999998 L 182.66558999999995 -131.99289 L 185.10202999999996 -131.14758999999998 L 188.48321999999996 -131.99289 L 190.22352999999995 -134.13099 L 190.22352999999995 -136.51771 L 188.43348999999995 -138.80498 L 186.84234999999995 -139.60055 Z " id="path7-765" inkscape:label="snowflake"></path>
      <path style="display:inline;fill:#f5f7f6;fill-opacity:1;stroke-width:0.150784" d=" M 184.42552 -192.61667 L 181.14378 -191.42331 L 179.65207999999998 -189.33492999999999 L 179.80124999999998 -187.09738 L 181.34266999999997 -184.90956 L 183.77910999999997 -184.06426 L 187.16029999999998 -184.90956 L 188.90060999999997 -187.04766 L 188.90060999999997 -189.43438 L 187.11056999999997 -191.72165 L 185.51942999999997 -192.51722 Z " id="path7-59" inkscape:label="snowflake"></path>
      <path style="display:inline;fill:#f5f7f6;fill-opacity:1;stroke-width:0.150784" d=" M 120.92552 -187.06042 L 117.64378 -185.86705999999998 L 116.15208000000001 -183.77867999999998 L 116.30125000000001 -181.54112999999998 L 117.84267000000001 -179.35331 L 120.27911000000002 -178.50800999999998 L 123.66030000000002 -179.35331 L 125.40061000000001 -181.49141 L 125.40061000000001 -183.87813 L 123.61057000000001 -186.1654 L 122.01943000000001 -186.96097 Z " id="path7-444" inkscape:label="snowflake"></path>
      <path style="display:inline;fill:#f5f7f6;fill-opacity:1;stroke-width:0.150784" d=" M 113.2526 -168.275 L 109.97087 -167.08164 L 108.47917000000001 -164.99326 L 108.62834000000001 -162.75571 L 110.16976000000001 -160.56789 L 112.60620000000002 -159.72259 L 115.98738000000002 -160.56789 L 117.72770000000001 -162.70599 L 117.72770000000001 -165.09271 L 115.93766000000001 -167.37998000000002 L 114.34651000000001 -168.17555000000002 Z " id="path7-73" inkscape:label="snowflake"></path>
      <path style="display:inline;fill:#f5f7f6;fill-opacity:1;stroke-width:0.150784" d=" M 131.24427 -259.02709 L 127.96253 -257.83373 L 126.47083 -255.74535 L 126.62 -253.5078 L 128.16142 -251.31998000000002 L 130.59786 -250.47468 L 133.97905 -251.31998000000002 L 135.71936 -253.45808000000002 L 135.71936 -255.84480000000002 L 133.92932 -258.13207 L 132.33818 -258.92764 Z " id="path7-83" inkscape:label="snowflake"></path>
      <path style="display:inline;fill:#f5f7f6;fill-opacity:1;stroke-width:0.150784" d=" M 162.20052 -305.06459 L 158.91878 -303.87123 L 157.42708 -301.78285000000005 L 157.57625 -299.54530000000005 L 159.11766999999998 -297.35748000000007 L 161.55410999999998 -296.51218000000006 L 164.93529999999998 -297.35748000000007 L 166.67560999999998 -299.4955800000001 L 166.67560999999998 -301.8823000000001 L 164.88556999999997 -304.1695700000001 L 163.29442999999998 -304.9651400000001 Z " id="path7-595" inkscape:label="snowflake"></path>
      <path style="display:inline;fill:#f5f7f6;fill-opacity:1;stroke-width:0.150784" d=" M 58.748435 -316.17709 L 55.466698 -314.98373000000004 L 53.975 -312.89535000000006 L 54.12417 -310.65780000000007 L 55.665592 -308.4699800000001 L 58.102033 -307.62468000000007 L 61.483216 -308.4699800000001 L 63.223532 -310.6080800000001 L 63.223532 -312.9948000000001 L 61.433493 -315.2820700000001 L 59.842348 -316.0776400000001 Z " id="path7-530" inkscape:label="snowflake"></path>
      <path style="display:inline;fill:#f5f7f6;fill-opacity:1;stroke-width:0.150784" d=" M 37.052602 -245.79792 L 33.770865 -244.60456 L 32.279167 -242.51618 L 32.428337 -240.27863 L 33.969758999999996 -238.09081 L 36.4062 -237.24551 L 39.787383 -238.09081 L 41.527699 -240.22891 L 41.527699 -242.61563 L 39.73766 -244.90290000000002 L 38.146515 -245.69847000000001 Z " id="path7-746" inkscape:label="snowflake"></path>
      <path style="display:inline;fill:#f5f7f6;fill-opacity:1;stroke-width:0.150784" d=" M 67.215102 -151.60625 L 63.933365 -150.41288999999998 L 62.441667 -148.32450999999998 L 62.590837 -146.08695999999998 L 64.132259 -143.89914 L 66.5687 -143.05383999999998 L 69.949883 -143.89914 L 71.690199 -146.03724 L 71.690199 -148.42396 L 69.90016000000001 -150.71123 L 68.30901500000002 -151.5068 Z " id="path7-103" inkscape:label="snowflake"></path>
      <path style="display:inline;fill:#f5f7f6;fill-opacity:1;stroke-width:0.150784" d=" M 32.290102 -68.527083 L 29.008364999999998 -67.333724 L 27.516666999999998 -65.24534700000001 L 27.665837 -63.00779800000001 L 29.207259 -60.819973000000005 L 31.6437 -59.974679 L 35.024883 -60.819973000000005 L 36.765199 -62.95807500000001 L 36.765199 -65.34479300000001 L 34.97516 -67.63206300000002 L 33.384015000000005 -68.42763700000002 Z " id="path7-17" inkscape:label="snowflake"></path>
      <path style="display:inline;fill:#f5f7f6;fill-opacity:1;stroke-width:0.150784" d=" M 177.54636 -63.5 L 174.26461999999998 -62.306641 L 172.77291999999997 -60.218264 L 172.92208999999997 -57.980715 L 174.46350999999996 -55.79289 L 176.89994999999996 -54.947596 L 180.28113999999997 -55.79289 L 182.02144999999996 -57.930992 L 182.02144999999996 -60.317710000000005 L 180.23140999999995 -62.604980000000005 L 178.64026999999996 -63.40055400000001 Z " id="path7-3035" inkscape:label="snowflake"></path>
      <path style="display:inline;fill:#f5f7f6;fill-opacity:1;stroke-width:0.150784" d=" M 206.12136 -221.45625 L 202.83962 -220.26289 L 201.34792 -218.17451 L 201.49709 -215.93696 L 203.03850999999997 -213.74914 L 205.47494999999998 -212.90384 L 208.85613999999998 -213.74914 L 210.59644999999998 -215.88724000000002 L 210.59644999999998 -218.27396000000002 L 208.80640999999997 -220.56123000000002 L 207.21526999999998 -221.35680000000002 Z " id="path7-225" inkscape:label="snowflake"></path>
      <path style="display:inline;fill:#f5f7f6;fill-opacity:1;stroke-width:0.150784" d=" M 189.98177 -306.3875 L 186.70003 -305.19414 L 185.20833 -303.10576000000003 L 185.3575 -300.86821000000003 L 186.89891999999998 -298.68039000000005 L 189.33535999999998 -297.83509000000004 L 192.71654999999998 -298.68039000000005 L 194.45685999999998 -300.81849000000005 L 194.45685999999998 -303.2052100000001 L 192.66681999999997 -305.49248000000006 L 191.07567999999998 -306.28805000000006 Z " id="path7-079" inkscape:label="snowflake"></path>
      <path style="display:inline;fill:#f5f7f6;fill-opacity:1;stroke-width:0.150784" d=" M 115.89843 -338.66667 L 112.61670000000001 -337.47331 L 111.12500000000001 -335.38493000000005 L 111.27417000000001 -333.14738000000006 L 112.81559000000001 -330.95956000000007 L 115.25203000000002 -330.11426000000006 L 118.63322000000002 -330.95956000000007 L 120.37353000000002 -333.0976600000001 L 120.37353000000002 -335.4843800000001 L 118.58349000000001 -337.7716500000001 L 116.99235000000002 -338.5672200000001 Z " id="path7-104" inkscape:label="snowflake"></path>
      <path style="display:inline;fill:#f5f7f6;fill-opacity:1;stroke-width:0.150784" d=" M 7.948435 -322.52709 L 4.666698 -321.33373 L 3.1750000000000003 -319.24535000000003 L 3.32417 -317.00780000000003 L 4.865592 -314.81998000000004 L 7.302033 -313.97468000000003 L 10.683216 -314.81998000000004 L 12.423532 -316.95808000000005 L 12.423532 -319.3448000000001 L 10.633493 -321.63207000000006 L 9.042348 -322.42764000000005 Z " id="path7-413" inkscape:label="snowflake"></path>
      <path style="display:inline;fill:#f5f7f6;fill-opacity:1;stroke-width:0.150784" d=" M 122.24844 -349.77917 L 118.9667 -348.58581000000004 L 117.47500000000001 -346.49743000000007 L 117.62417 -344.25988000000007 L 119.16559000000001 -342.0720600000001 L 121.60203000000001 -341.22676000000007 L 124.98322000000002 -342.0720600000001 L 126.72353000000001 -344.2101600000001 L 126.72353000000001 -346.5968800000001 L 124.93349 -348.8841500000001 L 123.34235000000001 -349.6797200000001 Z " id="path7-617" inkscape:label="snowflake"></path>
      <path style="display:inline;fill:#f5f7f6;fill-opacity:1;stroke-width:0.150784" d=" M 203.21094 -305.06459 L 199.92919999999998 -303.87123 L 198.43749999999997 -301.78285000000005 L 198.58666999999997 -299.54530000000005 L 200.12808999999996 -297.35748000000007 L 202.56452999999996 -296.51218000000006 L 205.94571999999997 -297.35748000000007 L 207.68602999999996 -299.4955800000001 L 207.68602999999996 -301.8823000000001 L 205.89598999999995 -304.1695700000001 L 204.30484999999996 -304.9651400000001 Z " id="path7-341" inkscape:label="snowflake"></path>
      <path style="display:inline;fill:#f5f7f6;fill-opacity:1;stroke-width:0.150784" d=" M 168.28594 -143.93334 L 165.0042 -142.73997999999997 L 163.5125 -140.65159999999997 L 163.66167 -138.41404999999997 L 165.20308999999997 -136.22623 L 167.63952999999998 -135.38092999999998 L 171.02071999999998 -136.22623 L 172.76102999999998 -138.36433 L 172.76102999999998 -140.75105 L 170.97098999999997 -143.03832 L 169.37984999999998 -143.83389 Z " id="path7-412" inkscape:label="snowflake"></path>
      <path style="display:inline;fill:#f5f7f6;fill-opacity:1;stroke-width:0.150784" d=" M 161.40677 -57.94375 L 158.12502999999998 -56.750391 L 156.63332999999997 -54.662014 L 156.78249999999997 -52.424465 L 158.32391999999996 -50.236639999999994 L 160.76035999999996 -49.39134599999999 L 164.14154999999997 -50.236639999999994 L 165.88185999999996 -52.374742 L 165.88185999999996 -54.76146 L 164.09181999999996 -57.04873 L 162.50067999999996 -57.844304 Z " id="path7-456" inkscape:label="snowflake"></path>
      <path style="display: inline; fill: rgb(245, 247, 246); fill-opacity: 1; stroke-width: 0.150784; stroke: none; stroke-linejoin: miter; stroke-linecap: butt; stroke-miterlimit: 4; opacity: 1; filter: none;" d=" M 94.996352 -65.616667 L 91.714615 -64.423308 L 90.222917 -62.334931000000005 L 90.372087 -60.097382 L 91.91350899999999 -57.90955700000001 L 94.34994999999999 -57.064263000000004 L 97.731133 -57.90955700000001 L 99.471449 -60.04765900000001 L 99.471449 -62.43437700000001 L 97.68141000000001 -64.72164700000002 L 96.09026500000002 -65.51722100000002 Z " id="path7-43" inkscape:label="snowflake"></path>
    <animateTransform attributeName="transform" attributeType="auto" type="translate" values="0 0;0 1000" calcMode="spline" keyTimes="0; 1" keySplines="0 0 1 1" dur="10s" begin="0s" repeatCount="1" additive="sum" accumulate="none" id="animateTransform4907" style="stroke: none; stroke-width: 1px; stroke-linejoin: miter; stroke-linecap: butt; stroke-miterlimit: 4; opacity: 1; filter: none; fill: rgb(0, 0, 0);"></animateTransform></g>
  </g>
</svg>